<svg xmlns="http://www.w3.org/2000/svg" viewBox="0 0 124.78 94.98"><defs><style>.cls-1{fill:#f6c038;}.cls-2{fill:none;stroke:#fff;stroke-miterlimit:10;stroke-width:2px;}.cls-3{fill:#c61724;}.cls-4{fill:#f83c1b;}.cls-5{opacity:0.2;}.cls-6{fill:#f08f02;}.cls-7{fill:#ffe462;}.cls-8{fill:#fab13e;}</style></defs><title>gift9</title><g id="Слой_2" data-name="Слой 2"><g id="OBJECTS"><rect class="cls-1" x="6.25" y="10.34" width="111.69" height="74.19" transform="translate(10.64 -11.37) rotate(11.44)"/><path class="cls-2" d="M13.08,8c10.95,2.21,10.15,6.14,21.1,8.35s11.74-1.71,22.69.51S67,23,78,25.24s11.74-1.71,22.69.51,10.16,6.14,21.1,8.35"/><path class="cls-2" d="M10.31,21.77C21.25,24,20.46,27.9,31.41,30.12s11.74-1.71,22.69.51S64.25,36.76,75.2,39s11.74-1.71,22.69.51S108,45.62,119,47.83"/><path class="cls-2" d="M7.53,35.5c10.95,2.21,10.15,6.14,21.1,8.35s11.74-1.71,22.69.51,10.15,6.14,21.1,8.35,11.74-1.71,22.69.51,10.16,6.14,21.1,8.35"/><path class="cls-2" d="M4.75,49.24c10.95,2.21,10.15,6.14,21.1,8.35s11.74-1.71,22.69.51,10.15,6.14,21.1,8.35,11.74-1.71,22.69.51,10.16,6.14,21.1,8.35"/><path class="cls-2" d="M2,63c10.95,2.21,10.15,6.14,21.1,8.35s11.74-1.71,22.69.51S55.91,78,66.86,80.18s11.74-1.71,22.69.51,10.16,6.14,21.1,8.35"/><rect class="cls-3" x="6.16" y="41.86" width="111.69" height="11.95" transform="translate(10.72 -11.35) rotate(11.44)"/><rect class="cls-4" x="56.53" y="10.36" width="11.33" height="74.19" transform="translate(10.64 -11.39) rotate(11.44)"/><g class="cls-5"><path class="cls-6" d="M47,64A257.68,257.68,0,0,1,.82,71.75L.6,72.84l49.28,10L61,85.05,110.08,95l6.09-30.1,2.37-11.72,6.25-30.9-5.95-1.2C100.67,42.41,74.33,56.52,47,64Z"/></g><path class="cls-7" d="M62.48,45.51s-4.6-13.1-20.9-16.4C38,28.39,36,36,34.77,42.12c-1.82,9-2.54,16.33,1.69,17.18C58,63.65,62.48,45.51,62.48,45.51Z"/><path class="cls-7" d="M62.78,45.57s9.33-10.28,25.63-7c3.6.73,2.46,8.49,1.22,14.63-1.82,9-4,16-8.23,15.18C59.9,64,62.78,45.57,62.78,45.57Z"/><ellipse class="cls-8" cx="62.09" cy="47.43" rx="7.77" ry="5.87" transform="translate(3.29 98.89) rotate(-78.56)"/></g></g></svg>