<svg xmlns="http://www.w3.org/2000/svg" viewBox="0 0 88.11 125.5"><defs><style>.cls-1{fill:#1cb1e1;}.cls-2,.cls-6{fill:#0092d5;}.cls-3{fill:#fff;}.cls-4{fill:#f8b13f;}.cls-5{fill:#ffe462;}.cls-6{opacity:0.5;}.cls-7{opacity:0.2;}.cls-8{fill:#fab13e;}</style></defs><title>gift6</title><g id="Слой_2" data-name="Слой 2"><g id="OBJECTS"><rect class="cls-1" x="12.94" y="23.06" width="67.24" height="97.35" transform="translate(-11.75 9.17) rotate(-10)"/><rect class="cls-2" x="0.58" y="10.95" width="72.29" height="12.99" transform="translate(-2.47 6.64) rotate(-10)"/><polygon class="cls-3" points="37.47 107.71 35.98 106.89 35.05 108.31 34.76 106.64 33.08 106.8 34.2 105.53 33.03 104.32 34.72 104.4 34.94 102.73 35.92 104.1 37.37 103.23 36.91 104.86 38.5 105.45 36.94 106.1 37.47 107.71"/><polygon class="cls-3" points="27.42 96.34 25.93 95.53 25.01 96.94 24.72 95.27 23.03 95.43 24.15 94.17 22.98 92.94 24.67 93.03 24.89 91.36 25.88 92.73 27.33 91.86 26.86 93.49 28.45 94.08 26.89 94.73 27.42 96.34"/><polygon class="cls-3" points="31.84 121.4 30.35 120.58 29.42 122 29.13 120.33 27.45 120.49 28.57 119.22 27.4 118 29.09 118.09 29.31 116.41 30.29 117.79 31.74 116.92 31.28 118.55 32.87 119.13 31.31 119.79 31.84 121.4"/><polygon class="cls-3" points="48.34 118.49 46.86 117.67 45.93 119.09 45.64 117.42 43.95 117.58 45.08 116.31 43.9 115.09 45.59 115.18 45.81 113.5 46.8 114.88 48.25 114.01 47.79 115.64 49.37 116.22 47.81 116.88 48.34 118.49"/><polygon class="cls-3" points="43.62 93.48 42.13 92.67 41.2 94.08 40.91 92.42 39.23 92.58 40.35 91.31 39.18 90.09 40.87 90.18 41.09 88.5 42.08 89.88 43.52 89 43.06 90.63 44.65 91.22 43.09 91.88 43.62 93.48"/><polygon class="cls-3" points="33.02 82.47 31.53 81.66 30.6 83.07 30.32 81.41 28.63 81.56 29.75 80.3 28.58 79.08 30.27 79.17 30.49 77.49 31.48 78.87 32.92 77.99 32.46 79.62 34.05 80.21 32.49 80.86 33.02 82.47"/><polygon class="cls-3" points="19.37 84.88 17.88 84.06 16.95 85.48 16.66 83.81 14.98 83.97 16.1 82.7 14.93 81.48 16.62 81.57 16.84 79.9 17.82 81.27 19.27 80.4 18.81 82.03 20.4 82.62 18.84 83.27 19.37 84.88"/><polygon class="cls-3" points="23.82 110.11 22.33 109.3 21.4 110.72 21.11 109.05 19.43 109.21 20.55 107.94 19.38 106.72 21.07 106.81 21.29 105.13 22.27 106.51 23.72 105.64 23.26 107.26 24.85 107.85 23.29 108.51 23.82 110.11"/><polygon class="cls-3" points="37.47 107.71 35.98 106.89 35.05 108.31 34.76 106.64 33.08 106.8 34.2 105.53 33.03 104.32 34.72 104.4 34.94 102.73 35.92 104.1 37.37 103.23 36.91 104.86 38.5 105.45 36.94 106.1 37.47 107.71"/><polygon class="cls-3" points="18.6 46.33 17.12 45.52 16.19 46.93 15.9 45.27 14.21 45.42 15.34 44.16 14.16 42.94 15.86 43.03 16.08 41.35 17.06 42.73 18.51 41.85 18.05 43.48 19.64 44.07 18.07 44.72 18.6 46.33"/><polygon class="cls-3" points="23.02 71.39 21.54 70.58 20.61 71.99 20.32 70.32 18.63 70.48 19.76 69.22 18.58 68 20.27 68.08 20.49 66.41 21.48 67.78 22.93 66.91 22.46 68.54 24.05 69.13 22.49 69.78 23.02 71.39"/><polygon class="cls-3" points="39.52 68.48 38.04 67.67 37.11 69.08 36.82 67.41 35.14 67.57 36.26 66.31 35.09 65.09 36.78 65.17 37 63.5 37.98 64.87 39.43 64 38.97 65.63 40.56 66.22 39 66.87 39.52 68.48"/><polygon class="cls-3" points="34.8 43.48 33.32 42.66 32.39 44.08 32.1 42.41 30.41 42.57 31.54 41.3 30.36 40.08 32.05 40.17 32.27 38.49 33.26 39.87 34.71 39 34.25 40.62 35.83 41.21 34.27 41.87 34.8 43.48"/><polygon class="cls-3" points="24.2 32.46 22.72 31.65 21.79 33.07 21.5 31.4 19.81 31.56 20.94 30.29 19.76 29.07 21.45 29.16 21.67 27.48 22.66 28.86 24.11 27.98 23.65 29.61 25.23 30.2 23.67 30.86 24.2 32.46"/><polygon class="cls-3" points="10.55 34.87 9.07 34.06 8.14 35.47 7.85 33.8 6.16 33.96 7.29 32.7 6.11 31.48 7.8 31.57 8.02 29.89 9.01 31.27 10.46 30.39 10 32.02 11.58 32.61 10.02 33.26 10.55 34.87"/><polygon class="cls-3" points="15 60.11 13.52 59.29 12.59 60.71 12.3 59.04 10.61 59.2 11.73 57.93 10.56 56.72 12.25 56.8 12.47 55.13 13.46 56.5 14.91 55.63 14.45 57.26 16.03 57.85 14.47 58.5 15 60.11"/><polygon class="cls-3" points="28.65 57.7 27.16 56.89 26.24 58.3 25.95 56.64 24.26 56.79 25.39 55.53 24.21 54.31 25.9 54.4 26.12 52.72 27.11 54.09 28.56 53.22 28.09 54.85 29.68 55.44 28.12 56.09 28.65 57.7"/><polygon class="cls-3" points="63.47 38.42 64.59 37.15 65.94 38.16 65.65 36.5 67.28 36.07 65.8 35.26 66.48 33.72 64.92 34.38 64.14 32.88 63.69 34.51 62.03 34.18 63.02 35.55 61.73 36.65 63.42 36.73 63.47 38.42"/><polygon class="cls-3" points="67.89 63.48 69.01 62.21 70.36 63.22 70.06 61.55 71.7 61.13 70.21 60.32 70.9 58.77 69.34 59.43 68.56 57.93 68.11 59.56 66.44 59.24 67.44 60.61 66.15 61.71 67.84 61.79 67.89 63.48"/><polygon class="cls-3" points="51.38 66.39 52.5 65.12 53.86 66.13 53.56 64.46 55.2 64.03 53.71 63.23 54.4 61.68 52.84 62.34 52.05 60.84 51.6 62.47 49.94 62.15 50.93 63.52 49.64 64.62 51.33 64.7 51.38 66.39"/><polygon class="cls-3" points="47.27 41.28 48.39 40 49.75 41.02 49.45 39.35 51.09 38.92 49.6 38.12 50.28 36.57 48.73 37.23 47.94 35.73 47.49 37.36 45.83 37.04 46.82 38.41 45.53 39.5 47.22 39.58 47.27 41.28"/><polygon class="cls-3" points="53.47 27.3 54.59 26.03 55.94 27.05 55.65 25.38 57.28 24.95 55.79 24.14 56.48 22.6 54.92 23.26 54.14 21.76 53.69 23.39 52.02 23.06 53.02 24.44 51.73 25.53 53.42 25.61 53.47 27.3"/><polygon class="cls-3" points="67.97 24.75 69.09 23.48 70.45 24.49 70.15 22.82 71.79 22.39 70.3 21.59 70.98 20.04 69.42 20.7 68.64 19.2 68.19 20.83 66.53 20.51 67.52 21.88 66.23 22.98 67.92 23.06 67.97 24.75"/><polygon class="cls-3" points="72.42 49.98 73.54 48.71 74.89 49.73 74.6 48.06 76.23 47.63 74.75 46.83 75.43 45.28 73.87 45.94 73.09 44.44 72.64 46.07 70.98 45.74 71.97 47.12 70.68 48.21 72.37 48.29 72.42 49.98"/><polygon class="cls-3" points="57.92 52.54 59.04 51.27 60.39 52.28 60.09 50.62 61.73 50.19 60.24 49.38 60.93 47.84 59.37 48.5 58.59 46.99 58.13 48.63 56.47 48.3 57.47 49.67 56.17 50.77 57.87 50.85 57.92 52.54"/><polygon class="cls-3" points="72.29 88.43 73.41 87.16 74.76 88.17 74.46 86.5 76.1 86.08 74.61 85.27 75.3 83.72 73.74 84.38 72.96 82.88 72.5 84.51 70.84 84.19 71.83 85.56 70.55 86.66 72.24 86.74 72.29 88.43"/><polygon class="cls-3" points="76.71 113.48 77.82 112.21 79.18 113.23 78.88 111.56 80.52 111.13 79.03 110.33 79.72 108.78 78.16 109.44 77.38 107.94 76.92 109.57 75.26 109.25 76.25 110.62 74.96 111.71 76.65 111.79 76.71 113.48"/><polygon class="cls-3" points="60.2 116.39 61.32 115.12 62.67 116.14 62.38 114.47 64.01 114.04 62.52 113.24 63.21 111.69 61.65 112.35 60.87 110.85 60.42 112.48 58.76 112.16 59.75 113.53 58.46 114.62 60.15 114.7 60.2 116.39"/><polygon class="cls-3" points="56.09 91.28 57.21 90.01 58.56 91.03 58.27 89.36 59.9 88.93 58.41 88.13 59.1 86.58 57.54 87.24 56.76 85.74 56.31 87.37 54.65 87.04 55.64 88.42 54.35 89.51 56.04 89.59 56.09 91.28"/><polygon class="cls-3" points="62.29 77.31 63.4 76.04 64.76 77.05 64.46 75.39 66.1 74.96 64.61 74.15 65.3 72.61 63.74 73.27 62.96 71.77 62.5 73.4 60.84 73.07 61.83 74.44 60.54 75.54 62.23 75.62 62.29 77.31"/><polygon class="cls-3" points="76.79 74.75 77.91 73.48 79.26 74.5 78.96 72.83 80.6 72.4 79.11 71.6 79.8 70.05 78.24 70.71 77.46 69.21 77 70.84 75.34 70.52 76.33 71.89 75.05 72.98 76.74 73.06 76.79 74.75"/><polygon class="cls-3" points="81.24 99.99 82.36 98.72 83.71 99.73 83.41 98.07 85.05 97.64 83.56 96.83 84.25 95.29 82.69 95.95 81.91 94.45 81.45 96.08 79.79 95.75 80.78 97.12 79.5 98.22 81.19 98.3 81.24 99.99"/><polygon class="cls-3" points="66.73 102.55 67.85 101.28 69.21 102.29 68.91 100.62 70.55 100.2 69.06 99.39 69.75 97.84 68.19 98.5 67.41 97 66.95 98.63 65.29 98.31 66.28 99.68 64.99 100.78 66.68 100.86 66.73 102.55"/><rect class="cls-4" x="41.61" y="23.11" width="9.28" height="97.35" transform="translate(-11.76 9.12) rotate(-10)"/><rect class="cls-5" x="12.51" y="64.55" width="67.24" height="9.49" transform="translate(-11.33 9.06) rotate(-10)"/><rect class="cls-6" x="4.82" y="23.77" width="67.24" height="3.87" transform="translate(-3.88 7.06) rotate(-10)"/><g class="cls-7"><path class="cls-1" d="M49.77,78.62a132.45,132.45,0,0,1-31.1,28.6L21.9,125.5l66.22-11.67L73.49,30.89A132.83,132.83,0,0,1,49.77,78.62Z"/></g><path class="cls-5" d="M36.1,16S27,5.44,10.66,8.33C7,9,8,16.76,9.07,22.93c1.59,9,3.6,16.13,7.85,15.38C38.52,34.5,36.1,16,36.1,16Z"/><path class="cls-5" d="M36.4,15.91S41.33,2.92,57.7,0c3.61-.64,5.39,7,6.48,13.17,1.59,9,2.13,16.39-2.12,17.13C40.47,34.15,36.4,15.91,36.4,15.91Z"/><ellipse class="cls-8" cx="36.44" cy="17.89" rx="5.87" ry="7.77" transform="translate(-2.55 6.6) rotate(-10)"/></g></g></svg>