<svg xmlns="http://www.w3.org/2000/svg" viewBox="0 0 97 112.06"><defs><style>.cls-1{fill:#f12100;}.cls-2{fill:#e51803;}.cls-3{fill:#088ec9;}.cls-4{fill:#19b1e0;}.cls-5{opacity:0.2;}.cls-6{fill:#e21803;}</style></defs><title>gift3</title><g id="Слой_2" data-name="Слой 2"><g id="OBJECTS"><path class="cls-1" d="M18.57,19.78S-7,73.77,2.3,88.85c10.59,17.12,62.46,30.8,78.36,18.46,14-10.87,16.27-69.07,16.27-69.07Z"/><ellipse class="cls-2" cx="57.75" cy="29.01" rx="9.76" ry="40.25" transform="translate(16.27 78.57) rotate(-76.74)"/><path class="cls-3" d="M28.94,29.43l12.84,5.2-16.49,70A82.66,82.66,0,0,1,12.7,98.35Z"/><polygon class="cls-4" points="55.58 33.3 41.78 34.63 28.94 29.43 57.51 25.08 55.58 33.3"/><path class="cls-3" d="M81.14,41.73,67.32,40.64,50.68,111.28a73.17,73.17,0,0,0,13.9.71Z"/><polygon class="cls-4" points="55.58 33.3 67.33 40.64 81.14 41.73 57.51 25.08 55.58 33.3"/><path class="cls-4" d="M56.19,25S55.74,9.85,42.7,1.91C39.13-.27,34-2.47,26.72,6.82c-12.36,15.81,5.39,21.6,9,21.52C40.91,28.24,56.19,25,56.19,25Z"/><path class="cls-3" d="M24.69,16.53c1.53-3.27,11.07-1.21,14.44.09s10.76,9.66,10.76,9.66-13.55,1-17.49-.87C29.76,24.13,23.45,19.2,24.69,16.53Z"/><path class="cls-4" d="M58.71,25.64S65.89,12.24,81.11,11c4.16-.35,9.75,0,12.1,11.53,4,19.66-14.47,16.92-17.67,15.24C71,35.31,58.71,25.64,58.71,25.64Z"/><path class="cls-3" d="M90.69,32.08c.09-3.61-9.36-6-13-6.36S63.8,29.56,63.8,29.56s11.66,7,16,7C82.77,36.62,90.62,35,90.69,32.08Z"/><ellipse class="cls-3" cx="57.47" cy="26.75" rx="6.54" ry="5.55" transform="translate(18.26 76.55) rotate(-76.74)"/><g class="cls-5"><path class="cls-6" d="M96.61,39.59C85,57.4,65.92,69.94,45.36,75.74,30.65,79.89,15.26,80.82,0,79.53c0,3.77.62,7,2,9.26,10.59,17.12,62.46,30.8,78.36,18.46C93.13,97.38,96.16,48.51,96.61,39.59Z"/></g></g></g></svg>