<svg xmlns="http://www.w3.org/2000/svg" viewBox="0 0 147.97 74.73"><defs><style>.cls-1{fill:#f7fff8;}.cls-2{fill:#58a948;}.cls-3{fill:#c61724;}.cls-4{fill:#f83c1b;}.cls-5{fill:#ce191a;}.cls-6{fill:#53ab45;}.cls-7{fill:#d4181f;}.cls-10,.cls-8{fill:#208a28;}.cls-8{opacity:0.5;}.cls-9{opacity:0.2;}</style></defs><title>gift2</title><g id="Слой_2" data-name="Слой 2"><g id="OBJECTS"><rect class="cls-1" x="1.35" y="34.05" width="141.44" height="33.52" transform="translate(5.59 -7.12) rotate(5.88)"/><rect class="cls-2" x="1.86" y="19.14" width="145.72" height="15.06" transform="translate(3.13 -7.52) rotate(5.88)"/><rect class="cls-3" x="69.77" y="19.16" width="10.44" height="15.06" transform="translate(3.13 -7.55) rotate(5.88)"/><path class="cls-4" d="M76.12,13.05S70.78,1.57,55.7,0c-3.33-.34-4.45,6.72-5,12.41-.86,8.31-.87,15,3,15.45C73.61,29.92,76.12,13.05,76.12,13.05Z"/><path class="cls-4" d="M76.39,13.08S84,2.92,99,4.48c3.33.34,3,7.49,2.4,13.17-.86,8.31-2.22,14.91-6.13,14.5C75.41,30.1,76.39,13.08,76.39,13.08Z"/><ellipse class="cls-5" cx="75.94" cy="14.83" rx="7.09" ry="5.36" transform="translate(53.4 88.85) rotate(-84.12)"/><rect class="cls-6" x="72.24" y="-34.39" width="2.64" height="141.44" transform="translate(29.87 105.77) rotate(-84.12)"/><rect class="cls-6" x="71.31" y="-25.41" width="2.64" height="141.44" transform="translate(20.12 112.91) rotate(-84.12)"/><rect class="cls-6" x="70.39" y="-16.44" width="2.64" height="141.44" transform="translate(10.36 120.04) rotate(-84.12)"/><rect class="cls-6" x="69.46" y="-7.46" width="2.64" height="141.44" transform="translate(0.6 127.18) rotate(-84.12)"/><rect class="cls-7" x="67.28" y="34.09" width="10.44" height="33.52" transform="translate(5.59 -7.16) rotate(5.88)"/><rect class="cls-8" x="2.88" y="34.13" width="141.44" height="3.53" transform="translate(4.07 -7.36) rotate(5.88)"/><g class="cls-9"><path class="cls-10" d="M144.13,41.38l-4.54-.47c-9.88,7.5-21.52,12.61-33.53,15.88C92.11,60.59,77.63,62,63.2,63c-8.5.56-17,.91-25.51,1.12l103,10.61Z"/></g></g></g></svg>