<svg xmlns="http://www.w3.org/2000/svg" viewBox="0 0 92.35 120.81"><defs><style>.cls-1{fill:#f6c038;}.cls-2{fill:#f83c1b;}.cls-3{fill:#c61724;}.cls-4{fill:#f08f02;opacity:0.2;}</style></defs><title>gift5</title><g id="Слой_2" data-name="Слой 2"><g id="OBJECTS"><rect class="cls-1" x="7.43" y="4.9" width="77.49" height="111.01" transform="matrix(0.99, 0.14, -0.14, 0.99, 8.97, -5.9)"/><rect class="cls-2" x="37.69" y="4.4" width="9.89" height="111.01" transform="translate(8.86 -5.41) rotate(8.1)"/><rect class="cls-3" x="10.62" y="33.57" width="77.49" height="8.79" transform="translate(5.84 -6.57) rotate(8.1)"/><polygon class="cls-4" points="86.09 10.02 71.35 113.67 0.89 103.64 0 109.9 70.46 119.92 76.71 120.81 77.6 114.56 92.35 10.91 86.09 10.02"/><polygon class="cls-3" points="45.09 42.63 22.41 65 23.09 55.38 13.52 56.31 40.92 34.4 45.09 42.63"/><polygon class="cls-3" points="44.69 42.57 60.23 70.38 62.26 60.96 71.19 64.52 50.99 35.83 44.69 42.57"/><path class="cls-2" d="M44.63,36.68S42.82,21.59,29.12,14.85c-3.75-1.84-9.07-3.58-15.47,6.33C2.75,38,21,42.21,24.55,41.81,29.7,41.23,44.63,36.68,44.63,36.68Z"/><path class="cls-3" d="M12.5,31c1.23-3.39,10.92-2.2,14.39-1.21s11.59,8.65,11.59,8.65-13.4,2.26-17.5.7C18.22,38.15,11.5,33.8,12.5,31Z"/><path class="cls-2" d="M47.2,37s5.95-14,21-16.64c4.12-.72,9.7-.91,13.09,10.4C87,50,68.39,49,65,47.57,60.26,45.58,47.2,37,47.2,37Z"/><path class="cls-3" d="M79.63,40.59c-.23-3.6-9.87-5.16-13.48-5.17S52.61,40.5,52.61,40.5s12.24,5.91,16.61,5.56C72.15,45.82,79.82,43.52,79.63,40.59Z"/><ellipse class="cls-3" cx="46.06" cy="38.26" rx="6.54" ry="5.55" transform="matrix(0.14, -0.99, 0.99, 0.14, 1.69, 78.47)"/></g></g></svg>