<svg xmlns="http://www.w3.org/2000/svg" xmlns:xlink="http://www.w3.org/1999/xlink" viewBox="0 0 126.21 71.64"><defs><style>.cls-1{fill:none;}.cls-2{fill:#58a948;}.cls-3{clip-path:url(#clip-path);}.cls-4{fill:#53ab45;}.cls-5{fill:#f83c1b;}.cls-6{fill:#d11c32;}.cls-7{fill:#fff;}.cls-10,.cls-8{fill:#208a28;}.cls-8{opacity:0.5;}.cls-9{opacity:0.2;}</style><clipPath id="clip-path"><polygon class="cls-1" points="3.33 14.42 122.22 14.42 115.12 71.64 10.2 71.64 3.33 14.42"/></clipPath></defs><title>gift8</title><g id="Слой_2" data-name="Слой 2"><g id="OBJECTS"><rect class="cls-2" width="126.21" height="14.42"/><g class="cls-3"><polygon class="cls-4" points="3.33 14.42 122.22 14.42 115.12 71.64 10.2 71.64 3.33 14.42"/><rect class="cls-5" x="57.45" y="14.42" width="10.42" height="57.23"/><rect class="cls-6" x="5.41" y="36.82" width="114.66" height="10.23"/><polygon class="cls-7" points="9.94 16.8 10.78 18.51 12.67 18.78 11.3 20.11 11.63 21.99 9.94 21.11 8.25 21.99 8.57 20.11 7.21 18.78 9.09 18.51 9.94 16.8"/><polygon class="cls-7" points="20.36 16.8 21.21 18.51 23.09 18.78 21.73 20.11 22.05 21.99 20.36 21.11 18.68 21.99 19 20.11 17.63 18.78 19.52 18.51 20.36 16.8"/><polygon class="cls-7" points="30.79 16.8 31.63 18.51 33.52 18.78 32.15 20.11 32.48 21.99 30.79 21.11 29.1 21.99 29.42 20.11 28.06 18.78 29.94 18.51 30.79 16.8"/><polygon class="cls-7" points="41.21 16.8 42.06 18.51 43.95 18.78 42.58 20.11 42.9 21.99 41.21 21.11 39.52 21.99 39.85 20.11 38.48 18.78 40.37 18.51 41.21 16.8"/><polygon class="cls-7" points="51.64 16.8 52.48 18.51 54.37 18.78 53 20.11 53.33 21.99 51.64 21.11 49.95 21.99 50.27 20.11 48.91 18.78 50.79 18.51 51.64 16.8"/><polygon class="cls-7" points="9.94 27.66 10.78 29.38 12.67 29.65 11.3 30.98 11.63 32.86 9.94 31.97 8.25 32.86 8.57 30.98 7.21 29.65 9.09 29.38 9.94 27.66"/><polygon class="cls-7" points="20.36 27.66 21.21 29.38 23.09 29.65 21.73 30.98 22.05 32.86 20.36 31.97 18.68 32.86 19 30.98 17.63 29.65 19.52 29.38 20.36 27.66"/><polygon class="cls-7" points="30.79 27.66 31.63 29.38 33.52 29.65 32.15 30.98 32.48 32.86 30.79 31.97 29.1 32.86 29.42 30.98 28.06 29.65 29.94 29.38 30.79 27.66"/><polygon class="cls-7" points="41.21 27.66 42.06 29.38 43.95 29.65 42.58 30.98 42.9 32.86 41.21 31.97 39.52 32.86 39.85 30.98 38.48 29.65 40.37 29.38 41.21 27.66"/><polygon class="cls-7" points="51.64 27.66 52.48 29.38 54.37 29.65 53 30.98 53.33 32.86 51.64 31.97 49.95 32.86 50.27 30.98 48.91 29.65 50.79 29.38 51.64 27.66"/><polygon class="cls-7" points="14.9 22.47 15.74 24.18 17.63 24.45 16.27 25.78 16.59 27.66 14.9 26.78 13.21 27.66 13.53 25.78 12.17 24.45 14.05 24.18 14.9 22.47"/><polygon class="cls-7" points="25.83 22.47 26.67 24.18 28.56 24.45 27.19 25.78 27.52 27.66 25.83 26.78 24.14 27.66 24.46 25.78 23.09 24.45 24.98 24.18 25.83 22.47"/><polygon class="cls-7" points="36.25 22.47 37.1 24.18 38.98 24.45 37.62 25.78 37.94 27.66 36.25 26.78 34.56 27.66 34.89 25.78 33.52 24.45 35.41 24.18 36.25 22.47"/><polygon class="cls-7" points="46.68 22.47 47.52 24.18 49.41 24.45 48.04 25.78 48.37 27.66 46.68 26.78 44.99 27.66 45.31 25.78 43.95 24.45 45.83 24.18 46.68 22.47"/><polygon class="cls-7" points="9.94 51 10.78 52.71 12.67 52.98 11.3 54.31 11.63 56.2 9.94 55.31 8.25 56.2 8.57 54.31 7.21 52.98 9.09 52.71 9.94 51"/><polygon class="cls-7" points="20.36 51 21.21 52.71 23.09 52.98 21.73 54.31 22.05 56.2 20.36 55.31 18.68 56.2 19 54.31 17.63 52.98 19.52 52.71 20.36 51"/><polygon class="cls-7" points="30.79 51 31.63 52.71 33.52 52.98 32.15 54.31 32.48 56.2 30.79 55.31 29.1 56.2 29.42 54.31 28.06 52.98 29.94 52.71 30.79 51"/><polygon class="cls-7" points="41.21 51 42.06 52.71 43.95 52.98 42.58 54.31 42.9 56.2 41.21 55.31 39.52 56.2 39.85 54.31 38.48 52.98 40.37 52.71 41.21 51"/><polygon class="cls-7" points="51.64 51 52.48 52.71 54.37 52.98 53 54.31 53.33 56.2 51.64 55.31 49.95 56.2 50.27 54.31 48.91 52.98 50.79 52.71 51.64 51"/><polygon class="cls-7" points="9.94 61.87 10.78 63.58 12.67 63.85 11.3 65.18 11.63 67.06 9.94 66.18 8.25 67.06 8.57 65.18 7.21 63.85 9.09 63.58 9.94 61.87"/><polygon class="cls-7" points="20.36 61.87 21.21 63.58 23.09 63.85 21.73 65.18 22.05 67.06 20.36 66.18 18.68 67.06 19 65.18 17.63 63.85 19.52 63.58 20.36 61.87"/><polygon class="cls-7" points="30.79 61.87 31.63 63.58 33.52 63.85 32.15 65.18 32.48 67.06 30.79 66.18 29.1 67.06 29.42 65.18 28.06 63.85 29.94 63.58 30.79 61.87"/><polygon class="cls-7" points="41.21 61.87 42.06 63.58 43.95 63.85 42.58 65.18 42.9 67.06 41.21 66.18 39.52 67.06 39.85 65.18 38.48 63.85 40.37 63.58 41.21 61.87"/><polygon class="cls-7" points="51.64 61.87 52.48 63.58 54.37 63.85 53 65.18 53.33 67.06 51.64 66.18 49.95 67.06 50.27 65.18 48.91 63.85 50.79 63.58 51.64 61.87"/><polygon class="cls-7" points="14.9 56.67 15.74 58.38 17.63 58.65 16.27 59.99 16.59 61.87 14.9 60.98 13.21 61.87 13.53 59.99 12.17 58.65 14.05 58.38 14.9 56.67"/><polygon class="cls-7" points="25.83 56.67 26.67 58.38 28.56 58.65 27.19 59.99 27.52 61.87 25.83 60.98 24.14 61.87 24.46 59.99 23.09 58.65 24.98 58.38 25.83 56.67"/><polygon class="cls-7" points="36.25 56.67 37.1 58.38 38.98 58.65 37.62 59.99 37.94 61.87 36.25 60.98 34.56 61.87 34.89 59.99 33.52 58.65 35.41 58.38 36.25 56.67"/><polygon class="cls-7" points="46.68 56.67 47.52 58.38 49.41 58.65 48.04 59.99 48.37 61.87 46.68 60.98 44.99 61.87 45.31 59.99 43.95 58.65 45.83 58.38 46.68 56.67"/><polygon class="cls-7" points="73.04 16.8 73.89 18.51 75.77 18.78 74.41 20.11 74.73 21.99 73.04 21.11 71.35 21.99 71.68 20.11 70.31 18.78 72.2 18.51 73.04 16.8"/><polygon class="cls-7" points="83.47 16.8 84.31 18.51 86.2 18.78 84.83 20.11 85.16 21.99 83.47 21.11 81.78 21.99 82.1 20.11 80.73 18.78 82.62 18.51 83.47 16.8"/><polygon class="cls-7" points="93.89 16.8 94.74 18.51 96.62 18.78 95.26 20.11 95.58 21.99 93.89 21.11 92.2 21.99 92.53 20.11 91.16 18.78 93.05 18.51 93.89 16.8"/><polygon class="cls-7" points="104.32 16.8 105.16 18.51 107.05 18.78 105.68 20.11 106 21.99 104.32 21.11 102.63 21.99 102.95 20.11 101.58 18.78 103.47 18.51 104.32 16.8"/><polygon class="cls-7" points="114.74 16.8 115.58 18.51 117.47 18.78 116.11 20.11 116.43 21.99 114.74 21.11 113.05 21.99 113.38 20.11 112.01 18.78 113.9 18.51 114.74 16.8"/><polygon class="cls-7" points="73.04 27.66 73.89 29.38 75.77 29.65 74.41 30.98 74.73 32.86 73.04 31.97 71.35 32.86 71.68 30.98 70.31 29.65 72.2 29.38 73.04 27.66"/><polygon class="cls-7" points="83.47 27.66 84.31 29.38 86.2 29.65 84.83 30.98 85.16 32.86 83.47 31.97 81.78 32.86 82.1 30.98 80.73 29.65 82.62 29.38 83.47 27.66"/><polygon class="cls-7" points="93.89 27.66 94.74 29.38 96.62 29.65 95.26 30.98 95.58 32.86 93.89 31.97 92.2 32.86 92.53 30.98 91.16 29.65 93.05 29.38 93.89 27.66"/><polygon class="cls-7" points="104.32 27.66 105.16 29.38 107.05 29.65 105.68 30.98 106 32.86 104.32 31.97 102.63 32.86 102.95 30.98 101.58 29.65 103.47 29.38 104.32 27.66"/><polygon class="cls-7" points="114.74 27.66 115.58 29.38 117.47 29.65 116.11 30.98 116.43 32.86 114.74 31.97 113.05 32.86 113.38 30.98 112.01 29.65 113.9 29.38 114.74 27.66"/><polygon class="cls-7" points="78 22.47 78.85 24.18 80.73 24.45 79.37 25.78 79.69 27.66 78 26.78 76.31 27.66 76.64 25.78 75.27 24.45 77.16 24.18 78 22.47"/><polygon class="cls-7" points="88.93 22.47 89.78 24.18 91.66 24.45 90.3 25.78 90.62 27.66 88.93 26.78 87.24 27.66 87.56 25.78 86.2 24.45 88.09 24.18 88.93 22.47"/><polygon class="cls-7" points="99.36 22.47 100.2 24.18 102.09 24.45 100.72 25.78 101.05 27.66 99.36 26.78 97.67 27.66 97.99 25.78 96.62 24.45 98.51 24.18 99.36 22.47"/><polygon class="cls-7" points="109.78 22.47 110.63 24.18 112.51 24.45 111.15 25.78 111.47 27.66 109.78 26.78 108.09 27.66 108.42 25.78 107.05 24.45 108.94 24.18 109.78 22.47"/><polygon class="cls-7" points="73.04 51 73.89 52.71 75.77 52.98 74.41 54.31 74.73 56.2 73.04 55.31 71.35 56.2 71.68 54.31 70.31 52.98 72.2 52.71 73.04 51"/><polygon class="cls-7" points="83.47 51 84.31 52.71 86.2 52.98 84.83 54.31 85.16 56.2 83.47 55.31 81.78 56.2 82.1 54.31 80.73 52.98 82.62 52.71 83.47 51"/><polygon class="cls-7" points="93.89 51 94.74 52.71 96.62 52.98 95.26 54.31 95.58 56.2 93.89 55.31 92.2 56.2 92.53 54.31 91.16 52.98 93.05 52.71 93.89 51"/><polygon class="cls-7" points="104.32 51 105.16 52.71 107.05 52.98 105.68 54.31 106 56.2 104.32 55.31 102.63 56.2 102.95 54.31 101.58 52.98 103.47 52.71 104.32 51"/><polygon class="cls-7" points="114.74 51 115.58 52.71 117.47 52.98 116.11 54.31 116.43 56.2 114.74 55.31 113.05 56.2 113.38 54.31 112.01 52.98 113.9 52.71 114.74 51"/><polygon class="cls-7" points="73.04 61.87 73.89 63.58 75.77 63.85 74.41 65.18 74.73 67.06 73.04 66.18 71.35 67.06 71.68 65.18 70.31 63.85 72.2 63.58 73.04 61.87"/><polygon class="cls-7" points="83.47 61.87 84.31 63.58 86.2 63.85 84.83 65.18 85.16 67.06 83.47 66.18 81.78 67.06 82.1 65.18 80.73 63.85 82.62 63.58 83.47 61.87"/><polygon class="cls-7" points="93.89 61.87 94.74 63.58 96.62 63.85 95.26 65.18 95.58 67.06 93.89 66.18 92.2 67.06 92.53 65.18 91.16 63.85 93.05 63.58 93.89 61.87"/><polygon class="cls-7" points="104.32 61.87 105.16 63.58 107.05 63.85 105.68 65.18 106 67.06 104.32 66.18 102.63 67.06 102.95 65.18 101.58 63.85 103.47 63.58 104.32 61.87"/><polygon class="cls-7" points="114.74 61.87 115.58 63.58 117.47 63.85 116.11 65.18 116.43 67.06 114.74 66.18 113.05 67.06 113.38 65.18 112.01 63.85 113.9 63.58 114.74 61.87"/><polygon class="cls-7" points="78 56.67 78.85 58.38 80.73 58.65 79.37 59.99 79.69 61.87 78 60.98 76.31 61.87 76.64 59.99 75.27 58.65 77.16 58.38 78 56.67"/><polygon class="cls-7" points="88.93 56.67 89.78 58.38 91.66 58.65 90.3 59.99 90.62 61.87 88.93 60.98 87.24 61.87 87.56 59.99 86.2 58.65 88.09 58.38 88.93 56.67"/><polygon class="cls-7" points="99.36 56.67 100.2 58.38 102.09 58.65 100.72 59.99 101.05 61.87 99.36 60.98 97.67 61.87 97.99 59.99 96.62 58.65 98.51 58.38 99.36 56.67"/><polygon class="cls-7" points="109.78 56.67 110.63 58.38 112.51 58.65 111.15 59.99 111.47 61.87 109.78 60.98 108.09 61.87 108.42 59.99 107.05 58.65 108.94 58.38 109.78 56.67"/></g><polygon class="cls-8" points="121.8 17.78 3.73 17.78 3.33 14.42 122.22 14.42 121.8 17.78"/><g class="cls-9"><path class="cls-10" d="M122.21,14.42h-4C108.66,33,92,47.59,73.22,56.88,56.65,65.07,38.49,69.44,20.07,71.64h95Z"/></g></g></g></svg>