<svg xmlns="http://www.w3.org/2000/svg" viewBox="0 0 117.4 114.01"><defs><style>.cls-1{fill:#0092d5;}.cls-2{fill:#1cb1e1;}.cls-3{fill:#0293d2;}.cls-4{fill:#ffe462;}.cls-5{fill:#f8b13f;}.cls-6{fill:#fab13e;}.cls-7{fill:#fee662;}.cls-8{opacity:0.2;}.cls-9{fill:#0482ad;}</style></defs><title>gift1</title><g id="Слой_2" data-name="Слой 2"><g id="OBJECTS"><polygon class="cls-1" points="44.75 13.86 0 44.13 54.55 47.29 99.32 16.98 44.75 13.86"/><polygon class="cls-2" points="0 44.13 17.92 110.27 71.88 114.01 54.55 47.29 0 44.13"/><polygon class="cls-3" points="99.32 16.98 117.4 83.05 71.88 114.01 54.59 47.31 99.32 16.98"/><polygon class="cls-4" points="53.91 112.76 35.88 46.21 17.34 45.13 35.31 111.47 53.91 112.76"/><polygon class="cls-5" points="102.63 93.1 84.69 26.89 69.76 37.02 87.7 103.25 102.63 93.1"/><polygon class="cls-6" points="17.57 45.07 36.11 46.14 51.28 36.1 48.41 25.5 17.57 45.07"/><polygon class="cls-6" points="48.52 25.43 48.41 25.5 51.28 36.1 51.7 35.83 69.99 36.96 84.92 26.82 48.52 25.43"/><ellipse class="cls-7" cx="10.49" cy="62.61" rx="1.44" ry="4.26" transform="translate(-16.01 4.92) rotate(-15.16)"/><ellipse class="cls-7" cx="22.33" cy="82.76" rx="1.44" ry="4.26" transform="translate(-20.86 8.72) rotate(-15.16)"/><ellipse class="cls-7" cx="21.25" cy="102.33" rx="1.44" ry="4.26" transform="translate(-26.02 9.12) rotate(-15.16)"/><ellipse class="cls-7" cx="45.15" cy="59.81" rx="1.44" ry="4.26" transform="translate(-14.07 13.89) rotate(-15.16)"/><ellipse class="cls-7" cx="56.31" cy="77.76" rx="1.44" ry="4.26" transform="translate(-18.37 17.43) rotate(-15.16)"/><ellipse class="cls-7" cx="56.21" cy="100.62" rx="1.44" ry="4.26" transform="translate(-24.36 18.2) rotate(-15.16)"/><ellipse class="cls-5" cx="61.68" cy="54.81" rx="1.1" ry="3.76" transform="translate(-12.19 18.04) rotate(-15.16)"/><ellipse class="cls-5" cx="73.71" cy="71.38" rx="0.96" ry="3.85" transform="translate(-16.1 21.76) rotate(-15.16)"/><ellipse class="cls-5" cx="74.99" cy="95.81" rx="1.03" ry="3.99" transform="translate(-22.44 22.94) rotate(-15.16)"/><ellipse class="cls-5" cx="90.61" cy="35" rx="0.96" ry="3.5" transform="translate(-6 24.91) rotate(-15.16)"/><ellipse class="cls-5" cx="104.37" cy="52.15" rx="0.82" ry="3.83" transform="translate(-10 29.11) rotate(-15.16)"/><ellipse class="cls-5" cx="102.09" cy="73.66" rx="0.96" ry="4.67" transform="matrix(0.97, -0.26, 0.26, 0.97, -15.71, 29.26)"/><g class="cls-8"><path class="cls-9" d="M117.4,83,99.32,17l-4,2.68a81.26,81.26,0,0,1-2.07,52.42A81.14,81.14,0,0,1,69.5,104.82L71.88,114Z"/></g><path class="cls-7" d="M46.95,26.35S39.33,13.19,24.07,12.41c-4.17-.21-9.74.29-11.71,11.93C9,44.13,27.38,40.77,30.52,39,35,36.42,46.95,26.35,46.95,26.35Z"/><path class="cls-5" d="M15.2,33.85c-.21-3.6,9.16-6.33,12.74-6.79S42,30.44,42,30.44,30.57,37.81,26.2,38C23.26,38.12,15.37,36.79,15.2,33.85Z"/><path class="cls-7" d="M49.45,25.67S49.39,10.47,62.16,2.1c3.5-2.29,8.56-4.67,16.13,4.38C91.17,21.86,73.62,28.24,70,28.29,64.82,28.35,49.45,25.67,49.45,25.67Z"/><path class="cls-5" d="M80.65,16.12c-1.63-3.22-11.1-.84-14.42.57s-10.43,10-10.43,10,13.58.59,17.45-1.45C75.84,23.88,82,18.74,80.65,16.12Z"/><ellipse class="cls-7" cx="48.88" cy="27.23" rx="5.55" ry="6.54" transform="translate(-5.42 13.73) rotate(-15.16)"/></g></g></svg>