<svg xmlns="http://www.w3.org/2000/svg" viewBox="0 0 104.7 137.17"><defs><style>.cls-1{fill:#f8b13f;}.cls-2{fill:#ffe462;}.cls-3{fill:#1cb1e1;}.cls-4{fill:none;}.cls-5,.cls-7{opacity:0.2;}.cls-6,.cls-7{fill:#0482ad;}.cls-8{fill:#19b1e0;}.cls-9{fill:#088ec9;}</style></defs><title>gift7</title><g id="Слой_2" data-name="Слой 2"><g id="OBJECTS"><rect class="cls-1" x="0.55" y="19.86" width="88.41" height="14.22" transform="translate(-4.31 8.98) rotate(-10.94)"/><rect class="cls-2" x="14.63" y="33.05" width="81.47" height="96.54" transform="translate(-14.43 11.99) rotate(-10.94)"/><rect class="cls-3" x="15.3" y="40.09" width="7.28" height="96.54" transform="translate(-16.43 5.2) rotate(-10.94)"/><rect class="cls-3" x="30.34" y="37.18" width="7.28" height="96.54" transform="translate(-15.6 8) rotate(-10.94)"/><rect class="cls-3" x="44.42" y="34.46" width="7.28" height="96.54" transform="translate(-14.83 10.63) rotate(-10.94)"/><rect class="cls-3" x="59.18" y="32.17" width="7.28" height="96.54" transform="translate(-14.13 13.39) rotate(-10.94)"/><rect class="cls-3" x="73.58" y="29.39" width="7.28" height="96.54" transform="translate(-13.34 16.07) rotate(-10.94)"/><rect class="cls-3" x="88.28" y="26.55" width="7.28" height="96.54" transform="translate(-12.53 18.81) rotate(-10.94)"/><rect class="cls-4" x="75.46" y="28.46" width="7.28" height="96.54" transform="matrix(0.98, -0.19, 0.19, 0.98, -13.13, 16.41)"/><g class="cls-5"><path class="cls-6" d="M67.26,88.74a86.7,86.7,0,0,1-46.32,28.92l3.77,19.51,80-15.46L86.37,26.92l-.13,0A86.62,86.62,0,0,1,67.26,88.74Z"/></g><rect class="cls-7" x="5.75" y="33.9" width="81.51" height="3.02" transform="translate(-5.88 9.47) rotate(-10.94)"/><path class="cls-8" d="M43,24.75S36.37,11.07,21.21,9.17c-4.15-.52-9.74-.43-12.56,11-4.8,19.48,13.77,17.49,17,15.94C30.37,33.92,43,24.75,43,24.75Z"/><path class="cls-9" d="M10.78,29.9c.05-3.61,9.6-5.64,13.2-5.83s13.77,4.4,13.77,4.4S25.83,35,21.45,34.84C18.52,34.75,10.74,32.84,10.78,29.9Z"/><path class="cls-8" d="M45.54,24.26S46.6,9.09,60,1.68c3.65-2,8.88-4,15.77,5.56,11.71,16.29-6.26,21.36-9.87,21.14C60.68,28.06,45.54,24.26,45.54,24.26Z"/><path class="cls-9" d="M77.36,17c-1.39-3.33-11-1.66-14.43-.49s-11.14,9.22-11.14,9.22,13.5,1.59,17.51-.17C72,24.41,78.5,19.74,77.36,17Z"/><ellipse class="cls-9" cx="44.87" cy="25.78" rx="5.55" ry="6.54" transform="translate(-4.08 8.99) rotate(-10.94)"/></g></g></svg>