<svg xmlns="http://www.w3.org/2000/svg" viewBox="0 0 86.68 122.36"><defs><style>.cls-1{fill:#5dba5d;}.cls-2{fill:#d11c32;}.cls-3{fill:none;}.cls-4{fill:#fff;}.cls-5{fill:#c61724;}.cls-6,.cls-9{fill:#208a28;}.cls-6{opacity:0.5;}.cls-7{fill:#f83c1b;}.cls-8{opacity:0.2;}</style></defs><title>gift4</title><g id="Слой_2" data-name="Слой 2"><g id="OBJECTS"><polygon class="cls-1" points="23.63 28.24 0 110.31 79.22 122.36 80.38 36.86 23.63 28.24"/><rect class="cls-2" x="23.11" y="20.81" width="59.82" height="11.83" transform="translate(4.62 -7.67) rotate(8.64)"/><rect class="cls-3" x="41.48" y="32.89" width="8.47" height="83.89" transform="translate(11.77 -6.02) rotate(8.64)"/><polygon class="cls-4" points="33.22 30.74 33.67 31.98 34.72 32.78 33.48 33.23 32.68 34.28 32.23 33.04 31.18 32.24 32.42 31.79 33.22 30.74"/><polygon class="cls-4" points="46.02 32.68 46.48 33.92 47.53 34.73 46.29 35.18 45.49 36.23 45.03 34.99 43.98 34.19 45.22 33.73 46.02 32.68"/><polygon class="cls-4" points="38.25 40.3 38.7 41.54 39.75 42.34 38.51 42.79 37.71 43.84 37.26 42.6 36.21 41.8 37.45 41.34 38.25 40.3"/><polygon class="cls-4" points="25.45 38.35 25.9 39.59 26.95 40.39 25.71 40.84 24.91 41.89 24.45 40.65 23.4 39.85 24.64 39.4 25.45 38.35"/><polygon class="cls-4" points="30.66 47.62 31.11 48.86 32.16 49.66 30.92 50.11 30.12 51.16 29.66 49.92 28.61 49.12 29.85 48.67 30.66 47.62"/><polygon class="cls-4" points="22.84 55.47 23.3 56.71 24.34 57.51 23.1 57.97 22.3 59.02 21.85 57.77 20.8 56.97 22.04 56.52 22.84 55.47"/><polygon class="cls-4" points="35.65 57.42 36.1 58.66 37.15 59.46 35.91 59.91 35.11 60.96 34.66 59.72 33.6 58.92 34.85 58.47 35.65 57.42"/><polygon class="cls-4" points="20.19 72.89 20.65 74.13 21.7 74.93 20.46 75.39 19.66 76.44 19.2 75.2 18.15 74.39 19.39 73.94 20.19 72.89"/><polygon class="cls-4" points="33 74.84 33.45 76.08 34.5 76.88 33.26 77.33 32.46 78.38 32.01 77.14 30.96 76.34 32.2 75.89 33 74.84"/><polygon class="cls-4" points="17.55 90.31 18 91.55 19.05 92.36 17.81 92.81 17.01 93.86 16.55 92.62 15.5 91.82 16.75 91.36 17.55 90.31"/><polygon class="cls-4" points="30.35 92.26 30.8 93.5 31.85 94.3 30.61 94.75 29.81 95.8 29.36 94.56 28.31 93.76 29.55 93.31 30.35 92.26"/><polygon class="cls-4" points="14.9 107.73 15.35 108.97 16.4 109.78 15.16 110.23 14.36 111.28 13.91 110.04 12.86 109.24 14.1 108.78 14.9 107.73"/><polygon class="cls-4" points="4.12 106.1 4.57 107.34 5.63 108.14 4.38 108.59 3.58 109.64 3.13 108.4 2.08 107.6 3.32 107.15 4.12 106.1"/><polygon class="cls-4" points="27.7 109.68 28.15 110.92 29.2 111.72 27.96 112.17 27.16 113.22 26.71 111.98 25.66 111.18 26.9 110.73 27.7 109.68"/><polygon class="cls-4" points="27.99 65.12 28.45 66.36 29.5 67.16 28.25 67.62 27.45 68.67 27 67.43 25.95 66.63 27.19 66.17 27.99 65.12"/><polygon class="cls-4" points="25.33 82.63 25.78 83.87 26.83 84.67 25.59 85.12 24.79 86.17 24.34 84.93 23.29 84.13 24.53 83.68 25.33 82.63"/><polygon class="cls-4" points="22.67 100.14 23.12 101.38 24.17 102.18 22.93 102.63 22.13 103.68 21.68 102.44 20.63 101.64 21.87 101.19 22.67 100.14"/><polygon class="cls-4" points="43.28 49.54 43.73 50.78 44.78 51.58 43.54 52.03 42.74 53.08 42.29 51.84 41.24 51.04 42.48 50.59 43.28 49.54"/><polygon class="cls-4" points="40.62 67.04 41.07 68.28 42.12 69.08 40.88 69.54 40.08 70.59 39.63 69.35 38.58 68.55 39.82 68.09 40.62 67.04"/><polygon class="cls-4" points="37.96 84.55 38.41 85.79 39.46 86.59 38.22 87.04 37.42 88.09 36.97 86.85 35.92 86.05 37.16 85.6 37.96 84.55"/><polygon class="cls-4" points="35.3 102.06 35.75 103.3 36.8 104.1 35.56 104.55 34.76 105.6 34.3 104.36 33.26 103.56 34.5 103.11 35.3 102.06"/><polygon class="cls-4" points="15.41 63.21 15.86 64.45 16.91 65.25 15.67 65.7 14.87 66.75 14.42 65.51 13.37 64.71 14.61 64.26 15.41 63.21"/><polygon class="cls-4" points="12.75 80.72 13.2 81.96 14.25 82.76 13.01 83.21 12.21 84.26 11.76 83.02 10.71 82.22 11.95 81.77 12.75 80.72"/><polygon class="cls-4" points="10.09 98.22 10.54 99.46 11.59 100.26 10.35 100.72 9.55 101.77 9.1 100.53 8.05 99.72 9.29 99.27 10.09 98.22"/><polygon class="cls-4" points="71.26 36.52 70.46 37.57 69.22 38.02 70.27 38.82 70.72 40.06 71.52 39.01 72.77 38.56 71.71 37.76 71.26 36.52"/><polygon class="cls-4" points="58.46 34.57 57.66 35.62 56.42 36.08 57.47 36.88 57.92 38.12 58.72 37.07 59.96 36.62 58.91 35.81 58.46 34.57"/><polygon class="cls-4" points="63.62 44.15 62.82 45.2 61.58 45.66 62.63 46.45 63.08 47.7 63.88 46.65 65.12 46.19 64.07 45.39 63.62 44.15"/><polygon class="cls-4" points="76.42 46.1 75.62 47.15 74.38 47.6 75.43 48.4 75.89 49.64 76.69 48.59 77.93 48.14 76.88 47.34 76.42 46.1"/><polygon class="cls-4" points="68.7 53.4 67.89 54.45 66.65 54.9 67.7 55.7 68.16 56.94 68.96 55.89 70.2 55.44 69.15 54.64 68.7 53.4"/><polygon class="cls-4" points="73.82 63.22 73.02 64.27 71.78 64.72 72.83 65.53 73.28 66.77 74.08 65.72 75.32 65.26 74.27 64.46 73.82 63.22"/><polygon class="cls-4" points="61.02 61.27 60.22 62.33 58.98 62.78 60.02 63.58 60.48 64.82 61.28 63.77 62.52 63.32 61.47 62.52 61.02 61.27"/><polygon class="cls-4" points="71.17 80.64 70.37 81.69 69.13 82.14 70.18 82.95 70.63 84.19 71.43 83.14 72.67 82.68 71.62 81.88 71.17 80.64"/><polygon class="cls-4" points="58.37 78.7 57.57 79.75 56.33 80.2 57.38 81 57.83 82.24 58.63 81.19 59.87 80.74 58.82 79.94 58.37 78.7"/><polygon class="cls-4" points="68.52 98.06 67.72 99.11 66.48 99.57 67.53 100.37 67.98 101.61 68.78 100.56 70.03 100.11 68.97 99.3 68.52 98.06"/><polygon class="cls-4" points="55.72 96.12 54.92 97.17 53.68 97.62 54.73 98.42 55.18 99.66 55.98 98.61 57.22 98.16 56.17 97.36 55.72 96.12"/><polygon class="cls-4" points="65.87 115.48 65.07 116.53 63.83 116.99 64.88 117.79 65.34 119.03 66.14 117.98 67.38 117.53 66.33 116.72 65.87 115.48"/><polygon class="cls-4" points="76.65 117.12 75.85 118.17 74.61 118.63 75.66 119.43 76.11 120.67 76.91 119.62 78.15 119.16 77.1 118.36 76.65 117.12"/><polygon class="cls-4" points="53.07 113.54 52.27 114.59 51.03 115.04 52.08 115.84 52.53 117.08 53.33 116.03 54.57 115.58 53.52 114.78 53.07 113.54"/><polygon class="cls-4" points="66.03 70.91 65.23 71.96 63.99 72.41 65.04 73.21 65.5 74.45 66.3 73.4 67.54 72.95 66.49 72.15 66.03 70.91"/><polygon class="cls-4" points="63.37 88.41 62.57 89.46 61.33 89.92 62.38 90.72 62.83 91.96 63.63 90.91 64.88 90.45 63.83 89.65 63.37 88.41"/><polygon class="cls-4" points="60.71 105.92 59.91 106.97 58.67 107.42 59.72 108.22 60.17 109.46 60.97 108.41 62.21 107.96 61.16 107.16 60.71 105.92"/><polygon class="cls-4" points="56.07 51.48 55.27 52.53 54.03 52.98 55.08 53.78 55.53 55.02 56.33 53.97 57.57 53.52 56.52 52.72 56.07 51.48"/><polygon class="cls-4" points="53.41 68.99 52.61 70.04 51.37 70.49 52.42 71.29 52.87 72.53 53.67 71.48 54.91 71.03 53.86 70.23 53.41 68.99"/><polygon class="cls-4" points="50.75 86.49 49.95 87.54 48.7 88 49.76 88.8 50.21 90.04 51.01 88.99 52.25 88.53 51.2 87.73 50.75 86.49"/><polygon class="cls-4" points="48.08 104 47.28 105.05 46.04 105.5 47.09 106.3 47.55 107.54 48.35 106.49 49.59 106.04 48.54 105.24 48.08 104"/><polygon class="cls-4" points="78.62 72.82 77.81 73.87 76.58 74.32 77.63 75.12 78.08 76.36 78.88 75.31 80.12 74.86 79.07 74.06 78.62 72.82"/><polygon class="cls-4" points="75.95 90.33 75.15 91.38 73.91 91.83 74.96 92.63 75.42 93.87 76.22 92.82 77.46 92.37 76.41 91.57 75.95 90.33"/><polygon class="cls-4" points="73.29 107.83 72.49 108.88 71.25 109.33 72.3 110.14 72.75 111.38 73.56 110.33 74.8 109.87 73.75 109.07 73.29 107.83"/><rect class="cls-5" x="41.54" y="32.09" width="8.47" height="84.7" transform="translate(11.71 -6.03) rotate(8.64)"/><polygon class="cls-6" points="23.63 28.24 80.38 36.86 80.35 39.07 23.02 30.35 23.63 28.24"/><polygon class="cls-5" points="51.98 27.33 30.7 47.93 31.41 38.99 22.51 39.77 48.18 19.65 51.98 27.33"/><polygon class="cls-5" points="51.6 27.27 65.8 53.27 67.78 44.52 76.05 47.91 57.52 21.07 51.6 27.27"/><path class="cls-7" d="M51.61,21.8s-1.55-14-14.23-20.43C33.91-.38,29-2,22.94,7.12c-10.27,15.57,6.61,19.61,10,19.27C37.69,25.9,51.61,21.8,51.61,21.8Z"/><path class="cls-5" d="M21.79,16.27c1.17-3.14,10.17-1.95,13.38-1s10.69,8.15,10.69,8.15-12.48,2-16.27.5C27,22.93,20.83,18.83,21.79,16.27Z"/><path class="cls-7" d="M54,22.16s5.65-13,19.66-15.28c3.83-.64,9-.76,12.08,9.78C90.9,34.58,73.58,33.42,70.49,32.1,66.06,30.21,54,22.16,54,22.16Z"/><path class="cls-5" d="M84.1,25.74c-.18-3.35-9.13-4.88-12.48-4.93S59,25.42,59,25.42,70.32,31,74.38,30.73C77.1,30.54,84.25,28.47,84.1,25.74Z"/><ellipse class="cls-5" cx="52.92" cy="23.28" rx="6.08" ry="5.16" transform="translate(21.95 72.1) rotate(-81.36)"/><g class="cls-8"><path class="cls-9" d="M79.21,122.36l1-70.51a52.33,52.33,0,0,1-11.25,16.9C60.15,77.6,48.59,83.39,36.52,86.53A118.25,118.25,0,0,1,5.88,89.87L0,110.31Z"/></g></g></g></svg>