<svg xmlns="http://www.w3.org/2000/svg" viewBox="0 0 413.3 50"><defs><style>.cls-1{fill:#133f3e;}.cls-2{fill:#808777;}.cls-3{fill:#ff8232;}.cls-4{fill:#b99966;}</style></defs><title>modal-header</title><g id="Слой_2" data-name="Слой 2"><g id="Слой_1-2" data-name="Слой 1"><path class="cls-1" d="M297.6,10.1c5.5-1.5,11.7-1.3,17.3-1.5,2.8-.1,9.3-1.2,7.4-5.7s-7.4-3.1-10.7-1.9a55.3,55.3,0,0,0-7,3.7,38.7,38.7,0,0,0-7.1,4.7h-.1C297,9.7,297.3,10.2,297.6,10.1Z"/><path class="cls-1" d="M362.2,17.4c5.7-.2,11.3,1.4,17,1.3,1.7,0,6.5.1,6.8-2.4s-5.8-3.9-8.2-3.9a30.8,30.8,0,0,0-8.4,1.4,28.1,28.1,0,0,0-7.3,3H362C361.7,17,361.9,17.4,362.2,17.4Z"/><path class="cls-1" d="M408,30.3c-5.2-2.5-11.4-2.3-17-2.9a.4.4,0,0,0-.4.3.2.2,0,0,0,0,.3h.2c4.4,3,8.4,6.6,13.3,9,2,1,7.3,3,8.9.2S410.2,31.4,408,30.3Z"/><path class="cls-1" d="M365.2,28.7a37.1,37.1,0,0,0-9.5-.8,32.8,32.8,0,0,1-8.7-1.3,4.7,4.7,0,0,0-1.8-.6.3.3,0,0,0-.4.4.2.2,0,0,0,0,.2c1.1,2,3.5,3.7,5.4,5a35.3,35.3,0,0,0,6.7,3.7c3.6,1.6,9,3.4,12.4.5S367.6,29.4,365.2,28.7Z"/><path class="cls-1" d="M276.8,10.4c-1.7,2.7-1.9,6.1-4.4,8.3h-.1a.3.3,0,0,0,.1.5c.6.1,1.8-.5,2.3-.8a19.2,19.2,0,0,0,3.9-2.8c1.6-1.4,2.6-4.3,1.6-6.4S277.3,9.6,276.8,10.4Z"/><path class="cls-1" d="M289.3,14.4a.3.3,0,0,0,.2-.5,39.1,39.1,0,0,1,1.7-4.9,18.9,18.9,0,0,0,1.4-3c.4-1.3.6-3.3-1.2-3.6s-2.5,2-2.8,3.1c-.7,2.8,0,5.9.4,8.7A.2.2,0,0,0,289.3,14.4Z"/><path class="cls-1" d="M297.6,17.8a61.1,61.1,0,0,0-12.8-1.2h-.3a.1.1,0,0,0,0,.1.3.3,0,0,0,.2.3h.4c2.2.9,4.5,1.6,6.7,2.6s4,2.2,6.1,3,4.9,1.4,5.2-.6S299.6,18.2,297.6,17.8Z"/><path class="cls-1" d="M317.2,17.4a17.3,17.3,0,0,0-5-2.4c-1.3-.3-2.8-.9-4.1-.7h-.2a.2.2,0,0,0-.2.4.4.4,0,0,0,.4.3c3.2,2.6,5.2,6.3,8.2,9.1s5,3.2,5.5-.1S319.2,18.7,317.2,17.4Z"/><path class="cls-1" d="M331,19c-.8-.9-1.8-2.3-3-2.7h-.4a.1.1,0,0,0-.2.1,54.4,54.4,0,0,1,2.1,6.1,26.2,26.2,0,0,0,1.5,4.8c.6,1.3,2.3,4,4,2.7s-.6-5.6-1.2-6.9A20.5,20.5,0,0,0,331,19Z"/><path class="cls-1" d="M329.1,14.9h.6c1.9-.4,3.8-.5,5.7-.9a18.5,18.5,0,0,0,5-1.7c1.7-1,4.3-3.1,2.7-5.3s-3.6.2-4.6.8c-3.3,2.1-5.8,5.3-9.4,6.8A.2.2,0,0,0,329.1,14.9Z"/><path class="cls-1" d="M350.7,17.9h.5a15.2,15.2,0,0,0,3.2-1.5c1.2-.7,2.6-1.3,3.8-2s3.5-2.9,2.1-4.7c-2.5-3.3-8.2,5.4-9.7,7.8v.4C350.3,17.9,350.6,18,350.7,17.9Z"/><path class="cls-1" d="M349.6,23.6c1.3-1.2-1.5-3.4-2.3-4a20.3,20.3,0,0,0-3.8-2.1,14.6,14.6,0,0,0-3.9-1.6h-.2c-.1,0-.1.1-.1.2h0a.2.2,0,0,0,.2.3h.3c1,.9,2.1,1.7,3.1,2.7l3,3.1C346.6,23.2,348.5,24.7,349.6,23.6Z"/><path class="cls-1" d="M378.3,26.9c-3-2.8-7-4.3-10.7-5.9-.4-.2-.7.4-.3.6h0c1,1.6,2.4,3.1,3.4,4.7a28.2,28.2,0,0,0,3.4,4.7c1,1,4.5,4.3,6.1,2.8S379.8,28.4,378.3,26.9Z"/><path class="cls-1" d="M393.9,22.4c-.1-2.3-4-2.1-5.5-1.8-3.4.6-6.5,2.3-9.8,3.1h-.1a.3.3,0,0,0-.2.3.3.3,0,0,0,.3.4,49.9,49.9,0,0,0,10.2.1C389.8,24.5,394,24.4,393.9,22.4Z"/><path class="cls-2" d="M407.1,33.1c-11.4-5-23.7-8.2-35.8-11.4q-6.5-1.7-13.1-3l5.5-1.2c5.3-1,10.6-1.1,16-1.6.2,0,.2-.3,0-.3-5.7,0-11.1-.1-16.7.9a66.8,66.8,0,0,0-7.2,1.8c-7.1-1.4-14.3-2.5-21.5-3.4-12.3-1.5-24.6-1.1-36.9-.1l-8.2.8a66.5,66.5,0,0,1,7.6-4.4,70.8,70.8,0,0,1,8-3.2A59.1,59.1,0,0,1,314,4.9c.3-.1.3-.5,0-.6-2.8-.2-5.3.8-7.9,1.7s-6.2,2.2-9.2,3.6a60.4,60.4,0,0,0-10.4,6.1c-8.3,1.1-16.7,2.9-24.3,6.2-.4.2-.3.9.2.8,2.6-.6,5.2-1.5,7.8-2.3s6.1-1.6,9.1-2.2a151.5,151.5,0,0,1,17.4-2.4,213.9,213.9,0,0,1,27.7-.7c2.4,1.8,5.1,3.4,7.6,4.9s6.5,3.8,9.9,5.5a71.7,71.7,0,0,0,22.6,6.9.1.1,0,0,0,0-.3,80.9,80.9,0,0,1-22.2-7.6c-3.5-1.7-6.9-3.7-10.2-5.7l-5.3-3.5,7.2.6c6,.6,12,1.7,18,2.7s12.3,2.4,18.4,4c12.3,3.1,24.4,7.2,36.5,10.8A.2.2,0,0,0,407.1,33.1Z"/><path class="cls-2" d="M279,9.9a24.9,24.9,0,0,1-6.1,8.6c-.2.2.1.5.3.3,2.6-2,5.5-5.5,5.8-8.9Z"/><path class="cls-2" d="M290,9.6c.4-2,1-3.9,1.4-5.8h-.1c-1.1,3.6-2.8,6.9-2.3,10.7a.2.2,0,0,0,.4,0C289.7,12.8,289.6,11.2,290,9.6Z"/><path class="cls-2" d="M301,21.1a20.6,20.6,0,0,0-6.9-2.8L289,16.9a6,6,0,0,0-3.1-.4c-.2,0-.3.3-.1.4,2.4.8,5,1.1,7.5,1.8s5,1.9,7.6,2.6A.1.1,0,0,0,301,21.1Z"/><path class="cls-2" d="M320.4,23.9c-2.3-3.9-5.9-9.1-11.1-9.2-.2,0-.4.4-.1.5a18.2,18.2,0,0,1,6.3,3.2,33.6,33.6,0,0,1,4.7,5.7C320.3,24.2,320.5,24,320.4,23.9Z"/><path class="cls-2" d="M342.1,7.6a31.7,31.7,0,0,1-6.5,4.4c-2.2,1.2-4.7,1.5-7,2.5a.3.3,0,0,0,.1.6,22.5,22.5,0,0,0,7.5-3c2.1-1.2,4.4-2.5,5.9-4.5C342.2,7.6,342.1,7.5,342.1,7.6Z"/><path class="cls-2" d="M348.6,22.5c-1.7-1.4-3.4-2.7-5-4.3s-2.5-2.5-4.2-2.8-.4.4-.1.5c3.3,1.9,6,4.5,9.2,6.7A.1.1,0,0,0,348.6,22.5Z"/><path class="cls-2" d="M333.7,28.4c-1.5-3.9-1.7-8.7-5.4-11.4-.2-.1-.4,0-.3.3a6.8,6.8,0,0,0,1.2,1.8,16.6,16.6,0,0,1,2,3.4c1,1.9,1.4,4.1,2.4,6Z"/><path class="cls-2" d="M359.2,10.2c-1.7,1.3-3.2,2.9-4.7,4.4s-3,1.9-4.2,3.1,0,.3.2.3c1.7-.1,3.2-1.8,4.4-2.9a23.7,23.7,0,0,0,4.4-4.8Z"/><path class="cls-2" d="M374.4,26.6c-1.8-1.7-3.8-4.3-6.2-5-.1,0-.2.2-.1.3,1.5,1.6,3.4,3,5,4.4a54,54,0,0,1,5.7,5.7h0A19.2,19.2,0,0,0,374.4,26.6Z"/><path class="cls-2" d="M392.7,22.1c-2.1-.4-4.4.1-6.5.5a45,45,0,0,0-6.6,1.4c-.3.1-.2.6.2.6,2.2-.1,4.4-1,6.5-1.4a57.2,57.2,0,0,1,6.5-.8C392.8,22.3,392.8,22.1,392.7,22.1Z"/><path class="cls-3" d="M338.6,18.6c-.7,2.1-3.5,3.3-5.5,3.3a4.9,4.9,0,0,1-4.8-3.2,4.3,4.3,0,0,1,.3-4.1,6.1,6.1,0,0,1,2.5-2.4C335.3,10.1,339.9,14.3,338.6,18.6Z"/><path class="cls-3" d="M322.4,19.5a3.3,3.3,0,0,1-2.6-2.4,2.6,2.6,0,0,1,.9-2.8l.3-.3a3.4,3.4,0,0,1,5.7,1.1C327.6,18,324.8,20,322.4,19.5Z"/><path class="cls-3" d="M328.5,12.9a2.6,2.6,0,0,1-2.7-1.1,3.1,3.1,0,0,1,.4-4.3,3.3,3.3,0,0,1,5.2,1.7C331.9,11,330.1,12.5,328.5,12.9Z"/><path class="cls-1" d="M331,18.8h0a.4.4,0,0,1,0,.2h0a.6.6,0,0,1-.4.6.5.5,0,0,1-.5-.1,1.1,1.1,0,0,1-.3-.6.6.6,0,0,1,0-.3h0a.6.6,0,0,1,.6-.5h.4l.2.2h0Z"/><path class="cls-1" d="M331,18.8h0Z"/><path class="cls-1" d="M331.1,19.2s0,0,0,0S331.1,19.1,331.1,19.2Z"/><path class="cls-1" d="M330.3,8.9a.8.8,0,0,1-.2.5v.2h-.1a.8.8,0,0,1-1.1-.1.9.9,0,0,1-.1-1.1.9.9,0,0,1,.8-.4A.8.8,0,0,1,330.3,8.9Z"/><path class="cls-1" d="M324.9,17.5h0a.4.4,0,0,1-.6.1.6.6,0,0,1-.2-.4.5.5,0,0,1,.9-.1A.6.6,0,0,1,324.9,17.5Z"/><path class="cls-3" d="M311.1,18.3a4.7,4.7,0,0,1-8.5-1.1,4,4,0,0,1,2.4-4.9,4,4,0,0,1,1.4-.7C310.4,10.6,313,15.1,311.1,18.3Z"/><path class="cls-1" d="M304.4,15v.3a.5.5,0,0,1-.2.5.6.6,0,0,1-.8-.1.8.8,0,0,1,.1-1.1.5.5,0,0,1,.6,0A.4.4,0,0,1,304.4,15Z"/><path class="cls-3" d="M289.2,19.3a3.7,3.7,0,0,1-2.8,2.8,3,3,0,0,1-3.2-1.7,2.9,2.9,0,0,1,0-2.7,3.1,3.1,0,0,1,.9-1.5C286.3,14.1,289.7,16.5,289.2,19.3Z"/><path class="cls-1" d="M285.8,21.5a.7.7,0,0,1-.8.1.6.6,0,0,1-.3-.5h0a.6.6,0,0,1,0-.3.6.6,0,0,1,1-.2l.2.2A.5.5,0,0,1,285.8,21.5Z"/><path class="cls-3" d="M362,18.1a3.2,3.2,0,0,1-1.1-1.3l-.2-.5a3.2,3.2,0,0,1-.1-2.2l.4-.8a3.7,3.7,0,0,1,.9-1.1,3.5,3.5,0,0,1,5.6,2.6A3.7,3.7,0,0,1,362,18.1Z"/><path class="cls-1" d="M363,14.6v.2c-.3.3-.6,0-.6-.3h0a.3.3,0,0,1,.3-.3C362.8,14,363.1,14.3,363,14.6Z"/><path class="cls-3" d="M379.5,22.8c-2.7,3.4-7.6,1.3-7.4-2.9a3.9,3.9,0,0,1,2-3,5,5,0,0,1,1.8-.9,4.2,4.2,0,0,1,4.5,1.8C381.4,19.4,380.6,21.5,379.5,22.8Z"/><path class="cls-3" d="M374.2,26.2a2.7,2.7,0,0,1,1.7-.9c2.4-.2,3.6,3,1.9,4.6a2.7,2.7,0,0,1-4.5-2.2A2.1,2.1,0,0,1,374.2,26.2Z"/><path class="cls-3" d="M387.7,24.6c.3,2.9-3.4,5.1-5.9,3.6l-.7-.7a3.4,3.4,0,0,1-1.1-3.7,2.6,2.6,0,0,1,.6-.9l.4-.5A3.9,3.9,0,0,1,387.7,24.6Z"/><path class="cls-1" d="M382,26.4c-.7.3-1.3-.8-.9-1.3a.7.7,0,0,1,.8-.2.6.6,0,0,1,.4.6A.7.7,0,0,1,382,26.4Z"/><path class="cls-1" d="M376.3,23.4h-.5a.6.6,0,0,1-.7-.8.8.8,0,0,1,.6-.5.8.8,0,0,1,.8.5A.6.6,0,0,1,376.3,23.4Z"/><path class="cls-1" d="M377.6,29.3h0a.5.5,0,0,1-.2.5.5.5,0,0,1-.8-.3h0a.5.5,0,0,1,.4-.6.5.5,0,0,1,.6.4Z"/><path class="cls-4" d="M232,32.4c.2-1.2-1-1.2-1.8-1.1l-1.9.6a8.5,8.5,0,0,1-3.9.4l-.2-.2a.2.2,0,0,0-.3,0l-.6-.2c-.1,0-.1.1,0,.2a4.5,4.5,0,0,1,1.1,2,18.9,18.9,0,0,1,0,2.1c.1.6.4,1.8,1.3,1.5s.6-1.5.6-2a5.6,5.6,0,0,0-1.4-2.8c1,1,3.1.9,4.4.8S231.8,33.5,232,32.4Z"/><path class="cls-4" d="M247.7,34.1c-.6-1-1.9.1-2.4.6s-2.8,3.6-5.4,3.9c-.2,0-.2.3,0,.3h.2v.2a6.6,6.6,0,0,0,5.9-1.2C247.3,37.1,248.7,35.6,247.7,34.1Z"/><path class="cls-4" d="M248.8,40.8h.2a.2.2,0,0,0,.2.2c2.2-.1,4.5-1.6,6-3.2s1.8-2.9.3-4-2.5,1.4-3,2.1-1.9,3.8-3.8,4.3A.2.2,0,0,0,248.8,40.8Z"/><path class="cls-4" d="M257.8,41.6h.7a10.2,10.2,0,0,0,5.7-3.5c.8-1,1.2-3.6-.5-4.2s-2,1.2-2.4,2.1-1.6,4.5-3.6,5.4C257.5,41.4,257.6,41.6,257.8,41.6Z"/><path class="cls-4" d="M268.1,41.4l.4-.2h.2a10,10,0,0,0,6.3-4.1c1.1-1.5,1.3-4-.5-5s-2.3,1-2.7,1.9-.7,1.8-1.1,2.7a28.7,28.7,0,0,1-2.7,4.4C267.9,41.3,267.9,41.5,268.1,41.4Z"/><path class="cls-4" d="M277.9,40.2h.3c1.7.1,3.7-2.4,4.6-3.6s1.8-3.6.8-5.1-2.2-1.3-2.8.2-.4,6.6-3.1,8.1C277.5,39.9,277.6,40.3,277.9,40.2Z"/><path class="cls-4" d="M286.4,38.2l.3-.2a.3.3,0,0,0,.3.1c2.7-1.2,5.3-2.5,6.5-5.4.4-.9.8-3.3-.2-4s-2.4.5-2.9,1.6-.6,1.9-.9,2.8a16.9,16.9,0,0,1-3.1,4.8C286.1,38.1,286.3,38.3,286.4,38.2Z"/><path class="cls-4" d="M295.8,35.4c2.8-1.2,6.4-5.9,3.4-8.6-1.2-1-2.4,1.1-2.5,2s-.1,2.2-.2,3.3-.5,1.8-.6,2.8l-.3.2C295.4,35.2,295.6,35.5,295.8,35.4Z"/><path class="cls-4" d="M313.9,25.4c-.6-2.1-2.8-1.9-4.3-1a10.6,10.6,0,0,0-2.9,2.8l-2.3,3-.2.2a21.2,21.2,0,0,0-2.4,2.1h-.2c-.1.1-.1.3.1.3a22,22,0,0,0,8.9-2.9C311.8,29.1,314.4,27.2,313.9,25.4Z"/><path class="cls-4" d="M232,36.2h.2c2.1,1.3,5.9-.8,6.1-3.2s-1-1.1-1.7-.7a8.7,8.7,0,0,0-1.4,1.4,5.8,5.8,0,0,1-3,1.9H232a.2.2,0,0,0-.1.3l-.8-.4a1.4,1.4,0,0,0-.9-.5h-.1c.2.4.2.4.5.9a6.7,6.7,0,0,1,.8,2,10.4,10.4,0,0,1,.2,2.3c.1,1.1.4,2.3,1.7,2s.7-2.4.5-3.2A6.2,6.2,0,0,0,232,36.2Z"/><path class="cls-4" d="M238,38.1a.2.2,0,0,0-.3.1l-.4-.2a.2.2,0,0,0-.2.2,8.9,8.9,0,0,1,1.4,3.3c.2,1,0,2,.1,3s1.1,2.1,2.1,1.5.5-2.3.4-3.1A7.8,7.8,0,0,0,238,38.1Z"/><path class="cls-4" d="M243.8,39.9h-.2l-.6-.4a.2.2,0,0,0-.3.2,5,5,0,0,0,.9,1.2,6.3,6.3,0,0,1,1.3,2.8,31.2,31.2,0,0,0,.9,3.5c.5,1.1,1.9,2.4,3.1,1.5s.1-3-.2-3.8A9.8,9.8,0,0,0,243.8,39.9Z"/><path class="cls-4" d="M252.4,41h-.2l-.5-.2a.2.2,0,0,0-.1.3,10,10,0,0,1,3.1,3.9c.4.9.6,2,1,2.9s1.9,2.8,2.9,1.4-.2-3.3-.8-4.3S254.3,41.4,252.4,41Z"/><path class="cls-4" d="M268.3,44.5a13,13,0,0,0-6.2-3,.2.2,0,0,0-.2.2h-.3c-.1,0-.1.2,0,.2,2.7,1.2,3.5,3.3,5.1,5.6s2.6,2.7,3.6.9S269.2,45.3,268.3,44.5Z"/><path class="cls-4" d="M273.1,40.7h-1.3a.1.1,0,0,0-.1.3c2.6.9,4,2.8,5.5,5s1.9,2.2,3.3,1.6,0-3.3-.7-4A10.8,10.8,0,0,0,273.1,40.7Z"/><path class="cls-4" d="M282.7,38.7a.2.2,0,0,0-.1.3h0c-.1,0-.1.2,0,.2,2.7,1.1,4.3,3.8,6.8,5.2s2.8,1.2,3.4-.2C294.1,41,284.4,38,282.7,38.7Z"/><path class="cls-4" d="M302.6,35.2a24.5,24.5,0,0,0-10,1.1l-2.1.4c-.2.1-.2.3,0,.4h.9a21.2,21.2,0,0,1,6.3.6,36.1,36.1,0,0,0,4.6,1.1c.9.1,3.8.7,4.3-.6S303.8,35.3,302.6,35.2Z"/><path class="cls-4" d="M310.5,26.7c-3.1,1.9-5.9,3.9-9.1,5.5a71.5,71.5,0,0,1-10.5,4.2,106.6,106.6,0,0,1-24.1,4.6,81.9,81.9,0,0,1-24.4-1.9,53.2,53.2,0,0,1-10.5-3.5c-3.4-1.6-6.8-2.9-9.9-5.1-.3-.2-.6.2-.4.5,2.3,2.3,5.5,3.4,8.4,4.6a75.1,75.1,0,0,0,11.5,4.1A81.7,81.7,0,0,0,266,41.8a107.7,107.7,0,0,0,24.5-4.4,75.3,75.3,0,0,0,10.7-4.1c3.4-1.6,7-3.5,9.7-6.2C311,26.9,310.8,26.5,310.5,26.7Z"/><path class="cls-1" d="M222.7,38.7a35,35,0,0,1-3.8-3.6,48.8,48.8,0,0,1-4.5-4.9.2.2,0,0,1,.3-.3,33.1,33.1,0,0,1,3.7,3.7c1.5,1.6,3.1,3.2,4.4,4.9C222.9,38.7,222.8,38.8,222.7,38.7Z"/><path class="cls-1" d="M224.5,36.1a13.4,13.4,0,0,1,1.1,4.5h-.2a33.4,33.4,0,0,1-3.3-10.1.3.3,0,0,1,.5-.1A44.1,44.1,0,0,1,224.5,36.1Z"/><path class="cls-1" d="M227.5,39.9l-4.7-4.6a29.2,29.2,0,0,1-4.5-4.9c-.1-.2.1-.5.3-.3,3.1,3.1,6.2,6.2,9.2,9.4C228.1,39.8,227.7,40.1,227.5,39.9Z"/><path class="cls-1" d="M231.7,39.6a50.3,50.3,0,0,0-3.5-4.1c-1.3-1.6-3.1-3.1-4.1-4.9-.1-.2.1-.4.3-.3a28.9,28.9,0,0,1,3.9,4.3c1.3,1.5,2.8,3.1,3.5,5Z"/><path class="cls-1" d="M230.6,39.7a37.3,37.3,0,0,1-5.1-8.7c-.1-.4.4-.6.6-.2,1.5,3,3.2,5.9,4.8,8.8C230.8,39.7,230.7,39.8,230.6,39.7Z"/><path class="cls-1" d="M234.1,39.9a16.8,16.8,0,0,1-2.8-3.8l-3.4-5.2a.3.3,0,0,1,.6-.4c2.4,2.6,4.1,6.2,5.8,9.4C234.3,39.8,234.2,39.9,234.1,39.9Z"/><path class="cls-1" d="M235.9,40a.1.1,0,0,1-.2.1,32.1,32.1,0,0,1-4.5-9.7.4.4,0,0,1,.8-.3C233.5,33.3,234.4,36.7,235.9,40Z"/><path class="cls-1" d="M239.4,39c-1.9-1.2-3.7-2.6-5.5-3.9a17.1,17.1,0,0,1-4.9-4.6c-.2-.4.3-.8.6-.4s3.2,3.1,4.9,4.4,3.4,2.8,5.1,4.3A.2.2,0,0,1,239.4,39Z"/><path class="cls-1" d="M246.2,37.6c-4.3-2-10.2-3.2-13.4-7a.2.2,0,0,1,.2-.3c2.3.5,4.1,2.4,6.2,3.4a41.5,41.5,0,0,1,7.1,3.7A.1.1,0,0,1,246.2,37.6Z"/><path class="cls-1" d="M243,38a19.5,19.5,0,0,1-5.7-4.8c-.7-.8-2.5-2.1-2.6-3.1a.3.3,0,0,1,.5-.4c.9.3,1.7,1.7,2.3,2.3l5.6,5.7C243.3,37.8,243.2,38.1,243,38Z"/><path class="cls-1" d="M247.5,36.4a16.7,16.7,0,0,1-4.7-3.5,15.8,15.8,0,0,1-2-2c-.3-.4-.8-1.3-1.3-1.5a.4.4,0,0,1,.1-.7c.8-.1,1.6,1.2,2.1,1.8a23.9,23.9,0,0,0,3.1,3.1,36.2,36.2,0,0,0,2.9,2.6C247.8,36.2,247.6,36.5,247.5,36.4Z"/><path class="cls-1" d="M244.4,37.4a51.5,51.5,0,0,1-3.9-4.2,41.7,41.7,0,0,1-3.7-3.6.4.4,0,0,1,.6-.4c.9,1.1,2.2,2,3.2,3.1s2.6,3.3,3.9,5.1Z"/><path class="cls-1" d="M240.5,38.4a18.9,18.9,0,0,1-4.8-4.1c-1-1.1-2.8-2.7-3.2-4.2a.4.4,0,0,1,.6-.4l2.8,3.5c1.5,1.8,3.2,3.4,4.7,5.1Z"/><path class="cls-1" d="M250.8,36.2c-2.5-.8-4.8-2.5-7.1-3.7l-3.6-2c-.4-.2-1.1-.5-1.2-1a.2.2,0,0,1,.1-.2c1.5-.3,3.8,1.8,5,2.4s4.4,3.1,6.8,4.3A.1.1,0,0,1,250.8,36.2Z"/><path class="cls-1" d="M252.3,35.7a24.8,24.8,0,0,1-4.6-3.1l-2.8-2a23.4,23.4,0,0,0-2.2-2,.3.3,0,0,1-.2-.6h.4a59.6,59.6,0,0,1,4.7,3.6c1.7,1.2,3.2,2.8,4.9,3.9C252.7,35.6,252.5,35.8,252.3,35.7Z"/><path class="cls-1" d="M269.8,29.7a29.1,29.1,0,0,1-7.2-2,19.2,19.2,0,0,1-3.2-1.5c-.5-.3-2.1-1.8-2.7-1.8a.4.4,0,0,1-.1-.8,1.3,1.3,0,0,1,.9.3,25.4,25.4,0,0,0,4.1,2.4,62.9,62.9,0,0,0,8.2,3C270.1,29.5,270,29.7,269.8,29.7Z"/><path class="cls-1" d="M265.3,30.3l-3-3.3c-1.1-1.2-2.4-2.1-3.6-3.2a.3.3,0,0,1,.3-.6c2.8,1.1,4.9,4.4,6.4,6.9A.1.1,0,0,1,265.3,30.3Z"/><path class="cls-1" d="M266.4,34.2c-1.9-1.3-3.5-3.1-5.4-4.5s-4.2-3.1-6.5-4.4c-.4-.2,0-1,.4-.7A41.1,41.1,0,0,1,266.5,34C266.6,34.1,266.5,34.3,266.4,34.2Z"/><path class="cls-1" d="M262.2,31.5c-1.8-.1-3.4-1.2-4.9-2a23.4,23.4,0,0,1-4.8-3.4c-.3-.3,0-.8.4-.6s2.7,2.1,4.3,3a22.6,22.6,0,0,0,5.1,2.7A.2.2,0,0,1,262.2,31.5Z"/><path class="cls-1" d="M258.6,36.2h-.1c-2.3-3.4-4.4-7.5-7.7-9.9-.3-.3,0-.9.4-.6,2,1.1,3.2,2.9,4.4,4.9S258.3,34.2,258.6,36.2Z"/><path class="cls-1" d="M259.4,33a56.7,56.7,0,0,1-5.7-2.9l-1.8-1c-.8-.5-1.5-1.4-2.3-1.9s-.2-1,.3-.8a2.2,2.2,0,0,1,.9.6,11.3,11.3,0,0,0,3.2,2.3,60.5,60.5,0,0,1,5.5,3.5C259.7,32.8,259.6,33,259.4,33Z"/><path class="cls-1" d="M254.8,34.8c-2.6-1.6-5.8-4.4-7-7.3a.3.3,0,0,1,0-.3h.2c.8.1,1.9,2.1,2.3,2.7a49.5,49.5,0,0,0,4.7,4.7A.2.2,0,0,1,254.8,34.8Z"/><path class="cls-1" d="M251.1,35.8c0,.1-.2.2-.2,0s-1.8-3.3-2.6-4.7a8.9,8.9,0,0,0-2.6-3.3c-.4-.3,0-1,.5-.8s2,2.2,2.8,3.5S251.5,34.3,251.1,35.8Z"/><path class="cls-1" d="M255.4,33.8a32,32,0,0,1-3.5-3.3,26.7,26.7,0,0,0-3.9-3.3l-.2-.2a.4.4,0,0,1,.4-.5c2.9,1.3,5.7,4.6,7.3,7.2C255.6,33.8,255.5,33.9,255.4,33.8Z"/><path class="cls-1" d="M271.6,29.9c-3-2.8-6.9-4.5-10.2-6.8-.4-.3,0-1,.4-.7a52.4,52.4,0,0,1,5,3.1,19.1,19.1,0,0,1,4.9,4.3C271.8,29.9,271.7,30,271.6,29.9Z"/><path class="cls-1" d="M274.8,28a50.9,50.9,0,0,0-6.2-3.2c-1.7-.7-4-1.2-5.4-2.5a.4.4,0,0,1,.4-.6,20.7,20.7,0,0,0,2.7,1.1l3.2,1.3a18.1,18.1,0,0,1,5.4,3.5C275.1,27.8,274.9,28.1,274.8,28Z"/><path class="cls-1" d="M275.8,22.2a66,66,0,0,1-7.4.6c-1.5,0-3.4.2-4.8-.3a.4.4,0,0,1,.1-.8,33.6,33.6,0,0,1,4.1.2,71.8,71.8,0,0,0,8,0C276,22,276,22.2,275.8,22.2Z"/><path class="cls-1" d="M274.5,23.4a41.9,41.9,0,0,1-3.5-2.5c-.5-.4-1.7-1.3-2.4-1.2s-.7-.8-.1-.9,1.9.6,2.5,1a24.1,24.1,0,0,1,3.6,3.2C274.8,23.3,274.7,23.5,274.5,23.4Z"/><path class="cls-1" d="M282.5,22l-5.8-1.6c-1.9-.6-4-1.7-6.1-1.7s-.7-.8-.1-.9,3.3.6,4.7,1.1l7.4,2.6C283,21.6,282.8,22.1,282.5,22Z"/><path class="cls-1" d="M285.8,17.6a39,39,0,0,1-7.4.4h-4a2.2,2.2,0,0,1-1.6-.5.3.3,0,0,1,.2-.6c4.3-.1,8.6.4,12.8.1A.3.3,0,0,1,285.8,17.6Z"/><path class="cls-1" d="M285.5,15.7a18.8,18.8,0,0,1-3.9-.4,26.1,26.1,0,0,0-6.5.8.4.4,0,0,1-.2-.8,17.5,17.5,0,0,1,10.7,0C285.7,15.4,285.6,15.7,285.5,15.7Z"/><path class="cls-1" d="M289.7,12.7c-1.7-.7-4.4.1-6,.5a34,34,0,0,0-6.5,1.7c-.4.2-.7-.4-.4-.7s5.3-1.6,7.5-2.1,4.2-1,5.5.4S289.8,12.8,289.7,12.7Z"/><path class="cls-1" d="M287.8,9.6c-1.5.7-2.8,1.5-4.3,2.3a39,39,0,0,0-5.6,2.8.3.3,0,0,1-.4-.3c.7-1.6,2.9-2.1,4.3-2.8s3.9-2.4,5.8-2.4A.2.2,0,0,1,287.8,9.6Z"/><path class="cls-1" d="M287.3,14a31.4,31.4,0,0,1-4.7,0h-4.8l.6-.5h4.1c1.6,0,3.1.4,4.7.2A.2.2,0,0,1,287.3,14Z"/><path class="cls-1" d="M278.1,23a22,22,0,0,0-4.5-2.1,36.3,36.3,0,0,0-4.5-1.9.3.3,0,0,1,.1-.6,19.5,19.5,0,0,1,9.1,4.4A.1.1,0,0,1,278.1,23Z"/><path class="cls-1" d="M273.8,25.9a33.6,33.6,0,0,1-5.8-3l-1.2-.8c-.4-.3-1.1-1.2-1.7-1.3s-.4-.4-.1-.6,2,1,2.5,1.4a21.3,21.3,0,0,0,2.6,1.7c1.3.8,2.4,1.7,3.8,2.4A.1.1,0,0,1,273.8,25.9Z"/><path class="cls-1" d="M271.4,27.7l-6-2.6-3.1-1.1a10.7,10.7,0,0,1-2.6-.9h.5l.7-.4a20.8,20.8,0,0,1,4.3,1.5,67.7,67.7,0,0,1,6.4,3.2C271.8,27.4,271.7,27.8,271.4,27.7Z"/><path class="cls-1" d="M219.8,21.7a26.9,26.9,0,0,0-3,4.8c-.6,1.3-.6,3.3-1.6,4.3a.3.3,0,0,1-.5-.2c.4-3.1,2.2-7.3,4.9-9.2A.2.2,0,0,1,219.8,21.7Z"/><path class="cls-1" d="M221.6,24.5c-.6,1.9-1.5,5-3.3,6.1a.2.2,0,0,1-.4-.3,29.4,29.4,0,0,1,1.5-2.7,30.1,30.1,0,0,0,1.2-2.9c.8-2,1.6-4.1,2.3-6.2h.2A18.8,18.8,0,0,1,221.6,24.5Z"/><path class="cls-1" d="M227.2,21a22.9,22.9,0,0,0-4.3,4.7,19.3,19.3,0,0,0-3.1,5.2c-.2.5-.9.2-.8-.2a16.3,16.3,0,0,1,2.8-5.1,19.4,19.4,0,0,1,5.1-5A.2.2,0,0,1,227.2,21Z"/><path class="cls-1" d="M230.3,19.4a34.1,34.1,0,0,0-2.6,6.2c-.6,1.6-.7,3.9-1.7,5.3a.3.3,0,0,1-.5-.1c-.3-1.7.6-3.9,1.3-5.5a28.4,28.4,0,0,1,3-6.2C230,18.6,230.5,19,230.3,19.4Z"/><path class="cls-1" d="M231.5,20.9c-1.8,2.7-3.9,5.1-5.8,7.6-.6.8-1.6,2.7-2.6,3s-.8-.3-.5-.7c3-3.3,5.5-7,8.7-10.1A.1.1,0,0,1,231.5,20.9Z"/><path class="cls-1" d="M227.1,22.9a48.1,48.1,0,0,1-4.5,6.4c-.4.5-1.6,2-2.2,1.9a.4.4,0,0,1-.3-.5c.2-.7,1.3-1.4,1.8-1.9a38,38,0,0,0,4.9-6C226.8,22.4,227.2,22.6,227.1,22.9Z"/><path class="cls-1" d="M221,20.6a19.9,19.9,0,0,1-1.7,5.2,19.3,19.3,0,0,1-2.7,4.9c-.3.4-.9-.1-.6-.5,2.3-2.6,3.6-6.4,4.9-9.6Z"/><path class="cls-1" d="M236.8,20.3c-2.2,1.5-3.6,3.9-5.2,5.9a20.8,20.8,0,0,0-2.2,3.1,4.1,4.1,0,0,1-1,1.5.3.3,0,0,1-.5-.2c-.2-1.6,2-3.9,2.9-5s3.2-4.5,5.5-5.9C236.7,19.6,237.1,20,236.8,20.3Z"/><path class="cls-1" d="M236.2,22.6l-4.7,4.2c-1.5,1.3-3.7,2.6-4.8,4.3s-1,0-.8-.5,2.6-2.4,3.9-3.5a46.9,46.9,0,0,1,6.1-4.9A.2.2,0,0,1,236.2,22.6Z"/><path class="cls-1" d="M232.7,21.3a39.3,39.3,0,0,0-3.2,5.2c-.7,1.4-1.1,3-1.9,4.3s-.6.1-.6-.3a14.7,14.7,0,0,1,2-4.3,31,31,0,0,1,3.7-5Z"/><path class="cls-1" d="M239.1,19.9c-1.3,1.9-2.5,3.9-3.8,5.9s-2.2,3.9-3.8,5-.8-.2-.5-.5a54.5,54.5,0,0,0,3.6-5c1.4-1.9,2.7-3.8,4.3-5.5A.1.1,0,0,1,239.1,19.9Z"/><path class="cls-1" d="M239.6,20.5a30.1,30.1,0,0,0-2,4.8,25.6,25.6,0,0,1-1.8,4.7c-.3.4-.8,0-.7-.4a29,29,0,0,1,4.1-9.2C239.4,20.1,239.7,20.3,239.6,20.5Z"/><path class="cls-1" d="M241,20.4c-.9,2-2.4,3.4-3.8,5.1s-2.4,3.8-3.9,4.7a.2.2,0,0,1-.3-.3c.6-1.7,2-3,3.2-4.3s3.2-3.5,4.7-5.3A.1.1,0,0,1,241,20.4Z"/><path class="cls-1" d="M244.5,18.5c-1.2,2-2.1,4.1-3.5,6s-2.1,4-3.8,5.4-.6-.2-.4-.4c2.6-3.6,4.9-7.5,7.3-11.2C244.3,18.1,244.6,18.3,244.5,18.5Z"/><path class="cls-1" d="M246.8,17.8a30.3,30.3,0,0,0-4.5,6.1c-.7,1.1-1.3,2.2-1.9,3.4s-.4,1.4-1.1,1.9-.5,0-.4-.3a19.5,19.5,0,0,1,2.7-5.4,22.2,22.2,0,0,1,5-5.8C246.8,17.6,246.9,17.7,246.8,17.8Z"/><path class="cls-1" d="M247.7,18.6c-.9,2.2-1.8,4.3-2.9,6.5s-1.2,3-2.7,3.6a.3.3,0,0,1-.3-.4c2-3.2,3.9-6.4,5.7-9.8A.1.1,0,0,1,247.7,18.6Z"/><path class="cls-1" d="M250.3,17.4c-1.1,1.7-2.3,3.2-3.5,4.8s-1.9,4.3-3.4,5.9a.2.2,0,0,1-.4-.2c1.4-4.2,4.5-7.3,7.2-10.6Z"/><path class="cls-1" d="M245.1,21.4c-1.7,2.5-2.6,5.5-4.3,8a.3.3,0,0,1-.5-.2c.2-1.5,1.4-3.1,2.1-4.4a13.7,13.7,0,0,1,2.5-3.5C245.1,21.2,245.2,21.3,245.1,21.4Z"/><path class="cls-1" d="M259.1,14.2c-1.6,1.3-2.5,3.8-3.4,5.6s-1.6,3.7-2.3,5.6-.9.2-.7-.3c1.2-3.7,2.9-8.7,6.2-11.1A.2.2,0,0,1,259.1,14.2Z"/><path class="cls-1" d="M255.2,17.1c-.8,2.1-2.1,4.1-2.7,6.2s-.5,2.9-1.4,3a.3.3,0,0,1-.3-.2c-.1-.4.2-.7.4-1.1a16.6,16.6,0,0,0,.8-2.3c.6-2,2.1-3.8,3.1-5.6A.1.1,0,0,1,255.2,17.1Z"/><path class="cls-1" d="M252.8,16.4c-.9,1.8-1.5,3.9-2.2,5.8s-.7,3.5-1.9,4.6-.3,0-.3-.2a20.8,20.8,0,0,1,1.8-5.2,27.3,27.3,0,0,1,2.4-5.1C252.7,16.1,252.9,16.3,252.8,16.4Z"/><path class="cls-1" d="M251.3,16.8c-1.5,3.7-3.5,8.1-6.3,11.1a.3.3,0,0,1-.4-.3,51.7,51.7,0,0,1,3.4-5.8,38,38,0,0,1,3.1-5.2A.1.1,0,0,1,251.3,16.8Z"/><path class="cls-1" d="M253.4,17.8c-1.2,1.4-2.4,2.8-3.6,4.3a44.8,44.8,0,0,0-3.3,5.9.2.2,0,0,1-.5-.1c.6-4.1,4.1-7.7,7.1-10.3C253.4,17.5,253.6,17.7,253.4,17.8Z"/><path class="cls-1" d="M261.7,13.5c.3,1.9-.2,3.9-.7,5.8s-.8,3.5-2.1,4.3-.5,0-.4-.2,1.2-2.9,1.6-4.4a22.5,22.5,0,0,0,1.1-5.5C261.3,13.2,261.7,13.2,261.7,13.5Z"/><path class="cls-1" d="M264.1,13.7a41.5,41.5,0,0,0-3.9,5.2,19.2,19.2,0,0,0-1.9,3.4,6.5,6.5,0,0,1-1.2,2.1.3.3,0,0,1-.5-.4c1-1.5,1.6-3.3,2.6-4.9a34.8,34.8,0,0,1,4.5-5.6C263.9,13.2,264.3,13.4,264.1,13.7Z"/><path class="cls-1" d="M259.8,14.7a28.3,28.3,0,0,1-2,5.5c-.7,1.5-1.5,4-3,4.8a.3.3,0,0,1-.4-.4,60.2,60.2,0,0,0,5.1-10A.2.2,0,0,1,259.8,14.7Z"/><path class="cls-1" d="M267,11c-.5,2.1-.8,4.2-1.4,6.2s-.8,3.6-2.2,4.4-.4-.2-.3-.4c.7-1.8,1.5-3.5,2-5.4s.9-3.4,1.5-5S267.1,10.8,267,11Z"/><path class="cls-1" d="M265.7,12.8c-.8,1.7-1.2,3.6-2,5.3s-1.4,3.5-2.6,4.9-.5.1-.4-.2a27.4,27.4,0,0,1,2.4-5c.9-1.7,1.4-3.5,2.3-5.2S265.8,12.6,265.7,12.8Z"/><path class="cls-1" d="M270.3,11.5c-2.7,2.5-3.4,6.6-5.6,9.5a.3.3,0,0,1-.5-.3c1.3-3.3,3.2-7.2,5.9-9.6C270.2,11,270.4,11.4,270.3,11.5Z"/><path class="cls-1" d="M270.9,12.1a23.1,23.1,0,0,0-2.1,4.1,12.6,12.6,0,0,1-2.5,3.9c-.2.2-.4-.1-.3-.3a34.3,34.3,0,0,1,2.5-4.3,16.3,16.3,0,0,1,2.2-3.6C270.8,11.8,271.1,12,270.9,12.1Z"/><path class="cls-1" d="M271.7,9.7a22.8,22.8,0,0,1-.5,4.9c-.4,1.4-.6,3.4-1.9,4.2a.2.2,0,0,1-.3-.2,25.4,25.4,0,0,1,1.3-3.8c.5-1.7.7-3.4,1.1-5.1A.2.2,0,0,1,271.7,9.7Z"/><path class="cls-1" d="M273,10.8a34.8,34.8,0,0,1-2.5,4.6,18.3,18.3,0,0,1-2.7,4.3.1.1,0,0,1-.2-.1c1-3.2,3.3-6.1,5-9A.2.2,0,0,1,273,10.8Z"/><path class="cls-1" d="M274.3,8.7c-1,3.1-1,6.7-2.8,9.5-.1.2-.5,0-.4-.2s1-3.3,1.5-5a16.7,16.7,0,0,1,1.7-4.4Z"/><path class="cls-1" d="M276.7,7.7c-.6,3.1-.7,6.7-3.2,9-.2.2-.5-.1-.4-.3a11.3,11.3,0,0,1,1-2,12.1,12.1,0,0,0,1-2.5,32.3,32.3,0,0,1,1.4-4.2A.1.1,0,0,1,276.7,7.7Z"/><path class="cls-1" d="M275.1,9.6c-.8,2.4-.9,5-1.7,7.4-.1.2-.4.1-.5-.1s.4-2.5.7-3.7a13.8,13.8,0,0,1,1.3-3.8A.1.1,0,0,1,275.1,9.6Z"/><path class="cls-1" d="M280.4,6.4a31.4,31.4,0,0,0-3.1,5.1c-.6,1.2-1,2.6-1.7,3.7h0a2.4,2.4,0,0,0-1.2.6,24.5,24.5,0,0,1,5.7-9.7A.1.1,0,0,1,280.4,6.4Z"/><path class="cls-1" d="M283.1,6.2l-3.8,5a20.5,20.5,0,0,1-3.8,4.3c-.2.2-.6-.1-.5-.4a31.2,31.2,0,0,1,3.6-4.4A49.3,49.3,0,0,1,282.9,6C283,5.8,283.2,6,283.1,6.2Z"/><path class="cls-1" d="M285.3,7.4c-1.4,1.6-3.2,2.7-4.7,4.2a13.2,13.2,0,0,1-1.9,1.6c-1,.7-1.4,1.7-2.5,2.3a.2.2,0,0,1-.2-.2,20.7,20.7,0,0,1,4-4.3,22.5,22.5,0,0,1,2.5-2,13.5,13.5,0,0,1,2.6-1.9A.2.2,0,0,1,285.3,7.4Z"/><path class="cls-1" d="M285.2,9.3a56,56,0,0,1-9.3,5.9c-.2.1-.5-.2-.3-.4a20.8,20.8,0,0,1,4.2-2.9l5.1-3C285.2,8.6,285.4,9.1,285.2,9.3Z"/><path class="cls-2" d="M278.3,14c-10.3,7.2-22.1,11.6-34.2,14.7s-23.8,4-35.3,1.3c-.4-.1-.4-.8,0-.8,5.9.2,11.7,1.1,17.6.8a88.8,88.8,0,0,0,17.9-2.8,131.7,131.7,0,0,0,17.3-5.7c5.7-2.3,11-5.4,16.5-8.1C278.3,13.5,278.5,13.9,278.3,14Z"/><path class="cls-2" d="M248,8.7c-1.6,0-3.1.5-4.7,0s-2.8-2.3-4-3.7h-.4a9,9,0,0,1-4.7,2.8c-1.8.4-3.2-.3-4.8-1a.2.2,0,0,0-.3-.1,7,7,0,0,1-3.7,3.9c-2.1,1-3.7.1-4.9-1.7a.3.3,0,0,0-.4-.2,9,9,0,0,0-6,7.4c-.3,2,.7,6.6,3.2,6.8.9,3,2.6,5.7,5.9,6.4a7.9,7.9,0,0,0,7.4-2.7.3.3,0,0,0,0-.3c.3-1.7.7-3,2.4-3.9a5.7,5.7,0,0,1,5.1-.1.3.3,0,0,0,.4-.2.1.1,0,0,0,.2-.1,5,5,0,0,1,1.9-4.4c1.7-1.4,3.5-1.1,5.5-.8.3,0,.4-.4.1-.5h-.1c-.4-1.8-.5-3.4.5-5.1a8.7,8.7,0,0,1,1.5-1.7.5.5,0,0,0,.2-.4A.4.4,0,0,0,248,8.7Z"/><path class="cls-1" d="M244.7,14.7c-.7-1.7-2.7-2.6-4.6-2.9l3.5-.7c.3,0,.3-.5,0-.5a19.2,19.2,0,0,0-4.9.7c.8-1,.8-2.5.8-3.8a.2.2,0,0,0-.3,0c-.2,1.3-.4,3.2-1.5,4.1L233.2,13l-3,1.2a6.2,6.2,0,0,0,.1-5.4.2.2,0,0,0-.5.1c0,1,.4,2,.3,3.1a6.3,6.3,0,0,1-.7,2.5,63,63,0,0,0-7.3,3.9l-2.8,1.9c1.3-2.4,2-5.3,1-7.8a.1.1,0,0,0-.3,0c-.1,1.5.2,3,0,4.5a11.8,11.8,0,0,1-1.4,3.7,57.1,57.1,0,0,0-6.7,5.7c-1.3,1.3-2.6,2.8-3.8,4.2l-1,1.3a10.6,10.6,0,0,1,.2,1.3l.3-.4a49.4,49.4,0,0,1,4.5-5.2,53.2,53.2,0,0,1,7-6.1,13.2,13.2,0,0,1,9.8,4.3.2.2,0,0,0,.4-.2c-.9-1.8-3-2.8-4.8-3.7a9.8,9.8,0,0,0-4.3-1.2l.8-.6a62.4,62.4,0,0,1,7.8-4.5,7.8,7.8,0,0,1,4.5,1.4c1.3.9,2.1,2.4,3.3,3.5s.4-.1.3-.3a10.9,10.9,0,0,0-4.1-4.2,6.7,6.7,0,0,0-3.1-.9,56.1,56.1,0,0,1,9-3.3,9,9,0,0,1,2.4.5,8.7,8.7,0,0,1,3.1,2.4C244.5,15.1,244.9,14.9,244.7,14.7Z"/><path class="cls-3" d="M217.4,27.7c-2.1,0-2.5,3-.8,3.9a1.9,1.9,0,0,0,2.7-.6,2.2,2.2,0,0,0,.2-.9,2.2,2.2,0,0,0,0-.6A2.2,2.2,0,0,0,217.4,27.7Z"/><path class="cls-3" d="M211.4,24.6a3.9,3.9,0,0,0,3.9.9,3.5,3.5,0,0,0-.6-6.8c-3.2-.6-6,3.2-3.4,5.7Z"/><path class="cls-1" d="M214.5,20a1.4,1.4,0,0,0-.6-.4.6.6,0,0,0-.7.2.8.8,0,0,0-.1.8l.3.3h.8c.3,0,.6-.2.6-.5A1.2,1.2,0,0,0,214.5,20Z"/><path class="cls-1" d="M218.4,30.2a.5.5,0,0,0-.5-.1.5.5,0,1,0,.5.1Z"/><path class="cls-1" d="M115.7,10.1C110.2,8.6,104,8.9,98.4,8.6,95.6,8.5,89.1,7.4,91,3s7.4-3.1,10.7-1.9a55.3,55.3,0,0,1,7,3.7,38.7,38.7,0,0,1,7.1,4.7h.1C116.3,9.7,116.1,10.2,115.7,10.1Z"/><path class="cls-1" d="M51.1,17.4c-5.7-.2-11.3,1.4-17,1.3-1.7,0-6.5.1-6.8-2.4s5.8-3.9,8.2-3.9a30.8,30.8,0,0,1,8.4,1.4,28.1,28.1,0,0,1,7.3,3h.1C51.6,17,51.5,17.4,51.1,17.4Z"/><path class="cls-1" d="M5.3,30.3c5.2-2.5,11.4-2.3,17-2.9a.4.4,0,0,1,.4.3.2.2,0,0,1,0,.3h-.2c-4.4,3-8.4,6.6-13.3,9-2,1-7.3,3-8.9.2S3.1,31.4,5.3,30.3Z"/><path class="cls-1" d="M48.2,28.7a37.1,37.1,0,0,1,9.5-.8,32.8,32.8,0,0,0,8.7-1.3,4.7,4.7,0,0,1,1.8-.6.3.3,0,0,1,.4.4.2.2,0,0,1,0,.2c-1.1,2-3.5,3.7-5.4,5a35.3,35.3,0,0,1-6.7,3.7c-3.6,1.6-9,3.4-12.4.5S45.7,29.4,48.2,28.7Z"/><path class="cls-1" d="M136.6,10.4c1.7,2.7,1.9,6.1,4.4,8.3h.1a.3.3,0,0,1-.1.5c-.6.1-1.8-.5-2.3-.8a19.2,19.2,0,0,1-3.9-2.8c-1.6-1.4-2.6-4.3-1.6-6.4S136,9.6,136.6,10.4Z"/><path class="cls-1" d="M124,14.4a.3.3,0,0,1-.2-.5,39.1,39.1,0,0,0-1.7-4.9,18.9,18.9,0,0,1-1.4-3c-.4-1.3-.6-3.3,1.2-3.6s2.5,2,2.8,3.1c.7,2.8,0,5.9-.4,8.7A.2.2,0,0,1,124,14.4Z"/><path class="cls-1" d="M115.8,17.8a61.1,61.1,0,0,1,12.8-1.2h.3a.1.1,0,0,1,0,.1.3.3,0,0,1-.2.3h-.4c-2.2.9-4.5,1.6-6.7,2.6s-4,2.2-6.1,3-4.9,1.4-5.2-.6S113.7,18.2,115.8,17.8Z"/><path class="cls-1" d="M96.1,17.4a17.3,17.3,0,0,1,5-2.4c1.3-.3,2.8-.9,4.1-.7h.2a.2.2,0,0,1,.2.4.4.4,0,0,1-.4.3c-3.2,2.6-5.2,6.3-8.2,9.1s-5,3.2-5.5-.1S94.1,18.7,96.1,17.4Z"/><path class="cls-1" d="M82.3,19c.8-.9,1.8-2.3,3-2.7h.4a.1.1,0,0,1,.2.1,54.4,54.4,0,0,0-2.1,6.1,26.2,26.2,0,0,1-1.5,4.8c-.6,1.3-2.3,4-4,2.7s.6-5.6,1.2-6.9A20.5,20.5,0,0,1,82.3,19Z"/><path class="cls-1" d="M84.2,14.9h-.6c-1.9-.4-3.8-.5-5.7-.9a18.5,18.5,0,0,1-5-1.7c-1.7-1-4.3-3.1-2.7-5.3s3.6.2,4.6.8c3.3,2.1,5.8,5.3,9.4,6.8A.2.2,0,0,1,84.2,14.9Z"/><path class="cls-1" d="M62.6,17.9h-.5a15.2,15.2,0,0,1-3.2-1.5c-1.2-.7-2.6-1.3-3.8-2S51.7,11.3,53,9.5c2.5-3.3,8.2,5.4,9.7,7.8v.4C63,17.9,62.7,18,62.6,17.9Z"/><path class="cls-1" d="M63.7,23.6c-1.3-1.2,1.5-3.4,2.3-4a20.3,20.3,0,0,1,3.8-2.1,14.6,14.6,0,0,1,3.9-1.6H74c.1,0,.1.1.1.2h0a.2.2,0,0,1-.2.3h-.3c-1,.9-2.1,1.7-3.1,2.7l-3,3.1C66.7,23.2,64.9,24.7,63.7,23.6Z"/><path class="cls-1" d="M35.1,26.9c3-2.8,7-4.3,10.7-5.9.4-.2.7.4.3.6h0c-1,1.6-2.4,3.1-3.4,4.7A28.2,28.2,0,0,1,39.2,31c-1,1-4.5,4.3-6.1,2.8S33.5,28.4,35.1,26.9Z"/><path class="cls-1" d="M19.5,22.4c.1-2.3,4-2.1,5.5-1.8,3.4.6,6.5,2.3,9.8,3.1h.1a.3.3,0,0,1,.2.3.3.3,0,0,1-.3.4,49.9,49.9,0,0,1-10.2.1C23.5,24.5,19.4,24.4,19.5,22.4Z"/><path class="cls-2" d="M6.2,33.1C17.6,28,29.9,24.8,42,21.7q6.5-1.7,13.1-3l-5.5-1.2c-5.3-1-10.6-1.1-16-1.6-.2,0-.2-.3,0-.3,5.7,0,11.1-.1,16.7.9a66.8,66.8,0,0,1,7.2,1.8c7.1-1.4,14.3-2.5,21.5-3.4,12.3-1.5,24.6-1.1,36.9-.1l8.2.8a66.5,66.5,0,0,0-7.6-4.4,70.8,70.8,0,0,0-8-3.2,59.1,59.1,0,0,0-9.3-2.8c-.3-.1-.3-.5,0-.6,2.8-.2,5.3.8,7.9,1.7s6.2,2.2,9.2,3.6a60.5,60.5,0,0,1,10.4,6.1c8.3,1.1,16.7,2.9,24.3,6.2.4.2.3.9-.2.8-2.6-.6-5.2-1.5-7.8-2.3s-6.1-1.6-9.1-2.2a151.5,151.5,0,0,0-17.4-2.4,213.9,213.9,0,0,0-27.7-.7c-2.4,1.8-5.1,3.4-7.6,4.9s-6.5,3.8-9.9,5.5a71.7,71.7,0,0,1-22.6,6.9.1.1,0,0,1,0-.3,80.9,80.9,0,0,0,22.2-7.6c3.5-1.7,6.9-3.7,10.2-5.7l5.3-3.5-7.2.6c-6,.6-12,1.7-18,2.7s-12.3,2.4-18.4,4C30.5,25.7,18.5,29.7,6.3,33.4A.2.2,0,0,1,6.2,33.1Z"/><path class="cls-2" d="M134.3,9.9a24.9,24.9,0,0,0,6.1,8.6c.2.2-.1.5-.3.3-2.6-2-5.5-5.5-5.8-8.9Z"/><path class="cls-2" d="M123.3,9.6c-.4-2-1-3.9-1.4-5.8h.1c1.1,3.6,2.8,6.9,2.3,10.7a.2.2,0,0,1-.4,0C123.7,12.8,123.7,11.2,123.3,9.6Z"/><path class="cls-2" d="M112.3,21.1a20.6,20.6,0,0,1,6.9-2.8l5.1-1.4a6,6,0,0,1,3.1-.4c.2,0,.3.3.1.4-2.4.8-5,1.1-7.5,1.8s-5,1.9-7.6,2.6A.1.1,0,0,1,112.3,21.1Z"/><path class="cls-2" d="M92.9,23.9c2.3-3.9,5.9-9.1,11.1-9.2.2,0,.4.4.1.5a18.2,18.2,0,0,0-6.3,3.2,33.6,33.6,0,0,0-4.7,5.7C93,24.2,92.9,24,92.9,23.9Z"/><path class="cls-2" d="M71.3,7.6A31.7,31.7,0,0,0,77.8,12c2.2,1.2,4.7,1.5,7,2.5a.3.3,0,0,1-.1.6,22.5,22.5,0,0,1-7.5-3c-2.1-1.2-4.4-2.5-5.9-4.5C71.1,7.6,71.2,7.5,71.3,7.6Z"/><path class="cls-2" d="M64.7,22.5c1.7-1.4,3.4-2.7,5-4.3s2.5-2.5,4.2-2.8.4.4.1.5c-3.3,1.9-6,4.5-9.2,6.7A.1.1,0,0,1,64.7,22.5Z"/><path class="cls-2" d="M79.6,28.4c1.5-3.9,1.7-8.7,5.4-11.4.2-.1.4,0,.3.3a6.8,6.8,0,0,1-1.2,1.8,16.6,16.6,0,0,0-2,3.4c-1,1.9-1.4,4.1-2.4,6Z"/><path class="cls-2" d="M54.2,10.2c1.7,1.3,3.2,2.9,4.7,4.4s3,1.9,4.2,3.1,0,.3-.2.3c-1.7-.1-3.2-1.8-4.4-2.9a23.7,23.7,0,0,1-4.4-4.8Z"/><path class="cls-2" d="M39,26.6c1.8-1.7,3.8-4.3,6.2-5,.1,0,.2.2.1.3-1.5,1.6-3.4,3-5,4.4a54,54,0,0,0-5.7,5.7h0A19.2,19.2,0,0,1,39,26.6Z"/><path class="cls-2" d="M20.6,22.1c2.1-.4,4.4.1,6.5.5A45,45,0,0,1,33.8,24c.3.1.2.6-.2.6-2.2-.1-4.4-1-6.5-1.4a57.2,57.2,0,0,0-6.5-.8C20.5,22.3,20.6,22.1,20.6,22.1Z"/><path class="cls-3" d="M74.8,18.6c.7,2.1,3.5,3.3,5.5,3.3a4.9,4.9,0,0,0,4.8-3.2,4.3,4.3,0,0,0-.3-4.1,6.1,6.1,0,0,0-2.5-2.4C78,10.1,73.4,14.3,74.8,18.6Z"/><path class="cls-3" d="M91,19.5a3.3,3.3,0,0,0,2.6-2.4,2.6,2.6,0,0,0-.9-2.8l-.3-.3a3.4,3.4,0,0,0-5.7,1.1C85.7,18,88.5,20,91,19.5Z"/><path class="cls-3" d="M84.8,12.9a2.6,2.6,0,0,0,2.7-1.1,3.1,3.1,0,0,0-.4-4.3,3.3,3.3,0,0,0-5.2,1.7C81.5,11,83.2,12.5,84.8,12.9Z"/><path class="cls-1" d="M82.3,18.8h0a.4.4,0,0,0,0,.2h0a.6.6,0,0,0,.4.6.5.5,0,0,0,.5-.1,1.1,1.1,0,0,0,.3-.6.6.6,0,0,0,0-.3h0a.6.6,0,0,0-.6-.5h-.4l-.2.2h0Z"/><path class="cls-1" d="M82.3,18.8h0Z"/><path class="cls-1" d="M82.2,19.2s0,0,0,0S82.2,19.1,82.2,19.2Z"/><path class="cls-1" d="M83.1,8.9a.8.8,0,0,0,.2.5v.2h.1a.8.8,0,0,0,1.1-.1.9.9,0,0,0,.1-1.1.9.9,0,0,0-.8-.4A.8.8,0,0,0,83.1,8.9Z"/><path class="cls-1" d="M88.4,17.5h0a.4.4,0,0,0,.6.1.6.6,0,0,0,.2-.4.5.5,0,0,0-.9-.1A.6.6,0,0,0,88.4,17.5Z"/><path class="cls-3" d="M102.2,18.3a4.7,4.7,0,0,0,8.5-1.1,4,4,0,0,0-2.4-4.9,4,4,0,0,0-1.4-.7C102.9,10.6,100.4,15.1,102.2,18.3Z"/><path class="cls-1" d="M109,15v.3a.5.5,0,0,0,.2.5.6.6,0,0,0,.8-.1.8.8,0,0,0-.1-1.1.5.5,0,0,0-.6,0A.4.4,0,0,0,109,15Z"/><path class="cls-3" d="M124.2,19.3a3.7,3.7,0,0,0,2.8,2.8,3,3,0,0,0,3.2-1.7,2.9,2.9,0,0,0,0-2.7,3.1,3.1,0,0,0-.9-1.5C127.1,14.1,123.6,16.5,124.2,19.3Z"/><path class="cls-1" d="M127.5,21.5a.7.7,0,0,0,.8.1.6.6,0,0,0,.3-.5h0a.6.6,0,0,0,0-.3.6.6,0,0,0-1-.2l-.2.2A.5.5,0,0,0,127.5,21.5Z"/><path class="cls-3" d="M51.3,18.1a3.2,3.2,0,0,0,1.1-1.3l.2-.5a3.2,3.2,0,0,0,.1-2.2l-.4-.8a3.7,3.7,0,0,0-.9-1.1,3.5,3.5,0,0,0-5.6,2.6A3.7,3.7,0,0,0,51.3,18.1Z"/><path class="cls-1" d="M50.3,14.6v.2c.3.3.6,0,.6-.3h0a.3.3,0,0,0-.3-.3C50.6,14,50.2,14.3,50.3,14.6Z"/><path class="cls-3" d="M33.8,22.8c2.7,3.4,7.6,1.3,7.4-2.9a3.9,3.9,0,0,0-2-3,5,5,0,0,0-1.8-.9A4.2,4.2,0,0,0,33,17.7C31.9,19.4,32.7,21.5,33.8,22.8Z"/><path class="cls-3" d="M39.1,26.2a2.7,2.7,0,0,0-1.7-.9c-2.4-.2-3.6,3-1.9,4.6A2.7,2.7,0,0,0,40,27.6,2.1,2.1,0,0,0,39.1,26.2Z"/><path class="cls-3" d="M25.6,24.6c-.3,2.9,3.4,5.1,5.9,3.6l.7-.7a3.4,3.4,0,0,0,1.1-3.7,2.6,2.6,0,0,0-.6-.9l-.4-.5A3.9,3.9,0,0,0,25.6,24.6Z"/><path class="cls-1" d="M31.4,26.4c.7.3,1.3-.8.9-1.3a.7.7,0,0,0-.8-.2.6.6,0,0,0-.4.6A.7.7,0,0,0,31.4,26.4Z"/><path class="cls-1" d="M37.1,23.4h.5a.6.6,0,0,0,.7-.8.8.8,0,0,0-.6-.5.8.8,0,0,0-.8.5A.6.6,0,0,0,37.1,23.4Z"/><path class="cls-1" d="M35.8,29.3h0a.5.5,0,0,0,.2.5.5.5,0,0,0,.8-.3h0a.5.5,0,0,0-.4-.6.5.5,0,0,0-.6.4Z"/><path class="cls-4" d="M181.4,32.4c-.2-1.2,1-1.2,1.8-1.1l1.9.6a8.5,8.5,0,0,0,3.9.4l.2-.2a.2.2,0,0,1,.3,0l.6-.2c.1,0,.1.1,0,.2a4.5,4.5,0,0,0-1.1,2,18.9,18.9,0,0,0,0,2.1c-.1.6-.4,1.8-1.3,1.5s-.6-1.5-.6-2a5.6,5.6,0,0,1,1.4-2.8c-1,1-3.1.9-4.4.8S181.5,33.5,181.4,32.4Z"/><path class="cls-4" d="M165.6,34.1c.6-1,1.9.1,2.4.6s2.8,3.6,5.4,3.9c.2,0,.2.3,0,.3h-.2v.2a6.6,6.6,0,0,1-5.9-1.2C166,37.1,164.7,35.6,165.6,34.1Z"/><path class="cls-4" d="M164.5,40.8h-.2a.2.2,0,0,1-.2.2c-2.2-.1-4.5-1.6-6-3.2s-1.8-2.9-.3-4,2.5,1.4,3,2.1,1.9,3.8,3.8,4.3A.2.2,0,0,1,164.5,40.8Z"/><path class="cls-4" d="M155.5,41.6h-.7a10.2,10.2,0,0,1-5.7-3.5c-.8-1-1.2-3.6.5-4.2s2,1.2,2.4,2.1,1.6,4.5,3.6,5.4C155.9,41.4,155.7,41.6,155.5,41.6Z"/><path class="cls-4" d="M145.3,41.4l-.4-.2h-.2a10,10,0,0,1-6.3-4.1c-1.1-1.5-1.3-4,.5-5s2.3,1,2.7,1.9.7,1.8,1.1,2.7a28.7,28.7,0,0,0,2.7,4.4C145.5,41.3,145.4,41.5,145.3,41.4Z"/><path class="cls-4" d="M135.4,40.2h-.3c-1.7.1-3.7-2.4-4.6-3.6s-1.8-3.6-.8-5.1,2.2-1.3,2.8.2.4,6.6,3.1,8.1C135.8,39.9,135.7,40.3,135.4,40.2Z"/><path class="cls-4" d="M127,38.2l-.3-.2a.3.3,0,0,1-.3.1c-2.7-1.2-5.3-2.5-6.5-5.4-.4-.9-.8-3.3.2-4s2.4.5,2.9,1.6.6,1.9.9,2.8a16.9,16.9,0,0,0,3.1,4.8C127.2,38.1,127.1,38.3,127,38.2Z"/><path class="cls-4" d="M117.5,35.4c-2.8-1.2-6.4-5.9-3.4-8.6,1.2-1,2.4,1.1,2.5,2s.1,2.2.2,3.3.5,1.8.6,2.8l.3.2C117.9,35.2,117.7,35.5,117.5,35.4Z"/><path class="cls-4" d="M99.4,25.4c.6-2.1,2.8-1.9,4.3-1a10.6,10.6,0,0,1,2.9,2.8l2.3,3,.2.2a21.2,21.2,0,0,1,2.4,2.1h.2c.1.1.1.3-.1.3a22,22,0,0,1-8.9-2.9C101.5,29.1,98.9,27.2,99.4,25.4Z"/><path class="cls-4" d="M181.3,36.2h-.2c-2.1,1.3-5.9-.8-6.1-3.2s1-1.1,1.7-.7a8.7,8.7,0,0,1,1.4,1.4,5.8,5.8,0,0,0,3,1.9h.2a.2.2,0,0,1,.1.3l.8-.4a1.4,1.4,0,0,1,.9-.5h.1c-.2.4-.2.4-.5.9a6.7,6.7,0,0,0-.8,2,10.4,10.4,0,0,0-.2,2.3c-.1,1.1-.4,2.3-1.7,2s-.7-2.4-.5-3.2A6.2,6.2,0,0,1,181.3,36.2Z"/><path class="cls-4" d="M175.4,38.1a.2.2,0,0,1,.3.1l.4-.2a.2.2,0,0,1,.2.2,8.9,8.9,0,0,0-1.4,3.3c-.2,1,0,2-.1,3s-1.1,2.1-2.1,1.5-.5-2.3-.4-3.1A7.8,7.8,0,0,1,175.4,38.1Z"/><path class="cls-4" d="M169.5,39.9h.2l.6-.4a.2.2,0,0,1,.3.2,5,5,0,0,1-.9,1.2,6.3,6.3,0,0,0-1.3,2.8,31.2,31.2,0,0,1-.9,3.5c-.5,1.1-1.9,2.4-3.1,1.5s-.1-3,.2-3.8A9.8,9.8,0,0,1,169.5,39.9Z"/><path class="cls-4" d="M160.9,41h.2l.5-.2a.2.2,0,0,1,.1.3,10,10,0,0,0-3.1,3.9c-.4.9-.6,2-1,2.9s-1.9,2.8-2.9,1.4.2-3.3.8-4.3S159,41.4,160.9,41Z"/><path class="cls-4" d="M145,44.5a13,13,0,0,1,6.2-3,.2.2,0,0,1,.2.2h.3c.1,0,.1.2,0,.2-2.7,1.2-3.5,3.3-5.1,5.6s-2.6,2.7-3.6.9S144.1,45.3,145,44.5Z"/><path class="cls-4" d="M140.3,40.7h1.3a.1.1,0,0,1,.1.3c-2.6.9-4,2.8-5.5,5s-1.9,2.2-3.3,1.6,0-3.3.7-4A10.8,10.8,0,0,1,140.3,40.7Z"/><path class="cls-4" d="M130.6,38.7a.2.2,0,0,1,.1.3h0c.1,0,.1.2,0,.2-2.7,1.1-4.3,3.8-6.8,5.2s-2.8,1.2-3.4-.2C119.2,41,129,38,130.6,38.7Z"/><path class="cls-4" d="M110.8,35.2a24.5,24.5,0,0,1,10,1.1l2.1.4c.2.1.2.3,0,.4h-.9a21.2,21.2,0,0,0-6.3.6,36.1,36.1,0,0,1-4.6,1.1c-.9.1-3.8.7-4.3-.6S109.6,35.3,110.8,35.2Z"/><path class="cls-4" d="M102.8,26.7c3.1,1.9,5.9,3.9,9.1,5.5a71.5,71.5,0,0,0,10.5,4.2,106.6,106.6,0,0,0,24.1,4.6A81.9,81.9,0,0,0,171,39.1a53.2,53.2,0,0,0,10.5-3.5c3.4-1.6,6.8-2.9,9.9-5.1.3-.2.6.2.4.5-2.3,2.3-5.5,3.4-8.4,4.6A75.1,75.1,0,0,1,172,39.7a81.7,81.7,0,0,1-24.6,2.1,107.7,107.7,0,0,1-24.5-4.4,75.3,75.3,0,0,1-10.7-4.1c-3.4-1.6-7-3.5-9.7-6.2C102.3,26.9,102.5,26.5,102.8,26.7Z"/><path class="cls-1" d="M190.6,38.7a35,35,0,0,0,3.8-3.6,48.8,48.8,0,0,0,4.5-4.9.2.2,0,0,0-.3-.3,33.1,33.1,0,0,0-3.7,3.7c-1.5,1.6-3.1,3.2-4.4,4.9C190.5,38.7,190.6,38.8,190.6,38.7Z"/><path class="cls-1" d="M188.8,36.1a13.4,13.4,0,0,0-1.1,4.5h.2a33.4,33.4,0,0,0,3.3-10.1.3.3,0,0,0-.5-.1A44.1,44.1,0,0,0,188.8,36.1Z"/><path class="cls-1" d="M185.8,39.9l4.7-4.6a29.2,29.2,0,0,0,4.5-4.9c.1-.2-.1-.5-.3-.3-3.1,3.1-6.2,6.2-9.2,9.4C185.2,39.8,185.6,40.1,185.8,39.9Z"/><path class="cls-1" d="M181.7,39.6a50.3,50.3,0,0,1,3.5-4.1c1.3-1.6,3.1-3.1,4.1-4.9.1-.2-.1-.4-.3-.3a28.9,28.9,0,0,0-3.9,4.3c-1.3,1.5-2.8,3.1-3.5,5Z"/><path class="cls-1" d="M182.7,39.7a37.3,37.3,0,0,0,5.1-8.7c.1-.4-.4-.6-.6-.2-1.5,3-3.2,5.9-4.8,8.8C182.5,39.7,182.7,39.8,182.7,39.7Z"/><path class="cls-1" d="M179.2,39.9A16.8,16.8,0,0,0,182,36l3.4-5.2a.3.3,0,0,0-.6-.4c-2.4,2.6-4.1,6.2-5.8,9.4C179,39.8,179.2,39.9,179.2,39.9Z"/><path class="cls-1" d="M177.5,40a.1.1,0,0,0,.2.1,32.1,32.1,0,0,0,4.5-9.7.4.4,0,0,0-.8-.3C179.9,33.3,178.9,36.7,177.5,40Z"/><path class="cls-1" d="M173.9,39c1.9-1.2,3.7-2.6,5.5-3.9a17.1,17.1,0,0,0,4.9-4.6c.2-.4-.3-.8-.6-.4s-3.2,3.1-4.9,4.4-3.4,2.8-5.1,4.3A.2.2,0,0,0,173.9,39Z"/><path class="cls-1" d="M167.1,37.6c4.3-2,10.2-3.2,13.4-7a.2.2,0,0,0-.2-.3c-2.3.5-4.1,2.4-6.2,3.4a41.5,41.5,0,0,0-7.1,3.7A.1.1,0,0,0,167.1,37.6Z"/><path class="cls-1" d="M170.3,38a19.5,19.5,0,0,0,5.7-4.8c.7-.8,2.5-2.1,2.6-3.1a.3.3,0,0,0-.5-.4c-.9.3-1.7,1.7-2.3,2.3l-5.6,5.7C170,37.8,170.1,38.1,170.3,38Z"/><path class="cls-1" d="M165.9,36.4a16.7,16.7,0,0,0,4.7-3.5,15.8,15.8,0,0,0,2-2c.3-.4.8-1.3,1.3-1.5a.4.4,0,0,0-.1-.7c-.8-.1-1.6,1.2-2.1,1.8a23.9,23.9,0,0,1-3.1,3.1,36.2,36.2,0,0,1-2.9,2.6C165.5,36.2,165.7,36.5,165.9,36.4Z"/><path class="cls-1" d="M168.9,37.4a51.5,51.5,0,0,0,3.9-4.2,41.7,41.7,0,0,0,3.7-3.6.4.4,0,0,0-.6-.4c-.9,1.1-2.2,2-3.2,3.1s-2.6,3.3-3.9,5.1Z"/><path class="cls-1" d="M172.8,38.4a18.9,18.9,0,0,0,4.8-4.1c1-1.1,2.8-2.7,3.2-4.2a.4.4,0,0,0-.6-.4l-2.8,3.5c-1.5,1.8-3.2,3.4-4.7,5.1Z"/><path class="cls-1" d="M162.5,36.2c2.5-.8,4.8-2.5,7.1-3.7l3.6-2c.4-.2,1.1-.5,1.2-1a.2.2,0,0,0-.1-.2c-1.5-.3-3.8,1.8-5,2.4s-4.4,3.1-6.8,4.3A.1.1,0,0,0,162.5,36.2Z"/><path class="cls-1" d="M161,35.7a24.8,24.8,0,0,0,4.6-3.1l2.8-2a23.4,23.4,0,0,1,2.2-2,.3.3,0,0,0,.2-.6h-.4a59.6,59.6,0,0,0-4.7,3.6c-1.7,1.2-3.2,2.8-4.9,3.9C160.7,35.6,160.8,35.8,161,35.7Z"/><path class="cls-1" d="M143.5,29.7a29.1,29.1,0,0,0,7.2-2,19.2,19.2,0,0,0,3.2-1.5c.5-.3,2.1-1.8,2.7-1.8a.4.4,0,0,0,.1-.8,1.3,1.3,0,0,0-.9.3,25.4,25.4,0,0,1-4.1,2.4,62.9,62.9,0,0,1-8.2,3C143.3,29.5,143.3,29.7,143.5,29.7Z"/><path class="cls-1" d="M148.1,30.3l3-3.3c1.1-1.2,2.4-2.1,3.6-3.2a.3.3,0,0,0-.3-.6c-2.8,1.1-4.9,4.4-6.4,6.9A.1.1,0,0,0,148.1,30.3Z"/><path class="cls-1" d="M147,34.2c1.9-1.3,3.5-3.1,5.4-4.5s4.2-3.1,6.5-4.4c.4-.2,0-1-.4-.7A41.1,41.1,0,0,0,146.8,34C146.7,34.1,146.9,34.3,147,34.2Z"/><path class="cls-1" d="M151.1,31.5c1.8-.1,3.4-1.2,4.9-2a23.4,23.4,0,0,0,4.8-3.4c.3-.3,0-.8-.4-.6s-2.7,2.1-4.3,3a22.6,22.6,0,0,1-5.1,2.7A.2.2,0,0,0,151.1,31.5Z"/><path class="cls-1" d="M154.7,36.2h.1c2.3-3.4,4.4-7.5,7.7-9.9.3-.3,0-.9-.4-.6-2,1.1-3.2,2.9-4.4,4.9S155,34.2,154.7,36.2Z"/><path class="cls-1" d="M153.9,33a56.7,56.7,0,0,0,5.7-2.9l1.8-1c.8-.5,1.5-1.4,2.3-1.9s.2-1-.3-.8a2.2,2.2,0,0,0-.9.6,11.3,11.3,0,0,1-3.2,2.3,60.5,60.5,0,0,0-5.5,3.5C153.6,32.8,153.7,33,153.9,33Z"/><path class="cls-1" d="M158.6,34.8c2.6-1.6,5.8-4.4,7-7.3a.3.3,0,0,0,0-.3h-.2c-.8.1-1.9,2.1-2.3,2.7a49.5,49.5,0,0,1-4.7,4.7A.2.2,0,0,0,158.6,34.8Z"/><path class="cls-1" d="M162.2,35.8c0,.1.2.2.2,0s1.8-3.3,2.6-4.7a8.9,8.9,0,0,1,2.6-3.3c.4-.3,0-1-.5-.8s-2,2.2-2.8,3.5S161.8,34.3,162.2,35.8Z"/><path class="cls-1" d="M157.9,33.8a32,32,0,0,0,3.5-3.3,26.7,26.7,0,0,1,3.9-3.3l.2-.2a.4.4,0,0,0-.4-.5c-2.9,1.3-5.7,4.6-7.3,7.2C157.7,33.8,157.8,33.9,157.9,33.8Z"/><path class="cls-1" d="M141.8,29.9c3-2.8,6.9-4.5,10.2-6.8.4-.3,0-1-.4-.7a52.4,52.4,0,0,0-5,3.1,19.1,19.1,0,0,0-4.9,4.3C141.6,29.9,141.7,30,141.8,29.9Z"/><path class="cls-1" d="M138.6,28a50.9,50.9,0,0,1,6.2-3.2c1.7-.7,4-1.2,5.4-2.5a.4.4,0,0,0-.4-.6,20.7,20.7,0,0,1-2.7,1.1l-3.2,1.3a18.1,18.1,0,0,0-5.4,3.5C138.3,27.8,138.4,28.1,138.6,28Z"/><path class="cls-1" d="M137.5,22.2a66,66,0,0,0,7.4.6c1.5,0,3.4.2,4.8-.3a.4.4,0,0,0-.1-.8,33.6,33.6,0,0,0-4.1.2,71.8,71.8,0,0,1-8,0C137.3,22,137.3,22.2,137.5,22.2Z"/><path class="cls-1" d="M138.8,23.4a41.9,41.9,0,0,0,3.5-2.5c.5-.4,1.7-1.3,2.4-1.2s.7-.8.1-.9-1.9.6-2.5,1a24.1,24.1,0,0,0-3.6,3.2C138.5,23.3,138.6,23.5,138.8,23.4Z"/><path class="cls-1" d="M130.8,22l5.8-1.6c1.9-.6,4-1.7,6.1-1.7s.7-.8.1-.9-3.3.6-4.7,1.1l-7.4,2.6C130.4,21.6,130.5,22.1,130.8,22Z"/><path class="cls-1" d="M127.5,17.6a39,39,0,0,0,7.4.4h4a2.2,2.2,0,0,0,1.6-.5.3.3,0,0,0-.2-.6c-4.3-.1-8.6.4-12.8.1A.3.3,0,0,0,127.5,17.6Z"/><path class="cls-1" d="M127.9,15.7a18.8,18.8,0,0,0,3.9-.4,26.1,26.1,0,0,1,6.5.8.4.4,0,0,0,.2-.8,17.5,17.5,0,0,0-10.7,0C127.6,15.4,127.7,15.7,127.9,15.7Z"/><path class="cls-1" d="M123.6,12.7c1.7-.7,4.4.1,6,.5a34,34,0,0,1,6.5,1.7c.4.2.7-.4.4-.7s-5.3-1.6-7.5-2.1-4.2-1-5.5.4S123.5,12.8,123.6,12.7Z"/><path class="cls-1" d="M125.5,9.6c1.5.7,2.8,1.5,4.3,2.3a39,39,0,0,1,5.6,2.8.3.3,0,0,0,.4-.3c-.7-1.6-2.9-2.1-4.3-2.8s-3.9-2.4-5.8-2.4A.2.2,0,0,0,125.5,9.6Z"/><path class="cls-1" d="M126,14a31.4,31.4,0,0,0,4.7,0h4.8l-.6-.5h-4.1c-1.6,0-3.1.4-4.7.2A.2.2,0,0,0,126,14Z"/><path class="cls-1" d="M135.2,23a22,22,0,0,1,4.5-2.1,36.3,36.3,0,0,1,4.5-1.9.3.3,0,0,0-.1-.6,19.5,19.5,0,0,0-9.1,4.4A.1.1,0,0,0,135.2,23Z"/><path class="cls-1" d="M139.5,25.9a33.6,33.6,0,0,0,5.8-3l1.2-.8c.4-.3,1.1-1.2,1.7-1.3s.4-.4.1-.6-2,1-2.5,1.4a21.3,21.3,0,0,1-2.6,1.7c-1.3.8-2.4,1.7-3.8,2.4A.1.1,0,0,0,139.5,25.9Z"/><path class="cls-1" d="M142,27.7l6-2.6,3.1-1.1a10.7,10.7,0,0,0,2.6-.9h-.5l-.7-.4a20.8,20.8,0,0,0-4.3,1.5,67.7,67.7,0,0,0-6.4,3.2C141.5,27.4,141.7,27.8,142,27.7Z"/><path class="cls-1" d="M193.6,21.7a26.9,26.9,0,0,1,3,4.8c.6,1.3.6,3.3,1.6,4.3a.3.3,0,0,0,.5-.2c-.4-3.1-2.2-7.3-4.9-9.2A.2.2,0,0,0,193.6,21.7Z"/><path class="cls-1" d="M191.7,24.5c.6,1.9,1.5,5,3.3,6.1a.2.2,0,0,0,.4-.3,29.4,29.4,0,0,0-1.5-2.7,30.1,30.1,0,0,1-1.2-2.9c-.8-2-1.6-4.1-2.3-6.2h-.2A18.8,18.8,0,0,0,191.7,24.5Z"/><path class="cls-1" d="M186.2,21a22.9,22.9,0,0,1,4.3,4.7,19.3,19.3,0,0,1,3.1,5.2c.2.5.9.2.8-.2a16.3,16.3,0,0,0-2.8-5.1,19.4,19.4,0,0,0-5.1-5A.2.2,0,0,0,186.2,21Z"/><path class="cls-1" d="M183.1,19.4a34.1,34.1,0,0,1,2.6,6.2c.6,1.6.7,3.9,1.7,5.3a.3.3,0,0,0,.5-.1c.3-1.7-.6-3.9-1.3-5.5a28.4,28.4,0,0,0-3-6.2C183.3,18.6,182.9,19,183.1,19.4Z"/><path class="cls-1" d="M181.9,20.9c1.8,2.7,3.9,5.1,5.8,7.6.6.8,1.6,2.7,2.6,3s.8-.3.5-.7c-3-3.3-5.5-7-8.7-10.1A.1.1,0,0,0,181.9,20.9Z"/><path class="cls-1" d="M186.3,22.9a48.1,48.1,0,0,0,4.5,6.4c.4.5,1.6,2,2.2,1.9a.4.4,0,0,0,.3-.5c-.2-.7-1.3-1.4-1.8-1.9a38,38,0,0,1-4.9-6C186.5,22.4,186.1,22.6,186.3,22.9Z"/><path class="cls-1" d="M192.3,20.6a19.9,19.9,0,0,0,1.7,5.2,19.3,19.3,0,0,0,2.7,4.9c.3.4.9-.1.6-.5-2.3-2.6-3.6-6.4-4.9-9.6Z"/><path class="cls-1" d="M176.6,20.3c2.2,1.5,3.6,3.9,5.2,5.9a20.8,20.8,0,0,1,2.2,3.1,4.1,4.1,0,0,0,1,1.5.3.3,0,0,0,.5-.2c.2-1.6-2-3.9-2.9-5s-3.2-4.5-5.5-5.9C176.6,19.6,176.2,20,176.6,20.3Z"/><path class="cls-1" d="M177.1,22.6l4.7,4.2c1.5,1.3,3.7,2.6,4.8,4.3s1,0,.8-.5-2.6-2.4-3.9-3.5a46.9,46.9,0,0,0-6.1-4.9A.2.2,0,0,0,177.1,22.6Z"/><path class="cls-1" d="M180.6,21.3a39.3,39.3,0,0,1,3.2,5.2c.7,1.4,1.1,3,1.9,4.3s.6.1.6-.3a14.7,14.7,0,0,0-2-4.3,31,31,0,0,0-3.7-5Z"/><path class="cls-1" d="M174.2,19.9c1.3,1.9,2.5,3.9,3.8,5.9s2.2,3.9,3.8,5,.8-.2.5-.5a54.5,54.5,0,0,1-3.6-5c-1.4-1.9-2.7-3.8-4.3-5.5A.1.1,0,0,0,174.2,19.9Z"/><path class="cls-1" d="M173.8,20.5a30.1,30.1,0,0,1,2,4.8,25.6,25.6,0,0,0,1.8,4.7c.3.4.8,0,.7-.4a29,29,0,0,0-4.1-9.2C174,20.1,173.6,20.3,173.8,20.5Z"/><path class="cls-1" d="M172.3,20.4c.9,2,2.4,3.4,3.8,5.1s2.4,3.8,3.9,4.7a.2.2,0,0,0,.3-.3c-.6-1.7-2-3-3.2-4.3s-3.2-3.5-4.7-5.3A.1.1,0,0,0,172.3,20.4Z"/><path class="cls-1" d="M168.8,18.5c1.2,2,2.1,4.1,3.5,6s2.1,4,3.8,5.4.6-.2.4-.4c-2.6-3.6-4.9-7.5-7.3-11.2C169,18.1,168.7,18.3,168.8,18.5Z"/><path class="cls-1" d="M166.5,17.8a30.3,30.3,0,0,1,4.5,6.1c.7,1.1,1.3,2.2,1.9,3.4s.4,1.4,1.1,1.9.5,0,.4-.3a19.5,19.5,0,0,0-2.7-5.4,22.2,22.2,0,0,0-5-5.8C166.6,17.6,166.4,17.7,166.5,17.8Z"/><path class="cls-1" d="M165.7,18.6c.9,2.2,1.8,4.3,2.9,6.5s1.2,3,2.7,3.6a.3.3,0,0,0,.3-.4c-2-3.2-3.9-6.4-5.7-9.8A.1.1,0,0,0,165.7,18.6Z"/><path class="cls-1" d="M163.1,17.4c1.1,1.7,2.3,3.2,3.5,4.8s1.9,4.3,3.4,5.9a.2.2,0,0,0,.4-.2c-1.4-4.2-4.5-7.3-7.2-10.6Z"/><path class="cls-1" d="M168.2,21.4c1.7,2.5,2.6,5.5,4.3,8a.3.3,0,0,0,.5-.2c-.2-1.5-1.4-3.1-2.1-4.4a13.6,13.6,0,0,0-2.5-3.5C168.2,21.2,168.1,21.3,168.2,21.4Z"/><path class="cls-1" d="M154.2,14.2c1.6,1.3,2.5,3.8,3.4,5.6s1.6,3.7,2.3,5.6.9.2.7-.3c-1.2-3.7-2.9-8.7-6.2-11.1A.2.2,0,0,0,154.2,14.2Z"/><path class="cls-1" d="M158.1,17.1c.8,2.1,2.1,4.1,2.7,6.2s.5,2.9,1.4,3a.3.3,0,0,0,.3-.2c.1-.4-.2-.7-.4-1.1a16.6,16.6,0,0,1-.8-2.3c-.6-2-2.1-3.8-3.1-5.6A.1.1,0,0,0,158.1,17.1Z"/><path class="cls-1" d="M160.5,16.4c.9,1.8,1.5,3.9,2.2,5.8s.7,3.5,1.9,4.6.3,0,.3-.2a20.8,20.8,0,0,0-1.8-5.2,27.3,27.3,0,0,0-2.4-5.1C160.6,16.1,160.4,16.3,160.5,16.4Z"/><path class="cls-1" d="M162,16.8c1.5,3.7,3.5,8.1,6.3,11.1a.3.3,0,0,0,.4-.3,51.7,51.7,0,0,0-3.4-5.8,38,38,0,0,0-3.1-5.2A.1.1,0,0,0,162,16.8Z"/><path class="cls-1" d="M159.9,17.8c1.2,1.4,2.4,2.8,3.6,4.3a44.8,44.8,0,0,1,3.3,5.9.2.2,0,0,0,.5-.1c-.6-4.1-4.1-7.7-7.1-10.3C160,17.5,159.8,17.7,159.9,17.8Z"/><path class="cls-1" d="M151.6,13.5c-.3,1.9.2,3.9.7,5.8s.8,3.5,2.1,4.3.5,0,.4-.2-1.2-2.9-1.6-4.4a22.5,22.5,0,0,1-1.1-5.5C152,13.2,151.6,13.2,151.6,13.5Z"/><path class="cls-1" d="M149.2,13.7a41.5,41.5,0,0,1,3.9,5.2,19.2,19.2,0,0,1,1.9,3.4,6.5,6.5,0,0,0,1.2,2.1.3.3,0,0,0,.5-.4c-1-1.5-1.6-3.3-2.6-4.9a34.8,34.8,0,0,0-4.5-5.6C149.4,13.2,149,13.4,149.2,13.7Z"/><path class="cls-1" d="M153.5,14.7a28.3,28.3,0,0,0,2,5.5c.7,1.5,1.5,4,3,4.8a.3.3,0,0,0,.4-.4,60.2,60.2,0,0,1-5.1-10A.2.2,0,0,0,153.5,14.7Z"/><path class="cls-1" d="M146.3,11c.5,2.1.8,4.2,1.4,6.2s.8,3.6,2.2,4.4.4-.2.3-.4c-.7-1.8-1.5-3.5-2-5.4s-.9-3.4-1.5-5S146.2,10.8,146.3,11Z"/><path class="cls-1" d="M147.7,12.8c.8,1.7,1.2,3.6,2,5.3s1.4,3.5,2.6,4.9.5.1.4-.2a27.4,27.4,0,0,0-2.4-5c-.9-1.7-1.4-3.5-2.3-5.2S147.6,12.6,147.7,12.8Z"/><path class="cls-1" d="M143.1,11.5c2.7,2.5,3.4,6.6,5.6,9.5a.3.3,0,0,0,.5-.3c-1.3-3.3-3.2-7.2-5.9-9.6C143.1,11,142.9,11.4,143.1,11.5Z"/><path class="cls-1" d="M142.4,12.1a23.1,23.1,0,0,1,2.1,4.1,12.6,12.6,0,0,0,2.5,3.9c.2.2.4-.1.3-.3a34.3,34.3,0,0,0-2.5-4.3,16.3,16.3,0,0,0-2.2-3.6C142.5,11.8,142.3,12,142.4,12.1Z"/><path class="cls-1" d="M141.6,9.7a22.8,22.8,0,0,0,.5,4.9c.4,1.4.6,3.4,1.9,4.2a.2.2,0,0,0,.3-.2,25.4,25.4,0,0,0-1.3-3.8c-.5-1.7-.7-3.4-1.1-5.1A.2.2,0,0,0,141.6,9.7Z"/><path class="cls-1" d="M140.3,10.8a34.8,34.8,0,0,0,2.5,4.6,18.3,18.3,0,0,0,2.7,4.3.1.1,0,0,0,.2-.1c-1-3.2-3.3-6.1-5-9A.2.2,0,0,0,140.3,10.8Z"/><path class="cls-1" d="M139,8.7c1,3.1,1,6.7,2.8,9.5.1.2.5,0,.4-.2s-1-3.3-1.5-5a16.7,16.7,0,0,0-1.7-4.4Z"/><path class="cls-1" d="M136.7,7.7c.6,3.1.7,6.7,3.2,9,.2.2.5-.1.4-.3a11.3,11.3,0,0,0-1-2,12.1,12.1,0,0,1-1-2.5,32.3,32.3,0,0,0-1.4-4.2A.1.1,0,0,0,136.7,7.7Z"/><path class="cls-1" d="M138.2,9.6c.8,2.4.9,5,1.7,7.4.1.2.4.1.5-.1s-.4-2.5-.7-3.7a13.8,13.8,0,0,0-1.3-3.8A.1.1,0,0,0,138.2,9.6Z"/><path class="cls-1" d="M132.9,6.4a31.4,31.4,0,0,1,3.1,5.1c.6,1.2,1,2.6,1.7,3.7h0a2.4,2.4,0,0,1,1.2.6,24.5,24.5,0,0,0-5.7-9.7A.1.1,0,0,0,132.9,6.4Z"/><path class="cls-1" d="M130.2,6.2l3.8,5a20.5,20.5,0,0,0,3.8,4.3c.2.2.6-.1.5-.4a31.2,31.2,0,0,0-3.6-4.4A49.3,49.3,0,0,0,130.4,6C130.3,5.8,130.1,6,130.2,6.2Z"/><path class="cls-1" d="M128,7.4c1.4,1.6,3.2,2.7,4.7,4.2a13.2,13.2,0,0,0,1.9,1.6c1,.7,1.4,1.7,2.5,2.3a.2.2,0,0,0,.2-.2,20.7,20.7,0,0,0-4-4.3,22.5,22.5,0,0,0-2.5-2,13.5,13.5,0,0,0-2.6-1.9A.2.2,0,0,0,128,7.4Z"/><path class="cls-1" d="M128.1,9.3a56,56,0,0,0,9.3,5.9c.2.1.5-.2.3-.4a20.8,20.8,0,0,0-4.2-2.9l-5.1-3C128.1,8.6,127.9,9.1,128.1,9.3Z"/><path class="cls-2" d="M135,14c10.3,7.2,22.1,11.6,34.2,14.7s23.8,4,35.3,1.3c.4-.1.4-.8,0-.8-5.9.2-11.7,1.1-17.6.8A88.8,88.8,0,0,1,169,27.4a131.7,131.7,0,0,1-17.3-5.7c-5.7-2.3-11-5.4-16.5-8.1C135,13.5,134.8,13.9,135,14Z"/><path class="cls-2" d="M165.4,8.7c1.6,0,3.1.5,4.7,0s2.8-2.3,4-3.7h.4a9,9,0,0,0,4.7,2.8c1.8.4,3.2-.3,4.8-1a.2.2,0,0,1,.3-.1,7,7,0,0,0,3.7,3.9c2.1,1,3.7.1,4.9-1.7a.3.3,0,0,1,.4-.2,9,9,0,0,1,6,7.4c.3,2-.7,6.6-3.2,6.8-.9,3-2.6,5.7-5.9,6.4a7.9,7.9,0,0,1-7.4-2.7.3.3,0,0,1,0-.3c-.3-1.7-.7-3-2.4-3.9a5.7,5.7,0,0,0-5.1-.1.3.3,0,0,1-.4-.2.1.1,0,0,1-.2-.1,5,5,0,0,0-1.9-4.4c-1.7-1.4-3.5-1.1-5.5-.8-.3,0-.4-.4-.1-.5h.1c.4-1.8.5-3.4-.5-5.1a8.7,8.7,0,0,0-1.5-1.7.5.5,0,0,1-.2-.4A.4.4,0,0,1,165.4,8.7Z"/><path class="cls-1" d="M168.6,14.7c.7-1.7,2.7-2.6,4.6-2.9l-3.5-.7c-.3,0-.3-.5,0-.5a19.2,19.2,0,0,1,4.9.7c-.8-1-.8-2.5-.8-3.8a.2.2,0,0,1,.3,0c.2,1.3.4,3.2,1.5,4.1l4.5,1.5,3,1.2a6.2,6.2,0,0,1-.1-5.4.2.2,0,0,1,.5.1c0,1-.4,2-.3,3.1a6.3,6.3,0,0,0,.7,2.5,63,63,0,0,1,7.3,3.9l2.8,1.9c-1.3-2.4-2-5.3-1-7.8a.1.1,0,0,1,.3,0c.1,1.5-.2,3,0,4.5a11.8,11.8,0,0,0,1.4,3.7,57.1,57.1,0,0,1,6.7,5.7c1.3,1.3,2.6,2.8,3.8,4.2l1,1.3a10.6,10.6,0,0,0-.2,1.3l-.3-.4a49.4,49.4,0,0,0-4.5-5.2,53.2,53.2,0,0,0-7-6.1,13.2,13.2,0,0,0-9.8,4.3.2.2,0,0,1-.4-.2c.9-1.8,3-2.8,4.8-3.7a9.8,9.8,0,0,1,4.3-1.2l-.8-.6a62.4,62.4,0,0,0-7.8-4.5,7.8,7.8,0,0,0-4.5,1.4c-1.3.9-2.1,2.4-3.3,3.5s-.4-.1-.3-.3a10.9,10.9,0,0,1,4.1-4.2,6.7,6.7,0,0,1,3.1-.9,56.1,56.1,0,0,0-9-3.3,9,9,0,0,0-2.4.5,8.7,8.7,0,0,0-3.1,2.4C168.8,15.1,168.5,14.9,168.6,14.7Z"/><path class="cls-3" d="M195.9,27.7c2.1,0,2.5,3,.8,3.9A1.9,1.9,0,0,1,194,31a2.2,2.2,0,0,1-.2-.9,2.2,2.2,0,0,1,0-.6A2.2,2.2,0,0,1,195.9,27.7Z"/><path class="cls-3" d="M202,24.6a3.9,3.9,0,0,1-3.9.9,3.5,3.5,0,0,1,.6-6.8c3.2-.6,6,3.2,3.4,5.7Z"/><path class="cls-1" d="M198.8,20a1.4,1.4,0,0,1,.6-.4.6.6,0,0,1,.7.2.8.8,0,0,1,.1.8l-.3.3h-.8c-.3,0-.6-.2-.6-.5A1.2,1.2,0,0,1,198.8,20Z"/><path class="cls-1" d="M194.9,30.2a.5.5,0,0,1,.5-.1.5.5,0,1,1-.5.1Z"/><path class="cls-3" d="M202.4,28.7a5.5,5.5,0,0,0-.5,1.7,3.4,3.4,0,0,0,0,1,5.8,5.8,0,0,0,1.3,3.4A3.4,3.4,0,0,0,205,36c3.9,2.2,7.5-1.9,6.7-5.8S204.3,24.8,202.4,28.7Z"/><path class="cls-1" d="M204.1,31.4v-.2a.5.5,0,0,0-.9-.1.6.6,0,0,0-.1.7l.2.4a.5.5,0,0,0,.9-.3h0a.5.5,0,0,0,0-.4Z"/></g></g></svg>