<svg xmlns="http://www.w3.org/2000/svg" viewBox="0 0 474.3 60"><defs><style>.cls-1{fill:#b99966;}.cls-2{fill:#133f3e;}.cls-3{fill:#808777;}.cls-4{fill:#ff8232;}</style></defs><title>modal-footer</title><g id="Слой_2" data-name="Слой 2"><g id="Слой_1-2" data-name="Слой 1"><path class="cls-1" d="M386.3,22.1c.2-1.2-1-1.4-1.9-1.2l-2.1.6a9.2,9.2,0,0,1-4.1.2l-.2-.3a.2.2,0,0,0-.3,0l-.7-.2c-.1,0-.1.1-.1.2a4.8,4.8,0,0,1,1.1,2.2,21.3,21.3,0,0,1-.1,2.2c0,.6.4,1.9,1.3,1.6s.7-1.6.7-2.2a6,6,0,0,0-1.4-3.1c1,1.1,3.3,1.1,4.7,1.1S386.1,23.3,386.3,22.1Z"/><path class="cls-1" d="M403.1,24.6c-.6-1-2.1.1-2.6.5s-3.2,3.8-5.9,4c-.2,0-.2.3,0,.3h.3v.2a7.1,7.1,0,0,0,6.3-1C402.5,27.8,404.1,26.3,403.1,24.6Z"/><path class="cls-1" d="M404,31.8h.3a.3.3,0,0,0,.3.2c2.4,0,4.9-1.5,6.6-3.1s2-3,.5-4.2-2.8,1.4-3.3,2.2-2.2,4-4.3,4.5A.2.2,0,0,0,404,31.8Z"/><path class="cls-1" d="M413.6,33.1h.7a10.9,10.9,0,0,0,6.3-3.5c.9-1.1,1.5-3.8-.3-4.5s-2.2,1.2-2.7,2.1-1.9,4.8-4.1,5.6C413.2,32.8,413.4,33.1,413.6,33.1Z"/><path class="cls-1" d="M424.6,33.2l.5-.2h.2a10.7,10.7,0,0,0,6.9-4.1c1.2-1.6,1.5-4.2-.4-5.4s-2.5,1-2.9,1.9-.9,1.9-1.3,2.9a30.7,30.7,0,0,1-3.1,4.6C424.4,33.1,424.4,33.3,424.6,33.2Z"/><path class="cls-1" d="M435.1,32.4h.3c1.8.1,4.1-2.4,5.1-3.6s2.1-3.8,1-5.4-2.3-1.5-3,.1-.7,7.1-3.6,8.6C434.7,32,434.8,32.4,435.1,32.4Z"/><path class="cls-1" d="M444.3,30.6l.3-.2a.3.3,0,0,0,.4.1c2.9-1.2,5.7-2.5,7.1-5.5.5-1,1-3.5-.1-4.3s-2.6.4-3.2,1.6-.7,2-1.1,3a18.2,18.2,0,0,1-3.5,5C444,30.5,444.2,30.6,444.3,30.6Z"/><path class="cls-1" d="M454.5,27.9c3-1.2,7.1-6,3.9-9.1-1.2-1.1-2.6,1.1-2.7,2s-.2,2.3-.4,3.5-.7,2-.8,2.9l-.3.2C454,27.7,454.3,28,454.5,27.9Z"/><path class="cls-1" d="M474.2,17.9c-.6-2.2-2.9-2.1-4.6-1.2a11.4,11.4,0,0,0-3.2,2.8l-2.6,3.1-.2.2a22.6,22.6,0,0,0-2.6,2.1h-.3c-.1.1-.1.3.1.3a23.5,23.5,0,0,0,9.7-2.7C471.9,21.8,474.7,19.8,474.2,17.9Z"/><path class="cls-1" d="M386.2,26.2h.2c2.2,1.4,6.4-.6,6.7-3.2s-1.1-1.2-1.8-.8a9.2,9.2,0,0,0-1.5,1.5,6.3,6.3,0,0,1-3.3,2h-.2a.2.2,0,0,0-.1.3l-.9-.5a1.5,1.5,0,0,0-.9-.5h-.1c.1.5.2.4.5.9a7.2,7.2,0,0,1,.8,2.2,11.2,11.2,0,0,1,.1,2.4c0,1.2.3,2.4,1.8,2.2s.9-2.6.7-3.4A6.6,6.6,0,0,0,386.2,26.2Z"/><path class="cls-1" d="M392.5,28.5a.2.2,0,0,0-.3.1l-.5-.3a.2.2,0,0,0-.2.2,9.5,9.5,0,0,1,1.4,3.6c.1,1.1-.1,2.2,0,3.3s1.1,2.3,2.2,1.7.6-2.4.6-3.3A8.3,8.3,0,0,0,392.5,28.5Z"/><path class="cls-1" d="M398.7,30.6h-.3l-.6-.5a.2.2,0,0,0-.3.2,5.2,5.2,0,0,0,.9,1.3,6.8,6.8,0,0,1,1.3,3,33,33,0,0,0,.8,3.7c.4,1.2,1.9,2.6,3.2,1.7s.2-3.2-.1-4.1A10.5,10.5,0,0,0,398.7,30.6Z"/><path class="cls-1" d="M407.8,32.2h-.2l-.5-.2a.2.2,0,0,0-.2.3,10.7,10.7,0,0,1,3.2,4.3c.4,1,.5,2.1.9,3.2s2,3,3.1,1.6-.1-3.5-.7-4.7S409.9,32.6,407.8,32.2Z"/><path class="cls-1" d="M424.7,36.6a13.9,13.9,0,0,0-6.5-3.4.2.2,0,0,0-.3.2h-.3c-.1,0-.1.2,0,.2,2.8,1.4,3.6,3.7,5.2,6.2s2.7,3,3.8,1.1S425.6,37.5,424.7,36.6Z"/><path class="cls-1" d="M430,32.7h-.2l-1.1-.2a.2.2,0,0,0-.1.3c2.8,1.1,4.2,3.2,5.7,5.6s1.9,2.4,3.4,1.9.1-3.5-.6-4.3S432.3,33,430,32.7Z"/><path class="cls-1" d="M440.4,31a.2.2,0,0,0-.1.3h-.1c-.1,0-.1.2,0,.2,2.8,1.3,4.4,4.2,7,5.8s2.9,1.4,3.6-.1C452.5,33.9,442.2,30.2,440.4,31Z"/><path class="cls-1" d="M461.7,27.9a26.2,26.2,0,0,0-10.7.8,9.2,9.2,0,0,0-2.3.4c-.2.1-.2.4,0,.4h1a22.6,22.6,0,0,1,6.7.9,38.4,38.4,0,0,0,4.8,1.3c1,.2,4.1.9,4.6-.5S463,28.2,461.7,27.9Z"/><path class="cls-1" d="M470.6,19.2c-3.3,1.9-6.5,3.9-10,5.5a76.5,76.5,0,0,1-11.4,4,114,114,0,0,1-26,3.9,87.7,87.7,0,0,1-26-3A56.9,56.9,0,0,1,386,25.5c-3.6-1.8-7.2-3.3-10.4-5.8-.3-.2-.7.2-.4.5,2.4,2.5,5.7,3.9,8.8,5.3a80.3,80.3,0,0,0,12.2,4.9,87.4,87.4,0,0,0,26.2,3.3,115.4,115.4,0,0,0,26.3-3.8,80.7,80.7,0,0,0,11.6-4c3.7-1.6,7.6-3.5,10.6-6.2C471.1,19.4,470.9,19,470.6,19.2Z"/><path class="cls-2" d="M347.5,38.7a37.7,37.7,0,0,1-8-1.3c-2.3-.6-4.2-1.8-6.4-2.5-.6-.2-.4-1.1.2-.9s3.8,1.7,5.7,2.4a37.3,37.3,0,0,0,8.4,1.8C347.9,38.2,347.9,38.8,347.5,38.7Z"/><path class="cls-2" d="M355.8,36.2a48,48,0,0,1-7.1-2.4,33.8,33.8,0,0,0-4.3-1.5,15.5,15.5,0,0,1-3.6-1,.2.2,0,0,1,.1-.3c5.2-.1,10.2,3,15,4.6A.3.3,0,0,1,355.8,36.2Z"/><path class="cls-2" d="M351.2,35.6a28.6,28.6,0,0,1-6-1.4c-2-.6-4.7-1.2-6.1-2.8a.1.1,0,0,1,.1-.2c2.1.3,4.2,1.5,6.2,2.2a42.1,42.1,0,0,0,5.9,1.7C351.5,35.2,351.5,35.7,351.2,35.6Z"/><path class="cls-2" d="M348.4,36.8c-4.3-1.6-8.7-2-13.1-3.1-.1,0-.2-.3,0-.3,2-.3,4.2.3,6.1.7a27.1,27.1,0,0,1,7.1,2.5C348.6,36.7,348.5,36.9,348.4,36.8Z"/><path class="cls-2" d="M344.5,37.3a2.6,2.6,0,0,1-1.6-.4l-2.7-1.2c-1.4-.6-3.6-1.7-4.4-3.1a.2.2,0,0,1,.1-.3.9.9,0,0,1,.9.3,19.5,19.5,0,0,0,2.8,1.9,30.3,30.3,0,0,0,2.8,1.4l2.1,1.2A.2.2,0,0,1,344.5,37.3Z"/><path class="cls-2" d="M358.7,34.2a51.8,51.8,0,0,0-16.2-3.8.2.2,0,0,1,0-.5A33.4,33.4,0,0,1,358.8,34C359,34.1,358.8,34.3,358.7,34.2Z"/><path class="cls-2" d="M358.5,32.7c-4.1-2-8.9-2.2-13-4.2-.3-.2-.1-.6.2-.6a50.6,50.6,0,0,1,7.4,2.1,19.4,19.4,0,0,1,5.5,2.4A.2.2,0,0,1,358.5,32.7Z"/><path class="cls-2" d="M360.7,32.9a32.2,32.2,0,0,1-5.8-2.9c-1.3-.8-3.7-1.5-4.4-3s0-.5.3-.4a2.5,2.5,0,0,1,.9.6,17,17,0,0,0,3.1,1.9l6,3.5C360.9,32.7,360.9,32.9,360.7,32.9Z"/><path class="cls-2" d="M361.4,31.6c-4.5-1.1-9-3.3-13.7-3.7-.4,0-.4-.7,0-.6a27.3,27.3,0,0,1,7.2,1.7,67.4,67.4,0,0,1,6.6,2.4C361.6,31.4,361.5,31.6,361.4,31.6Z"/><path class="cls-2" d="M363.6,32l-6.7-3.5c-1.2-.7-3.4-1.5-3.8-2.9a.2.2,0,0,1,.2-.2c.2,0,.3,0,.4.2s2.4,1.7,3.6,2.4,4.4,2.5,6.5,3.9A.1.1,0,0,1,363.6,32Z"/><path class="cls-2" d="M365.1,31.9c-1.2-1.4-2.4-2.9-3.8-4.2L359.4,26c-.8-.7-1.9-1-2.5-1.8a.2.2,0,0,1,.2-.4c3.7.5,6.5,5,8.4,7.8C365.6,31.8,365.3,32.1,365.1,31.9Z"/><path class="cls-2" d="M367.3,30.2c-2.3-1.7-5.2-2.5-7.9-3.3s-4-.6-5.8-1.3a.4.4,0,0,1,.2-.7,38.8,38.8,0,0,1,7.2,1.7c2.2.8,5.1,1.5,6.5,3.5C367.6,30.2,367.4,30.3,367.3,30.2Z"/><path class="cls-2" d="M369.2,30a41,41,0,0,0-6.5-4.3c-1.1-.6-3-1.2-3.1-2.7a.3.3,0,0,1,.5-.2c.9,1.7,3.6,2.5,5.1,3.5a16.2,16.2,0,0,1,4.1,3.5C369.4,29.9,369.3,30,369.2,30Z"/><path class="cls-2" d="M368.2,27.8l-4-2.8c-.9-.6-2-1.2-2.4-2.3s.3-.6.6-.4a6.1,6.1,0,0,1,.8,1,10.9,10.9,0,0,0,1.8,1.4c1.2.9,2.3,1.9,3.4,2.9S368.3,27.9,368.2,27.8Z"/><path class="cls-2" d="M371,29.4h-.1l-3.3-3.8a28.7,28.7,0,0,0-4-3.3c-.3-.3.1-.8.4-.6a15.8,15.8,0,0,1,4.6,3.7C369.6,26.6,370.9,27.9,371,29.4Z"/><path class="cls-2" d="M372.3,26.8,365.5,24c-.8-.3-3.3-.8-3.3-1.9h.1a33,33,0,0,1,4.7,1.9,23.6,23.6,0,0,1,5.5,2.8C372.5,26.8,372.4,26.9,372.3,26.8Z"/><path class="cls-2" d="M373.8,28.8h-.1c-.3-.9-1.4-1.6-2-2.2s-1.6-1.7-2.4-2.5-2.8-1.7-3.7-2.9.2-.6.4-.4a24.7,24.7,0,0,1,4.9,3.7C371.9,25.6,373.7,27.2,373.8,28.8Z"/><path class="cls-2" d="M377.2,29.7a64.7,64.7,0,0,1-5.7-5.4c-.8-.8-2.6-2.2-2.4-3.6a.2.2,0,0,1,.4-.1c1.2,1.4,2.3,2.8,3.6,4.1a25.1,25.1,0,0,1,4.3,4.8A.1.1,0,0,1,377.2,29.7Z"/><path class="cls-2" d="M376.7,26.2h-.1c-1.3-1.2-2.6-2.4-4-3.4a38.5,38.5,0,0,1-3.9-2.7.2.2,0,0,1,.2-.4,14.9,14.9,0,0,1,4.6,2.8C374.6,23.4,376.4,24.7,376.7,26.2Z"/><path class="cls-2" d="M378.8,28.2c-2.4-2.8-3.8-6.3-7.1-8.4-.3-.2-.1-.8.3-.7s2.9,2.3,4,3.6a20.7,20.7,0,0,1,3,5.4A.1.1,0,0,1,378.8,28.2Z"/><path class="cls-2" d="M375.1,26.5a22.1,22.1,0,0,1-2.7-3.5,19.1,19.1,0,0,1-1.2-2.3c-.2-.4-.4-.6-.3-1s.2-.2.2-.1a22.1,22.1,0,0,1,1.8,3.1c.8,1.2,1.6,2.5,2.4,3.7S375.2,26.7,375.1,26.5Z"/><path class="cls-2" d="M381.1,27.6a54.9,54.9,0,0,0-8-8.7c-.3-.3.1-.7.4-.5a26.7,26.7,0,0,1,7.7,9.1A.1.1,0,0,1,381.1,27.6Z"/><path class="cls-2" d="M379.9,27c-2-2.2-3.1-5.3-4.4-8-.2-.4.4-.8.6-.4,1.4,2.7,2.7,5.5,3.9,8.3Z"/><path class="cls-2" d="M383.2,26.3c-2.6-1.9-5.5-4.9-6.7-7.9a.3.3,0,0,1,.5-.3,28,28,0,0,1,2.1,3,35.4,35.4,0,0,0,4.3,5.1C383.5,26.2,383.3,26.4,383.2,26.3Z"/><path class="cls-2" d="M386.9,25.7c-2.8-3-6.4-4.8-9.5-7.6-.3-.3.1-.8.4-.6,3.3,2.1,7.1,4.6,9.2,8C387,25.6,386.9,25.7,386.9,25.7Z"/><path class="cls-2" d="M385.1,25.4a28.5,28.5,0,0,1-5.7-7.7.4.4,0,0,1,.6-.4c.8,1.1,1.3,2.3,2.1,3.5a44.1,44.1,0,0,1,3.1,4.5Z"/><path class="cls-2" d="M388.6,25.1a34.1,34.1,0,0,1-5-5c-.7-.7-2.3-1.9-2.3-3a.2.2,0,0,1,.4-.2,21.9,21.9,0,0,1,2.9,3.2l4.1,4.9A.1.1,0,0,1,388.6,25.1Z"/><path class="cls-2" d="M390.9,25.1a34.6,34.6,0,0,0-4.2-5.6c-1-1-2.9-1.7-3.3-3.1a.2.2,0,0,1,.3-.3,20.6,20.6,0,0,1,4,3.3c1.6,1.6,2.4,3.6,3.4,5.6A.1.1,0,0,1,390.9,25.1Z"/><path class="cls-2" d="M389.6,23.8c-1.5-1.2-3-2.3-4.4-3.5a14.8,14.8,0,0,1-1.6-1.7c-.3-.4-.5-1-.9-1.3s.1-.8.4-.6,1.5,1.9,2.2,2.6,3,2.8,4.5,4.3A.2.2,0,0,1,389.6,23.8Z"/><path class="cls-2" d="M394.3,26.2a42.1,42.1,0,0,0-4.2-5.5c-1.4-1.5-3.3-2.5-4.7-4s0-.7.3-.5a22.2,22.2,0,0,1,8.7,9.9C394.4,26.2,394.3,26.3,394.3,26.2Z"/><path class="cls-2" d="M392.2,24.4a36.3,36.3,0,0,1-5.3-8,.3.3,0,0,1,.6-.4c2,2.5,3.1,5.6,4.9,8.2C392.5,24.3,392.3,24.5,392.2,24.4Z"/><path class="cls-2" d="M407.7,23.7c-1.8-1.7-3.7-3.1-5.5-4.8a20.5,20.5,0,0,1-3.9-5c-.2-.3-.6-.1-.6.2h0c.2,1.9,1.9,3.7,3.3,4.9a32.9,32.9,0,0,0,6.6,4.7A.1.1,0,0,0,407.7,23.7Z"/><path class="cls-2" d="M409.2,23.8c-2.2-1.2-3.8-3-5.7-4.7s-3.6-3.3-3.6-5.2a.3.3,0,0,1,.5-.2,6.4,6.4,0,0,1,1.1,2,12.3,12.3,0,0,0,2.5,2.9,64.4,64.4,0,0,0,5.4,5C409.5,23.7,409.3,23.9,409.2,23.8Z"/><path class="cls-2" d="M411.3,23.6c-1.6-2-2.9-4.1-4.6-6s-3-2.3-3.8-3.8,0-.4.2-.3c1.9.7,3.4,2.5,4.7,4a16.7,16.7,0,0,1,3.7,6C411.5,23.7,411.3,23.7,411.3,23.6Z"/><path class="cls-2" d="M408.6,22a34.6,34.6,0,0,1-7.1-8.3c-.2-.4.3-.7.6-.4s1.7,2.6,2.7,3.9l4,4.6A.1.1,0,0,1,408.6,22Z"/><path class="cls-2" d="M415.1,23.8c-2-1.5-3.5-3.7-5.3-5.4L407,16c-.9-.7-1.5-1.7-2.3-2.5s.2-1,.6-.6,3.4,3.3,5.1,4.9a27.2,27.2,0,0,1,4.9,5.9A.1.1,0,0,1,415.1,23.8Z"/><path class="cls-2" d="M412.4,22.2a12.4,12.4,0,0,1-3-3.5,32.4,32.4,0,0,1-3.3-5.6c-.1-.3.4-.6.6-.3,1.8,3.2,4,6.1,5.8,9.2C412.6,22.2,412.5,22.3,412.4,22.2Z"/><path class="cls-2" d="M418.4,22.6a24.5,24.5,0,0,1-5.6-4.2c-1.7-1.6-3.7-3.2-4.8-5.3a.4.4,0,0,1,.7-.4,40.2,40.2,0,0,0,9.8,9.7C418.6,22.5,418.5,22.7,418.4,22.6Z"/><path class="cls-2" d="M418.8,21.3a28.1,28.1,0,0,0-4.3-4.4c-1.3-1.2-3.2-2.3-4.2-3.8a.3.3,0,0,1,.4-.4,25,25,0,0,1,4.8,4.1,12.7,12.7,0,0,1,3.4,4.4C419,21.4,418.8,21.4,418.8,21.3Z"/><path class="cls-2" d="M416.7,20.6a18,18,0,0,1-4.8-7.4c-.2-.5.5-.7.7-.2,1.1,2.7,3,4.9,4.2,7.5A.1.1,0,0,1,416.7,20.6Z"/><path class="cls-2" d="M420.3,22.2a.1.1,0,0,1-.3.1,17.4,17.4,0,0,0-2.7-5.3l-1.9-2.5a5.7,5.7,0,0,1-.9-1.1.2.2,0,0,1,.1-.3h.4A16.1,16.1,0,0,1,420.3,22.2Z"/><path class="cls-2" d="M423.7,22.6c-1.9-1.9-3.7-4-5.3-6.1s-2.7-2.7-2.4-3.7a.3.3,0,0,1,.5-.1c2.1,3.5,5.3,6.2,7.5,9.7C424,22.6,423.8,22.7,423.7,22.6Z"/><path class="cls-2" d="M425.6,22.7c-1.1-1.4-1.9-3.1-3-4.6a54.2,54.2,0,0,0-3.9-4.7c-.3-.3.1-.9.5-.7a11.8,11.8,0,0,1,3.4,3.8,20.5,20.5,0,0,1,3.1,6.2Z"/><path class="cls-2" d="M424,21.3c-2.3-2.7-4.6-5.5-6.7-8.4-.3-.4.3-.7.6-.4,2,3,4.3,5.6,6.2,8.6C424.2,21.3,424,21.4,424,21.3Z"/><path class="cls-2" d="M402.2,23.8c-2.5-3-4.7-6.4-7.5-9.2-.3-.3.2-.8.5-.5a48.9,48.9,0,0,1,3.5,4.1,25,25,0,0,1,3.6,5.5C402.3,23.8,402.3,23.9,402.2,23.8Z"/><path class="cls-2" d="M400.2,23.3a30.2,30.2,0,0,0-7.8-8.1.4.4,0,0,1,.4-.7c3.3,1.4,6.1,5.5,7.8,8.6A.2.2,0,0,1,400.2,23.3Z"/><path class="cls-2" d="M394.6,24.6c-2.3-2.3-5.4-5.9-5.5-9.4a.3.3,0,0,1,.7-.1,37.4,37.4,0,0,0,5.1,9.3C395,24.5,394.7,24.7,394.6,24.6Z"/><path class="cls-2" d="M396.2,24.7h-.1a22.7,22.7,0,0,0-4.1-5.2c-1.1-1.2-2.8-2.5-3.5-4a.3.3,0,0,1,.4-.3,26.8,26.8,0,0,1,4,4.4C394.3,21.1,395.9,22.7,396.2,24.7Z"/><path class="cls-2" d="M395.4,21.2c-1.8-1.6-4.2-3.8-5.1-6.1a.4.4,0,0,1,.2-.4h.4c.4.3.7,1.3,1,1.8a29.8,29.8,0,0,0,3.6,4.6A.1.1,0,0,1,395.4,21.2Z"/><path class="cls-2" d="M397.1,22.6c-1-1.2-1.9-2.5-2.9-3.8s-2.1-2.2-3-3.6a.4.4,0,0,1,.7-.4c.8,1.1,1.7,2.1,2.5,3.2a51.5,51.5,0,0,1,2.7,4.5C397.3,22.6,397.2,22.7,397.1,22.6Z"/><path class="cls-2" d="M427.4,21.9a26.5,26.5,0,0,1-3.5-4.1,17.2,17.2,0,0,1-2.8-4.5c-.1-.3.4-.5.5-.2,1.4,3.2,4.3,5.6,5.9,8.7A.1.1,0,0,1,427.4,21.9Z"/><path class="cls-2" d="M435.8,16.5c-3.6-1.6-7.7-2.2-11.6-2.9a.2.2,0,0,1,0-.3A25.9,25.9,0,0,1,436,16.2.2.2,0,0,1,435.8,16.5Z"/><path class="cls-2" d="M433.5,17.8c-3.2-1.2-7.3-2.1-9.9-4.5a.2.2,0,0,1,.1-.4,1.6,1.6,0,0,1,1,.4,18.3,18.3,0,0,0,2.8,1.4c2,.9,4,1.8,5.9,2.8C433.7,17.6,433.6,17.8,433.5,17.8Z"/><path class="cls-2" d="M431.3,20.4a32.1,32.1,0,0,1-4.4-3c-1.5-1.2-2.6-2.6-3.9-3.9a.3.3,0,0,1,.4-.4c1.3,1.1,2.3,2.3,3.6,3.4s3,2.4,4.5,3.7S431.5,20.5,431.3,20.4Z"/><path class="cls-2" d="M431.6,19.2a27.7,27.7,0,0,1-6.1-3.1l-2.6-1.8a1.1,1.1,0,0,1-.6-.9.2.2,0,0,1,.3-.2c1.3.5,2.6,1.8,3.8,2.6a56,56,0,0,1,5.5,3.3A.2.2,0,0,1,431.6,19.2Z"/><path class="cls-2" d="M428.7,20.6a15.6,15.6,0,0,1-6.7-7.3c-.1-.3.2-.6.4-.4s1.6,2.2,2.4,3.3a41.8,41.8,0,0,0,3.9,4.3Z"/><path class="cls-2" d="M435.4,13.9l-5.7-.5c-2.1-.1-4.1.4-6.2.4-.3,0-.3-.4-.1-.5,4.1-1,8-.5,12,.4C435.5,13.8,435.5,13.9,435.4,13.9Z"/><path class="cls-2" d="M435.3,10.7c-2.3.5-4.4,1.5-6.6,2.1s-4.2,1.3-6.1.8a.2.2,0,0,1,0-.4,57.9,57.9,0,0,1,6.6-1.3c2-.4,4-1.2,6.1-1.5C435.4,10.2,435.6,10.6,435.3,10.7Z"/><path class="cls-2" d="M433,9.5a26,26,0,0,0-5.3,2.2,22.4,22.4,0,0,1-4.5,2.2c-.2.1-.4-.2-.2-.4,2.7-2.3,6.7-3.2,10-4.2A.1.1,0,0,1,433,9.5Z"/><path class="cls-2" d="M432,8.7a24,24,0,0,0-5,1.4,15.3,15.3,0,0,0-5.5,2.9c-.4.3-1-.2-.6-.5,2.9-2.6,7.3-3.6,11.1-4.1C432.2,8.4,432.2,8.7,432,8.7Z"/><path class="cls-2" d="M430.4,8a49.6,49.6,0,0,0-6.4,2.3c-1.3.6-3,1.2-3.7,2.6s-.2,0-.2-.1c.2-1.6,1.8-2.3,3.2-3s4.6-2.4,7-2.4A.3.3,0,0,1,430.4,8Z"/><path class="cls-2" d="M429.1,6.7c-1.5,1-3.2,1.5-4.8,2.3s-4,2.2-5,3.9a.2.2,0,0,1-.3-.1c.2-1.5,1.8-2.4,2.9-3.2a20.9,20.9,0,0,1,7-3.4A.3.3,0,0,1,429.1,6.7Z"/><path class="cls-2" d="M425.2,6.3a29.8,29.8,0,0,1-8.2,6.6.1.1,0,0,1-.1-.1,42.1,42.1,0,0,1,3.9-3.5,19.3,19.3,0,0,1,4.1-3.4A.2.2,0,0,1,425.2,6.3Z"/><path class="cls-2" d="M425.2,5.5c-3.5,1.6-7.3,4-9.6,7.3a.2.2,0,0,1-.3-.2c1.6-3.3,6-7.1,9.7-7.5A.2.2,0,0,1,425.2,5.5Z"/><path class="cls-2" d="M420.6,5.7a63.3,63.3,0,0,1-6.8,7.1.2.2,0,0,1-.3-.3c1.9-2.6,4-5.5,6.7-7.3C420.6,5,420.9,5.4,420.6,5.7Z"/><path class="cls-2" d="M419.8,4.7a18.7,18.7,0,0,0-4.3,3.5c-1.2,1.4-2.1,3-3.1,4.5s-.3.1-.3-.1,1.7-3.7,2.6-5a8.4,8.4,0,0,1,4.8-3.5A.3.3,0,0,1,419.8,4.7Z"/><path class="cls-2" d="M431.1,9.7c-3.1,1-6.5,1.8-9.3,3.7-.3.2-.6-.2-.4-.5a9.5,9.5,0,0,1,3.5-2,19.3,19.3,0,0,1,6-1.6C431.3,9.3,431.3,9.6,431.1,9.7Z"/><path class="cls-2" d="M431.8,10.8a31.2,31.2,0,0,1-5.4,1.4,32.1,32.1,0,0,1-4.5.9.1.1,0,0,1,0-.1c2.9-1.6,6.6-2.3,9.9-2.7C432.1,10.3,432.1,10.7,431.8,10.8Z"/><path class="cls-2" d="M335.8,21.6a63.9,63.9,0,0,0-1.7,6.5c-.5,2.1-.2,4.4-1,6.4a.2.2,0,0,1-.4,0c-.7-4.2,1-9.2,2.5-13C335.3,21.1,335.9,21.2,335.8,21.6Z"/><path class="cls-2" d="M338.9,21.7a17.9,17.9,0,0,0-2.3,6c-.4,1.8.1,3.9-.7,5.6s-.4.1-.4-.1a17.6,17.6,0,0,1,3-11.7C338.7,21.2,339.1,21.4,338.9,21.7Z"/><path class="cls-2" d="M340.2,20.8a56.1,56.1,0,0,1-1.9,6.6,33,33,0,0,1-3.6,6.2c-.1.2-.4.1-.4-.1,0-1.8,1.7-3.6,2.6-5.1s2-5.1,2.8-7.7C339.7,20.3,340.3,20.4,340.2,20.8Z"/><path class="cls-2" d="M341.6,20.2c-1.3,3.6-1.2,7.6-2.3,11.3a.3.3,0,0,1-.5-.1c-.2-1.6.7-3.6,1-5.2a30.1,30.1,0,0,1,1.6-6.1C341.4,19.9,341.6,20,341.6,20.2Z"/><path class="cls-2" d="M342.4,18.6a43.7,43.7,0,0,0-.3,7.4c0,1.3.3,3.3-.4,4.4a.4.4,0,0,1-.8-.3,41.5,41.5,0,0,0,.4-5.6,42.3,42.3,0,0,1,.7-6C342.1,18.3,342.4,18.4,342.4,18.6Z"/><path class="cls-2" d="M344.3,18.8a74.8,74.8,0,0,1-3.6,11.8c-.1.2-.4.1-.4-.1s1-3.2,1.4-4.7,1.5-4.7,2.2-7A.2.2,0,0,1,344.3,18.8Z"/><path class="cls-2" d="M345.2,17.1a54.6,54.6,0,0,1-2.1,12.2.2.2,0,0,1-.5-.1c.6-4,.6-8.4,1.9-12.2C344.7,16.8,345.2,16.8,345.2,17.1Z"/><path class="cls-2" d="M347.6,17.4a24.5,24.5,0,0,0-2.1,5.4c-.4,2.1-.5,4.2-1,6.3h-.1c-.3-3.8,0-9.1,2.9-11.9A.2.2,0,0,1,347.6,17.4Z"/><path class="cls-2" d="M347.3,20.1c0,2.5.2,5.8-1.2,7.9,0,.1-.2.1-.2,0a49.3,49.3,0,0,1,.9-7.9A.2.2,0,0,1,347.3,20.1Z"/><path class="cls-2" d="M348.8,16.9c-.3,2.2-.3,4.4-.3,6.7s-.1,2.9-1,3.8a.1.1,0,0,1-.2-.1c1-3.4-.5-7.3.9-10.6C348.4,16.2,348.9,16.5,348.8,16.9Z"/><path class="cls-2" d="M351.8,15.3a20.9,20.9,0,0,0-2,6.3c-.2,1.7,0,3.5-.8,5.1a.2.2,0,0,1-.3-.1c.3-3.9-.4-8.6,2.6-11.7A.3.3,0,0,1,351.8,15.3Z"/><path class="cls-2" d="M351.1,23.1a5.8,5.8,0,0,1-1.1,3.5.1.1,0,0,1-.2-.1,25.4,25.4,0,0,0,.5-4,27.4,27.4,0,0,1,.2-4.3c.1-.4.7-.3.7.1A21.9,21.9,0,0,1,351.1,23.1Z"/><path class="cls-2" d="M354.4,14.6c-.2.9-.7,1.7-1,2.6a14.9,14.9,0,0,0-.5,3.4,15.2,15.2,0,0,1-1.1,5.1.2.2,0,0,1-.3-.1c.1-2.3.6-4.6.8-6.8a7.1,7.1,0,0,1,1.9-4.4A.1.1,0,0,1,354.4,14.6Z"/><path class="cls-2" d="M353.8,19.4a10.9,10.9,0,0,1,.2,5.1.2.2,0,0,1-.4,0,49.2,49.2,0,0,0-1-6.2,11.8,11.8,0,0,1-.3-4.5.2.2,0,0,1,.4,0C353.1,15.6,353.4,17.5,353.8,19.4Z"/><path class="cls-2" d="M355.3,15.8c-.1,1.4-.2,2.7-.2,4a14.5,14.5,0,0,1-.4,4.4.2.2,0,0,1-.4,0c-.4-1.4-.1-3-.2-4.4a7.4,7.4,0,0,1,.7-4.1C355,15.5,355.4,15.6,355.3,15.8Z"/><path class="cls-2" d="M358,13a15.8,15.8,0,0,0-1.8,5.8c-.1,1.9.1,3.7-.3,5.5,0,.2-.2.1-.3,0-.5-3.5-1-8.9,1.9-11.6A.3.3,0,0,1,358,13Z"/><path class="cls-2" d="M360.8,13.4a48.6,48.6,0,0,0-2.3,5.2c-.5,1.8-.6,3.8-1.3,5.5-.1.1-.3.1-.3-.1.2-3.7.7-8.3,3.5-11A.3.3,0,0,1,360.8,13.4Z"/><path class="cls-2" d="M358.2,23.8H358a33.3,33.3,0,0,1-.9-7.5c0-.3.5-.4.6-.1A20.6,20.6,0,0,1,358.2,23.8Z"/><path class="cls-2" d="M365.5,10.1a22.6,22.6,0,0,0-4.1,6.9c-.7,2-1.2,4-2,6-.1.2-.5.1-.5-.1,0-2.2,1.1-4.9,1.9-6.9s2.2-4.9,4.4-6.3C365.4,9.5,365.6,9.9,365.5,10.1Z"/><path class="cls-2" d="M368.8,9.9a39.5,39.5,0,0,0-5.9,11.8c-.1.3-.6.3-.5-.1a21.9,21.9,0,0,1,2.1-6.2,18,18,0,0,1,4.1-5.9A.2.2,0,0,1,368.8,9.9Z"/><path class="cls-2" d="M375.1,9c-1.1,2.2-3,3.8-4.6,5.7a32.2,32.2,0,0,0-2.5,3.5c-.4.7-1.5,1.7-1.6,2.5a.2.2,0,0,1-.3.1H366a.3.3,0,0,1-.1-.3c1.6-4.7,5.9-7.9,8.8-11.7C374.9,8.4,375.3,8.7,375.1,9Z"/><path class="cls-2" d="M371.5,8.9a19.4,19.4,0,0,0-1.7,5.5,49.7,49.7,0,0,1-.7,5.5.2.2,0,0,1-.4,0c-.5-3.4-.2-8.7,2.2-11.4C371.2,8.2,371.6,8.5,371.5,8.9Z"/><path class="cls-2" d="M377.6,10.1a38.6,38.6,0,0,0-3.4,5.3c-.6,1.3-1.3,3.4-2.6,4.1a.1.1,0,0,1-.2-.2c1.7-3.3,2.9-7,5.8-9.6A.3.3,0,0,1,377.6,10.1Z"/><path class="cls-2" d="M383.3,8.1c-3.5,3.5-7.5,6.8-10,11.1h-.1c.3-2.1,1.9-3.7,3.2-5.3a30,30,0,0,1,6.6-6.2C383.2,7.5,383.5,7.9,383.3,8.1Z"/><path class="cls-2" d="M379.7,9.4c-.9,1.6-1.7,3.1-2.5,4.7a20.2,20.2,0,0,1-2.2,4.3c-.1.1-.2,0-.2-.1A21.6,21.6,0,0,1,379.2,9,.3.3,0,0,1,379.7,9.4Z"/><path class="cls-2" d="M386.9,7.5c-3.8,2.9-6.2,6.6-9.1,10.3a.1.1,0,0,1-.2-.1,21.3,21.3,0,0,1,3.6-6.1c1.5-1.9,3.2-3.8,5.5-4.6C387,6.8,387.2,7.3,386.9,7.5Z"/><path class="cls-2" d="M388.5,8.1c-2.1,3.2-4.8,8.1-8.7,9.3-.2,0-.3-.2-.2-.3a37.8,37.8,0,0,0,4.5-4.4,42.1,42.1,0,0,1,4-4.9C388.3,7.6,388.7,7.8,388.5,8.1Z"/><path class="cls-2" d="M391.3,8.4c-2.1,1.5-4.3,2.8-6.5,4.2s-4.7,3-6.3,5c-.1.1-.3,0-.3-.2.5-1.8,2.8-3.1,4.2-4.2a42.9,42.9,0,0,1,8.6-5.3A.2.2,0,0,1,391.3,8.4Z"/><path class="cls-2" d="M363.1,11.6c0,3.7-.3,7.9-2.2,11.2a.1.1,0,0,1-.3-.1,36.5,36.5,0,0,1,1-4.6c.4-2.2.3-4.4,1-6.6A.2.2,0,0,1,363.1,11.6Z"/><path class="cls-2" d="M368.4,12.5l-2.3,4.7a13.4,13.4,0,0,1-2.4,4.1c-.1.1-.2,0-.1-.1s1.2-3,1.8-4.5a18,18,0,0,1,2.6-4.6C368.1,11.9,368.5,12.2,368.4,12.5Z"/><path class="cls-2" d="M374.8,11.4c-2,2.6-4.1,5.4-5,8.6a.1.1,0,0,1-.3,0c-.2-3.4,2.4-6.9,4.7-9.1A.4.4,0,0,1,374.8,11.4Z"/><path class="cls-2" d="M392.7,6a57,57,0,0,0-4,5.7c-.9,1.5-2,3.3-3.5,4.2s-.3-.1-.2-.2c1.2-1.9,2.5-3.7,3.6-5.6a14.5,14.5,0,0,1,3.8-4.6C392.6,5.4,392.9,5.8,392.7,6Z"/><path class="cls-2" d="M394.3,6.8l-3.4,4.8c-1,1.4-2.1,3.2-3.6,4.1a.1.1,0,0,1-.1-.1c2.4-3,3.9-6.5,6.8-9.1A.2.2,0,0,1,394.3,6.8Z"/><path class="cls-2" d="M399.4,6.1c-3.9,2.6-6.9,6-10,9.5-.2.2-.4,0-.3-.2.9-2.1,2.8-4,4.4-5.6a17.9,17.9,0,0,1,5.6-4.1C399.4,5.4,399.7,5.9,399.4,6.1Z"/><path class="cls-2" d="M396.8,6.2c-.7,1.7-1.7,3.3-2.6,4.9a13.2,13.2,0,0,1-2.7,4,.2.2,0,0,1-.3-.1,5.4,5.4,0,0,1,.7-1.6l1.4-2.8a25.1,25.1,0,0,1,2.9-4.8C396.6,5.6,396.9,6,396.8,6.2Z"/><path class="cls-2" d="M400.2,7.4c-2.6,2.4-4.7,5.1-7.2,7.6a.2.2,0,0,1-.3-.1c.3-1.3,1.7-2.7,2.6-3.7A15.7,15.7,0,0,1,399.8,7C400.1,6.8,400.4,7.2,400.2,7.4Z"/><path class="cls-2" d="M403.7,5.2a10.8,10.8,0,0,1-3.4,4.3l-2.6,2.2A18.9,18.9,0,0,1,395,14c-.1,0-.2,0-.1-.1a21.4,21.4,0,0,1,3.8-4.2,57,57,0,0,0,4.5-4.9C403.4,4.7,403.8,4.9,403.7,5.2Z"/><path class="cls-2" d="M403.4,8.5l-3.3,2.6c-1.2.9-2.2,2-3.5,2.8h-.1A18.3,18.3,0,0,1,403,8.1C403.3,7.9,403.7,8.3,403.4,8.5Z"/><path class="cls-2" d="M406.5,4.8a30.8,30.8,0,0,1-3.4,5.5c-1,1.3-2.5,3.2-4.3,3.4-.1,0-.1-.1-.1-.2a20.3,20.3,0,0,0,4.3-4.8c.9-1.4,1.6-3.1,3-4.2A.3.3,0,0,1,406.5,4.8Z"/><path class="cls-2" d="M406.1,8.4a15.1,15.1,0,0,1-4.8,5.1c-.1.1-.3-.1-.2-.2a37.6,37.6,0,0,1,4.7-5.1C406,8,406.2,8.2,406.1,8.4Z"/><path class="cls-2" d="M406.7,5.5a25.7,25.7,0,0,0-1.9,3.7l-.8,1.9c-.3.8-1,1.3-1.3,2.1h-.1c.8-2.7,1.9-5.8,3.8-7.9C406.5,5.1,406.8,5.3,406.7,5.5Z"/><path class="cls-2" d="M411.1,5c-3,2.4-4.9,5.7-7.5,8.4a.1.1,0,0,1-.2-.2c1.4-3.2,4.3-7.2,7.6-8.6C411.1,4.5,411.2,4.9,411.1,5Z"/><path class="cls-2" d="M413.6,4.6a31.2,31.2,0,0,0-4.1,4.2c-1.3,1.5-2.4,3.3-4.1,4.2a.1.1,0,0,1-.1-.1,29.4,29.4,0,0,1,3.6-4.7,16,16,0,0,1,4.5-3.9C413.5,4.2,413.8,4.5,413.6,4.6Z"/><path class="cls-2" d="M415,4.4a34.2,34.2,0,0,1-3.8,5.3,9.5,9.5,0,0,1-3.8,3.3c-.2.1-.3-.2-.2-.3,2.6-2.7,4.7-6.1,7.5-8.5A.2.2,0,0,1,415,4.4Z"/><path class="cls-2" d="M412.9,3.7A28.1,28.1,0,0,0,410.7,9a29,29,0,0,1-1.5,4.1h-.7l.6-1.6c.4-1.1.6-2.2.9-3.2a9.6,9.6,0,0,1,2.6-4.8A.2.2,0,0,1,412.9,3.7Z"/><path class="cls-2" d="M416.6,4.3a44.2,44.2,0,0,0-3.2,4.3c-.9,1.4-1.4,3.1-2.5,4.4a.2.2,0,0,1-.3-.2A18.6,18.6,0,0,1,416.2,4,.3.3,0,0,1,416.6,4.3Z"/><path class="cls-3" d="M425.6,13.7c-4,.3-8.1-.1-12.1-.2a98.9,98.9,0,0,0-12.9.9,212.5,212.5,0,0,0-26,5.1A205.6,205.6,0,0,0,351.1,27c-7.8,3-15,7-22.5,10.8a.5.5,0,0,1-.6-.9c6.2-4.9,13.9-8,21.2-10.9a196.7,196.7,0,0,1,25-8,229.4,229.4,0,0,1,25.6-4.9c8.4-1.1,17.5-1.7,25.8.1C425.9,13.4,425.8,13.7,425.6,13.7Z"/><path class="cls-2" d="M309.9,41.1a37.5,37.5,0,0,1-2.4-5,52.1,52.1,0,0,1-2.6-6.7.2.2,0,0,1,.4-.2,35.5,35.5,0,0,1,2.3,5.2c.9,2.2,1.8,4.4,2.5,6.6A.1.1,0,0,1,309.9,41.1Z"/><path class="cls-2" d="M312.8,39.2c-.1,1.6,0,3.4-.7,4.9s-.2,0-.2,0a35.7,35.7,0,0,1,.7-11.4.3.3,0,0,1,.5.1A47.2,47.2,0,0,1,312.8,39.2Z"/><path class="cls-2" d="M314.3,44.2l-2.9-6.4a31.2,31.2,0,0,1-2.6-6.6c0-.2.3-.4.4-.2,1.9,4.3,3.7,8.6,5.5,13C314.9,44.3,314.4,44.5,314.3,44.2Z"/><path class="cls-2" d="M318.5,45.4a53.6,53.6,0,0,0-1.8-5.5c-.7-2.1-1.9-4.3-2.2-6.5,0-.2.2-.4.4-.2a30.9,30.9,0,0,1,2.2,5.8c.7,2,1.6,4.2,1.6,6.3Z"/><path class="cls-2" d="M317.4,45.2a39.9,39.9,0,0,1-1.8-10.6.3.3,0,0,1,.7,0c.3,3.5.8,7.1,1.3,10.6C317.7,45.3,317.5,45.3,317.4,45.2Z"/><path class="cls-2" d="M320.9,46.7a18,18,0,0,1-1.3-4.9c-.4-2.2-1-4.4-1.4-6.6a.4.4,0,0,1,.7-.2c1.4,3.6,1.7,7.8,2.1,11.6C321.1,46.7,320.9,46.8,320.9,46.7Z"/><path class="cls-2" d="M322.6,47.5a.1.1,0,0,1-.2,0,34.4,34.4,0,0,1-.8-11.4.4.4,0,0,1,.9,0C322.8,39.8,322.4,43.7,322.6,47.5Z"/><path class="cls-2" d="M326.5,47.9c-1.4-1.9-2.6-4-3.9-6s-2.7-4.1-3.1-6.5c-.1-.5.6-.7.7-.2.4,2.2,1.9,4.4,3.1,6.2s2.3,4.2,3.5,6.3A.2.2,0,0,1,326.5,47.9Z"/><path class="cls-2" d="M333.8,49.1c-3.5-3.7-8.9-7.2-10.6-12.2a.2.2,0,0,1,.3-.2c2.1,1.4,3.2,4,4.9,5.8a44.5,44.5,0,0,1,5.7,6.5A.1.1,0,0,1,333.8,49.1Z"/><path class="cls-2" d="M330.5,48.3a20.9,20.9,0,0,1-3.8-7c-.4-1.1-1.7-3-1.4-4.1a.4.4,0,0,1,.6-.2c.8.6,1,2.3,1.4,3.2,1.2,2.6,2.2,5.2,3.4,7.8C330.8,48.2,330.6,48.5,330.5,48.3Z"/><path class="cls-2" d="M335.6,48.4a17.9,17.9,0,0,1-3.3-5.3,16.8,16.8,0,0,1-1.2-2.8,5.3,5.3,0,0,0-.7-2,.4.4,0,0,1,.4-.7c.8.3,1.2,1.8,1.4,2.6a25.5,25.5,0,0,0,1.9,4.3,39.3,39.3,0,0,0,1.8,3.7C335.9,48.4,335.7,48.6,335.6,48.4Z"/><path class="cls-2" d="M332.1,48.2a55.1,55.1,0,0,1-2.2-5.7,44.8,44.8,0,0,1-2.3-5.1.4.4,0,0,1,.8-.2c.5,1.5,1.4,2.9,1.9,4.3s1.3,4.3,1.9,6.6Z"/><path class="cls-2" d="M327.8,47.7a20.2,20.2,0,0,1-3.2-6c-.6-1.5-1.7-3.8-1.6-5.4a.4.4,0,0,1,.8-.1c.5,1.5.9,3.1,1.4,4.6s1.8,4.6,2.6,6.9Z"/><path class="cls-2" d="M338.9,49.5c-2.2-1.8-3.8-4.3-5.6-6.5l-2.7-3.4c-.3-.4-.9-.9-.8-1.4a.2.2,0,0,1,.2-.2c1.6.3,3.1,3.3,4,4.4s3.2,4.8,5.1,7A.1.1,0,0,1,338.9,49.5Z"/><path class="cls-2" d="M340.7,49.7c-1.4-1.3-2.4-3.3-3.4-4.9s-1.4-2-2-3.1a25.3,25.3,0,0,0-1.4-2.9.3.3,0,0,1,0-.7h.4c1.3,1.6,2.2,3.7,3.3,5.5s2.1,4,3.3,5.8C341,49.6,340.8,49.8,340.7,49.7Z"/><path class="cls-2" d="M360.4,50.5a31.1,31.1,0,0,1-6.4-4.8,20.6,20.6,0,0,1-2.6-2.7c-.4-.5-1.3-2.6-1.9-2.8a.4.4,0,0,1,.2-.8,1.4,1.4,0,0,1,.8.7,27.1,27.1,0,0,0,3.1,4,67.6,67.6,0,0,0,7,6.2C360.8,50.3,360.6,50.5,360.4,50.5Z"/><path class="cls-2" d="M355.6,49.3,354,44.9c-.6-1.6-1.6-3-2.3-4.5a.4.4,0,0,1,.6-.4c2.4,2.2,3.2,6.3,3.7,9.4A.1.1,0,0,1,355.6,49.3Z"/><path class="cls-2" d="M355.2,53.6c-1.4-2-2.3-4.4-3.6-6.5s-3-4.7-4.7-7c-.3-.4.4-.9.7-.6a43.9,43.9,0,0,1,7.9,14C355.5,53.6,355.3,53.7,355.2,53.6Z"/><path class="cls-2" d="M352.2,49.3c-1.8-.8-2.9-2.5-4.1-3.9a25,25,0,0,1-3.4-5.3c-.2-.4.3-.8.6-.5s1.9,3.2,3.1,4.7,2.5,3.5,4.1,4.7A.2.2,0,0,1,352.2,49.3Z"/><path class="cls-2" d="M346.8,52.6h-.1c-1-4.3-1.5-9.2-3.8-12.9-.2-.4.3-.8.6-.5,1.6,1.9,2.1,4.2,2.5,6.6S347.2,50.4,346.8,52.6Z"/><path class="cls-2" d="M348.8,49.7a60.6,60.6,0,0,1-4.5-5.2l-1.4-1.7c-.6-.8-.9-2-1.5-2.7s.2-1.1.6-.6a2.4,2.4,0,0,1,.6,1,12.1,12.1,0,0,0,2.3,3.5,64.6,64.6,0,0,1,4.1,5.6C349.2,49.6,349,49.8,348.8,49.7Z"/><path class="cls-2" d="M343.5,49.7c-1.9-2.6-4.1-6.7-4.2-10a.3.3,0,0,1,.2-.3h.3c.8.4,1,2.8,1.3,3.6a52.9,52.9,0,0,0,2.8,6.5A.2.2,0,0,1,343.5,49.7Z"/><path class="cls-2" d="M339.4,49.2c-.1.1-.3.1-.3-.1.2-1.7-.5-4-.8-5.7s-.4-3-1.3-4.3.4-1,.8-.6,1.1,3,1.4,4.6S340.4,47.9,339.4,49.2Z"/><path class="cls-2" d="M344.5,49a34,34,0,0,1-2.2-4.7,28.7,28.7,0,0,0-2.6-4.8v-.2a.4.4,0,0,1,.6-.4c2.4,2.4,3.9,6.8,4.4,10C344.7,49,344.5,49.1,344.5,49Z"/><path class="cls-2" d="M362.1,51.3c-1.9-4-5.1-7.2-7.6-10.8-.3-.4.4-1,.7-.6a55.8,55.8,0,0,1,3.8,5.1,20.4,20.4,0,0,1,3.2,6.2C362.3,51.4,362.2,51.5,362.1,51.3Z"/><path class="cls-2" d="M366,50.7a54.8,54.8,0,0,0-5-5.6c-1.4-1.4-3.5-2.8-4.4-4.5a.4.4,0,0,1,.7-.4,22.5,22.5,0,0,0,2.3,2.2l2.6,2.6a19.4,19.4,0,0,1,4.1,5.6C366.4,50.6,366.2,50.8,366,50.7Z"/><path class="cls-2" d="M369.3,45.4a70.3,70.3,0,0,1-7.6-2.3c-1.5-.6-3.5-1.2-4.7-2.2a.5.5,0,0,1,.5-.8,35.9,35.9,0,0,1,4,1.8,77.2,77.2,0,0,0,7.9,3.1C369.6,45.1,369.5,45.4,369.3,45.4Z"/><path class="cls-2" d="M367.6,46.1a45.2,45.2,0,0,1-2.5-3.9c-.4-.6-1.2-2-1.9-2.1s-.4-1.1.3-.9,1.6,1.4,2.1,2a25.6,25.6,0,0,1,2.4,4.7C367.9,46,367.7,46.2,367.6,46.1Z"/><path class="cls-2" d="M376.1,47.7l-5.1-3.9c-1.7-1.3-3.3-3.3-5.4-4.1s-.3-1.1.3-.9,3,1.9,4.3,3l6.3,5.4C376.7,47.5,376.3,47.9,376.1,47.7Z"/><path class="cls-2" d="M381.1,44.6a41.7,41.7,0,0,1-7.5-2.5l-4-1.6a2.3,2.3,0,0,1-1.4-1.1c-.1-.2.1-.6.4-.5,4.3,1.5,8.4,3.7,12.8,5.1A.3.3,0,0,1,381.1,44.6Z"/><path class="cls-2" d="M381.5,42.6c-1.4-.3-2.5-1.3-3.7-1.9a28,28,0,0,0-6.8-1.8.4.4,0,0,1,.1-.8,18.7,18.7,0,0,1,10.6,4.2C381.8,42.4,381.6,42.7,381.5,42.6Z"/><path class="cls-2" d="M386.9,41.3c-1.4-1.3-4.4-1.6-6.2-1.9a36.3,36.3,0,0,0-7.2-.8c-.5,0-.5-.6-.1-.8,2.3-.9,5.9.4,8.3.8s4.6.7,5.3,2.6Z"/><path class="cls-2" d="M386.2,37.4c-1.7.1-3.4.4-5.1.6a41.7,41.7,0,0,0-6.6.7.3.3,0,0,1-.3-.5c1.3-1.3,3.7-1,5.4-1s4.8-.9,6.7-.1A.2.2,0,0,1,386.2,37.4Z"/><path class="cls-2" d="M384,41.7a33.7,33.7,0,0,1-4.7-1.8l-4.6-1.7h-.1l.8-.3h.2l4,1.5c1.6.6,3,1.6,4.6,2.1A.2.2,0,0,1,384,41.7Z"/><path class="cls-2" d="M371.3,47a23.7,23.7,0,0,0-3.7-3.8,38.9,38.9,0,0,0-3.8-3.6.3.3,0,0,1,.3-.5,20.8,20.8,0,0,1,7.3,7.9A.1.1,0,0,1,371.3,47Z"/><path class="cls-2" d="M365.9,48.2a36,36,0,0,1-4.6-5.2l-.9-1.3c-.3-.5-.7-1.6-1.2-1.9s-.2-.6.1-.6,1.6,1.8,2,2.4a22.2,22.2,0,0,0,1.9,2.7c1,1.3,1.7,2.7,2.8,3.8A.1.1,0,0,1,365.9,48.2Z"/><path class="cls-2" d="M362.8,49c-1.6-1.7-3.2-3.4-4.9-4.9l-2.6-2.3a11.4,11.4,0,0,1-2.3-1.9h1.3A22.3,22.3,0,0,1,358,43a72.2,72.2,0,0,1,5.1,5.7C363.4,48.9,363,49.3,362.8,49Z"/><path class="cls-2" d="M313.7,22.9a28.8,28.8,0,0,0-4.9,3.7c-1.1,1-1.9,3-3.3,3.6s-.5-.1-.4-.4c1.6-2.9,5.1-6.4,8.4-7.2A.2.2,0,0,1,313.7,22.9Z"/><path class="cls-2" d="M314.4,26.5c-1.4,1.7-3.4,4.4-5.7,4.8a.3.3,0,0,1-.3-.4,31.6,31.6,0,0,1,2.5-2.1,32.6,32.6,0,0,0,2.3-2.4c1.6-1.7,3.2-3.5,4.7-5.3a.1.1,0,0,1,.2.1C317.5,23.1,315.8,24.9,314.4,26.5Z"/><path class="cls-2" d="M321.3,25.2a24.5,24.5,0,0,0-6.1,3,20.7,20.7,0,0,0-5.1,4c-.3.4-1-.1-.7-.6a17.5,17.5,0,0,1,4.7-4,20.8,20.8,0,0,1,7-3A.3.3,0,0,1,321.3,25.2Z"/><path class="cls-2" d="M325,24.7a36.5,36.5,0,0,0-5,5.2c-1.3,1.4-2.2,3.6-3.8,4.6a.3.3,0,0,1-.4-.3c.4-1.8,2.2-3.7,3.4-5a30.4,30.4,0,0,1,5.4-5C325.1,23.9,325.4,24.5,325,24.7Z"/><path class="cls-2" d="M325.6,26.7c-2.8,2-5.8,3.6-8.7,5.3-.9.6-2.6,2.1-3.8,2s-.7-.6-.2-.9c4.3-2.1,8.2-4.8,12.6-6.7A.2.2,0,0,1,325.6,26.7Z"/><path class="cls-2" d="M320.5,27a51.7,51.7,0,0,1-7,4.6c-.5.3-2.3,1.4-3,1a.4.4,0,0,1-.1-.6,7.4,7.4,0,0,1,2.5-1.2,40.8,40.8,0,0,0,7.2-4.1C320.4,26.5,320.7,26.8,320.5,27Z"/><path class="cls-2" d="M315.3,22.4a21.3,21.3,0,0,1-3.7,4.5,20.6,20.6,0,0,1-4.6,3.8c-.5.2-.9-.5-.4-.7,3.4-1.7,6.1-5,8.7-7.6A.1.1,0,0,1,315.3,22.4Z"/><path class="cls-2" d="M331.2,28.2c-2.8.6-5.1,2.5-7.5,3.9a22.3,22.3,0,0,0-3.4,2.3,4.4,4.4,0,0,1-1.6,1.2.3.3,0,0,1-.4-.4c.4-1.7,3.5-3.1,4.9-3.9s5-3.2,7.8-3.7C331.4,27.5,331.6,28.1,331.2,28.2Z"/><path class="cls-2" d="M329.7,30.3l-6.3,2.3c-2,.7-4.7,1.2-6.4,2.5s-1-.4-.6-.8,3.5-1.4,5.2-2a49.9,49.9,0,0,1,7.9-2.5A.2.2,0,0,1,329.7,30.3Z"/><path class="cls-2" d="M326.7,27.6a41.9,41.9,0,0,0-5.2,4c-1.3,1.1-2.2,2.6-3.6,3.5s-.6-.2-.5-.5,2.5-2.6,3.6-3.5a32.9,32.9,0,0,1,5.6-3.6Z"/><path class="cls-2" d="M333.7,28.7c-2.1,1.4-4,2.9-6.1,4.4s-3.7,3-5.7,3.5c-.4.1-.7-.5-.3-.7a58.2,58.2,0,0,0,5.6-3.6c2.1-1.3,4.2-2.7,6.4-3.8A.2.2,0,0,1,333.7,28.7Z"/><path class="cls-2" d="M333.9,29.5a32.1,32.1,0,0,0-3.9,4,27.6,27.6,0,0,1-3.6,3.9c-.4.3-.8-.3-.5-.7,2.2-2.8,4.7-5.7,7.7-7.6C333.8,29,334.1,29.3,333.9,29.5Z"/><path class="cls-2" d="M335.4,30c-1.6,1.6-3.8,2.5-5.7,3.6s-3.8,2.9-5.7,3.1a.2.2,0,0,1-.2-.4c1.2-1.4,3.2-2.2,4.8-3.1l6.7-3.5A.1.1,0,0,1,335.4,30Z"/><path class="cls-2" d="M339.6,29.4c-1.9,1.5-3.7,3.3-5.8,4.7s-3.7,3.2-5.8,3.9c-.3.1-.5-.4-.2-.6,4-2.5,7.8-5.5,11.6-8.3C339.5,29,339.8,29.3,339.6,29.4Z"/><path class="cls-2" d="M342.2,29.6a32.5,32.5,0,0,0-6.8,4.3c-1.1.8-2.2,1.7-3.2,2.6s-1,1.3-1.9,1.5-.5-.2-.3-.4a20.8,20.8,0,0,1,4.8-4.3,23.7,23.7,0,0,1,7.2-3.9C342.2,29.4,342.3,29.6,342.2,29.6Z"/><path class="cls-2" d="M342.7,30.7c-1.8,1.8-3.5,3.6-5.4,5.3s-2.4,2.5-4.1,2.5a.3.3,0,0,1-.2-.6c3.2-2.4,6.4-4.9,9.5-7.5C342.6,30.4,342.8,30.6,342.7,30.7Z"/><path class="cls-2" d="M345.7,30.5,340.4,34c-2,1.3-3.6,3.5-5.7,4.6a.2.2,0,0,1-.3-.4c3-3.6,7.3-5.5,11.3-7.7Z"/><path class="cls-2" d="M339.1,32.5c-2.7,1.8-4.7,4.5-7.4,6.3-.2.2-.5-.2-.4-.4s2.6-2.5,3.8-3.6a14.6,14.6,0,0,1,3.9-2.5C339.1,32.3,339.2,32.5,339.1,32.5Z"/><path class="cls-2" d="M355.8,30.9c-2.1.7-3.9,2.8-5.6,4.3s-3,3.1-4.4,4.7-1-.2-.6-.6c2.6-3.3,6.2-7.6,10.5-8.7A.2.2,0,0,1,355.8,30.9Z"/><path class="cls-2" d="M350.8,32.2c-1.6,1.8-3.7,3.2-5.1,5.1s-1.6,2.7-2.6,2.4a.3.3,0,0,1-.2-.4c.1-.4.5-.7.8-.9a17.7,17.7,0,0,0,1.7-2c1.4-1.8,3.6-3,5.3-4.4A.1.1,0,0,1,350.8,32.2Z"/><path class="cls-2" d="M348.7,30.6c-1.6,1.5-3,3.3-4.5,4.9s-2.1,3.2-3.7,3.8-.3-.2-.3-.3,2.6-3.2,3.8-4.5a29.3,29.3,0,0,1,4.4-4.1C348.7,30.3,348.8,30.5,348.7,30.6Z"/><path class="cls-2" d="M347,30.4c-2.9,3.2-6.7,6.7-10.6,8.6a.3.3,0,0,1-.3-.4c1.6-1.7,3.8-3,5.7-4.4a40.7,40.7,0,0,1,5.1-4A.1.1,0,0,1,347,30.4Z"/><path class="cls-2" d="M348.7,32.3l-5.2,2.9a47.7,47.7,0,0,0-5.6,4.6.3.3,0,0,1-.4-.3c2.2-3.8,7.1-6.1,11.1-7.5A.2.2,0,0,1,348.7,32.3Z"/><path class="cls-2" d="M358.7,31.1c-.4,2-1.8,3.8-2.9,5.5s-2.2,3.1-3.8,3.5-.5-.2-.3-.4S354,37.3,355,36a24.1,24.1,0,0,0,3.3-5.1C358.4,30.7,358.8,30.9,358.7,31.1Z"/><path class="cls-2" d="M361,32.3a44.5,44.5,0,0,0-5.9,3.7,20.5,20.5,0,0,0-3.2,2.6,6.9,6.9,0,0,1-2,1.6.4.4,0,0,1-.4-.6c1.6-1.1,2.9-2.7,4.5-3.9a37.2,37.2,0,0,1,6.7-3.9C361,31.7,361.3,32.1,361,32.3Z"/><path class="cls-2" d="M356.3,31.6a30.4,30.4,0,0,1-4.1,4.7c-1.3,1.2-3.1,3.4-4.9,3.7a.3.3,0,0,1-.2-.6,64.3,64.3,0,0,0,9-8C356.1,31.3,356.4,31.5,356.3,31.6Z"/><path class="cls-2" d="M364.9,30.8c-1.3,1.8-2.4,3.9-3.8,5.6s-2.2,3.3-3.9,3.5-.3-.3-.2-.5,2.8-2.9,4.1-4.6,2.2-3,3.4-4.4S365.1,30.5,364.9,30.8Z"/><path class="cls-2" d="M362.9,32c-1.5,1.4-2.6,3.1-4,4.5s-2.8,3-4.5,3.8c-.2.1-.5-.1-.3-.3a29.4,29.4,0,0,1,4.3-4c1.5-1.3,2.7-3,4.3-4.3S363.1,31.8,362.9,32Z"/><path class="cls-2" d="M368,32.5c-3.7,1.5-6,5.3-9.3,7.3-.3.2-.6-.2-.4-.5,2.6-2.8,5.9-5.9,9.6-7.2C368.1,32,368.2,32.4,368,32.5Z"/><path class="cls-2" d="M368.4,33.4a24.7,24.7,0,0,0-3.6,3.3,13.4,13.4,0,0,1-4,2.9c-.2.1-.4-.2-.2-.4s2.9-2.2,4.2-3.3a17.4,17.4,0,0,1,3.6-2.7C368.4,33,368.6,33.3,368.4,33.4Z"/><path class="cls-2" d="M370.1,31.3a24.4,24.4,0,0,1-2.4,4.7c-.9,1.2-1.9,3.1-3.5,3.4a.2.2,0,0,1-.3-.3,27.3,27.3,0,0,1,2.8-3.3c1.2-1.4,2-3.1,3.1-4.6A.2.2,0,0,1,370.1,31.3Z"/><path class="cls-2" d="M371,32.8a37.2,37.2,0,0,1-4.3,3.6,19.5,19.5,0,0,1-4.4,3.2.1.1,0,0,1-.1-.2c2.3-2.8,5.7-4.8,8.5-7A.2.2,0,0,1,371,32.8Z"/><path class="cls-2" d="M373.1,31.3c-2.2,2.7-3.6,6.3-6.5,8.4-.2.2-.5-.1-.4-.4s2.3-2.9,3.4-4.4a17.9,17.9,0,0,1,3.4-3.7A.1.1,0,0,1,373.1,31.3Z"/><path class="cls-2" d="M375.8,31.2c-1.8,2.9-3.3,6.4-6.7,7.7-.3.1-.4-.3-.3-.5a12.2,12.2,0,0,1,1.8-1.6,13,13,0,0,0,2-2.1,34.3,34.3,0,0,1,3-3.6A.1.1,0,0,1,375.8,31.2Z"/><path class="cls-2" d="M373.6,32.5c-1.8,2.1-2.9,4.7-4.6,6.7-.2.2-.5,0-.4-.2s1.4-2.3,2.1-3.4a14.8,14.8,0,0,1,2.8-3.3A.1.1,0,0,1,373.6,32.5Z"/><path class="cls-2" d="M380,31.4a33.7,33.7,0,0,0-5,3.9c-1,1-2,2.2-3.1,3.1h0a2.6,2.6,0,0,0-1.4.2,26.2,26.2,0,0,1,9.5-7.4A.1.1,0,0,1,380,31.4Z"/><path class="cls-2" d="M382.9,32.2l-5.8,3.5a21.9,21.9,0,0,1-5.5,2.7c-.3.1-.6-.3-.3-.5a33.4,33.4,0,0,1,5.3-3,52.7,52.7,0,0,1,6.1-2.9C382.9,31.8,383,32.1,382.9,32.2Z"/><path class="cls-2" d="M384.6,34.3c-2,1.1-4.2,1.5-6.3,2.4l-2.5.8c-1.2.3-2.1,1.1-3.4,1.3a.2.2,0,0,1-.1-.3c1.8-1.4,3.6-1.9,5.7-2.7l3.3-1.1a14.4,14.4,0,0,1,3.3-.9A.2.2,0,0,1,384.6,34.3Z"/><path class="cls-2" d="M383.8,36.1a59.9,59.9,0,0,1-11.5,2.2.3.3,0,0,1-.1-.5,22.1,22.1,0,0,1,5.3-1.3l6.3-1C384,35.5,384.1,36,383.8,36.1Z"/><path class="cls-3" d="M375,38.1c-13,3.2-26.6,3-39.9,1.3S309.8,34.2,299.4,27c-.4-.2-.1-.9.3-.7,5.8,2.5,11.3,5.6,17.3,7.7a94.9,94.9,0,0,0,18.9,4.2,140.5,140.5,0,0,0,19.5,1.1c6.6-.1,13-1.1,19.6-1.6C375.2,37.6,375.3,38.1,375,38.1Z"/><path class="cls-2" d="M295.6,36.2c-2.2,3.1-7,1.6-9.6.1s-3.7-2.7-5.7-3.8-5.2-2.5-7.7-2.1c-.1,0-.2-.2-.1-.3a4.5,4.5,0,0,1,3.1-.2,53.1,53.1,0,0,1,14.7.8C292.3,31,297.7,33.3,295.6,36.2Z"/><path class="cls-2" d="M285.2,22.9h-.1a2.2,2.2,0,0,1-.8.7c-.1.1-.3-.1-.2-.2l.3-.3c.9-1.6.2-3.7,0-5.4s-.4-3,.9-3.1,1.5,1.9,1.6,2.8S286.6,21.8,285.2,22.9Z"/><path class="cls-2" d="M308.5,17.7l-1.3,1.7a19.5,19.5,0,0,0-1.3,1.6,2.1,2.1,0,0,1-.6.7c0,.1,0,.1,0,.2s-.3.3-.4.1a6.1,6.1,0,0,1,.7-4.8c.5-.9,1.4-2.3,2.6-2S309,17,308.5,17.7Z"/><path class="cls-3" d="M323.4,9.5c-3.5,4.2-8.2,7.3-12.9,10.1a64.7,64.7,0,0,1-15.1,6.6h-.3l4.1-.2c5.3-.2,10.5-2,15.5-3.5a.2.2,0,0,1,.1.3c-5,2.3-10.5,4.1-16.1,4.4-.6,0-4.8.5-6-.2a120.1,120.1,0,0,1-14,2.8,54.3,54.3,0,0,1-8.8.7c-1.7,0-4.1.4-5.6-.4s-.2-.8.4-.9a18.9,18.9,0,0,1,2.7.1h3.9a57.4,57.4,0,0,0,8-.8h.5a9.1,9.1,0,0,1,2.3-3.4,39.4,39.4,0,0,1,4-3.9c3.4-3,7.4-6.1,11.5-8,.4-.2.7.4.4.7-3.4,2.4-6.8,4.8-10.1,7.3a38,38,0,0,0-4.5,4.1c-.9.9-1.6,2-2.4,3.1a110.3,110.3,0,0,0,14.5-3.3c10.3-3.1,19.2-8.7,27.5-15.6C323.3,9.1,323.5,9.4,323.4,9.5Z"/><path class="cls-4" d="M315.6,19.7a26,26,0,0,1,7,.4c1.4.2,3.7,0,4.7,1.2a.5.5,0,0,1,0,.6l-.4.4c-2.4,2.2-16.6,9.6-17.4,2.3C309.2,21.5,313.4,20,315.6,19.7Z"/><path class="cls-4" d="M330.2,2.3a.3.3,0,0,1,0,.1.3.3,0,0,1,0,.1,0,0,0,0,1,0,0c-1.3,5.4-2.8,10.6-7.6,13.9-2.9,1.9-8.5,2.7-9.7-1.6s5.4-7.2,8-8.7l6.4-3.6c.7-.4,2.2-1.3,2.8-.4Z"/><path class="cls-4" d="M308,5.4h0c-1.4,4.3-3.9,9.5-7.5,12.3s-6.5,2.8-9,.6.2-6,2-7.6c3.9-3.4,9.3-4.6,14-6.3A.5.5,0,0,1,308,5.4Z"/><path class="cls-2" d="M328.4,21a.8.8,0,0,1,.2.7h0a.7.7,0,0,1-.5.6.8.8,0,0,1-1.3.5h-.1a.9.9,0,0,1-.9-1.6,1.1,1.1,0,0,1,.6-1.5,1,1,0,0,1,1.2.4h.1A.6.6,0,0,1,328.4,21Z"/><path class="cls-2" d="M331.1,1.1a.6.6,0,0,1,.5.8.9.9,0,0,1-.2,1.5h-.5a1,1,0,0,1-.6.5,1,1,0,0,1-1.3-.6h0a.9.9,0,0,1-.6-1.7,1.1,1.1,0,0,1,.4-1.1,1,1,0,0,1,1-.1h.1l.3-.3A.7.7,0,0,1,331.1,1.1Z"/><path class="cls-2" d="M309.4,4.4l.3.3a.7.7,0,0,1-.3.9,1.1,1.1,0,0,1-.6,1.3,1,1,0,0,1-.9-.1h-.2a1.1,1.1,0,0,1-1.4-1.3l-.2-.2a.9.9,0,0,1,.2-1.3h.3a.9.9,0,0,1,1.4-.6.9.9,0,0,1,.9-.1.9.9,0,0,1,.5,1.1Z"/><path class="cls-3" d="M293.5,35.8c-3.3-1.1-6.1-3.2-9.5-4s-6.9-.4-10-1.7a.2.2,0,0,1,.1-.5,14.9,14.9,0,0,1,4.8.5c2,.4,4,.6,5.9,1.1a22,22,0,0,1,8.8,4.4A.1.1,0,0,1,293.5,35.8Z"/><path class="cls-3" d="M308.2,16.6a7.3,7.3,0,0,0-1.7,2.9,4.5,4.5,0,0,1-1.2,2.5.1.1,0,0,1-.2-.1,21.2,21.2,0,0,1,1.3-3.2,3.4,3.4,0,0,1,1.7-2.2C308.2,16.5,308.2,16.5,308.2,16.6Z"/><path class="cls-3" d="M285.3,23.3c-.2.2-.4,0-.4-.2a11.6,11.6,0,0,0,.4-7.3.1.1,0,0,1,.2-.1C286.5,18.1,287,21.1,285.3,23.3Z"/><path class="cls-3" d="M334.6,52.5a33.6,33.6,0,0,0-3.7.5,6.3,6.3,0,0,0-2.9,2.4.3.3,0,0,1-.3.3.2.2,0,0,1-.4-.1c-2.6-1.1-5.6-1.7-7.7.6a.3.3,0,0,1-.5.2c-2.9-1.7-6.3-2.1-8.2,1.2a.3.3,0,0,1-.4.1c-3.3.2-7-1.9-9.2-4.3s-3.7-5.7-1.8-7.6a8.9,8.9,0,0,1,3.2-8.6c2.1-1.7,5.8-2.9,8.4-1.8h.2l.2.2c1.1,1.1,1.6,2.6,2.8,3.7s4.9,1.3,7.6,1.1a.4.4,0,0,1,.4.5,11.9,11.9,0,0,0,2.5,3.4c1.7,1.5,3.7,1.1,5.8,1h.4a9.9,9.9,0,0,0,1.8,4.7c.4.5,1.7,1,1.9,1.7A.4.4,0,0,1,334.6,52.5Z"/><path class="cls-3" d="M289.5,30.3a1.9,1.9,0,0,1-1.2-.1,8.6,8.6,0,0,0-3.6.7,10.7,10.7,0,0,0-3,2.9.2.2,0,0,1-.3-.1,10.7,10.7,0,0,0-4.1-.7,6.1,6.1,0,0,0-3.7,2h-.1a.2.2,0,0,1-.3,0,9.1,9.1,0,0,0-3.7-1.7c-1.8-.3-3,.5-4.1,1.9a.3.3,0,0,1-.4,0c-2.1.3-4.6-.7-6.3-1.9a5.9,5.9,0,0,1-2.7-4.6v-.2c-.6-4.4,4.5-8.7,8.6-8.7h.3c2.5,3.1,6.3,2.6,9.8,2.2a.4.4,0,0,1,.4.2c1.2.6,2.1,1.6,3.3,2.2s4.3,0,6.3-.1a.3.3,0,0,1,.3.5c.7.9,1,2,1.9,2.7l1.7,1.1a3.4,3.4,0,0,1,1.3.8A.3.3,0,0,1,289.5,30.3Z"/><path class="cls-2" d="M319,49.1c-14-1.9-27.8-3.9-41.5-7.4s-27.5-7.8-39.5-15c-.5-.3-.2-1.1.4-.9,6.1,2.9,12.3,5.8,18.6,8.2a197,197,0,0,0,20.7,6.4c13.6,3.5,27.5,6,41.3,8.4A.2.2,0,0,1,319,49.1Z"/><path class="cls-2" d="M309.8,56.6h0a14.2,14.2,0,0,0-2.5-5.8,20.8,20.8,0,0,0-4.1-4c-.1-.1,0-.4.2-.3,2.2.6,3.7,2.5,4.9,4.4S310.5,54.7,309.8,56.6Z"/><path class="cls-2" d="M302.9,46.4a.2.2,0,0,1-.1-.3c3.3-2.3,5.3-5.7,7-9.3.1-.1.2-.1.2.1C308.9,40.2,306.8,45.8,302.9,46.4Z"/><path class="cls-2" d="M332.3,51.5a64,64,0,0,0-6.6-1L316.8,49c-5.2-.7-10.7-1.2-15.6-3-.1,0-.1-.2.1-.2,5.5.8,11,1.8,16.5,2.7l8.1,1.5c2.1.4,4.7.5,6.5,1.5C332.4,51.5,332.4,51.6,332.3,51.5Z"/><path class="cls-2" d="M319.1,55c-.7-3.1-3.4-5-5.9-6.6-.1-.1,0-.3.1-.2a6.7,6.7,0,0,1,3.8,2.3,8.9,8.9,0,0,1,2.2,4.5A.1.1,0,0,1,319.1,55Z"/><path class="cls-2" d="M317.7,46.4c-1,.9-3,2.6-4.5,2a.3.3,0,0,1,.1-.5,9.8,9.8,0,0,0,4.1-1.9,14.8,14.8,0,0,0,3.6-3.8.1.1,0,0,1,.2.1C321,43.9,318.9,45.4,317.7,46.4Z"/><path class="cls-2" d="M327.3,54a6.1,6.1,0,0,0-1.9-2.3,12.7,12.7,0,0,0-2.5-1.8.1.1,0,0,1,0-.2c1.1-.2,2.1.8,2.9,1.5a4.5,4.5,0,0,1,1.6,2.7Z"/><path class="cls-2" d="M327.3,48.8c-1.2.6-2.7,1.6-4.1,1.3s-.2-.2-.1-.3a29.3,29.3,0,0,1,3.1-1.1,8.5,8.5,0,0,0,3.4-2.1h.1A5,5,0,0,1,327.3,48.8Z"/><path class="cls-2" d="M282.7,29.2a116.1,116.1,0,0,0-22.6-.3,8.3,8.3,0,0,1,4.4,5.1c0,.2-.2.3-.3.2a25.1,25.1,0,0,0-2-2.8l-1.6-1.5A11.3,11.3,0,0,0,259,29h-.5a102.9,102.9,0,0,0-11.4,1.9l-2.4-1.1a101.8,101.8,0,0,1,13.7-2.1,87.8,87.8,0,0,1,24.3,1.1A.2.2,0,0,1,282.7,29.2Z"/><path class="cls-4" d="M304.7,48.4c-1.4,2-4.6,2.3-6.7,1.6a5.3,5.3,0,0,1-3.9-4.8,4.6,4.6,0,0,1,1.7-4.1,6.5,6.5,0,0,1,3.4-1.7C304.1,38.6,307.5,44.4,304.7,48.4Z"/><path class="cls-4" d="M287.9,44.1a3.5,3.5,0,0,1-1.9-3.3,2.8,2.8,0,0,1,1.8-2.5l.4-.2a3.7,3.7,0,0,1,5.5,3C293.8,44.2,290.3,45.4,287.9,44.1Z"/><path class="cls-4" d="M296.3,39.3a2.8,2.8,0,0,1-2.4-2,3.4,3.4,0,0,1,1.9-4.3,3.5,3.5,0,0,1,4.8,3.4C300.3,38.5,298,39.4,296.3,39.3Z"/><path class="cls-2" d="M296.9,46.2h0a.5.5,0,0,1,0,.2h-.1a.6.6,0,0,1-.6.5.6.6,0,0,1-.5-.2,1.1,1.1,0,0,1-.2-.7V46h0a.7.7,0,0,1,.8-.3h.2l.2.2v.3h0Z"/><path class="cls-2" d="M296.9,46.2h0Z"/><path class="cls-2" d="M296.9,46.6h0Z"/><path class="cls-2" d="M299.3,35.8a.8.8,0,0,1-.4.5l-.2.2h-.2a.8.8,0,0,1-1.1-.5,1,1,0,0,1,.3-1.1,1,1,0,0,1,1-.1A.9.9,0,0,1,299.3,35.8Z"/><path class="cls-2" d="M291.1,42.9h0a.5.5,0,0,1-.7-.1.6.6,0,0,1-.1-.5.5.5,0,0,1,1,.2A.6.6,0,0,1,291.1,42.9Z"/><path class="cls-4" d="M250.5,34.7a5,5,0,0,1-8.4-3.9,5.9,5.9,0,0,1,5.7-4.5C252.3,26.6,253.4,32,250.5,34.7Z"/><path class="cls-4" d="M256.8,38.4a3.9,3.9,0,0,1-3.8,1.9,3.2,3.2,0,0,1-2.7-2.7,3.1,3.1,0,0,1,.9-2.8,3.3,3.3,0,0,1,1.3-1.2C255.5,32.2,258.2,35.7,256.8,38.4Z"/><path class="cls-4" d="M249.4,25.6a3.4,3.4,0,0,1-.7-1.6,3,3,0,0,1-.1-.6,3.4,3.4,0,0,1,.6-2.3l.7-.7a4,4,0,0,1,1.3-.8,3.7,3.7,0,0,1,4.9,4.5A4,4,0,0,1,249.4,25.6Z"/><path class="cls-2" d="M244.7,29.1l-.2.3a.6.6,0,0,1-.4.4.6.6,0,0,1-.8-.4.9.9,0,0,1,.5-1.1.6.6,0,0,1,.7.2A.5.5,0,0,1,244.7,29.1Z"/><path class="cls-2" d="M252.7,39.6a.7.7,0,0,1-.8-.2.7.7,0,0,1-.1-.6h0v-.3a.6.6,0,0,1,1.1.2V39A.6.6,0,0,1,252.7,39.6Z"/><path class="cls-2" d="M251.5,22.4l-.2.2c-.4.2-.6-.2-.5-.5h0a.3.3,0,0,1,.4-.2A.4.4,0,0,1,251.5,22.4Z"/><path class="cls-2" d="M273,33.5h-.1c-.2-1.2-1.5-2.4-2.3-3.2a22.1,22.1,0,0,0-3-2.1c-.1-.1-.1-.3.1-.3a5.6,5.6,0,0,1,3.9,2.1C272.2,30.8,273.4,32.2,273,33.5Z"/><path class="cls-2" d="M281.3,32.4c-1.1-2.1-3.4-2.8-5.3-4-.1-.1,0-.3.1-.3a9.1,9.1,0,0,1,3.5,1.5,4.6,4.6,0,0,1,1.9,2.8Z"/><path class="cls-2" d="M263.8,22a18.6,18.6,0,0,1-1.8,3.5,8.6,8.6,0,0,1-3.4,3.1.2.2,0,0,1-.3-.3c1-1.1,2.2-2,3.1-3.2s1.3-2.2,2.1-3.2A.2.2,0,0,1,263.8,22Z"/><path class="cls-2" d="M268.6,28.4a.2.2,0,0,1-.2-.4c.8-.6,1.7-1,2.5-1.6a12.1,12.1,0,0,0,2.2-2.3.1.1,0,0,1,.2.1C272.5,26.1,270.7,28.1,268.6,28.4Z"/><path class="cls-2" d="M282.6,26.1a6.8,6.8,0,0,1-2.3,1.8c-.8.4-2,1.1-2.9.6a.2.2,0,0,1,0-.4c.8-.3,1.6-.2,2.4-.5a15.2,15.2,0,0,0,2.7-1.6Z"/><path class="cls-3" d="M297.9,58.9a.3.3,0,0,1-.2.4h-.3a17.5,17.5,0,0,0-4.3-.9c-1.6,0-2.7.8-4.1,1.4a.4.4,0,0,1-.6.1c-2.7-1.7-5.7-2-8.4-.2h-.4a19.4,19.4,0,0,0-2.7-3.6,7.7,7.7,0,0,0-2.1-1.3,7,7,0,0,0-3.2-.2c0,.2-.4.3-.5,0-1.5-2.8-1-8.2,1.8-10.2h.1c0-2,1.9-3.8,3.6-4.6a6.4,6.4,0,0,1,6,.5.3.3,0,0,1,.3.2h0a5.6,5.6,0,0,0,1.8,3.3c1.2,1,2.9.8,4.3.9a.4.4,0,0,1,.1.7,7,7,0,0,0,2.2,4.1c1.3,1.2,2.9,1.2,4.4,1.9a.3.3,0,0,1,.1.4,1,1,0,0,1,0,.3,6.9,6.9,0,0,0,.3,2.6,9,9,0,0,0,1,2.8A12.4,12.4,0,0,1,297.9,58.9Z"/><path class="cls-2" d="M291.1,55.1c-6.2-1.7-12.3-5.4-17.4-9.2a72.6,72.6,0,0,1-9.4-8.3l2.4.7c2.3,2.2,4.7,4.3,7.2,6.2a86.2,86.2,0,0,0,8.2,5.5c2.9,1.8,5.8,3.8,9,4.9C291.4,54.9,291.3,55.1,291.1,55.1Z"/><path class="cls-2" d="M272.5,53.5a.1.1,0,0,1-.2-.1c1-2.3,2.7-4.7,1.9-7.4a.1.1,0,0,1,.2-.1C276.1,47.8,273.9,51.9,272.5,53.5Z"/><path class="cls-2" d="M278.1,44.7c-1.1.7-3,1.8-4.2.9a.2.2,0,0,1,.1-.3,12.7,12.7,0,0,1,1.9-.4l1.9-.7a7.3,7.3,0,0,0,3.1-2.4h.1A5.7,5.7,0,0,1,278.1,44.7Z"/><path class="cls-2" d="M280.2,58.4H280c.7-3.2,1.3-5.8-.1-8.9-.1-.2.2-.3.3-.1C282.2,51.5,281.8,56.1,280.2,58.4Z"/><path class="cls-2" d="M288.3,46.2c-1.7,2.5-5.3,5-8.5,3.9-.3-.1-.2-.5.1-.5,3.1-.4,6.1-.9,8.3-3.5C288.2,46,288.4,46.1,288.3,46.2Z"/><path class="cls-2" d="M288.7,58.7h0a5.5,5.5,0,0,0-1.4-3.6,16.5,16.5,0,0,1-1.8-2.2h.1a5.4,5.4,0,0,1,2.6,2.5A4.5,4.5,0,0,1,288.7,58.7Z"/><path class="cls-2" d="M294.3,52.4c-3.1.9-6.4,1.3-9.4,0-.1-.1-.1-.3,0-.3a24.5,24.5,0,0,1,3.7.5c1.8.2,3.8-.3,5.6-.6C294.4,52,294.4,52.3,294.3,52.4Z"/><path class="cls-2" d="M296,57.8c-2.1-.9-4-2-6-3s-4.3-1.5-6.3-2.7c-.1-.1-.1-.3.1-.3a46.2,46.2,0,0,1,12.3,5.7A.2.2,0,0,1,296,57.8Z"/><path class="cls-4" d="M272.7,44.1c-3.9,2.6-8.2-1.2-6.6-5.4a4.2,4.2,0,0,1,3-2.4,5.3,5.3,0,0,1,2.1-.4,4.5,4.5,0,0,1,4,3.3C275.7,41.1,274.3,43,272.7,44.1Z"/><path class="cls-4" d="M266.2,45.8a2.9,2.9,0,0,1,2.1-.4c2.5.5,2.7,4.2.5,5.3a2.8,2.8,0,0,1-3.9-3.7A2.2,2.2,0,0,1,266.2,45.8Z"/><path class="cls-4" d="M280.5,48.5c-.6,3-5.1,4.1-7.1,1.8a3.1,3.1,0,0,1-.5-1,3.6,3.6,0,0,1,.1-4.1,2.8,2.8,0,0,1,.9-.8l.6-.4A4.2,4.2,0,0,1,280.5,48.5Z"/><path class="cls-2" d="M274.1,48.5c-.9.1-1.1-1.2-.4-1.6a.7.7,0,0,1,.8,0,.7.7,0,0,1,.2.7A.7.7,0,0,1,274.1,48.5Z"/><path class="cls-2" d="M269.2,43.6h-.5a.7.7,0,0,1-.5-1.1.9.9,0,0,1,.8-.3.8.8,0,0,1,.7.8A.6.6,0,0,1,269.2,43.6Z"/><path class="cls-2" d="M268.6,50.1h0a.6.6,0,0,1-.3.4.5.5,0,0,1-.7-.6h0a.6.6,0,0,1,.6-.5.6.6,0,0,1,.5.6Z"/><path class="cls-1" d="M88,22.1c-.2-1.2,1-1.4,1.9-1.2l2.1.6a9.2,9.2,0,0,0,4.1.2l.2-.3a.2.2,0,0,1,.3,0l.7-.2c.1,0,.1.1.1.2a4.8,4.8,0,0,0-1.1,2.2,21.4,21.4,0,0,0,.1,2.2c0,.6-.4,1.9-1.3,1.6s-.7-1.6-.7-2.2a6,6,0,0,1,1.4-3.1c-1,1.1-3.3,1.1-4.7,1.1S88.2,23.3,88,22.1Z"/><path class="cls-1" d="M71.2,24.6c.6-1,2.1.1,2.6.5s3.2,3.8,5.9,4c.2,0,.2.3,0,.3h-.3v.2a7.1,7.1,0,0,1-6.3-1C71.8,27.8,70.2,26.3,71.2,24.6Z"/><path class="cls-1" d="M70.3,31.8H70a.3.3,0,0,1-.3.2c-2.4,0-4.9-1.5-6.6-3.1s-2-3-.5-4.2,2.8,1.4,3.3,2.2,2.2,4,4.3,4.5A.2.2,0,0,1,70.3,31.8Z"/><path class="cls-1" d="M60.7,33.1H60a10.9,10.9,0,0,1-6.3-3.5c-.9-1.1-1.5-3.8.3-4.5s2.2,1.2,2.7,2.1,1.9,4.8,4.1,5.6C61.1,32.8,60.9,33.1,60.7,33.1Z"/><path class="cls-1" d="M49.7,33.2l-.5-.2H49A10.7,10.7,0,0,1,42.2,29c-1.2-1.6-1.5-4.2.4-5.4s2.5,1,2.9,1.9.9,1.9,1.3,2.9A30.7,30.7,0,0,0,49.9,33C49.9,33.1,49.9,33.3,49.7,33.2Z"/><path class="cls-1" d="M39.2,32.4h-.3c-1.8.1-4.1-2.4-5.1-3.6s-2.1-3.8-1-5.4,2.3-1.5,3,.1.7,7.1,3.6,8.6C39.6,32,39.5,32.4,39.2,32.4Z"/><path class="cls-1" d="M30,30.6l-.3-.2a.3.3,0,0,1-.4.1c-2.9-1.2-5.7-2.5-7.1-5.5-.5-1-1-3.5.1-4.3s2.6.4,3.2,1.6.7,2,1.1,3a18.2,18.2,0,0,0,3.5,5C30.3,30.5,30.1,30.6,30,30.6Z"/><path class="cls-1" d="M19.8,27.9c-3-1.2-7.1-6-3.9-9.1,1.2-1.1,2.6,1.1,2.7,2s.2,2.3.4,3.5.7,2,.8,2.9l.3.2C20.2,27.7,20,28,19.8,27.9Z"/><path class="cls-1" d="M.1,17.9c.6-2.2,2.9-2.1,4.6-1.2a11.4,11.4,0,0,1,3.2,2.8l2.6,3.1.2.2a22.6,22.6,0,0,1,2.6,2.1h.3c.1.1.1.3-.1.3a23.5,23.5,0,0,1-9.7-2.7C2.4,21.8-.4,19.8.1,17.9Z"/><path class="cls-1" d="M88.1,26.2h-.2c-2.2,1.4-6.4-.6-6.7-3.2s1.1-1.2,1.8-.8a9.2,9.2,0,0,1,1.5,1.5,6.3,6.3,0,0,0,3.3,2h.2a.2.2,0,0,1,.1.3l.9-.5a1.5,1.5,0,0,1,.9-.5h.1c-.1.5-.2.4-.5.9a7.2,7.2,0,0,0-.8,2.2,11.2,11.2,0,0,0-.1,2.4c0,1.2-.3,2.4-1.8,2.2s-.9-2.6-.7-3.4A6.6,6.6,0,0,1,88.1,26.2Z"/><path class="cls-1" d="M81.8,28.5a.2.2,0,0,1,.3.1l.5-.3a.2.2,0,0,1,.2.2,9.5,9.5,0,0,0-1.4,3.6c-.1,1.1.1,2.2,0,3.3s-1.1,2.3-2.2,1.7-.6-2.4-.6-3.3A8.3,8.3,0,0,1,81.8,28.5Z"/><path class="cls-1" d="M75.6,30.6h.3l.6-.5a.2.2,0,0,1,.3.2,5.2,5.2,0,0,1-.9,1.3,6.8,6.8,0,0,0-1.3,3,33,33,0,0,1-.8,3.7c-.4,1.2-1.9,2.6-3.2,1.7s-.2-3.2.1-4.1A10.5,10.5,0,0,1,75.6,30.6Z"/><path class="cls-1" d="M66.5,32.2h.2l.5-.2a.2.2,0,0,1,.2.3,10.7,10.7,0,0,0-3.2,4.3c-.4,1-.5,2.1-.9,3.2s-2,3-3.1,1.6.1-3.5.7-4.7S64.4,32.6,66.5,32.2Z"/><path class="cls-1" d="M49.6,36.6A13.9,13.9,0,0,1,56,33.2a.2.2,0,0,1,.3.2h.3c.1,0,.1.2,0,.2-2.8,1.4-3.6,3.7-5.2,6.2s-2.7,3-3.8,1.1S48.7,37.5,49.6,36.6Z"/><path class="cls-1" d="M44.3,32.7h.2l1.1-.2a.2.2,0,0,1,.1.3c-2.8,1.1-4.2,3.2-5.7,5.6s-1.9,2.4-3.4,1.9-.1-3.5.6-4.3S42,33,44.3,32.7Z"/><path class="cls-1" d="M33.9,31a.2.2,0,0,1,.1.3H34c.1,0,.1.2,0,.2-2.8,1.3-4.4,4.2-7,5.8s-2.9,1.4-3.6-.1C21.8,33.9,32.1,30.2,33.9,31Z"/><path class="cls-1" d="M12.6,27.9a26.2,26.2,0,0,1,10.7.8,9.2,9.2,0,0,1,2.3.4c.2.1.2.4,0,.4h-1a22.6,22.6,0,0,0-6.7.9,38.4,38.4,0,0,1-4.8,1.3c-1,.2-4.1.9-4.6-.5S11.3,28.2,12.6,27.9Z"/><path class="cls-1" d="M3.7,19.2c3.3,1.9,6.5,3.9,10,5.5a76.6,76.6,0,0,0,11.4,4,114,114,0,0,0,26,3.9,87.7,87.7,0,0,0,26-3,56.9,56.9,0,0,0,11.1-4.2c3.6-1.8,7.2-3.3,10.4-5.8.3-.2.7.2.4.5-2.4,2.5-5.7,3.9-8.8,5.3a80.3,80.3,0,0,1-12.2,4.9A87.4,87.4,0,0,1,52,33.6a115.4,115.4,0,0,1-26.3-3.8,80.7,80.7,0,0,1-11.6-4c-3.7-1.6-7.6-3.5-10.6-6.2C3.2,19.4,3.4,19,3.7,19.2Z"/><path class="cls-2" d="M126.8,38.7a37.7,37.7,0,0,0,8-1.3c2.3-.6,4.2-1.8,6.4-2.5.6-.2.4-1.1-.2-.9s-3.8,1.7-5.7,2.4a37.3,37.3,0,0,1-8.4,1.8C126.4,38.2,126.4,38.8,126.8,38.7Z"/><path class="cls-2" d="M118.5,36.2a48,48,0,0,0,7.1-2.4,33.8,33.8,0,0,1,4.3-1.5,15.5,15.5,0,0,0,3.6-1,.2.2,0,0,0-.1-.3c-5.2-.1-10.2,3-15,4.6A.3.3,0,0,0,118.5,36.2Z"/><path class="cls-2" d="M123.1,35.6a28.6,28.6,0,0,0,6-1.4c2-.6,4.7-1.2,6.1-2.8a.1.1,0,0,0-.1-.2c-2.1.3-4.2,1.5-6.2,2.2a42.1,42.1,0,0,1-5.9,1.7C122.8,35.2,122.8,35.7,123.1,35.6Z"/><path class="cls-2" d="M125.9,36.8c4.3-1.6,8.7-2,13.1-3.1.1,0,.2-.3,0-.3-2-.3-4.2.3-6.1.7a27.1,27.1,0,0,0-7.1,2.5C125.7,36.7,125.8,36.9,125.9,36.8Z"/><path class="cls-2" d="M129.8,37.3a2.6,2.6,0,0,0,1.6-.4l2.7-1.2c1.4-.6,3.6-1.7,4.4-3.1a.2.2,0,0,0-.1-.3.9.9,0,0,0-.9.3,19.5,19.5,0,0,1-2.8,1.9,30.3,30.3,0,0,1-2.8,1.4L129.8,37A.2.2,0,0,0,129.8,37.3Z"/><path class="cls-2" d="M115.6,34.2a51.8,51.8,0,0,1,16.2-3.8.2.2,0,0,0,0-.5A33.4,33.4,0,0,0,115.5,34C115.3,34.1,115.5,34.3,115.6,34.2Z"/><path class="cls-2" d="M115.8,32.7c4.1-2,8.9-2.2,13-4.2.3-.2.1-.6-.2-.6a50.6,50.6,0,0,0-7.4,2.1,19.4,19.4,0,0,0-5.5,2.4A.2.2,0,0,0,115.8,32.7Z"/><path class="cls-2" d="M113.6,32.9a32.2,32.2,0,0,0,5.8-2.9c1.3-.8,3.7-1.5,4.4-3s0-.5-.3-.4a2.5,2.5,0,0,0-.9.6,17,17,0,0,1-3.1,1.9l-6,3.5C113.4,32.7,113.4,32.9,113.6,32.9Z"/><path class="cls-2" d="M112.9,31.6c4.5-1.1,9-3.3,13.7-3.7.4,0,.4-.7,0-.6a27.3,27.3,0,0,0-7.2,1.7,67.4,67.4,0,0,0-6.6,2.4C112.7,31.4,112.8,31.6,112.9,31.6Z"/><path class="cls-2" d="M110.7,32l6.7-3.5c1.2-.7,3.4-1.5,3.8-2.9a.2.2,0,0,0-.2-.2c-.2,0-.3,0-.4.2s-2.4,1.7-3.6,2.4-4.4,2.5-6.5,3.9A.1.1,0,0,0,110.7,32Z"/><path class="cls-2" d="M109.2,31.9c1.2-1.4,2.4-2.9,3.8-4.2l1.9-1.7c.8-.7,1.9-1,2.5-1.8a.2.2,0,0,0-.2-.4c-3.7.5-6.5,5-8.4,7.8C108.7,31.8,109,32.1,109.2,31.9Z"/><path class="cls-2" d="M107,30.2c2.3-1.7,5.2-2.5,7.9-3.3s4-.6,5.8-1.3a.4.4,0,0,0-.2-.7,38.8,38.8,0,0,0-7.2,1.7c-2.2.8-5.1,1.5-6.5,3.5C106.7,30.2,106.9,30.3,107,30.2Z"/><path class="cls-2" d="M105.1,30a41,41,0,0,1,6.5-4.3c1.1-.6,3-1.2,3.1-2.7a.3.3,0,0,0-.5-.2c-.9,1.7-3.6,2.5-5.1,3.5a16.2,16.2,0,0,0-4.1,3.5C104.9,29.9,105,30,105.1,30Z"/><path class="cls-2" d="M106.1,27.8l4-2.8c.9-.6,2-1.2,2.4-2.3s-.3-.6-.6-.4a6.1,6.1,0,0,0-.8,1,10.9,10.9,0,0,1-1.8,1.4c-1.2.9-2.3,1.9-3.4,2.9S106,27.9,106.1,27.8Z"/><path class="cls-2" d="M103.3,29.4h.1l3.3-3.8a28.7,28.7,0,0,1,4-3.3c.3-.3-.1-.8-.4-.6a15.8,15.8,0,0,0-4.6,3.7C104.6,26.6,103.4,27.9,103.3,29.4Z"/><path class="cls-2" d="M102,26.8l6.8-2.8c.8-.3,3.3-.8,3.3-1.9H112a33,33,0,0,0-4.7,1.9,23.6,23.6,0,0,0-5.5,2.8C101.8,26.8,101.9,26.9,102,26.8Z"/><path class="cls-2" d="M100.5,28.8h.1c.3-.9,1.4-1.6,2-2.2s1.6-1.7,2.4-2.5,2.8-1.7,3.7-2.9-.2-.6-.4-.4a24.7,24.7,0,0,0-4.9,3.7C102.4,25.6,100.6,27.2,100.5,28.8Z"/><path class="cls-2" d="M97.1,29.7a64.7,64.7,0,0,0,5.7-5.4c.8-.8,2.6-2.2,2.4-3.6a.2.2,0,0,0-.4-.1c-1.2,1.4-2.3,2.8-3.6,4.1a25.1,25.1,0,0,0-4.3,4.8A.1.1,0,0,0,97.1,29.7Z"/><path class="cls-2" d="M97.6,26.2h.1c1.3-1.2,2.6-2.4,4-3.4a38.5,38.5,0,0,0,3.9-2.7.2.2,0,0,0-.2-.4,14.9,14.9,0,0,0-4.6,2.8C99.7,23.4,97.9,24.7,97.6,26.2Z"/><path class="cls-2" d="M95.5,28.2c2.4-2.8,3.8-6.3,7.1-8.4.3-.2.1-.8-.3-.7s-2.9,2.3-4,3.6a20.7,20.7,0,0,0-3,5.4A.1.1,0,0,0,95.5,28.2Z"/><path class="cls-2" d="M99.2,26.5a22.1,22.1,0,0,0,2.7-3.5,19.1,19.1,0,0,0,1.2-2.3c.2-.4.4-.6.3-1s-.2-.2-.2-.1a22.1,22.1,0,0,0-1.8,3.1c-.8,1.2-1.6,2.5-2.4,3.7S99,26.7,99.2,26.5Z"/><path class="cls-2" d="M93.2,27.6a54.9,54.9,0,0,1,8-8.7c.3-.3-.1-.7-.4-.5a26.7,26.7,0,0,0-7.7,9.1A.1.1,0,0,0,93.2,27.6Z"/><path class="cls-2" d="M94.4,27c2-2.2,3.1-5.3,4.4-8,.2-.4-.4-.8-.6-.4-1.4,2.7-2.7,5.5-3.9,8.3Z"/><path class="cls-2" d="M91.1,26.3c2.6-1.9,5.5-4.9,6.7-7.9a.3.3,0,0,0-.5-.3,28,28,0,0,0-2.1,3,35.4,35.4,0,0,1-4.3,5.1C90.8,26.2,91,26.4,91.1,26.3Z"/><path class="cls-2" d="M87.4,25.7c2.8-3,6.4-4.8,9.5-7.6.3-.3-.1-.8-.4-.6-3.3,2.1-7.1,4.6-9.2,8C87.2,25.6,87.4,25.7,87.4,25.7Z"/><path class="cls-2" d="M89.2,25.4A28.5,28.5,0,0,0,95,17.7a.4.4,0,0,0-.6-.4c-.8,1.1-1.3,2.3-2.1,3.5a44.1,44.1,0,0,0-3.1,4.5Z"/><path class="cls-2" d="M85.7,25.1a34.1,34.1,0,0,0,5-5c.7-.7,2.3-1.9,2.3-3a.2.2,0,0,0-.4-.2A21.9,21.9,0,0,0,89.7,20l-4.1,4.9A.1.1,0,0,0,85.7,25.1Z"/><path class="cls-2" d="M83.4,25.1a34.6,34.6,0,0,1,4.2-5.6c1-1,2.9-1.7,3.3-3.1a.2.2,0,0,0-.3-.3,20.6,20.6,0,0,0-4,3.3c-1.6,1.6-2.4,3.6-3.4,5.6A.1.1,0,0,0,83.4,25.1Z"/><path class="cls-2" d="M84.7,23.8c1.5-1.2,3-2.3,4.4-3.5a14.8,14.8,0,0,0,1.6-1.7c.3-.4.5-1,.9-1.3s-.1-.8-.4-.6-1.5,1.9-2.2,2.6-3,2.8-4.5,4.3A.2.2,0,0,0,84.7,23.8Z"/><path class="cls-2" d="M80,26.2a42.1,42.1,0,0,1,4.2-5.5c1.4-1.5,3.3-2.5,4.7-4s0-.7-.3-.5a22.2,22.2,0,0,0-8.7,9.9C79.9,26.2,80,26.3,80,26.2Z"/><path class="cls-2" d="M82.1,24.4a36.3,36.3,0,0,0,5.3-8,.3.3,0,0,0-.6-.4c-2,2.5-3.1,5.6-4.9,8.2C81.8,24.3,82,24.5,82.1,24.4Z"/><path class="cls-2" d="M66.6,23.8a32.9,32.9,0,0,0,6.6-4.7c1.3-1.2,3.1-3,3.3-4.9h0c0-.3-.4-.5-.6-.2a20.5,20.5,0,0,1-3.9,5c-1.8,1.6-3.7,3.1-5.5,4.8A.1.1,0,0,0,66.6,23.8Z"/><path class="cls-2" d="M65.1,23.8c2.2-1.2,3.8-3,5.7-4.7s3.6-3.3,3.6-5.2a.3.3,0,0,0-.5-.2,6.4,6.4,0,0,0-1.1,2,12.3,12.3,0,0,1-2.5,2.9,64.4,64.4,0,0,1-5.4,5C64.8,23.7,65,23.9,65.1,23.8Z"/><path class="cls-2" d="M63,23.6c1.6-2,2.9-4.1,4.6-6s3-2.3,3.8-3.8,0-.4-.2-.3c-1.9.7-3.4,2.5-4.7,4a16.7,16.7,0,0,0-3.7,6C62.8,23.7,63,23.7,63,23.6Z"/><path class="cls-2" d="M65.7,22a34.6,34.6,0,0,0,7.1-8.3c.2-.4-.3-.7-.6-.4s-1.7,2.6-2.7,3.9l-4,4.6A.1.1,0,0,0,65.7,22Z"/><path class="cls-2" d="M59.2,23.8c2-1.5,3.5-3.7,5.3-5.4L67.3,16c.9-.7,1.5-1.7,2.3-2.5s-.2-1-.6-.6-3.4,3.3-5.1,4.9A27.2,27.2,0,0,0,59,23.7.1.1,0,0,0,59.2,23.8Z"/><path class="cls-2" d="M61.9,22.2a12.4,12.4,0,0,0,3-3.5,32.4,32.4,0,0,0,3.3-5.6c.1-.3-.4-.6-.6-.3-1.8,3.2-4,6.1-5.8,9.2C61.7,22.2,61.8,22.3,61.9,22.2Z"/><path class="cls-2" d="M55.9,22.6a24.5,24.5,0,0,0,5.6-4.2c1.7-1.6,3.7-3.2,4.8-5.3a.4.4,0,0,0-.7-.4,40.2,40.2,0,0,1-9.8,9.7C55.7,22.5,55.8,22.7,55.9,22.6Z"/><path class="cls-2" d="M55.5,21.3a28.1,28.1,0,0,1,4.3-4.4c1.3-1.2,3.2-2.3,4.2-3.8a.3.3,0,0,0-.4-.4,25,25,0,0,0-4.8,4.1,12.7,12.7,0,0,0-3.4,4.4C55.3,21.4,55.5,21.4,55.5,21.3Z"/><path class="cls-2" d="M57.6,20.6a18,18,0,0,0,4.8-7.4c.2-.5-.5-.7-.7-.2-1.1,2.7-3,4.9-4.2,7.5A.1.1,0,0,0,57.6,20.6Z"/><path class="cls-2" d="M54,22.2a.1.1,0,0,0,.3.1A17.4,17.4,0,0,1,57,17l1.9-2.5a5.7,5.7,0,0,0,.9-1.1.2.2,0,0,0-.1-.3h-.4A16.1,16.1,0,0,0,54,22.2Z"/><path class="cls-2" d="M50.6,22.6c1.9-1.9,3.7-4,5.3-6.1s2.7-2.7,2.4-3.7a.3.3,0,0,0-.5-.1c-2.1,3.5-5.3,6.2-7.5,9.7C50.3,22.6,50.5,22.7,50.6,22.6Z"/><path class="cls-2" d="M48.7,22.7c1.1-1.4,1.9-3.1,3-4.6a54.2,54.2,0,0,1,3.9-4.7c.3-.3-.1-.9-.5-.7a11.8,11.8,0,0,0-3.4,3.8,20.5,20.5,0,0,0-3.1,6.2Z"/><path class="cls-2" d="M50.3,21.3c2.3-2.7,4.6-5.5,6.7-8.4.3-.4-.3-.7-.6-.4-2,3-4.3,5.6-6.2,8.6C50.1,21.3,50.3,21.4,50.3,21.3Z"/><path class="cls-2" d="M72.1,23.8c2.5-3,4.7-6.4,7.5-9.2.3-.3-.2-.8-.5-.5a48.9,48.9,0,0,0-3.5,4.1A25,25,0,0,0,72,23.7C71.9,23.8,72,23.9,72.1,23.8Z"/><path class="cls-2" d="M74.1,23.3A30.2,30.2,0,0,1,82,15.3a.4.4,0,0,0-.4-.7c-3.3,1.4-6.1,5.5-7.8,8.6A.2.2,0,0,0,74.1,23.3Z"/><path class="cls-2" d="M79.7,24.6c2.3-2.3,5.4-5.9,5.5-9.4a.3.3,0,0,0-.7-.1,37.4,37.4,0,0,1-5.1,9.3C79.3,24.5,79.6,24.7,79.7,24.6Z"/><path class="cls-2" d="M78.1,24.7h.1a22.7,22.7,0,0,1,4.1-5.2c1.1-1.2,2.8-2.5,3.5-4a.3.3,0,0,0-.4-.3,26.8,26.8,0,0,0-4,4.4C80,21.1,78.4,22.7,78.1,24.7Z"/><path class="cls-2" d="M78.9,21.2c1.8-1.6,4.2-3.8,5.1-6.1a.4.4,0,0,0-.2-.4h-.4c-.4.3-.7,1.3-1,1.8a29.8,29.8,0,0,1-3.6,4.6A.1.1,0,0,0,78.9,21.2Z"/><path class="cls-2" d="M77.2,22.6c1-1.2,1.9-2.5,2.9-3.8s2.1-2.2,3-3.6a.4.4,0,0,0-.7-.4c-.8,1.1-1.7,2.1-2.5,3.2A51.5,51.5,0,0,0,77,22.5C77,22.6,77.1,22.7,77.2,22.6Z"/><path class="cls-2" d="M46.9,21.9a26.5,26.5,0,0,0,3.5-4.1,17.2,17.2,0,0,0,2.8-4.5c.1-.3-.4-.5-.5-.2-1.4,3.2-4.3,5.6-5.9,8.7A.1.1,0,0,0,46.9,21.9Z"/><path class="cls-2" d="M38.5,16.5c3.6-1.6,7.7-2.2,11.6-2.9a.2.2,0,0,0,0-.3,25.9,25.9,0,0,0-11.7,2.9A.2.2,0,0,0,38.5,16.5Z"/><path class="cls-2" d="M40.8,17.8c3.2-1.2,7.3-2.1,9.9-4.5a.2.2,0,0,0-.1-.4,1.6,1.6,0,0,0-1,.4,18.3,18.3,0,0,1-2.8,1.4c-2,.9-4,1.8-5.9,2.8C40.6,17.6,40.7,17.8,40.8,17.8Z"/><path class="cls-2" d="M43,20.4a32.1,32.1,0,0,0,4.4-3c1.5-1.2,2.6-2.6,3.9-3.9a.3.3,0,0,0-.4-.4c-1.3,1.1-2.3,2.3-3.6,3.4s-3,2.4-4.5,3.7S42.8,20.5,43,20.4Z"/><path class="cls-2" d="M42.7,19.2a27.7,27.7,0,0,0,6.1-3.1l2.6-1.8a1.1,1.1,0,0,0,.6-.9.2.2,0,0,0-.3-.2c-1.3.5-2.6,1.8-3.8,2.6a56,56,0,0,0-5.5,3.3A.2.2,0,0,0,42.7,19.2Z"/><path class="cls-2" d="M45.6,20.6a15.6,15.6,0,0,0,6.7-7.3c.1-.3-.2-.6-.4-.4s-1.6,2.2-2.4,3.3a41.8,41.8,0,0,1-3.9,4.3Z"/><path class="cls-2" d="M38.9,13.9l5.7-.5c2.1-.1,4.1.4,6.2.4.3,0,.3-.4.1-.5-4.1-1-8-.5-12,.4C38.7,13.8,38.8,13.9,38.9,13.9Z"/><path class="cls-2" d="M39,10.7c2.3.5,4.4,1.5,6.6,2.1s4.2,1.3,6.1.8a.2.2,0,0,0,0-.4,57.9,57.9,0,0,0-6.6-1.3c-2-.4-4-1.2-6.1-1.5C38.9,10.2,38.7,10.6,39,10.7Z"/><path class="cls-2" d="M41.3,9.5a26,26,0,0,1,5.3,2.2,22.4,22.4,0,0,0,4.5,2.2c.2.1.4-.2.2-.4-2.7-2.3-6.7-3.2-10-4.2A.1.1,0,0,0,41.3,9.5Z"/><path class="cls-2" d="M42.3,8.7a24,24,0,0,1,5,1.4,15.3,15.3,0,0,1,5.6,2.9c.4.3,1-.2.6-.5-2.9-2.6-7.3-3.6-11.1-4.1C42.1,8.4,42.1,8.7,42.3,8.7Z"/><path class="cls-2" d="M43.9,8a49.6,49.6,0,0,1,6.4,2.3c1.3.6,3,1.2,3.7,2.6s.2,0,.2-.1c-.2-1.6-1.8-2.3-3.2-3s-4.6-2.4-7-2.4A.3.3,0,0,0,43.9,8Z"/><path class="cls-2" d="M45.2,6.7c1.5,1,3.2,1.5,4.8,2.3s4,2.2,5,3.9a.2.2,0,0,0,.3-.1c-.2-1.5-1.8-2.4-2.9-3.2a20.9,20.9,0,0,0-7-3.4A.3.3,0,0,0,45.2,6.7Z"/><path class="cls-2" d="M49.1,6.3a29.8,29.8,0,0,0,8.2,6.6.1.1,0,0,0,.1-.1,42.1,42.1,0,0,0-3.9-3.5,19.3,19.3,0,0,0-4.1-3.4A.2.2,0,0,0,49.1,6.3Z"/><path class="cls-2" d="M49,5.5c3.5,1.6,7.3,4,9.6,7.3a.2.2,0,0,0,.3-.2c-1.6-3.3-6-7.1-9.7-7.5A.2.2,0,0,0,49,5.5Z"/><path class="cls-2" d="M53.6,5.7a63.3,63.3,0,0,0,6.8,7.1.2.2,0,0,0,.3-.3c-1.9-2.6-4-5.5-6.7-7.3C53.7,5,53.4,5.4,53.6,5.7Z"/><path class="cls-2" d="M54.5,4.7a18.7,18.7,0,0,1,4.3,3.5c1.2,1.4,2.1,3,3.1,4.5s.3.1.3-.1-1.7-3.7-2.6-5a8.4,8.4,0,0,0-4.8-3.5A.3.3,0,0,0,54.5,4.7Z"/><path class="cls-2" d="M43.2,9.7c3.1,1,6.5,1.8,9.3,3.7.3.2.6-.2.4-.5a9.5,9.5,0,0,0-3.5-2,19.3,19.3,0,0,0-6-1.6C43,9.3,43,9.6,43.2,9.7Z"/><path class="cls-2" d="M42.5,10.8a31.2,31.2,0,0,0,5.4,1.4,32.1,32.1,0,0,0,4.5.9.1.1,0,0,0,0-.1c-2.9-1.6-6.6-2.3-9.9-2.7C42.2,10.3,42.2,10.7,42.5,10.8Z"/><path class="cls-2" d="M138.5,21.6a63.9,63.9,0,0,1,1.7,6.5c.5,2.1.2,4.4,1,6.4a.2.2,0,0,0,.4,0c.7-4.2-1-9.2-2.5-13C139,21.1,138.4,21.2,138.5,21.6Z"/><path class="cls-2" d="M135.4,21.7a17.9,17.9,0,0,1,2.3,6c.4,1.8-.1,3.9.7,5.6s.4.1.4-.1a17.6,17.6,0,0,0-3-11.7C135.6,21.2,135.2,21.4,135.4,21.7Z"/><path class="cls-2" d="M134.1,20.8a56.1,56.1,0,0,0,1.9,6.6,33,33,0,0,0,3.6,6.2c.1.2.4.1.4-.1,0-1.8-1.7-3.6-2.6-5.1s-2-5.1-2.8-7.7C134.6,20.3,134,20.4,134.1,20.8Z"/><path class="cls-2" d="M132.7,20.2c1.3,3.6,1.2,7.6,2.3,11.3a.3.3,0,0,0,.5-.1c.2-1.6-.7-3.6-1-5.2a30.1,30.1,0,0,0-1.6-6.1C132.9,19.9,132.7,20,132.7,20.2Z"/><path class="cls-2" d="M131.9,18.6a43.7,43.7,0,0,1,.3,7.4c0,1.3-.3,3.3.4,4.4a.4.4,0,0,0,.8-.3,41.5,41.5,0,0,1-.4-5.6,42.3,42.3,0,0,0-.7-6C132.2,18.3,131.9,18.4,131.9,18.6Z"/><path class="cls-2" d="M130,18.8a74.8,74.8,0,0,0,3.6,11.8c.1.2.4.1.4-.1s-1-3.2-1.4-4.7-1.5-4.7-2.2-7A.2.2,0,0,0,130,18.8Z"/><path class="cls-2" d="M129.1,17.1a54.6,54.6,0,0,0,2.1,12.2.2.2,0,0,0,.5-.1c-.6-4-.6-8.4-1.9-12.2C129.6,16.8,129.1,16.8,129.1,17.1Z"/><path class="cls-2" d="M126.7,17.4a24.5,24.5,0,0,1,2.1,5.4c.4,2.1.5,4.2,1,6.3h.1c.3-3.8,0-9.1-2.9-11.9A.2.2,0,0,0,126.7,17.4Z"/><path class="cls-2" d="M127,20.1c0,2.5-.2,5.8,1.2,7.9,0,.1.2.1.2,0a49.3,49.3,0,0,0-.9-7.9A.2.2,0,0,0,127,20.1Z"/><path class="cls-2" d="M125.5,16.9c.3,2.2.3,4.4.3,6.7s.1,2.9,1,3.8a.1.1,0,0,0,.2-.1c-1-3.4.5-7.3-.9-10.6C125.9,16.2,125.4,16.5,125.5,16.9Z"/><path class="cls-2" d="M122.5,15.3a20.9,20.9,0,0,1,2,6.3c.2,1.7,0,3.5.8,5.1a.2.2,0,0,0,.3-.1c-.3-3.9.4-8.6-2.6-11.7A.3.3,0,0,0,122.5,15.3Z"/><path class="cls-2" d="M123.2,23.1a5.8,5.8,0,0,0,1.1,3.5.1.1,0,0,0,.2-.1,25.4,25.4,0,0,1-.5-4,27.4,27.4,0,0,0-.2-4.3c-.1-.4-.7-.3-.7.1A21.9,21.9,0,0,0,123.2,23.1Z"/><path class="cls-2" d="M119.9,14.6c.2.9.7,1.7,1,2.6a14.9,14.9,0,0,1,.5,3.4,15.2,15.2,0,0,0,1.1,5.1.2.2,0,0,0,.3-.1c-.1-2.3-.6-4.6-.8-6.8a7.1,7.1,0,0,0-1.9-4.4A.1.1,0,0,0,119.9,14.6Z"/><path class="cls-2" d="M120.5,19.4a10.9,10.9,0,0,0-.2,5.1.2.2,0,0,0,.4,0,49.2,49.2,0,0,1,1-6.2,11.8,11.8,0,0,0,.3-4.5.2.2,0,0,0-.4,0C121.2,15.6,120.9,17.5,120.5,19.4Z"/><path class="cls-2" d="M119,15.8c.1,1.4.2,2.7.2,4a14.5,14.5,0,0,0,.4,4.4.2.2,0,0,0,.4,0c.4-1.4.1-3,.2-4.4a7.4,7.4,0,0,0-.7-4.1C119.3,15.5,118.9,15.6,119,15.8Z"/><path class="cls-2" d="M116.3,13a15.8,15.8,0,0,1,1.8,5.8c.1,1.9-.1,3.7.3,5.5,0,.2.2.1.3,0,.5-3.5,1-8.9-1.9-11.6A.3.3,0,0,0,116.3,13Z"/><path class="cls-2" d="M113.5,13.4a48.6,48.6,0,0,1,2.3,5.2c.5,1.8.6,3.8,1.3,5.5.1.1.3.1.3-.1-.2-3.7-.7-8.3-3.5-11A.3.3,0,0,0,113.5,13.4Z"/><path class="cls-2" d="M116.1,23.8h.2a33.3,33.3,0,0,0,.9-7.5c0-.3-.5-.4-.6-.1A20.6,20.6,0,0,0,116.1,23.8Z"/><path class="cls-2" d="M108.8,10.1a22.6,22.6,0,0,1,4.1,6.9c.7,2,1.2,4,2,6,.1.2.5.1.5-.1,0-2.2-1.1-4.9-1.9-6.9s-2.2-4.9-4.4-6.3C108.9,9.5,108.6,9.9,108.8,10.1Z"/><path class="cls-2" d="M105.5,9.9a39.5,39.5,0,0,1,5.9,11.8c.1.3.6.3.5-.1a21.9,21.9,0,0,0-2.1-6.2,18,18,0,0,0-4.1-5.9A.2.2,0,0,0,105.5,9.9Z"/><path class="cls-2" d="M99.2,9c1.1,2.2,3,3.8,4.6,5.7a32.2,32.2,0,0,1,2.5,3.5c.4.7,1.5,1.7,1.6,2.5a.2.2,0,0,0,.3.1h.1a.3.3,0,0,0,.1-.3c-1.6-4.7-5.9-7.9-8.8-11.7C99.4,8.4,99,8.7,99.2,9Z"/><path class="cls-2" d="M102.8,8.9a19.4,19.4,0,0,1,1.7,5.5,49.7,49.7,0,0,0,.7,5.5.2.2,0,0,0,.4,0c.5-3.4.2-8.7-2.2-11.4C103.1,8.2,102.7,8.5,102.8,8.9Z"/><path class="cls-2" d="M96.7,10.1a38.6,38.6,0,0,1,3.4,5.3c.6,1.3,1.3,3.4,2.6,4.1a.1.1,0,0,0,.2-.2c-1.7-3.3-2.9-7-5.8-9.6A.3.3,0,0,0,96.7,10.1Z"/><path class="cls-2" d="M91,8.1c3.5,3.5,7.5,6.8,10,11.1h.1c-.3-2.1-1.9-3.7-3.2-5.3a30,30,0,0,0-6.6-6.2C91.1,7.5,90.8,7.9,91,8.1Z"/><path class="cls-2" d="M94.6,9.4c.9,1.6,1.7,3.1,2.5,4.7a20.2,20.2,0,0,0,2.2,4.3c.1.1.2,0,.2-.1A21.6,21.6,0,0,0,95.1,9,.3.3,0,0,0,94.6,9.4Z"/><path class="cls-2" d="M87.4,7.5c3.8,2.9,6.2,6.6,9.1,10.3a.1.1,0,0,0,.2-.1,21.3,21.3,0,0,0-3.6-6.1C91.6,9.7,89.9,7.8,87.6,7,87.3,6.8,87.1,7.3,87.4,7.5Z"/><path class="cls-2" d="M85.8,8.1c2.1,3.2,4.8,8.1,8.7,9.3.2,0,.3-.2.2-.3a37.8,37.8,0,0,1-4.5-4.4,42.1,42.1,0,0,0-4-4.9C86,7.6,85.6,7.8,85.8,8.1Z"/><path class="cls-2" d="M83,8.4c2.1,1.5,4.3,2.8,6.5,4.2s4.7,3,6.3,5c.1.1.3,0,.3-.2-.5-1.8-2.8-3.1-4.2-4.2a42.9,42.9,0,0,0-8.6-5.3A.2.2,0,0,0,83,8.4Z"/><path class="cls-2" d="M111.2,11.6c0,3.7.3,7.9,2.2,11.2a.1.1,0,0,0,.3-.1,36.5,36.5,0,0,0-1-4.6c-.4-2.2-.3-4.4-1-6.6A.2.2,0,0,0,111.2,11.6Z"/><path class="cls-2" d="M105.9,12.5l2.3,4.7a13.4,13.4,0,0,0,2.4,4.1c.1.1.2,0,.1-.1s-1.2-3-1.8-4.5a18,18,0,0,0-2.6-4.6C106.2,11.9,105.8,12.2,105.9,12.5Z"/><path class="cls-2" d="M99.4,11.4c2,2.6,4.1,5.4,5,8.6a.1.1,0,0,0,.3,0c.2-3.4-2.4-6.9-4.7-9.1A.4.4,0,0,0,99.4,11.4Z"/><path class="cls-2" d="M81.6,6a57,57,0,0,1,4,5.7c.9,1.5,2,3.3,3.5,4.2s.3-.1.2-.2c-1.2-1.9-2.5-3.7-3.6-5.6A14.5,14.5,0,0,0,82,5.6C81.7,5.4,81.4,5.8,81.6,6Z"/><path class="cls-2" d="M80,6.8l3.4,4.8c1,1.4,2.1,3.2,3.6,4.1a.1.1,0,0,0,.1-.1c-2.4-3-3.9-6.5-6.8-9.1A.2.2,0,0,0,80,6.8Z"/><path class="cls-2" d="M74.9,6.1c3.9,2.6,6.9,6,10,9.5.2.2.4,0,.3-.2-.9-2.1-2.8-4-4.4-5.6a17.9,17.9,0,0,0-5.6-4.1C74.9,5.4,74.6,5.9,74.9,6.1Z"/><path class="cls-2" d="M77.5,6.2c.7,1.7,1.7,3.3,2.6,4.9a13.2,13.2,0,0,0,2.7,4A.2.2,0,0,0,83,15a5.4,5.4,0,0,0-.7-1.6l-1.4-2.8A25.1,25.1,0,0,0,78,5.9C77.7,5.6,77.4,6,77.5,6.2Z"/><path class="cls-2" d="M74.1,7.4c2.6,2.4,4.7,5.1,7.2,7.6a.2.2,0,0,0,.3-.1c-.3-1.3-1.7-2.7-2.6-3.7A15.7,15.7,0,0,0,74.5,7C74.2,6.8,73.9,7.2,74.1,7.4Z"/><path class="cls-2" d="M70.6,5.2A10.8,10.8,0,0,0,74,9.5l2.6,2.2A18.9,18.9,0,0,0,79.3,14c.1,0,.2,0,.1-.1a21.4,21.4,0,0,0-3.8-4.2,57,57,0,0,1-4.5-4.9C70.9,4.7,70.5,4.9,70.6,5.2Z"/><path class="cls-2" d="M70.9,8.5l3.3,2.6c1.2.9,2.2,2,3.5,2.8h.1a18.3,18.3,0,0,0-6.4-5.8C71,7.9,70.6,8.3,70.9,8.5Z"/><path class="cls-2" d="M67.8,4.8a30.8,30.8,0,0,0,3.4,5.5c1,1.3,2.5,3.2,4.3,3.4.1,0,.1-.1.1-.2a20.3,20.3,0,0,1-4.3-4.8c-.9-1.4-1.6-3.1-3-4.2A.3.3,0,0,0,67.8,4.8Z"/><path class="cls-2" d="M68.2,8.4A15.1,15.1,0,0,0,73,13.5c.1.1.3-.1.2-.2a37.6,37.6,0,0,0-4.7-5.1C68.3,8,68.1,8.2,68.2,8.4Z"/><path class="cls-2" d="M67.6,5.5a25.7,25.7,0,0,1,1.9,3.7l.8,1.9c.3.8,1,1.3,1.3,2.1h.1c-.8-2.7-1.9-5.8-3.8-7.9C67.8,5.1,67.5,5.3,67.6,5.5Z"/><path class="cls-2" d="M63.2,5c3,2.4,4.9,5.7,7.5,8.4a.1.1,0,0,0,.2-.2c-1.4-3.2-4.3-7.2-7.6-8.6C63.2,4.5,63.1,4.9,63.2,5Z"/><path class="cls-2" d="M60.7,4.6a31.2,31.2,0,0,1,4.1,4.2c1.3,1.5,2.4,3.3,4.1,4.2a.1.1,0,0,0,.1-.1,29.4,29.4,0,0,0-3.6-4.7A16,16,0,0,0,61,4.3C60.8,4.2,60.5,4.5,60.7,4.6Z"/><path class="cls-2" d="M59.3,4.4a34.2,34.2,0,0,0,3.8,5.3A9.5,9.5,0,0,0,66.9,13c.2.1.3-.2.2-.3-2.6-2.7-4.7-6.1-7.5-8.5A.2.2,0,0,0,59.3,4.4Z"/><path class="cls-2" d="M61.4,3.7A28.1,28.1,0,0,1,63.6,9a29,29,0,0,0,1.5,4.1h.7l-.6-1.6c-.4-1.1-.6-2.2-.9-3.2a9.6,9.6,0,0,0-2.6-4.8A.2.2,0,0,0,61.4,3.7Z"/><path class="cls-2" d="M57.7,4.3a44.2,44.2,0,0,1,3.2,4.3c.9,1.4,1.4,3.1,2.5,4.4a.2.2,0,0,0,.3-.2A18.6,18.6,0,0,0,58.1,4,.3.3,0,0,0,57.7,4.3Z"/><path class="cls-3" d="M48.7,13.7c4,.3,8.1-.1,12.1-.2a98.9,98.9,0,0,1,12.9.9,212.5,212.5,0,0,1,26,5.1A205.6,205.6,0,0,1,123.2,27c7.8,3,15,7,22.5,10.8a.5.5,0,0,0,.6-.9c-6.2-4.9-13.9-8-21.2-10.9a196.7,196.7,0,0,0-25-8,229.4,229.4,0,0,0-25.6-4.9c-8.4-1.1-17.5-1.7-25.8.1C48.4,13.4,48.5,13.7,48.7,13.7Z"/><path class="cls-2" d="M164.4,41.1a37.5,37.5,0,0,0,2.4-5,52.1,52.1,0,0,0,2.6-6.7.2.2,0,0,0-.4-.2,35.5,35.5,0,0,0-2.3,5.2c-.9,2.2-1.8,4.4-2.5,6.6A.1.1,0,0,0,164.4,41.1Z"/><path class="cls-2" d="M161.5,39.2c.1,1.6,0,3.4.7,4.9s.2,0,.2,0a35.7,35.7,0,0,0-.7-11.4.3.3,0,0,0-.5.1A47.2,47.2,0,0,0,161.5,39.2Z"/><path class="cls-2" d="M160,44.2l2.9-6.4a31.2,31.2,0,0,0,2.6-6.6c0-.2-.3-.4-.4-.2-1.9,4.3-3.7,8.6-5.5,13C159.4,44.3,159.9,44.5,160,44.2Z"/><path class="cls-2" d="M155.7,45.4a53.6,53.6,0,0,1,1.8-5.5c.7-2.1,1.9-4.3,2.2-6.5,0-.2-.2-.4-.4-.2a30.9,30.9,0,0,0-2.2,5.8c-.7,2-1.6,4.2-1.6,6.3Z"/><path class="cls-2" d="M156.9,45.2a39.9,39.9,0,0,0,1.8-10.6.3.3,0,0,0-.7,0c-.3,3.5-.8,7.1-1.3,10.6C156.6,45.3,156.8,45.3,156.9,45.2Z"/><path class="cls-2" d="M153.4,46.7a18,18,0,0,0,1.3-4.9c.4-2.2,1-4.4,1.4-6.6a.4.4,0,0,0-.7-.2c-1.4,3.6-1.7,7.8-2.1,11.6C153.2,46.7,153.4,46.8,153.4,46.7Z"/><path class="cls-2" d="M151.7,47.5a.1.1,0,0,0,.2,0,34.4,34.4,0,0,0,.8-11.4.4.4,0,0,0-.9,0C151.5,39.8,151.9,43.7,151.7,47.5Z"/><path class="cls-2" d="M147.8,47.9c1.4-1.9,2.6-4,3.9-6s2.7-4.1,3.1-6.5c.1-.5-.6-.7-.7-.2-.4,2.2-1.9,4.4-3.1,6.2s-2.3,4.2-3.5,6.3A.2.2,0,0,0,147.8,47.9Z"/><path class="cls-2" d="M140.4,49.1c3.5-3.7,8.9-7.2,10.6-12.2a.2.2,0,0,0-.3-.2c-2.1,1.4-3.2,4-4.9,5.8a44.5,44.5,0,0,0-5.7,6.5A.1.1,0,0,0,140.4,49.1Z"/><path class="cls-2" d="M143.8,48.3a20.9,20.9,0,0,0,3.8-7c.4-1.1,1.7-3,1.4-4.1a.4.4,0,0,0-.6-.2c-.8.6-1,2.3-1.4,3.2-1.2,2.6-2.2,5.2-3.4,7.8C143.5,48.2,143.7,48.5,143.8,48.3Z"/><path class="cls-2" d="M138.7,48.4a17.9,17.9,0,0,0,3.3-5.3,16.8,16.8,0,0,0,1.2-2.8,5.3,5.3,0,0,1,.7-2,.4.4,0,0,0-.4-.7c-.8.3-1.2,1.8-1.4,2.6a25.5,25.5,0,0,1-1.9,4.3,39.3,39.3,0,0,1-1.8,3.7C138.3,48.4,138.6,48.6,138.7,48.4Z"/><path class="cls-2" d="M142.2,48.2a55.1,55.1,0,0,0,2.2-5.7,44.8,44.8,0,0,0,2.3-5.1.4.4,0,0,0-.8-.2c-.5,1.5-1.4,2.9-1.9,4.3s-1.3,4.3-1.9,6.6Z"/><path class="cls-2" d="M146.5,47.7a20.2,20.2,0,0,0,3.2-6c.6-1.5,1.7-3.8,1.6-5.4a.4.4,0,0,0-.8-.1c-.5,1.5-.9,3.1-1.4,4.6s-1.8,4.6-2.6,6.9Z"/><path class="cls-2" d="M135.4,49.5c2.2-1.8,3.8-4.3,5.6-6.5l2.7-3.4c.3-.4.9-.9.8-1.4a.2.2,0,0,0-.2-.2c-1.6.3-3.1,3.3-4,4.4s-3.2,4.8-5.1,7A.1.1,0,0,0,135.4,49.5Z"/><path class="cls-2" d="M133.6,49.7c1.4-1.3,2.4-3.3,3.4-4.9s1.4-2,2-3.1a25.3,25.3,0,0,1,1.4-2.9.3.3,0,0,0,0-.7H140c-1.3,1.6-2.2,3.7-3.3,5.5s-2.1,4-3.3,5.8C133.3,49.6,133.5,49.8,133.6,49.7Z"/><path class="cls-2" d="M113.9,50.5a31.1,31.1,0,0,0,6.4-4.8,20.6,20.6,0,0,0,2.6-2.7c.4-.5,1.3-2.6,1.9-2.8a.4.4,0,0,0-.2-.8,1.4,1.4,0,0,0-.8.7,27.1,27.1,0,0,1-3.1,4,67.6,67.6,0,0,1-7,6.2C113.5,50.3,113.7,50.5,113.9,50.5Z"/><path class="cls-2" d="M118.6,49.3l1.7-4.4c.6-1.6,1.6-3,2.3-4.5a.4.4,0,0,0-.6-.4c-2.4,2.2-3.2,6.3-3.7,9.4A.1.1,0,0,0,118.6,49.3Z"/><path class="cls-2" d="M119.1,53.6c1.4-2,2.3-4.4,3.6-6.5s3-4.7,4.7-7c.3-.4-.4-.9-.7-.6a43.9,43.9,0,0,0-7.9,14C118.8,53.6,119,53.7,119.1,53.6Z"/><path class="cls-2" d="M122.1,49.3c1.8-.8,2.9-2.5,4.1-3.9a25,25,0,0,0,3.4-5.3c.2-.4-.3-.8-.6-.5s-1.9,3.2-3.1,4.7-2.5,3.5-4.1,4.7A.2.2,0,0,0,122.1,49.3Z"/><path class="cls-2" d="M127.5,52.6h.1c1-4.3,1.5-9.2,3.8-12.9.2-.4-.3-.8-.6-.5-1.6,1.9-2.1,4.2-2.5,6.6S127.1,50.4,127.5,52.6Z"/><path class="cls-2" d="M125.5,49.7a60.6,60.6,0,0,0,4.5-5.2l1.4-1.7c.6-.8.9-2,1.5-2.7s-.2-1.1-.6-.6a2.4,2.4,0,0,0-.6,1,12.1,12.1,0,0,1-2.3,3.5,64.6,64.6,0,0,0-4.1,5.6C125.1,49.6,125.3,49.8,125.5,49.7Z"/><path class="cls-2" d="M130.8,49.7c1.9-2.6,4.1-6.7,4.2-10a.3.3,0,0,0-.2-.3h-.3c-.8.4-1,2.8-1.3,3.6a52.9,52.9,0,0,1-2.8,6.5A.2.2,0,0,0,130.8,49.7Z"/><path class="cls-2" d="M134.9,49.2c.1.1.3.1.3-.1-.2-1.7.5-4,.8-5.7s.4-3,1.3-4.3-.4-1-.8-.6-1.1,3-1.4,4.6S133.9,47.9,134.9,49.2Z"/><path class="cls-2" d="M129.8,49a34,34,0,0,0,2.2-4.7,28.7,28.7,0,0,1,2.6-4.8v-.2a.4.4,0,0,0-.6-.4c-2.4,2.4-3.9,6.8-4.4,10C129.6,49,129.8,49.1,129.8,49Z"/><path class="cls-2" d="M112.2,51.3c1.9-4,5.1-7.2,7.6-10.8.3-.4-.4-1-.7-.6a55.8,55.8,0,0,0-3.8,5.1,20.4,20.4,0,0,0-3.2,6.2C112,51.4,112.1,51.5,112.2,51.3Z"/><path class="cls-2" d="M108.2,50.7a54.8,54.8,0,0,1,5-5.6c1.4-1.4,3.5-2.8,4.4-4.5a.4.4,0,0,0-.7-.4,22.5,22.5,0,0,1-2.3,2.2L112,44.8a19.4,19.4,0,0,0-4.1,5.6C107.9,50.6,108.1,50.8,108.2,50.7Z"/><path class="cls-2" d="M105,45.4a70.3,70.3,0,0,0,7.6-2.3c1.5-.6,3.5-1.2,4.7-2.2a.5.5,0,0,0-.5-.8,35.9,35.9,0,0,0-4,1.8,77.2,77.2,0,0,1-7.9,3.1C104.7,45.1,104.8,45.4,105,45.4Z"/><path class="cls-2" d="M106.7,46.1a45.2,45.2,0,0,0,2.5-3.9c.4-.6,1.2-2,1.9-2.1s.4-1.1-.3-.9-1.6,1.4-2.1,2a25.6,25.6,0,0,0-2.4,4.7C106.3,46,106.6,46.2,106.7,46.1Z"/><path class="cls-2" d="M98.2,47.7l5.1-3.9c1.7-1.3,3.3-3.3,5.4-4.1s.3-1.1-.3-.9-3,1.9-4.3,3l-6.3,5.4C97.6,47.5,97.9,47.9,98.2,47.7Z"/><path class="cls-2" d="M93.2,44.6a41.7,41.7,0,0,0,7.5-2.5l4-1.6a2.3,2.3,0,0,0,1.4-1.1c.1-.2-.1-.6-.4-.5-4.3,1.5-8.4,3.7-12.8,5.1A.3.3,0,0,0,93.2,44.6Z"/><path class="cls-2" d="M92.8,42.6c1.4-.3,2.5-1.3,3.7-1.9a28,28,0,0,1,6.8-1.8.4.4,0,0,0-.1-.8,18.7,18.7,0,0,0-10.6,4.2C92.5,42.4,92.6,42.7,92.8,42.6Z"/><path class="cls-2" d="M87.4,41.3c1.4-1.3,4.4-1.6,6.2-1.9a36.3,36.3,0,0,1,7.2-.8c.5,0,.5-.6.1-.8-2.3-.9-5.9.4-8.3.8s-4.6.7-5.3,2.6Z"/><path class="cls-2" d="M88.1,37.4c1.7.1,3.4.4,5.1.6a41.7,41.7,0,0,1,6.6.7.3.3,0,0,0,.3-.5c-1.3-1.3-3.7-1-5.4-1S90,36.3,88,37A.2.2,0,0,0,88.1,37.4Z"/><path class="cls-2" d="M90.3,41.7A33.7,33.7,0,0,0,95,39.8l4.6-1.7h.1l-.8-.3h-.2l-4,1.5c-1.6.6-3,1.6-4.6,2.1A.2.2,0,0,0,90.3,41.7Z"/><path class="cls-2" d="M103,47a23.7,23.7,0,0,1,3.7-3.8,38.9,38.9,0,0,1,3.8-3.6.3.3,0,0,0-.3-.5,20.8,20.8,0,0,0-7.3,7.9A.1.1,0,0,0,103,47Z"/><path class="cls-2" d="M108.4,48.2A36,36,0,0,0,113,43l.9-1.3c.3-.5.7-1.6,1.2-1.9s.2-.6-.1-.6-1.6,1.8-2,2.4a22.2,22.2,0,0,1-1.9,2.7c-1,1.3-1.7,2.7-2.8,3.8A.1.1,0,0,0,108.4,48.2Z"/><path class="cls-2" d="M111.5,49c1.6-1.7,3.2-3.4,4.9-4.9l2.6-2.3a11.4,11.4,0,0,0,2.3-1.9H120a22.3,22.3,0,0,0-3.7,3.2,72.1,72.1,0,0,0-5.1,5.7C110.9,48.9,111.3,49.3,111.5,49Z"/><path class="cls-2" d="M160.6,22.9a28.8,28.8,0,0,1,4.9,3.7c1.1,1,1.9,3,3.3,3.6s.5-.1.4-.4c-1.6-2.9-5.1-6.4-8.4-7.2A.2.2,0,0,0,160.6,22.9Z"/><path class="cls-2" d="M159.9,26.5c1.4,1.7,3.4,4.4,5.7,4.8a.3.3,0,0,0,.3-.4,31.6,31.6,0,0,0-2.5-2.1,32.6,32.6,0,0,1-2.3-2.4c-1.6-1.7-3.2-3.5-4.7-5.3a.1.1,0,0,0-.2.1C156.8,23.1,158.5,24.9,159.9,26.5Z"/><path class="cls-2" d="M153,25.2a24.5,24.5,0,0,1,6.1,3,20.7,20.7,0,0,1,5.1,4c.3.4,1-.1.7-.6a17.5,17.5,0,0,0-4.7-4,20.8,20.8,0,0,0-7-3A.3.3,0,0,0,153,25.2Z"/><path class="cls-2" d="M149.3,24.7a36.5,36.5,0,0,1,5,5.2c1.3,1.4,2.2,3.6,3.8,4.6a.3.3,0,0,0,.4-.3c-.4-1.8-2.2-3.7-3.4-5a30.4,30.4,0,0,0-5.4-5C149.2,23.9,148.9,24.5,149.3,24.7Z"/><path class="cls-2" d="M148.6,26.7c2.8,2,5.8,3.6,8.7,5.3.9.6,2.6,2.1,3.8,2s.7-.6.2-.9c-4.3-2.1-8.2-4.8-12.6-6.7A.2.2,0,0,0,148.6,26.7Z"/><path class="cls-2" d="M153.8,27a51.7,51.7,0,0,0,7,4.6c.5.3,2.3,1.4,3,1a.4.4,0,0,0,.1-.6,7.4,7.4,0,0,0-2.5-1.2,40.8,40.8,0,0,1-7.2-4.1C153.9,26.5,153.6,26.8,153.8,27Z"/><path class="cls-2" d="M159,22.4a21.3,21.3,0,0,0,3.7,4.5,20.6,20.6,0,0,0,4.6,3.8c.5.2.9-.5.4-.7-3.4-1.7-6.1-5-8.7-7.6A.1.1,0,0,0,159,22.4Z"/><path class="cls-2" d="M143.1,28.2c2.8.6,5.1,2.5,7.5,3.9a22.3,22.3,0,0,1,3.4,2.3,4.4,4.4,0,0,0,1.6,1.2.3.3,0,0,0,.4-.4c-.4-1.7-3.5-3.1-4.9-3.9s-5-3.2-7.8-3.7C142.9,27.5,142.7,28.1,143.1,28.2Z"/><path class="cls-2" d="M144.5,30.3l6.3,2.3c2,.7,4.7,1.2,6.4,2.5s1-.4.6-.8-3.5-1.4-5.2-2a49.9,49.9,0,0,0-7.9-2.5A.2.2,0,0,0,144.5,30.3Z"/><path class="cls-2" d="M147.6,27.6a41.9,41.9,0,0,1,5.2,4c1.3,1.1,2.2,2.6,3.6,3.5s.6-.2.5-.5-2.5-2.6-3.6-3.5a32.9,32.9,0,0,0-5.6-3.6Z"/><path class="cls-2" d="M140.6,28.7c2.1,1.4,4,2.9,6.1,4.4s3.7,3,5.7,3.5c.4.1.7-.5.3-.7a58.2,58.2,0,0,1-5.6-3.6c-2.1-1.3-4.2-2.7-6.4-3.8A.2.2,0,0,0,140.6,28.7Z"/><path class="cls-2" d="M140.4,29.5a32.1,32.1,0,0,1,3.9,4,27.6,27.6,0,0,0,3.6,3.9c.4.3.8-.3.5-.7-2.2-2.8-4.7-5.7-7.7-7.6C140.5,29,140.2,29.3,140.4,29.5Z"/><path class="cls-2" d="M138.9,30c1.6,1.6,3.8,2.5,5.7,3.6s3.8,2.9,5.7,3.1a.2.2,0,0,0,.2-.4c-1.2-1.4-3.2-2.2-4.8-3.1l-6.7-3.5A.1.1,0,0,0,138.9,30Z"/><path class="cls-2" d="M134.7,29.4c1.9,1.5,3.7,3.3,5.8,4.7s3.7,3.2,5.8,3.9c.3.1.5-.4.2-.6-4-2.5-7.8-5.5-11.6-8.3C134.8,29,134.5,29.3,134.7,29.4Z"/><path class="cls-2" d="M132.1,29.6a32.5,32.5,0,0,1,6.8,4.3c1.1.8,2.2,1.7,3.2,2.6s1,1.3,1.9,1.5.5-.2.3-.4a20.8,20.8,0,0,0-4.8-4.3,23.7,23.7,0,0,0-7.2-3.9C132.1,29.4,132,29.6,132.1,29.6Z"/><path class="cls-2" d="M131.6,30.7c1.8,1.8,3.5,3.6,5.4,5.3s2.4,2.5,4.1,2.5a.3.3,0,0,0,.2-.6c-3.2-2.4-6.4-4.9-9.5-7.5C131.7,30.4,131.5,30.6,131.6,30.7Z"/><path class="cls-2" d="M128.5,30.5l5.3,3.5c2,1.3,3.6,3.5,5.7,4.6a.2.2,0,0,0,.3-.4c-3-3.6-7.3-5.5-11.3-7.7Z"/><path class="cls-2" d="M135.2,32.5c2.7,1.8,4.7,4.5,7.4,6.3.2.2.5-.2.4-.4s-2.6-2.5-3.8-3.6a14.6,14.6,0,0,0-3.9-2.5C135.2,32.3,135.1,32.5,135.2,32.5Z"/><path class="cls-2" d="M118.5,30.9c2.1.7,3.9,2.8,5.6,4.3s3,3.1,4.4,4.7,1-.2.6-.6c-2.6-3.3-6.2-7.6-10.5-8.7A.2.2,0,0,0,118.5,30.9Z"/><path class="cls-2" d="M123.5,32.2c1.6,1.8,3.7,3.2,5.1,5.1s1.6,2.7,2.6,2.4a.3.3,0,0,0,.2-.4c-.1-.4-.5-.7-.8-.9a17.7,17.7,0,0,1-1.7-2c-1.4-1.8-3.6-3-5.3-4.4A.1.1,0,0,0,123.5,32.2Z"/><path class="cls-2" d="M125.6,30.6c1.6,1.5,3,3.3,4.5,4.9s2.1,3.2,3.7,3.8.3-.2.3-.3-2.6-3.2-3.8-4.5a29.3,29.3,0,0,0-4.4-4.1C125.6,30.3,125.5,30.5,125.6,30.6Z"/><path class="cls-2" d="M127.3,30.4c2.9,3.2,6.7,6.7,10.6,8.6a.3.3,0,0,0,.3-.4c-1.6-1.7-3.8-3-5.7-4.4a40.7,40.7,0,0,0-5.1-4A.1.1,0,0,0,127.3,30.4Z"/><path class="cls-2" d="M125.6,32.3l5.2,2.9a47.7,47.7,0,0,1,5.6,4.6.3.3,0,0,0,.4-.3c-2.2-3.8-7.1-6.1-11.1-7.5A.2.2,0,0,0,125.6,32.3Z"/><path class="cls-2" d="M115.6,31.1c.4,2,1.8,3.8,2.9,5.5s2.2,3.1,3.8,3.5.5-.2.3-.4-2.3-2.4-3.3-3.7A24.1,24.1,0,0,1,116,31C115.9,30.7,115.5,30.9,115.6,31.1Z"/><path class="cls-2" d="M113.3,32.3a44.5,44.5,0,0,1,5.9,3.7,20.5,20.5,0,0,1,3.2,2.6,6.9,6.9,0,0,0,2,1.6.4.4,0,0,0,.4-.6c-1.6-1.1-2.9-2.7-4.5-3.9a37.2,37.2,0,0,0-6.7-3.9C113.3,31.7,113,32.1,113.3,32.3Z"/><path class="cls-2" d="M118,31.6a30.4,30.4,0,0,0,4.1,4.7c1.3,1.2,3.1,3.4,4.9,3.7a.3.3,0,0,0,.2-.6,64.3,64.3,0,0,1-9-8C118.2,31.3,117.9,31.5,118,31.6Z"/><path class="cls-2" d="M109.4,30.8c1.3,1.8,2.4,3.9,3.8,5.6s2.2,3.3,3.9,3.5.3-.3.2-.5-2.8-2.9-4.1-4.6-2.2-3-3.4-4.4S109.2,30.5,109.4,30.8Z"/><path class="cls-2" d="M111.4,32c1.5,1.4,2.6,3.1,4,4.5s2.8,3,4.5,3.8c.2.1.5-.1.3-.3a29.4,29.4,0,0,0-4.3-4c-1.5-1.3-2.7-3-4.3-4.3S111.2,31.8,111.4,32Z"/><path class="cls-2" d="M106.3,32.5c3.7,1.5,6,5.3,9.3,7.3.3.2.6-.2.4-.5-2.6-2.8-5.9-5.9-9.6-7.2C106.2,32,106.1,32.4,106.3,32.5Z"/><path class="cls-2" d="M105.9,33.4a24.7,24.7,0,0,1,3.6,3.3,13.4,13.4,0,0,0,4,2.9c.2.1.4-.2.2-.4s-2.9-2.2-4.2-3.3a17.4,17.4,0,0,0-3.6-2.7C105.9,33,105.7,33.3,105.9,33.4Z"/><path class="cls-2" d="M104.2,31.3a24.4,24.4,0,0,0,2.4,4.7c.9,1.2,1.9,3.1,3.5,3.4a.2.2,0,0,0,.3-.3,27.3,27.3,0,0,0-2.8-3.3c-1.2-1.4-2-3.1-3.1-4.6A.2.2,0,0,0,104.2,31.3Z"/><path class="cls-2" d="M103.3,32.8a37.2,37.2,0,0,0,4.3,3.6,19.5,19.5,0,0,0,4.4,3.2.1.1,0,0,0,.1-.2c-2.3-2.8-5.7-4.8-8.5-7A.2.2,0,0,0,103.3,32.8Z"/><path class="cls-2" d="M101.2,31.3c2.2,2.7,3.6,6.3,6.5,8.4.2.2.5-.1.4-.4s-2.3-2.9-3.4-4.4a17.9,17.9,0,0,0-3.4-3.7A.1.1,0,0,0,101.2,31.3Z"/><path class="cls-2" d="M98.5,31.2c1.8,2.9,3.3,6.4,6.7,7.7.3.1.4-.3.3-.5a12.2,12.2,0,0,0-1.8-1.6,13,13,0,0,1-2-2.1,34.3,34.3,0,0,0-3-3.6A.1.1,0,0,0,98.5,31.2Z"/><path class="cls-2" d="M100.7,32.5c1.8,2.1,2.9,4.7,4.6,6.7.2.2.5,0,.4-.2s-1.4-2.3-2.1-3.4a14.8,14.8,0,0,0-2.8-3.3A.1.1,0,0,0,100.7,32.5Z"/><path class="cls-2" d="M94.2,31.4a33.7,33.7,0,0,1,5,3.9c1,1,2,2.2,3.1,3.1h0a2.6,2.6,0,0,1,1.4.2,26.2,26.2,0,0,0-9.5-7.4A.1.1,0,0,0,94.2,31.4Z"/><path class="cls-2" d="M91.4,32.2l5.8,3.5a21.9,21.9,0,0,0,5.5,2.7c.3.1.6-.3.3-.5a33.4,33.4,0,0,0-5.3-3,52.7,52.7,0,0,0-6.1-2.9C91.4,31.8,91.3,32.1,91.4,32.2Z"/><path class="cls-2" d="M89.7,34.3c2,1.1,4.2,1.5,6.3,2.4l2.5.8c1.2.3,2.1,1.1,3.4,1.3a.2.2,0,0,0,.1-.3c-1.8-1.4-3.6-1.9-5.7-2.7l-3.3-1.1a14.4,14.4,0,0,0-3.3-.9A.2.2,0,0,0,89.7,34.3Z"/><path class="cls-2" d="M90.5,36.1a59.9,59.9,0,0,0,11.5,2.2.3.3,0,0,0,.1-.5,22.1,22.1,0,0,0-5.3-1.3l-6.3-1C90.3,35.5,90.2,36,90.5,36.1Z"/><path class="cls-3" d="M99.3,38.1c13,3.2,26.6,3,39.9,1.3s25.3-5.3,35.7-12.4c.4-.2.1-.9-.3-.7-5.8,2.5-11.3,5.6-17.3,7.7a94.9,94.9,0,0,1-18.9,4.2,140.5,140.5,0,0,1-19.5,1.1c-6.6-.1-13-1.1-19.6-1.6C99.1,37.6,99,38.1,99.3,38.1Z"/><path class="cls-2" d="M178.7,36.2c2.2,3.1,7,1.6,9.6.1s3.7-2.7,5.7-3.8,5.2-2.5,7.7-2.1c.1,0,.2-.2.1-.3a4.5,4.5,0,0,0-3.1-.2,53.1,53.1,0,0,0-14.7.8C182,31,176.6,33.3,178.7,36.2Z"/><path class="cls-2" d="M189,22.9h.1a2.2,2.2,0,0,0,.8.7c.1.1.3-.1.2-.2l-.3-.3c-.9-1.6-.2-3.7,0-5.4s.4-3-.9-3.1-1.5,1.9-1.6,2.8S187.7,21.8,189,22.9Z"/><path class="cls-2" d="M165.7,17.7l1.3,1.7a19.5,19.5,0,0,1,1.3,1.6,2.1,2.1,0,0,0,.6.7c0,.1,0,.1,0,.2s.3.3.4.1a6.1,6.1,0,0,0-.7-4.8c-.5-.9-1.4-2.3-2.6-2S165.3,17,165.7,17.7Z"/><path class="cls-3" d="M150.9,9.5c3.5,4.2,8.2,7.3,12.9,10.1a64.7,64.7,0,0,0,15.1,6.6h.3l-4.1-.2c-5.3-.2-10.5-2-15.5-3.5a.2.2,0,0,0-.1.3c5,2.3,10.5,4.1,16.1,4.4.6,0,4.8.5,6-.2a120.1,120.1,0,0,0,14,2.8,54.3,54.3,0,0,0,8.8.7c1.7,0,4.1.4,5.6-.4s.2-.8-.4-.9a18.9,18.9,0,0,0-2.7.1h-3.9a57.4,57.4,0,0,1-8-.8h-.5A9.1,9.1,0,0,0,192,25a39.4,39.4,0,0,0-4-3.9c-3.4-3-7.4-6.1-11.5-8-.4-.2-.7.4-.4.7,3.4,2.4,6.8,4.8,10.1,7.3a38,38,0,0,1,4.5,4.1c.9.9,1.6,2,2.4,3.1a110.3,110.3,0,0,1-14.5-3.3c-10.3-3.1-19.2-8.7-27.5-15.6C151,9.1,150.8,9.4,150.9,9.5Z"/><path class="cls-4" d="M158.7,19.7a26,26,0,0,0-7,.4c-1.4.2-3.7,0-4.7,1.2a.5.5,0,0,0,0,.6l.4.4c2.4,2.2,16.6,9.6,17.4,2.3C165.1,21.5,160.9,20,158.7,19.7Z"/><path class="cls-4" d="M144.1,2.3a.3.3,0,0,0,0,.1.3.3,0,0,0,0,.1,0,0,0,0,0,0,0c1.3,5.4,2.8,10.6,7.6,13.9,2.9,1.9,8.5,2.7,9.7-1.6s-5.4-7.2-8-8.7L147,2.4c-.7-.4-2.2-1.3-2.8-.4Z"/><path class="cls-4" d="M166.3,5.4h0c1.4,4.3,3.9,9.5,7.5,12.3s6.5,2.8,9,.6-.2-6-2-7.6c-3.9-3.4-9.3-4.6-14-6.3A.5.5,0,0,0,166.3,5.4Z"/><path class="cls-2" d="M145.8,21a.8.8,0,0,0-.2.7h0a.7.7,0,0,0,.5.6.8.8,0,0,0,1.3.5h.1a.9.9,0,0,0,.9-1.6,1.1,1.1,0,0,0-.6-1.5,1,1,0,0,0-1.2.4h-.1A.6.6,0,0,0,145.8,21Z"/><path class="cls-2" d="M143.2,1.1a.6.6,0,0,0-.5.8.9.9,0,0,0,.2,1.5h.5a1,1,0,0,0,.6.5,1,1,0,0,0,1.3-.6h0a.9.9,0,0,0,.6-1.7,1.1,1.1,0,0,0-.4-1.1,1,1,0,0,0-1-.1h-.1L144,0A.7.7,0,0,0,143.2,1.1Z"/><path class="cls-2" d="M164.9,4.4l-.3.3a.7.7,0,0,0,.3.9,1.1,1.1,0,0,0,.6,1.3,1,1,0,0,0,.9-.1h.2A1.1,1.1,0,0,0,168,5.6l.2-.2a.9.9,0,0,0-.2-1.3h-.3a.9.9,0,0,0-1.4-.6.9.9,0,0,0-.9-.1.9.9,0,0,0-.5,1.1Z"/><path class="cls-3" d="M180.8,35.8c3.3-1.1,6.1-3.2,9.5-4s6.9-.4,10-1.7a.2.2,0,0,0-.1-.5,14.9,14.9,0,0,0-4.8.5c-2,.4-4,.6-5.9,1.1a22,22,0,0,0-8.8,4.4A.1.1,0,0,0,180.8,35.8Z"/><path class="cls-3" d="M166.1,16.6a7.3,7.3,0,0,1,1.7,2.9A4.5,4.5,0,0,0,169,22a.1.1,0,0,0,.2-.1,21.2,21.2,0,0,0-1.3-3.2,3.4,3.4,0,0,0-1.7-2.2C166.1,16.5,166.1,16.5,166.1,16.6Z"/><path class="cls-3" d="M189,23.3c.2.2.4,0,.4-.2a11.6,11.6,0,0,1-.4-7.3.1.1,0,0,0-.2-.1C187.8,18.1,187.3,21.1,189,23.3Z"/><path class="cls-3" d="M139.7,52.5a33.6,33.6,0,0,1,3.7.5,6.3,6.3,0,0,1,2.9,2.4.3.3,0,0,0,.3.3.2.2,0,0,0,.4-.1c2.6-1.1,5.6-1.7,7.7.6a.3.3,0,0,0,.5.2c2.9-1.7,6.3-2.1,8.2,1.2a.3.3,0,0,0,.4.1c3.3.2,7-1.9,9.2-4.3s3.7-5.7,1.8-7.6a8.9,8.9,0,0,0-3.2-8.6c-2.1-1.7-5.8-2.9-8.4-1.8h-.2l-.2.2c-1.1,1.1-1.6,2.6-2.8,3.7s-4.9,1.3-7.6,1.1a.4.4,0,0,0-.4.5,11.9,11.9,0,0,1-2.5,3.4c-1.7,1.5-3.7,1.1-5.8,1H143a9.9,9.9,0,0,1-1.8,4.7c-.4.5-1.7,1-1.9,1.7A.4.4,0,0,0,139.7,52.5Z"/><path class="cls-3" d="M184.8,30.3a1.9,1.9,0,0,0,1.2-.1,8.6,8.6,0,0,1,3.6.7,10.7,10.7,0,0,1,3,2.9.2.2,0,0,0,.3-.1A10.7,10.7,0,0,1,197,33a6.1,6.1,0,0,1,3.7,2h.1a.2.2,0,0,0,.3,0,9.1,9.1,0,0,1,3.7-1.7c1.8-.3,3,.5,4.1,1.9a.3.3,0,0,0,.4,0c2.1.3,4.6-.7,6.3-1.9a5.9,5.9,0,0,0,2.7-4.6v-.2c.6-4.4-4.5-8.7-8.6-8.7h-.3c-2.5,3.1-6.3,2.6-9.8,2.2a.4.4,0,0,0-.4.2c-1.2.6-2.1,1.6-3.3,2.2s-4.3,0-6.3-.1a.3.3,0,0,0-.3.5c-.7.9-1,2-1.9,2.7L185.9,29a3.4,3.4,0,0,0-1.3.8A.3.3,0,0,0,184.8,30.3Z"/><path class="cls-2" d="M155.3,49.1c14-1.9,27.8-3.9,41.5-7.4s27.5-7.8,39.5-15c.5-.3.2-1.1-.4-.9-6.1,2.9-12.3,5.8-18.6,8.2a197,197,0,0,1-20.7,6.4c-13.6,3.5-27.5,6-41.3,8.4A.2.2,0,0,0,155.3,49.1Z"/><path class="cls-2" d="M164.5,56.6h0a14.2,14.2,0,0,1,2.5-5.8,20.8,20.8,0,0,1,4.1-4c.1-.1,0-.4-.2-.3-2.2.6-3.7,2.5-4.9,4.4S163.8,54.7,164.5,56.6Z"/><path class="cls-2" d="M171.4,46.4a.2.2,0,0,0,.1-.3c-3.3-2.3-5.3-5.7-7-9.3-.1-.1-.2-.1-.2.1C165.3,40.2,167.5,45.8,171.4,46.4Z"/><path class="cls-2" d="M142,51.5a64,64,0,0,1,6.6-1l8.9-1.5c5.2-.7,10.7-1.2,15.6-3,.1,0,.1-.2-.1-.2-5.5.8-11,1.8-16.5,2.7l-8.1,1.5c-2.1.4-4.7.5-6.5,1.5C141.9,51.5,141.9,51.6,142,51.5Z"/><path class="cls-2" d="M155.1,55c.7-3.1,3.4-5,5.9-6.6.1-.1,0-.3-.1-.2a6.7,6.7,0,0,0-3.8,2.3,8.9,8.9,0,0,0-2.2,4.5A.1.1,0,0,0,155.1,55Z"/><path class="cls-2" d="M156.5,46.4c1,.9,3,2.6,4.5,2a.3.3,0,0,0-.1-.5,9.8,9.8,0,0,1-4.1-1.9,14.8,14.8,0,0,1-3.6-3.8.1.1,0,0,0-.2.1C153.3,43.9,155.4,45.4,156.5,46.4Z"/><path class="cls-2" d="M147,54a6.1,6.1,0,0,1,1.9-2.3,12.7,12.7,0,0,1,2.5-1.8.1.1,0,0,0,0-.2c-1.1-.2-2.1.8-2.9,1.5a4.5,4.5,0,0,0-1.6,2.7Z"/><path class="cls-2" d="M146.9,48.8c1.2.6,2.7,1.6,4.1,1.3s.2-.2.1-.3a29.3,29.3,0,0,0-3.1-1.1,8.5,8.5,0,0,1-3.4-2.1h-.1A5,5,0,0,0,146.9,48.8Z"/><path class="cls-2" d="M191.6,29.2a116.1,116.1,0,0,1,22.6-.3,8.3,8.3,0,0,0-4.4,5.1c0,.2.2.3.3.2a25.1,25.1,0,0,1,2-2.8l1.6-1.5a11.3,11.3,0,0,1,1.6-.9h.5a102.9,102.9,0,0,1,11.4,1.9l2.4-1.1a101.8,101.8,0,0,0-13.7-2.1,87.8,87.8,0,0,0-24.3,1.1A.2.2,0,0,0,191.6,29.2Z"/><path class="cls-4" d="M169.6,48.4c1.4,2,4.6,2.3,6.7,1.6a5.3,5.3,0,0,0,3.9-4.8,4.6,4.6,0,0,0-1.7-4.1,6.5,6.5,0,0,0-3.4-1.7C170.2,38.6,166.8,44.4,169.6,48.4Z"/><path class="cls-4" d="M186.4,44.1a3.5,3.5,0,0,0,1.9-3.3,2.8,2.8,0,0,0-1.8-2.5l-.4-.2a3.7,3.7,0,0,0-5.5,3C180.5,44.2,184,45.4,186.4,44.1Z"/><path class="cls-4" d="M178,39.3a2.8,2.8,0,0,0,2.4-2,3.4,3.4,0,0,0-1.9-4.3,3.5,3.5,0,0,0-4.8,3.4C174,38.5,176.3,39.4,178,39.3Z"/><path class="cls-2" d="M177.3,46.2h0a.5.5,0,0,0,0,.2h.1a.6.6,0,0,0,.6.5.6.6,0,0,0,.5-.2,1.1,1.1,0,0,0,.2-.7V46h0a.7.7,0,0,0-.8-.3h-.2l-.2.2v.3h0Z"/><path class="cls-2" d="M177.3,46.2h0Z"/><path class="cls-2" d="M177.4,46.6h0Z"/><path class="cls-2" d="M174.9,35.8a.8.8,0,0,0,.4.5l.2.2h.2a.8.8,0,0,0,1.1-.5,1,1,0,0,0-.3-1.1,1,1,0,0,0-1-.1A.9.9,0,0,0,174.9,35.8Z"/><path class="cls-2" d="M183.2,42.9h0a.5.5,0,0,0,.7-.1.6.6,0,0,0,.1-.5.5.5,0,0,0-1,.2A.6.6,0,0,0,183.2,42.9Z"/><path class="cls-4" d="M223.8,34.7a5,5,0,0,0,8.4-3.9,5.9,5.9,0,0,0-5.7-4.5C222,26.6,220.8,32,223.8,34.7Z"/><path class="cls-4" d="M217.5,38.4a3.9,3.9,0,0,0,3.8,1.9,3.2,3.2,0,0,0,2.7-2.7,3.1,3.1,0,0,0-.9-2.8,3.3,3.3,0,0,0-1.3-1.2C218.8,32.2,216.1,35.7,217.5,38.4Z"/><path class="cls-4" d="M224.9,25.6a3.4,3.4,0,0,0,.7-1.6,3,3,0,0,0,.1-.6,3.4,3.4,0,0,0-.6-2.3l-.7-.7a4,4,0,0,0-1.3-.8,3.7,3.7,0,0,0-4.9,4.5A4,4,0,0,0,224.9,25.6Z"/><path class="cls-2" d="M229.6,29.1l.2.3a.6.6,0,0,0,.4.4.6.6,0,0,0,.8-.4.9.9,0,0,0-.5-1.1.6.6,0,0,0-.7.2A.5.5,0,0,0,229.6,29.1Z"/><path class="cls-2" d="M221.6,39.6a.7.7,0,0,0,.8-.2.7.7,0,0,0,.1-.6h0v-.3a.6.6,0,0,0-1.1.2V39A.6.6,0,0,0,221.6,39.6Z"/><path class="cls-2" d="M222.8,22.4l.2.2c.4.2.6-.2.5-.5h0a.3.3,0,0,0-.4-.2A.4.4,0,0,0,222.8,22.4Z"/><path class="cls-2" d="M201.3,33.5h.1c.2-1.2,1.5-2.4,2.3-3.2a22.1,22.1,0,0,1,3-2.1c.1-.1.1-.3-.1-.3a5.6,5.6,0,0,0-3.9,2.1C202.1,30.8,200.9,32.2,201.3,33.5Z"/><path class="cls-2" d="M193,32.4c1.1-2.1,3.4-2.8,5.3-4,.1-.1,0-.3-.1-.3a9.1,9.1,0,0,0-3.5,1.5,4.6,4.6,0,0,0-1.9,2.8Z"/><path class="cls-2" d="M210.5,22a18.6,18.6,0,0,0,1.8,3.5,8.6,8.6,0,0,0,3.4,3.1.2.2,0,0,0,.3-.3c-1-1.1-2.2-2-3.1-3.2s-1.3-2.2-2.1-3.2A.2.2,0,0,0,210.5,22Z"/><path class="cls-2" d="M205.7,28.4a.2.2,0,0,0,.2-.4c-.8-.6-1.7-1-2.5-1.6a12.1,12.1,0,0,1-2.2-2.3.1.1,0,0,0-.2.1C201.8,26.1,203.6,28.1,205.7,28.4Z"/><path class="cls-2" d="M191.7,26.1A6.8,6.8,0,0,0,194,28c.8.4,2,1.1,2.9.6a.2.2,0,0,0,0-.4c-.8-.3-1.6-.2-2.4-.5a15.2,15.2,0,0,1-2.7-1.6Z"/><path class="cls-3" d="M176.4,58.9a.3.3,0,0,0,.2.4h.3a17.5,17.5,0,0,1,4.3-.9c1.6,0,2.7.8,4.1,1.4a.4.4,0,0,0,.6.1c2.7-1.7,5.7-2,8.4-.2h.4a19.4,19.4,0,0,1,2.7-3.6,7.7,7.7,0,0,1,2.1-1.3,7,7,0,0,1,3.2-.2c0,.2.4.3.5,0,1.5-2.8,1-8.2-1.8-10.2h-.1c0-2-1.9-3.8-3.6-4.6a6.4,6.4,0,0,0-6,.5.3.3,0,0,0-.3.2h0a5.6,5.6,0,0,1-1.8,3.3c-1.2,1-2.9.8-4.3.9a.4.4,0,0,0-.1.7,7,7,0,0,1-2.2,4.1c-1.3,1.2-2.9,1.2-4.4,1.9a.3.3,0,0,0-.1.4,1,1,0,0,0,0,.3,6.9,6.9,0,0,1-.3,2.6,9,9,0,0,1-1,2.8A12.4,12.4,0,0,0,176.4,58.9Z"/><path class="cls-2" d="M183.2,55.1c6.2-1.7,12.3-5.4,17.4-9.2a72.6,72.6,0,0,0,9.4-8.3l-2.4.7c-2.3,2.2-4.7,4.3-7.2,6.2a86.2,86.2,0,0,1-8.2,5.5c-2.9,1.8-5.8,3.8-9,4.9C182.9,54.9,183,55.1,183.2,55.1Z"/><path class="cls-2" d="M201.8,53.5a.1.1,0,0,0,.2-.1c-1-2.3-2.7-4.7-1.9-7.4a.1.1,0,0,0-.2-.1C198.2,47.8,200.4,51.9,201.8,53.5Z"/><path class="cls-2" d="M196.2,44.7c1.1.7,3,1.8,4.2.9a.2.2,0,0,0-.1-.3,12.7,12.7,0,0,0-1.9-.4l-1.9-.7a7.3,7.3,0,0,1-3.1-2.4h-.1A5.7,5.7,0,0,0,196.2,44.7Z"/><path class="cls-2" d="M194.1,58.4h.2c-.7-3.2-1.3-5.8.1-8.9.1-.2-.2-.3-.3-.1C192.1,51.5,192.5,56.1,194.1,58.4Z"/><path class="cls-2" d="M186,46.2c1.7,2.5,5.3,5,8.5,3.9.3-.1.2-.5-.1-.5-3.1-.4-6.1-.9-8.3-3.5C186.1,46,185.9,46.1,186,46.2Z"/><path class="cls-2" d="M185.6,58.7h0A5.5,5.5,0,0,1,187,55a16.5,16.5,0,0,0,1.8-2.2h-.1a5.4,5.4,0,0,0-2.6,2.5A4.5,4.5,0,0,0,185.6,58.7Z"/><path class="cls-2" d="M180,52.4c3.1.9,6.4,1.3,9.4,0,.1-.1.1-.3,0-.3a24.5,24.5,0,0,0-3.7.5c-1.8.2-3.8-.3-5.6-.6C179.9,52,179.9,52.3,180,52.4Z"/><path class="cls-2" d="M178.3,57.8c2.1-.9,4-2,6-3s4.3-1.5,6.3-2.7c.1-.1.1-.3-.1-.3a46.2,46.2,0,0,0-12.3,5.7A.2.2,0,0,0,178.3,57.8Z"/><path class="cls-4" d="M201.6,44.1c3.9,2.6,8.2-1.2,6.6-5.4a4.2,4.2,0,0,0-3-2.4,5.3,5.3,0,0,0-2.1-.4,4.5,4.5,0,0,0-4,3.3C198.6,41.1,200,43,201.6,44.1Z"/><path class="cls-4" d="M208.1,45.8a2.9,2.9,0,0,0-2.1-.4c-2.5.5-2.7,4.2-.5,5.3a2.8,2.8,0,0,0,3.9-3.7A2.2,2.2,0,0,0,208.1,45.8Z"/><path class="cls-4" d="M193.8,48.5c.6,3,5.1,4.1,7.1,1.8a3.1,3.1,0,0,0,.5-1,3.6,3.6,0,0,0-.1-4.1,2.8,2.8,0,0,0-.9-.8l-.6-.4A4.2,4.2,0,0,0,193.8,48.5Z"/><path class="cls-2" d="M200.2,48.5c.9.1,1.1-1.2.4-1.6a.7.7,0,0,0-.8,0,.7.7,0,0,0-.2.7A.7.7,0,0,0,200.2,48.5Z"/><path class="cls-2" d="M205.1,43.6h.5a.7.7,0,0,0,.5-1.1.9.9,0,0,0-.8-.3.8.8,0,0,0-.7.8A.6.6,0,0,0,205.1,43.6Z"/><path class="cls-2" d="M205.7,50.1h0a.6.6,0,0,0,.3.4.5.5,0,0,0,.7-.6h0a.6.6,0,0,0-.6-.5.6.6,0,0,0-.5.6Z"/><path class="cls-4" d="M231.8,25c-.1,3.1,2.4,5,5.1,5.2a5.7,5.7,0,0,0,4.9-1.9c1.5-1.8,1.2-4.3.1-6.2C239.1,17.5,232.1,19.9,231.8,25Z"/><path class="cls-2" d="M233.3,24.1a.9.9,0,0,0,0,1.8A.9.9,0,0,0,233.3,24.1Z"/></g></g></svg>