<svg xmlns="http://www.w3.org/2000/svg" viewBox="0 0 1682 957.52"><defs><style>.cls-1{isolation:isolate;}.cls-2{fill:#f4f4f4;}.cls-3{fill:#1e1e1e;}.cls-11,.cls-20,.cls-4,.cls-43,.cls-9{fill:none;}.cls-10,.cls-12,.cls-14,.cls-15,.cls-16,.cls-17,.cls-19,.cls-23,.cls-24,.cls-25,.cls-26,.cls-27,.cls-29,.cls-30,.cls-33,.cls-34,.cls-36,.cls-37,.cls-4,.cls-41,.cls-42,.cls-43,.cls-44,.cls-45,.cls-7,.cls-8{stroke:#4f4b48;}.cls-10,.cls-11,.cls-12,.cls-14,.cls-15,.cls-16,.cls-17,.cls-19,.cls-23,.cls-24,.cls-25,.cls-26,.cls-27,.cls-29,.cls-30,.cls-33,.cls-34,.cls-36,.cls-37,.cls-4,.cls-42,.cls-43,.cls-44,.cls-45,.cls-7,.cls-8,.cls-9{stroke-linecap:round;stroke-linejoin:round;}.cls-10,.cls-11,.cls-12,.cls-14,.cls-15,.cls-19,.cls-23,.cls-24,.cls-25,.cls-26,.cls-27,.cls-29,.cls-30,.cls-33,.cls-34,.cls-36,.cls-37,.cls-4,.cls-41,.cls-42,.cls-44,.cls-45,.cls-7,.cls-8,.cls-9{stroke-width:4px;}.cls-5{fill:#806061;}.cls-6{fill:#97818e;}.cls-7{fill:#816061;}.cls-38,.cls-8{fill:#b3b3b3;}.cls-20,.cls-9{stroke:#bfbfbf;}.cls-10{fill:#eeb87b;}.cls-11{stroke:#f2f2f2;}.cls-12{fill:#eb9f4e;}.cls-13{fill:#999;}.cls-14{fill:#eba36e;}.cls-15{fill:#f0c397;}.cls-16,.cls-17,.cls-41{fill:#e5e5e5;}.cls-16{stroke-width:3px;}.cls-17,.cls-43{stroke-width:2px;}.cls-18,.cls-19{fill:#b27a6d;}.cls-20,.cls-41{stroke-miterlimit:10;}.cls-20{stroke-width:6px;}.cls-21{fill:#8182a7;}.cls-22{fill:#a898b2;}.cls-23{fill:#ebc48e;}.cls-24{fill:#d9d9d9;}.cls-25{fill:#eca85e;}.cls-26{fill:#948cab;}.cls-27{fill:#79748c;}.cls-28{fill:#888194;}.cls-29{fill:#eda773;}.cls-30{fill:#ccc;}.cls-31{fill:#8c899b;}.cls-32{fill:#f7f7f7;}.cls-33{fill:#9b95ab;}.cls-34{fill:#ecc186;}.cls-35{fill:#a68f8d;}.cls-36{fill:#e4b99b;}.cls-37,.cls-40{fill:#86635d;}.cls-39{fill:#ac817a;}.cls-42,.cls-46{fill:#fff;}.cls-44{fill:#aaa9a9;}.cls-45{fill:#d6d6d6;}.cls-46{mix-blend-mode:color;}.cls-47{fill:#6a7a62;}.cls-48{fill:#689664;}.cls-49{fill:#3f683d;}</style></defs><title>street_2</title><g class="cls-1"><g id="Слой_2" data-name="Слой 2"><g id="Слой_1-2" data-name="Слой 1"><path class="cls-2" d="M1407.63,738.09c2.68-19.5,18.47-34.48,37.55-34.48a35.84,35.84,0,0,1,10.92,1.7c8.82-23.71,30.56-40.5,56-40.5,1,0,2,0,2.94.08,11.86-15.89,30.17-26.09,50.72-26.09,34.51,0,62.7,28.71,64.63,64.9h.11c15.56,0,28.17,13.42,28.17,30a31.91,31.91,0,0,1-.34,4.41Z"/><rect class="cls-3" x="678.51" width="302.9" height="740.26"/><rect class="cls-3" x="899.66" y="160.91" width="302.9" height="579.34"/><rect class="cls-3" x="1137.55" y="359.6" width="302.9" height="380.65"/><rect class="cls-3" x="157.49" y="192.87" width="302.95" height="547.39"/><rect class="cls-3" x="392.51" y="75.56" width="215.29" height="664.7"/><line class="cls-4" x1="38.68" y1="740.26" x2="1614.84" y2="740.26"/><g id="Dom1"><path class="cls-5" d="M406.19,490.67H84.63q0-7.45,0-14.9,0-7,0-13.95H406.19Z"/><polygon class="cls-6" points="406.19 740.26 95.23 739.34 95.23 490.67 406.19 491.59 406.19 740.26"/><rect class="cls-5" x="95.24" y="490.67" width="310.96" height="12.23"/><rect class="cls-7" x="204.82" y="630.66" width="102.07" height="108.67"/><line class="cls-4" x1="255.86" y1="631.32" x2="255.86" y2="740.26"/><line class="cls-4" x1="266.9" y1="686.05" x2="261.99" y2="686.05"/><line class="cls-4" x1="249.67" y1="686.05" x2="244.75" y2="686.05"/><path class="cls-8" d="M157.49,476.49"/><path class="cls-8" d="M150.39,474.71"/><line class="cls-9" x1="95.24" y1="627.09" x2="118.42" y2="627.09"/><line class="cls-9" x1="328.24" y1="720.14" x2="350.71" y2="720.14"/><line class="cls-9" x1="407.19" y1="607.19" x2="356.99" y2="607.19"/><line class="cls-9" x1="284.61" y1="572.05" x2="300.99" y2="572.05"/><line class="cls-9" x1="193.37" y1="520.53" x2="223.56" y2="520.53"/><line class="cls-9" x1="84.63" y1="475.78" x2="157.49" y2="475.78"/><polygon class="cls-4" points="406.19 740.26 95.23 739.34 95.23 490.67 406.19 491.59 406.19 740.26"/><path class="cls-4" d="M406.19,490.67H84.63q0-7.45,0-14.9,0-7,0-13.95H406.19Z"/><path class="cls-10" d="M123.29,701.77V666.65c0-18.6,12.58-33.82,27.95-33.82h1.61c15.37,0,27.95,15.22,27.95,33.82v35.12h-57.5Z"/><line class="cls-8" x1="152.05" y1="632.82" x2="152.05" y2="701.77"/><line class="cls-8" x1="123.29" y1="665.88" x2="180.8" y2="665.88"/><line class="cls-11" x1="131.19" y1="686.05" x2="138.36" y2="674.94"/><line class="cls-11" x1="159.1" y1="686.05" x2="166.27" y2="674.94"/><path class="cls-10" d="M328.24,701.77V666.65c0-18.6,12.58-33.82,27.95-33.82h1.61c15.37,0,27.95,15.22,27.95,33.82v35.12h-57.5Z"/><line class="cls-8" x1="356.99" y1="632.82" x2="356.99" y2="701.77"/><line class="cls-8" x1="328.24" y1="665.88" x2="385.74" y2="665.88"/><line class="cls-11" x1="336.14" y1="686.05" x2="343.3" y2="674.94"/><line class="cls-11" x1="364.04" y1="686.05" x2="371.21" y2="674.94"/><path class="cls-12" d="M123.29,587.77V552.65c0-18.6,12.58-33.82,27.95-33.82h1.61c15.37,0,27.95,15.22,27.95,33.82v35.12h-57.5Z"/><line class="cls-8" x1="152.05" y1="518.83" x2="152.05" y2="587.77"/><line class="cls-8" x1="123.29" y1="551.88" x2="180.8" y2="551.88"/><line class="cls-11" x1="131.19" y1="572.05" x2="138.36" y2="560.94"/><line class="cls-11" x1="159.1" y1="572.05" x2="166.27" y2="560.94"/><path class="cls-12" d="M328.24,587.77V552.65c0-18.6,12.58-33.82,27.95-33.82h1.61c15.37,0,27.95,15.22,27.95,33.82v35.12h-57.5Z"/><line class="cls-8" x1="356.99" y1="518.83" x2="356.99" y2="587.77"/><line class="cls-8" x1="328.24" y1="551.88" x2="385.74" y2="551.88"/><line class="cls-11" x1="336.14" y1="572.05" x2="343.3" y2="560.94"/><line class="cls-11" x1="364.04" y1="572.05" x2="371.21" y2="560.94"/><path class="cls-12" d="M227.1,587.77V552.65c0-18.6,12.58-33.82,27.95-33.82h1.61c15.37,0,27.95,15.22,27.95,33.82v35.12H227.1Z"/><line class="cls-8" x1="255.86" y1="518.83" x2="255.86" y2="587.77"/><line class="cls-8" x1="227.1" y1="551.88" x2="284.61" y2="551.88"/><line class="cls-11" x1="235" y1="572.05" x2="242.17" y2="560.94"/><line class="cls-11" x1="262.91" y1="572.05" x2="270.08" y2="560.94"/><rect class="cls-13" x="217.88" y="646.98" width="24.3" height="24.3"/><rect class="cls-13" x="270.08" y="646.98" width="24.3" height="24.3"/><rect class="cls-13" x="217.61" y="699.54" width="24.3" height="24.3"/><rect class="cls-13" x="269.81" y="699.54" width="24.3" height="24.3"/></g><rect class="cls-5" x="406.19" y="292.29" width="233.22" height="447.97"/><polygon class="cls-14" points="497.78 684.95 431.06 684.95 431.06 620.47 431.06 593.48 497.78 593.48 497.78 620.47 497.78 684.95"/><line class="cls-8" x1="431.06" y1="620.47" x2="497.78" y2="620.47"/><path class="cls-11" d="M458.69,635.93,438.8,664.34"/><path class="cls-11" d="M472.82,635.93l-19.89,28.41"/><polygon class="cls-15" points="612.23 684.95 545.5 684.95 545.5 620.47 545.5 593.48 612.23 593.48 612.23 620.47 612.23 684.95"/><line class="cls-8" x1="545.5" y1="620.47" x2="612.23" y2="620.47"/><path class="cls-11" d="M573.14,635.93l-19.89,28.41"/><path class="cls-11" d="M587.26,635.93l-19.89,28.41"/><polygon class="cls-15" points="499.69 542.84 432.97 542.84 432.97 478.36 432.97 451.37 499.69 451.37 499.69 478.36 499.69 542.84"/><line class="cls-8" x1="432.97" y1="478.36" x2="499.69" y2="478.36"/><path class="cls-11" d="M460.6,493.82l-19.89,28.41"/><path class="cls-11" d="M474.72,493.82l-19.89,28.41"/><polygon class="cls-15" points="614.13 542.84 547.41 542.84 547.41 478.36 547.41 451.37 614.13 451.37 614.13 478.36 614.13 542.84"/><line class="cls-8" x1="547.41" y1="478.36" x2="614.13" y2="478.36"/><path class="cls-11" d="M575,493.82l-19.89,28.41"/><path class="cls-11" d="M589.17,493.82l-19.89,28.41"/><rect class="cls-14" x="472.82" y="320.89" width="91.91" height="87.36"/><line class="cls-16" x1="518.77" y1="320.89" x2="518.77" y2="408.24"/><line class="cls-17" x1="441" y1="362.7" x2="441" y2="408.24"/><line class="cls-17" x1="460.44" y1="362.7" x2="460.44" y2="408.24"/><line class="cls-17" x1="479.89" y1="362.7" x2="479.89" y2="408.24"/><line class="cls-17" x1="499.33" y1="362.7" x2="499.33" y2="408.24"/><line class="cls-17" x1="518.77" y1="362.7" x2="518.77" y2="408.24"/><line class="cls-17" x1="538.21" y1="362.7" x2="538.21" y2="408.24"/><line class="cls-17" x1="557.65" y1="362.7" x2="557.65" y2="408.24"/><line class="cls-17" x1="577.1" y1="362.7" x2="577.1" y2="408.24"/><line class="cls-17" x1="596.54" y1="362.7" x2="596.54" y2="408.24"/><rect class="cls-18" x="429.07" y="408.24" width="178.74" height="12.81"/><rect class="cls-4" x="429.07" y="362.7" width="178.74" height="45.54"/><rect class="cls-18" x="406.19" y="292.29" width="233.72" height="11.67"/><rect class="cls-19" x="392.62" y="271.26" width="256.29" height="21.03"/><path class="cls-11" d="M488.94,333.79l-6.85,14.36"/><path class="cls-11" d="M538.21,330.8l-6.85,14.36"/><path class="cls-11" d="M547.41,330.8l-6.85,14.36"/><line class="cls-20" x1="426.34" y1="574.61" x2="446.3" y2="574.61"/><line class="cls-20" x1="407.19" y1="669.03" x2="427.15" y2="669.03"/><line class="cls-20" x1="408.51" y1="678.28" x2="422.33" y2="678.28"/><line class="cls-20" x1="406.19" y1="659.78" x2="420.01" y2="659.78"/><line class="cls-20" x1="456.35" y1="574.61" x2="476.31" y2="574.61"/><line class="cls-20" x1="616.75" y1="639.22" x2="636.71" y2="639.22"/><line class="cls-20" x1="619.45" y1="516.27" x2="639.41" y2="516.27"/><line class="cls-20" x1="622.1" y1="448.23" x2="642.06" y2="448.23"/><line class="cls-20" x1="623.38" y1="648.62" x2="636.76" y2="648.62"/><line class="cls-20" x1="442.95" y1="563.56" x2="462.9" y2="563.56"/><line class="cls-20" x1="437.43" y1="324.51" x2="457.39" y2="324.51"/><line class="cls-20" x1="421.08" y1="315.45" x2="441.04" y2="315.45"/><rect class="cls-4" x="406.19" y="292.29" width="233.22" height="447.97"/><polygon class="cls-21" points="824.58 402.91 639.91 402.91 662.6 337.98 799.58 337.98 824.58 402.91"/><rect class="cls-22" x="639.91" y="402.91" width="184.67" height="337.35"/><rect class="cls-23" x="743.59" y="581.01" width="59.65" height="107.82"/><line class="cls-24" x1="773.42" y1="581.01" x2="773.42" y2="688.83"/><rect class="cls-25" x="662.6" y="435.23" width="59.65" height="107.82"/><line class="cls-24" x1="692.43" y1="435.23" x2="692.43" y2="543.04"/><rect class="cls-23" x="743.59" y="435.23" width="59.65" height="107.82"/><line class="cls-24" x1="773.42" y1="435.23" x2="773.42" y2="543.04"/><rect class="cls-26" x="659.95" y="593.48" width="62.3" height="146.77"/><circle class="cls-8" cx="732.25" cy="370.45" r="19"/><path class="cls-11" d="M723.45,363.75A11.34,11.34,0,1,1,741,378.14"/><rect class="cls-27" x="678.51" y="620.47" width="17.67" height="71.02"/><line class="cls-8" x1="706.79" y1="665.96" x2="713.25" y2="665.96"/><rect class="cls-21" x="639.91" y="402.91" width="183.09" height="13.73"/><rect class="cls-4" x="639.91" y="402.91" width="184.67" height="337.35"/><polygon class="cls-4" points="824.58 402.91 639.91 402.91 662.6 337.98 799.58 337.98 824.58 402.91"/><line class="cls-4" x1="756.99" y1="351.45" x2="803.24" y2="351.45"/><line class="cls-4" x1="657.9" y1="351.45" x2="710.43" y2="351.45"/><line class="cls-4" x1="793.24" y1="368.05" x2="810.35" y2="368.05"/><line class="cls-4" x1="751.25" y1="368.05" x2="771.04" y2="368.05"/><line class="cls-4" x1="683.59" y1="368.05" x2="713.25" y2="368.05"/><line class="cls-4" x1="804.05" y1="384.65" x2="817.87" y2="384.65"/><line class="cls-4" x1="744.87" y1="384.65" x2="781.37" y2="384.65"/><line class="cls-4" x1="711.43" y1="384.65" x2="719.63" y2="384.65"/><line class="cls-4" x1="646.29" y1="384.65" x2="690.71" y2="384.65"/><rect class="cls-28" x="824.58" y="317.89" width="246.75" height="422.37"/><rect class="cls-29" x="860.67" y="351.82" width="60.98" height="93.47"/><line class="cls-30" x1="891.16" y1="351.82" x2="891.16" y2="445.29"/><line class="cls-11" x1="877.79" y1="377.19" x2="872.49" y2="403.28"/><line class="cls-11" x1="909.09" y1="377.19" x2="903.79" y2="403.28"/><rect class="cls-31" x="849.79" y="445.29" width="81.69" height="7.95"/><path class="cls-32" d="M915.28,424.83a6.88,6.88,0,0,0-4.24,1.46,7.45,7.45,0,0,0-14.08-1,5.14,5.14,0,0,0-7.68-1,9.52,9.52,0,0,0-17.79-2.43,7.21,7.21,0,1,0,.9,10.15,9.51,9.51,0,0,0,15.87-1.13,5.15,5.15,0,0,0,8.7.19,7.45,7.45,0,0,0,11.73,2.77,6.92,6.92,0,1,0,6.59-9Z"/><rect class="cls-33" x="847.19" y="430.71" width="87.93" height="14.58"/><rect class="cls-34" x="975.22" y="351.82" width="60.98" height="93.47"/><line class="cls-30" x1="1005.71" y1="351.82" x2="1005.71" y2="445.29"/><line class="cls-11" x1="992.35" y1="377.19" x2="987.04" y2="403.28"/><line class="cls-11" x1="1023.65" y1="377.19" x2="1018.34" y2="403.28"/><rect class="cls-31" x="964.34" y="445.29" width="81.69" height="7.95"/><path class="cls-32" d="M1029.84,424.83a6.88,6.88,0,0,0-4.24,1.46,7.45,7.45,0,0,0-14.08-1,5.14,5.14,0,0,0-7.68-1A9.52,9.52,0,0,0,986,421.87a7.21,7.21,0,1,0,.9,10.15,9.51,9.51,0,0,0,15.87-1.13,5.15,5.15,0,0,0,8.7.19,7.45,7.45,0,0,0,11.73,2.77,6.92,6.92,0,1,0,6.59-9Z"/><rect class="cls-33" x="961.75" y="430.71" width="87.93" height="14.58"/><rect class="cls-34" x="860.79" y="476.46" width="60.98" height="93.47"/><line class="cls-30" x1="891.28" y1="476.46" x2="891.28" y2="569.93"/><line class="cls-11" x1="877.91" y1="501.83" x2="872.61" y2="527.92"/><line class="cls-11" x1="909.21" y1="501.83" x2="903.91" y2="527.92"/><rect class="cls-31" x="849.91" y="569.93" width="81.69" height="7.95"/><path class="cls-32" d="M915.4,549.47a6.88,6.88,0,0,0-4.24,1.46,7.45,7.45,0,0,0-14.08-1,5.14,5.14,0,0,0-7.68-1,9.52,9.52,0,0,0-17.79-2.43,7.21,7.21,0,1,0,.9,10.14,9.51,9.51,0,0,0,15.87-1.13,5.16,5.16,0,0,0,8.7.19,7.45,7.45,0,0,0,11.73,2.77,6.92,6.92,0,1,0,6.59-9Z"/><rect class="cls-33" x="847.31" y="555.35" width="87.93" height="14.58"/><rect class="cls-34" x="862.3" y="603.82" width="60.98" height="93.47"/><line class="cls-30" x1="892.78" y1="603.82" x2="892.78" y2="697.29"/><line class="cls-11" x1="879.42" y1="629.19" x2="874.12" y2="655.28"/><line class="cls-11" x1="910.72" y1="629.19" x2="905.42" y2="655.28"/><rect class="cls-31" x="851.41" y="697.29" width="81.69" height="7.95"/><path class="cls-32" d="M916.91,676.82a6.88,6.88,0,0,0-4.24,1.46,7.45,7.45,0,0,0-14.08-1,5.14,5.14,0,0,0-7.68-1,9.52,9.52,0,0,0-17.79-2.43A7.21,7.21,0,1,0,874,684a9.51,9.51,0,0,0,15.87-1.13,5.15,5.15,0,0,0,8.7.19,7.45,7.45,0,0,0,11.73,2.77,6.92,6.92,0,1,0,6.59-9Z"/><rect class="cls-33" x="848.82" y="682.71" width="87.93" height="14.58"/><rect class="cls-29" x="975.34" y="476.46" width="60.98" height="93.47"/><line class="cls-30" x1="1005.83" y1="476.46" x2="1005.83" y2="569.93"/><line class="cls-11" x1="992.47" y1="501.83" x2="987.16" y2="527.92"/><line class="cls-11" x1="1023.77" y1="501.83" x2="1018.46" y2="527.92"/><rect class="cls-31" x="964.46" y="569.93" width="81.69" height="7.95"/><path class="cls-32" d="M1030,549.47a6.88,6.88,0,0,0-4.24,1.46,7.45,7.45,0,0,0-14.08-1,5.14,5.14,0,0,0-7.68-1,9.52,9.52,0,0,0-17.79-2.43,7.21,7.21,0,1,0,.9,10.14,9.51,9.51,0,0,0,15.87-1.13,5.16,5.16,0,0,0,8.7.19,7.45,7.45,0,0,0,11.73,2.77,6.92,6.92,0,1,0,6.59-9Z"/><rect class="cls-33" x="961.87" y="555.35" width="87.93" height="14.58"/><rect class="cls-8" x="972.57" y="729.59" width="90.14" height="10.66"/><rect class="cls-8" x="977.21" y="719.32" width="79.54" height="10.27"/><rect class="cls-33" x="982.52" y="612.61" width="68.6" height="106.71"/><circle class="cls-8" cx="1016.82" cy="643.43" r="11.1"/><line class="cls-8" x1="989.81" y1="668.95" x2="992.46" y2="668.95"/><rect class="cls-33" x="810.6" y="296.45" width="274.72" height="21.03"/><rect class="cls-31" x="824.58" y="317.89" width="246.75" height="11.2"/><line class="cls-9" x1="824.58" y1="586.32" x2="903.79" y2="586.32"/><line class="cls-9" x1="1071.33" y1="459.94" x2="1007.34" y2="459.94"/><rect class="cls-4" x="824.58" y="317.89" width="246.75" height="422.37"/><line class="cls-9" x1="931.48" y1="337.98" x2="981.53" y2="337.98"/><rect class="cls-35" x="1071.33" y="542.72" width="396.8" height="197.53"/><rect class="cls-36" x="1094.5" y="591.68" width="132.19" height="91.13"/><rect class="cls-36" x="1352.69" y="591.68" width="86.18" height="95.33"/><line class="cls-11" x1="1142.03" y1="611.97" x2="1127.89" y2="666.32"/><line class="cls-11" x1="1164.16" y1="611.97" x2="1150.02" y2="666.32"/><line class="cls-11" x1="1188.74" y1="611.97" x2="1174.6" y2="666.32"/><line class="cls-11" x1="1389.9" y1="611.97" x2="1375.76" y2="666.32"/><line class="cls-11" x1="1415.81" y1="611.97" x2="1401.67" y2="666.32"/><line class="cls-9" x1="1071.33" y1="704.92" x2="1260.23" y2="704.92"/><line class="cls-9" x1="1375.76" y1="704.92" x2="1466.81" y2="704.92"/><rect class="cls-4" x="1071.33" y="542.72" width="396.8" height="197.53"/><rect class="cls-36" x="1277.43" y="622.4" width="34.28" height="46.22"/><line class="cls-11" x1="1300.14" y1="633.82" x2="1289" y2="657.99"/><rect class="cls-37" x="1260.23" y="604.72" width="74.45" height="135.54"/><path class="cls-38" d="M1466.48,469.78H1072.33v79.15c0,8.31,7.17,15,16,15,7.81,0,14.31-5.25,15.73-12.19,1.42,6.94,7.92,12.19,15.73,12.19,7.65,0,14-5,15.63-11.77,1.59,6.73,8,11.77,15.63,11.77,7.81,0,14.31-5.25,15.73-12.19,1.42,6.94,7.92,12.19,15.73,12.19,8,0,14.68-5.56,15.83-12.8,1.15,7.24,7.79,12.8,15.83,12.8,7.81,0,14.31-5.25,15.73-12.19,1.42,6.94,7.92,12.19,15.73,12.19,7.65,0,14-5,15.63-11.77,1.59,6.73,8,11.77,15.63,11.77,7.81,0,14.31-5.25,15.73-12.19,1.42,6.94,7.92,12.19,15.73,12.19a16.11,16.11,0,0,0,14.52-8.7,16.11,16.11,0,0,0,14.52,8.7c8,0,14.68-5.56,15.83-12.8,1.15,7.24,7.79,12.8,15.83,12.8,7.81,0,14.31-5.25,15.73-12.19,1.42,6.94,7.92,12.19,15.73,12.19,7.65,0,14-5,15.63-11.77,1.59,6.73,8,11.77,15.63,11.77,7.81,0,14.31-5.25,15.73-12.19,1.42,6.94,7.92,12.19,15.73,12.19a16.77,16.77,0,0,0,3.21-.32Z"/><path class="cls-39" d="M1071.33,465.78v79.15c0,8.31,7.17,15,16,15,7.81,0,14.31-5.25,15.73-12.19,1.42,6.94,7.92,12.19,15.73,12.19,7.65,0,14-5,15.63-11.77,1.59,6.73,8,11.77,15.63,11.77,7.81,0,14.31-5.25,15.73-12.19,1.42,6.94,7.92,12.19,15.73,12.19,8,0,14.68-5.56,15.83-12.8,1.15,7.24,7.79,12.8,15.83,12.8,7.81,0,14.31-5.25,15.73-12.19,1.42,6.94,7.92,12.19,15.73,12.19,7.65,0,14-5,15.63-11.77,1.59,6.73,8,11.77,15.63,11.77,7.81,0,14.31-5.25,15.73-12.19,1.42,6.94,7.92,12.19,15.73,12.19a16.11,16.11,0,0,0,14.52-8.7,16.11,16.11,0,0,0,14.52,8.7c8,0,14.68-5.56,15.83-12.8,1.15,7.24,7.79,12.8,15.83,12.8,7.81,0,14.31-5.25,15.73-12.19,1.42,6.94,7.92,12.19,15.73,12.19,7.65,0,14-5,15.63-11.77,1.59,6.73,8,11.77,15.63,11.77,7.81,0,14.31-5.25,15.73-12.19,1.42,6.94,7.92,12.19,15.73,12.19,8.85,0,16-6.73,16-15V465.78Z"/><path class="cls-40" d="M1260.3,548.21c1.59,6.73,8,11.77,15.63,11.77,7.81,0,14.31-5.25,15.73-12.19,0,.07,0,.14.05.21V465.78h-31.48v82.65C1260.25,548.36,1260.28,548.29,1260.3,548.21Z"/><path class="cls-40" d="M1197,548.21c1.59,6.73,8,11.77,15.63,11.77,7.81,0,14.31-5.25,15.73-12.19,0,.07,0,.14.05.21V465.78h-31.48v82.65C1197,548.36,1197,548.29,1197,548.21Z"/><path class="cls-40" d="M1135,548.21c1.59,6.73,8,11.77,15.63,11.77,7.81,0,14.31-5.25,15.73-12.19,0,.07,0,.14.05.21V465.78H1135v82.65C1135,548.36,1135,548.29,1135,548.21Z"/><path class="cls-40" d="M1071.73,548.21c1.59,6.73,8,11.77,15.63,11.77,7.81,0,14.31-5.25,15.73-12.19,0,.07,0,.14.05.21V465.78h-31.48v82.65C1071.68,548.36,1071.71,548.29,1071.73,548.21Z"/><path class="cls-40" d="M1320.91,548.21c1.59,6.73,8,11.77,15.63,11.77,7.81,0,14.31-5.25,15.73-12.19,0,.07,0,.14.05.21V465.78h-31.48v82.65C1320.86,548.36,1320.89,548.29,1320.91,548.21Z"/><path class="cls-40" d="M1383.91,548.21c1.59,6.73,8,11.77,15.63,11.77,7.81,0,14.31-5.25,15.73-12.19,0,.07,0,.14.05.21V465.78h-31.48v82.65C1383.87,548.36,1383.89,548.29,1383.91,548.21Z"/><path class="cls-40" d="M1446.77,548.21c1.59,6.73,8,11.77,15.63,11.77,7.81,0,14.31-5.25,15.73-12.19,0,.07,0,.14.05.21V465.78H1446.7v82.65C1446.72,548.36,1446.75,548.29,1446.77,548.21Z"/><path class="cls-4" d="M1071.33,463.78v79.15c0,8.31,7.17,15,16,15,7.81,0,14.31-5.25,15.73-12.19,0,.08,0,.15.06.23v0c1.52,6.83,7.95,12,15.67,12s14-5,15.63-11.77c1.59,6.73,8,11.77,15.63,11.77s14.22-5.18,15.7-12.06l0-82.13,0,82.13,0-.13c1.42,6.94,7.92,12.19,15.73,12.19,8,0,14.63-5.53,15.82-12.74l0-81.45,0,81.45v-.06c1.15,7.24,7.79,12.8,15.83,12.8a15.85,15.85,0,0,0,15.54-11.46q-.05-41.37-.1-82.73.05,41.37.1,82.73c.06-.24.14-.48.19-.73,1.42,6.94,7.92,12.19,15.73,12.19a15.84,15.84,0,0,0,15.57-11.53l-.25-82.65.25,82.65c0-.08,0-.15.07-.23,1.59,6.73,8,11.77,15.63,11.77,7.81,0,14.31-5.25,15.73-12.19,0,.07,0,.14.05.21l.1-82.21-.1,82.21c1.51,6.84,7.94,12,15.68,12a16.11,16.11,0,0,0,14.52-8.7,16.11,16.11,0,0,0,14.52,8.7c8,0,14.68-5.56,15.83-12.8,0,.12.05.23.07.35v0c1.31,7.07,7.85,12.46,15.76,12.46s14.31-5.25,15.73-12.19l0,.13-.12-82.13.12,82.13c1.47,6.88,7.93,12.06,15.7,12.06s14-5,15.63-11.77c1.59,6.73,8,11.77,15.63,11.77,7.81,0,14.31-5.25,15.73-12.19,0,.22.11.43.16.64v0A15.84,15.84,0,0,0,1462.27,558c8.85,0,16-6.73,16-15V463.78Z"/><path class="cls-4" d="M1134.45,546.21l.34-82.42Z"/><path class="cls-4" d="M1322.1,549.28v0Z"/><path class="cls-4" d="M1415,546.57v0Z"/><path class="cls-41" d="M832.57,737.76c0-5.15,4.57-9.32,10.2-9.32s10.2,4.17,10.2,9.32"/><line class="cls-4" x1="842.77" y1="726.93" x2="842.77" y2="600.12"/><polygon class="cls-42" points="852.5 598.32 834.05 598.32 828.95 565.86 843.63 559.48 858.32 565.86 852.5 598.32"/><line class="cls-43" x1="828.95" y1="567.86" x2="858.14" y2="567.86"/><polyline class="cls-43" points="844.41 598.32 849.32 567.86 842.92 560.87"/><path class="cls-41" d="M412.7,737.76c0-5.15,4.57-9.32,10.2-9.32s10.2,4.17,10.2,9.32"/><line class="cls-4" x1="422.9" y1="726.93" x2="422.9" y2="600.12"/><polygon class="cls-42" points="432.63 598.32 414.18 598.32 409.08 565.86 423.77 559.48 438.45 565.86 432.63 598.32"/><line class="cls-43" x1="409.08" y1="567.86" x2="438.27" y2="567.86"/><polyline class="cls-43" points="424.54 598.32 429.46 567.86 423.05 560.87"/><rect class="cls-44" x="649.86" y="641.49" width="9.72" height="98.77"/><line class="cls-44" x1="625.25" y1="740.26" x2="690.21" y2="740.26"/><line class="cls-44" x1="627.57" y1="726.5" x2="683.83" y2="726.5"/><line class="cls-44" x1="631.55" y1="720.04" x2="631.55" y2="740.26"/><line class="cls-44" x1="643.23" y1="720.04" x2="643.23" y2="740.26"/><line class="cls-44" x1="666.59" y1="720.04" x2="666.59" y2="740.26"/><line class="cls-44" x1="678.28" y1="720.04" x2="678.28" y2="740.26"/><path class="cls-45" d="M677,602.22c-.88,0-1.76,0-2.62.13a19.55,19.55,0,1,0-38.32-5.43c0,.64,0,1.27.1,1.89h-.21a32.7,32.7,0,1,0,26,52.47,26.82,26.82,0,1,0,15-49.05Z"/><rect class="cls-44" x="41.97" y="641.01" width="9.72" height="98.77"/><line class="cls-44" x1="17.36" y1="739.78" x2="82.32" y2="739.78"/><line class="cls-44" x1="19.68" y1="726.02" x2="75.94" y2="726.02"/><line class="cls-44" x1="23.66" y1="719.56" x2="23.66" y2="739.78"/><line class="cls-44" x1="35.34" y1="719.56" x2="35.34" y2="739.78"/><line class="cls-44" x1="58.7" y1="719.56" x2="58.7" y2="739.78"/><line class="cls-44" x1="70.38" y1="719.56" x2="70.38" y2="739.78"/><path class="cls-45" d="M68.89,578.42c0-.18,0-.35,0-.53a27,27,0,1,0-50.75,12.66A28.33,28.33,0,0,0,36.45,643.8a37.78,37.78,0,1,0,32.44-65.38Z"/><rect class="cls-46" x="2" y="724.46" width="1680" height="233.06"/><rect class="cls-47" x="1601.6" y="673.15" width="7.12" height="63.15"/><rect class="cls-47" x="1603.96" y="728.93" width="2.4" height="16.75" transform="translate(867.85 2342.46) rotate(-90)"/><rect class="cls-47" x="1462.61" y="673.75" width="7.12" height="63.15"/><rect class="cls-48" x="1446.7" y="677.76" width="172.9" height="10.69"/><rect class="cls-48" x="1446.7" y="690.23" width="172.9" height="10.69"/><rect class="cls-48" x="1446.7" y="702.7" width="172.9" height="10.69"/><rect class="cls-49" x="1446.7" y="714.62" width="172.9" height="5.34"/><rect class="cls-49" x="1446.7" y="721.79" width="172.9" height="5.34"/><rect class="cls-47" x="1464.97" y="728.53" width="2.4" height="16.75" transform="translate(729.27 2203.07) rotate(-90)"/></g></g></g></svg>