<svg xmlns="http://www.w3.org/2000/svg" viewBox="0 0 1684 958"><defs><style>.a{isolation:isolate;}.b{fill:#cccac4;}.c,.g,.i,.m,.t{fill:none;}.c,.f,.h,.k,.l,.o,.r,.s,.t,.u,.v{stroke:#4f4b48;}.c,.f,.g,.h,.i,.k,.l,.o,.s,.t,.u,.v{stroke-linecap:round;stroke-linejoin:round;}.c,.f,.g,.h,.i,.o,.r,.s,.u,.v{stroke-width:4px;}.d,.f{fill:#b3b3b3;}.e,.k,.l,.r{fill:#e5e5e5;}.g,.m{stroke:#bfbfbf;}.h{fill:#ccc;}.i{stroke:#f2f2f2;}.j{fill:#999;}.k{stroke-width:3px;}.l,.t{stroke-width:2px;}.m,.r{stroke-miterlimit:10;}.m{stroke-width:6px;}.n{fill:#bfbfbf;}.o{fill:#d9d9d9;}.p{fill:gray;}.q{fill:#a6a6a6;}.s,.w{fill:#fff;}.u{fill:#aaa9a9;}.v{fill:#2b0909;}.w{mix-blend-mode:color;}</style></defs><title>Ресурс 7</title><g class="a"><rect class="b" x="679" width="303" height="740.26"/><rect class="b" x="900" y="161" width="303" height="579.34"/><rect class="b" x="1138" y="360" width="303" height="380.65"/><rect class="b" x="157" y="193" width="303" height="547.39"/><rect class="b" x="393" y="76" width="215" height="664.7"/><line class="c" x1="39" y1="740" x2="1615" y2="740"/><path class="d" d="M406,491H85q0-7,0-15t0-14H406Z"/><polygon class="e" points="406 740 95 739 95 491 406 492 406 740"/><rect class="d" x="95" y="491" width="311" height="12.23"/><rect class="f" x="205" y="631" width="102" height="108.67"/><line class="c" x1="256" y1="631" x2="256" y2="740"/><line class="c" x1="267" y1="686" x2="262" y2="686"/><line class="c" x1="250" y1="686" x2="245" y2="686"/><path class="f" d="M157,476"/><path class="f" d="M150,475"/><line class="g" x1="95" y1="627" x2="118" y2="627"/><line class="g" x1="328" y1="720" x2="351" y2="720"/><line class="g" x1="407" y1="607" x2="357" y2="607"/><line class="g" x1="285" y1="572" x2="301" y2="572"/><line class="g" x1="193" y1="521" x2="224" y2="521"/><line class="g" x1="85" y1="476" x2="157" y2="476"/><polygon class="c" points="406 740 95 739 95 491 406 492 406 740"/><path class="c" d="M406,491H85q0-7,0-15t0-14H406Z"/><path class="h" d="M123,702V667c0-19,13-34,28-34h2c15,0,28,15,28,34v35H123Z"/><line class="f" x1="152" y1="633" x2="152" y2="702"/><line class="f" x1="123" y1="666" x2="181" y2="666"/><line class="i" x1="131" y1="686" x2="138" y2="675"/><line class="i" x1="159" y1="686" x2="166" y2="675"/><path class="h" d="M328,702V667c0-19,13-34,28-34h2c15,0,28,15,28,34v35H328Z"/><line class="f" x1="357" y1="633" x2="357" y2="702"/><line class="f" x1="328" y1="666" x2="386" y2="666"/><line class="i" x1="336" y1="686" x2="343" y2="675"/><line class="i" x1="364" y1="686" x2="371" y2="675"/><path class="h" d="M123,588V553c0-19,13-34,28-34h2c15,0,28,15,28,34v35H123Z"/><line class="f" x1="152" y1="519" x2="152" y2="588"/><line class="f" x1="123" y1="552" x2="181" y2="552"/><line class="i" x1="131" y1="572" x2="138" y2="561"/><line class="i" x1="159" y1="572" x2="166" y2="561"/><path class="h" d="M328,588V553c0-19,13-34,28-34h2c15,0,28,15,28,34v35H328Z"/><line class="f" x1="357" y1="519" x2="357" y2="588"/><line class="f" x1="328" y1="552" x2="386" y2="552"/><line class="i" x1="336" y1="572" x2="343" y2="561"/><line class="i" x1="364" y1="572" x2="371" y2="561"/><path class="h" d="M227,588V553c0-19,13-34,28-34h2c15,0,28,15,28,34v35H227Z"/><line class="f" x1="256" y1="519" x2="256" y2="588"/><line class="f" x1="227" y1="552" x2="285" y2="552"/><line class="i" x1="235" y1="572" x2="242" y2="561"/><line class="i" x1="263" y1="572" x2="270" y2="561"/><rect class="j" x="218" y="647" width="24" height="24.3"/><rect class="j" x="270" y="647" width="24" height="24.3"/><rect class="j" x="218" y="700" width="24" height="24.3"/><rect class="j" x="270" y="700" width="24" height="24.3"/><rect class="e" x="406" y="292" width="233" height="447.97"/><polygon class="f" points="498 685 431 685 431 620 431 593 498 593 498 620 498 685"/><line class="f" x1="431" y1="620" x2="498" y2="620"/><path class="i" d="M459,636l-20,28"/><path class="i" d="M473,636l-20,28"/><polygon class="f" points="612 685 546 685 546 620 546 593 612 593 612 620 612 685"/><line class="f" x1="546" y1="620" x2="612" y2="620"/><path class="i" d="M573,636l-20,28"/><path class="i" d="M587,636l-20,28"/><polygon class="f" points="500 543 433 543 433 478 433 451 500 451 500 478 500 543"/><line class="f" x1="433" y1="478" x2="500" y2="478"/><path class="i" d="M461,494l-20,28"/><path class="i" d="M475,494l-20,28"/><polygon class="f" points="614 543 547 543 547 478 547 451 614 451 614 478 614 543"/><line class="f" x1="547" y1="478" x2="614" y2="478"/><path class="i" d="M575,494l-20,28"/><path class="i" d="M589,494l-20,28"/><rect class="f" x="473" y="321" width="92" height="87.36"/><line class="k" x1="519" y1="321" x2="519" y2="408"/><line class="l" x1="441" y1="363" x2="441" y2="408"/><line class="l" x1="460" y1="363" x2="460" y2="408"/><line class="l" x1="480" y1="363" x2="480" y2="408"/><line class="l" x1="499" y1="363" x2="499" y2="408"/><line class="l" x1="519" y1="363" x2="519" y2="408"/><line class="l" x1="538" y1="363" x2="538" y2="408"/><line class="l" x1="558" y1="363" x2="558" y2="408"/><line class="l" x1="577" y1="363" x2="577" y2="408"/><line class="l" x1="597" y1="363" x2="597" y2="408"/><rect class="d" x="429" y="408" width="179" height="12.81"/><rect class="c" x="429" y="363" width="179" height="45.54"/><rect class="d" x="406" y="292" width="234" height="11.67"/><rect class="f" x="393" y="271" width="256" height="21.03"/><path class="i" d="M489,334l-7,14"/><path class="i" d="M538,331l-7,14"/><path class="i" d="M547,331l-7,14"/><line class="m" x1="426" y1="575" x2="446" y2="575"/><line class="m" x1="407" y1="669" x2="427" y2="669"/><line class="m" x1="409" y1="678" x2="422" y2="678"/><line class="m" x1="406" y1="660" x2="420" y2="660"/><line class="m" x1="456" y1="575" x2="476" y2="575"/><line class="m" x1="617" y1="639" x2="637" y2="639"/><line class="m" x1="619" y1="516" x2="639" y2="516"/><line class="m" x1="622" y1="448" x2="642" y2="448"/><line class="m" x1="623" y1="649" x2="637" y2="649"/><line class="m" x1="443" y1="564" x2="463" y2="564"/><line class="m" x1="437" y1="325" x2="457" y2="325"/><line class="m" x1="421" y1="315" x2="441" y2="315"/><rect class="c" x="406" y="292" width="233" height="447.97"/><polygon class="j" points="825 403 640 403 663 338 800 338 825 403"/><rect class="n" x="640" y="403" width="185" height="337.35"/><rect class="o" x="744" y="581" width="60" height="107.82"/><line class="o" x1="773" y1="581" x2="773" y2="689"/><rect class="o" x="663" y="435" width="60" height="107.82"/><line class="o" x1="692" y1="435" x2="692" y2="543"/><rect class="o" x="744" y="435" width="60" height="107.82"/><line class="o" x1="773" y1="435" x2="773" y2="543"/><rect class="f" x="660" y="593" width="62" height="146.77"/><circle class="f" cx="732" cy="370" r="19"/><path class="i" d="M723,364a11,11,0,1,1,18,14"/><rect class="f" x="679" y="620" width="18" height="71.02"/><line class="f" x1="707" y1="666" x2="713" y2="666"/><rect class="p" x="640" y="403" width="183" height="13.73"/><rect class="c" x="640" y="403" width="185" height="337.35"/><polygon class="c" points="825 403 640 403 663 338 800 338 825 403"/><line class="c" x1="757" y1="351" x2="803" y2="351"/><line class="c" x1="658" y1="351" x2="710" y2="351"/><line class="c" x1="793" y1="368" x2="810" y2="368"/><line class="c" x1="751" y1="368" x2="771" y2="368"/><line class="c" x1="684" y1="368" x2="713" y2="368"/><line class="c" x1="804" y1="385" x2="818" y2="385"/><line class="c" x1="745" y1="385" x2="781" y2="385"/><line class="c" x1="711" y1="385" x2="720" y2="385"/><line class="c" x1="646" y1="385" x2="691" y2="385"/><rect class="e" x="825" y="318" width="247" height="422.37"/><rect class="h" x="861" y="352" width="61" height="93.47"/><line class="h" x1="891" y1="352" x2="891" y2="445"/><line class="i" x1="878" y1="377" x2="872" y2="403"/><line class="i" x1="909" y1="377" x2="904" y2="403"/><rect class="q" x="850" y="445" width="82" height="7.95"/><circle class="j" cx="867" cy="427" r="7"/><circle class="j" cx="880" cy="426" r="10"/><circle class="j" cx="893" cy="428" r="5" transform="translate(-41 757) rotate(-45)"/><circle class="j" cx="904" cy="428" r="7"/><circle class="j" cx="915" cy="432" r="7"/><rect class="f" x="847" y="431" width="88" height="14.58"/><rect class="h" x="975" y="352" width="61" height="93.47"/><line class="h" x1="1006" y1="352" x2="1006" y2="445"/><line class="i" x1="992" y1="377" x2="987" y2="403"/><line class="i" x1="1024" y1="377" x2="1018" y2="403"/><rect class="q" x="964" y="445" width="82" height="7.95"/><circle class="j" cx="981" cy="427" r="7"/><circle class="j" cx="995" cy="426" r="10"/><circle class="j" cx="1007" cy="428" r="5" transform="translate(-8 838) rotate(-45)"/><circle class="j" cx="1018" cy="428" r="7"/><circle class="j" cx="1030" cy="432" r="7"/><rect class="f" x="962" y="431" width="88" height="14.58"/><rect class="h" x="861" y="476" width="61" height="93.47"/><line class="h" x1="891" y1="476" x2="891" y2="570"/><line class="i" x1="878" y1="502" x2="873" y2="528"/><line class="i" x1="909" y1="502" x2="904" y2="528"/><rect class="q" x="850" y="570" width="82" height="7.95"/><circle class="j" cx="867" cy="552" r="7"/><circle class="j" cx="880" cy="551" r="10"/><circle class="j" cx="893" cy="553" r="5" transform="translate(-129 793) rotate(-45)"/><circle class="j" cx="904" cy="553" r="7"/><circle class="j" cx="915" cy="556" r="7"/><rect class="f" x="847" y="555" width="88" height="14.58"/><rect class="h" x="862" y="604" width="61" height="93.47"/><line class="h" x1="893" y1="604" x2="893" y2="697"/><line class="i" x1="879" y1="629" x2="874" y2="655"/><line class="i" x1="911" y1="629" x2="905" y2="655"/><rect class="q" x="851" y="697" width="82" height="7.95"/><circle class="j" cx="868" cy="679" r="7"/><circle class="j" cx="882" cy="678" r="10"/><circle class="j" cx="894" cy="680" r="5" transform="translate(-219 832) rotate(-45)"/><circle class="j" cx="905" cy="680" r="7"/><circle class="j" cx="917" cy="684" r="7"/><rect class="f" x="849" y="683" width="88" height="14.58"/><rect class="h" x="975" y="476" width="61" height="93.47"/><line class="h" x1="1006" y1="476" x2="1006" y2="570"/><line class="i" x1="992" y1="502" x2="987" y2="528"/><line class="i" x1="1024" y1="502" x2="1018" y2="528"/><rect class="q" x="964" y="570" width="82" height="7.95"/><circle class="j" cx="982" cy="552" r="7"/><circle class="j" cx="995" cy="551" r="10"/><circle class="j" cx="1007" cy="553" r="5" transform="translate(-96 874) rotate(-45)"/><circle class="j" cx="1019" cy="553" r="7"/><circle class="j" cx="1030" cy="556" r="7"/><rect class="f" x="962" y="555" width="88" height="14.58"/><rect class="f" x="973" y="730" width="90" height="10.66"/><rect class="f" x="977" y="719" width="80" height="10.27"/><rect class="f" x="983" y="613" width="69" height="106.71"/><circle class="f" cx="1017" cy="643" r="11"/><line class="f" x1="990" y1="669" x2="992" y2="669"/><rect class="f" x="811" y="296" width="275" height="21.03"/><rect class="j" x="825" y="318" width="247" height="11.2"/><line class="g" x1="825" y1="586" x2="904" y2="586"/><line class="g" x1="1071" y1="460" x2="1007" y2="460"/><rect class="c" x="825" y="318" width="247" height="422.37"/><line class="g" x1="931" y1="338" x2="982" y2="338"/><rect class="e" x="1071" y="543" width="397" height="197.53"/><rect class="f" x="1095" y="592" width="132" height="91.13"/><rect class="f" x="1353" y="592" width="86" height="95.33"/><path class="d" d="M1465,473H1071v79c0,8,7,15,16,15s14-5,16-12c1,7,8,12,16,12s14-5,16-12c2,7,8,12,16,12s14-5,16-12c1,7,8,12,16,12s15-6,16-13c1,7,8,13,16,13s14-5,16-12c1,7,8,12,16,12s14-5,16-12c2,7,8,12,16,12s14-5,16-12c1,7,8,12,16,12a16,16,0,0,0,15-9,16,16,0,0,0,15,9c8,0,15-6,16-13,1,7,8,13,16,13s14-5,16-12c1,7,8,12,16,12s14-5,16-12c2,7,8,12,16,12s14-5,16-12c1,7,8,12,16,12h3Z"/><line class="i" x1="1142" y1="612" x2="1128" y2="666"/><line class="i" x1="1164" y1="612" x2="1150" y2="666"/><line class="i" x1="1189" y1="612" x2="1175" y2="666"/><line class="i" x1="1390" y1="612" x2="1376" y2="666"/><line class="i" x1="1416" y1="612" x2="1402" y2="666"/><line class="g" x1="1071" y1="705" x2="1260" y2="705"/><line class="g" x1="1376" y1="705" x2="1467" y2="705"/><rect class="c" x="1071" y="543" width="397" height="197.53"/><rect class="f" x="1260" y="605" width="74" height="135.54"/><path class="d" d="M1071,466v79c0,8,7,15,16,15s14-5,16-12c1,7,8,12,16,12s14-5,16-12c2,7,8,12,16,12s14-5,16-12c1,7,8,12,16,12s15-6,16-13c1,7,8,13,16,13s14-5,16-12c1,7,8,12,16,12s14-5,16-12c2,7,8,12,16,12s14-5,16-12c1,7,8,12,16,12a16,16,0,0,0,15-9,16,16,0,0,0,15,9c8,0,15-6,16-13,1,7,8,13,16,13s14-5,16-12c1,7,8,12,16,12s14-5,16-12c2,7,8,12,16,12s14-5,16-12c1,7,8,12,16,12s16-7,16-15V466Z"/><path class="j" d="M1260,549c2,7,8,12,16,12s14-5,16-12h0V466h-31v83Z"/><path class="j" d="M1197,549c2,7,8,12,16,12s14-5,16-12h0V466h-31v83Z"/><path class="j" d="M1135,547c2,7,8,12,16,12s14-5,16-12h0V464h-31v83Z"/><path class="j" d="M1072,547c2,7,8,12,16,12s14-5,16-12h0V465h-31v83Z"/><path class="j" d="M1321,550c2,7,8,12,16,12s14-5,16-12h0V468h-31v83Z"/><path class="j" d="M1384,550c2,7,8,12,16,12s14-5,16-12h0V468h-31v83Z"/><path class="j" d="M1447,550c2,7,8,12,16,12s14-5,16-12h0V468h-31v83Z"/><rect class="f" x="1277" y="622" width="34" height="46.22"/><line class="i" x1="1300" y1="634" x2="1289" y2="658"/><path class="c" d="M1071,466v79c0,8,7,15,16,15s14-5,16-12h0v0c2,7,8,12,16,12s14-5,16-12c2,7,8,12,16,12s14-5,16-12v0h0c1,7,8,12,16,12s15-6,16-13v0h0c1,7,8,13,16,13a16,16,0,0,0,16-11v0h0c1,7,8,12,16,12a16,16,0,0,0,16-12v0h0c2,7,8,12,16,12s14-5,16-12h0v0c2,7,8,12,16,12a16,16,0,0,0,15-9,16,16,0,0,0,15,9c8,0,15-6,16-13h0v0c1,7,8,12,16,12s14-5,16-12h0v0c1,7,8,12,16,12s14-5,16-12c2,7,8,12,16,12s14-5,16-12h0v0a16,16,0,0,0,16,12c9,0,16-7,16-15V466Zm63,83v0Zm187,3v0Zm93-3v0Z"/><path class="r" d="M1496,739c0-5,5-9,10-9s10,4,10,9"/><line class="c" x1="1507" y1="728" x2="1507" y2="601"/><polygon class="s" points="1516 599 1498 599 1493 567 1507 560 1522 567 1516 599"/><line class="t" x1="1493" y1="569" x2="1522" y2="569"/><polyline class="t" points="1508 599 1513 569 1507 562"/><path class="r" d="M833,738c0-5,5-9,10-9s10,4,10,9"/><line class="c" x1="843" y1="727" x2="843" y2="600"/><polygon class="s" points="852 598 834 598 829 566 844 559 858 566 852 598"/><line class="t" x1="829" y1="568" x2="858" y2="568"/><polyline class="t" points="844 598 849 568 843 561"/><path class="r" d="M413,738c0-5,5-9,10-9s10,4,10,9"/><line class="c" x1="423" y1="727" x2="423" y2="600"/><polygon class="s" points="433 598 414 598 409 566 424 559 438 566 433 598"/><line class="t" x1="409" y1="568" x2="438" y2="568"/><polyline class="t" points="425 598 429 568 423 561"/><rect class="u" x="1603" y="641" width="10" height="98.77"/><path class="u" d="M1643,555a35,35,0,0,0-70,3h0a45,45,0,0,0,9,89l13-2a52,52,0,1,0,48-91Z"/><line class="u" x1="1578" y1="740" x2="1643" y2="740"/><line class="u" x1="1581" y1="727" x2="1637" y2="727"/><line class="u" x1="1585" y1="720" x2="1585" y2="740"/><line class="u" x1="1596" y1="720" x2="1596" y2="740"/><line class="u" x1="1620" y1="720" x2="1620" y2="740"/><line class="u" x1="1631" y1="720" x2="1631" y2="740"/><rect class="u" x="650" y="641" width="10" height="98.77"/><line class="u" x1="625" y1="740" x2="690" y2="740"/><line class="u" x1="628" y1="727" x2="684" y2="727"/><line class="u" x1="632" y1="720" x2="632" y2="740"/><line class="u" x1="643" y1="720" x2="643" y2="740"/><line class="u" x1="667" y1="720" x2="667" y2="740"/><line class="u" x1="678" y1="720" x2="678" y2="740"/><path class="u" d="M677,602h-3a20,20,0,1,0-38-5v2h0a33,33,0,1,0,26,52,27,27,0,1,0,15-49Z"/><rect class="u" x="42" y="641" width="10" height="98.77"/><line class="u" x1="17" y1="740" x2="82" y2="740"/><line class="u" x1="20" y1="726" x2="76" y2="726"/><line class="u" x1="24" y1="720" x2="24" y2="740"/><line class="u" x1="35" y1="720" x2="35" y2="740"/><line class="u" x1="59" y1="720" x2="59" y2="740"/><line class="u" x1="70" y1="720" x2="70" y2="740"/><path class="v" d="M69,578h0a27,27,0,1,0-51,13,28,28,0,0,0,12,54h6a38,38,0,1,0,32-65Z"/><rect class="w" x="2" y="724" width="1680" height="233.06"/></g></svg>