<svg xmlns="http://www.w3.org/2000/svg" viewBox="0 0 200 237"><defs><style>.a{fill:#3f6631;}.b{fill:#558635;}.c{fill:#6e9c3a;}.d{fill:#91ba3a;}.e{fill:#666568;}.f{fill:#5b5b5f;}.g{opacity:0.2;}</style></defs><title>Ресурс 5</title><polygon class="a" points="100 62 0 206 200 206 100 62"/><polygon class="b" points="100 35 18 155 182 155 100 35"/><polygon class="c" points="100 17 31 116 169 116 100 17"/><polygon class="d" points="100 0 47 77 153 77 100 0"/><rect class="e" x="65" y="206" width="70" height="30.61"/><polygon class="f" points="135 207 65 215 65 207 135 207"/><polygon class="g" points="142 77 51 88 58 77 142 77"/><polygon class="g" points="156 116 37 127 44 116 156 116"/><polygon class="g" points="164 155 28 165 36 155 164 155"/></svg>