<svg xmlns="http://www.w3.org/2000/svg" viewBox="0 0 200 237"><defs><style>.cls-1{fill:#3f6631;}.cls-2{fill:#558635;}.cls-3{fill:#6e9c3a;}.cls-4{fill:#91ba3a;}.cls-5{fill:#666568;}.cls-6{fill:#5b5b5f;}.cls-7{opacity:0.2;}</style></defs><title>Ресурс 1</title><g id="Слой_2" data-name="Слой 2"><g id="layer1"><polygon class="cls-1" points="100 62 0 206 200 206 100 62"/><polygon class="cls-2" points="100 35 18 155 182 155 100 35"/><polygon class="cls-3" points="100 17 31 116 169 116 100 17"/><polygon class="cls-4" points="100 0 47 77 153 77 100 0"/><rect class="cls-5" x="65" y="206" width="70" height="30.61"/><polygon class="cls-6" points="135 207 65 215 65 207 135 207"/><polygon class="cls-7" points="142 77 51 88 58 77 142 77"/><polygon class="cls-7" points="156 116 37 127 44 116 156 116"/><polygon class="cls-7" points="164 155 28 165 36 155 164 155"/></g></g></svg>