<svg xmlns="http://www.w3.org/2000/svg" viewBox="0 0 243 369"><defs><style>.cls-1{fill:#7b4526;}.cls-2{fill:#6b3c20;}.cls-3{fill:#447241;}.cls-4{fill:#4f844b;}.cls-5{fill:#3b6438;}.cls-6{fill:#599555;}.cls-7{fill:#62a45d;}.cls-8{fill:#6cb466;}.cls-9{fill:#eaa613;}.cls-10{fill:#ffc648;}.cls-11{fill:#095c52;}.cls-12{fill:#ff2464;}.cls-13{fill:#fceec8;}</style></defs><title>Ресурс 1</title><g id="Слой_2" data-name="Слой 2"><g id="Слой_1-2" data-name="Слой 1"><path class="cls-1" d="M146,352l-3-16V326h0a38,38,0,0,0-1-8h0l-2-5-5-5H122l-6,3-5,4-4,7-2,4h0v-2h-1c0,10-1,20-2,30v9h0c0,5,11,9,24,9h0c13,0,23-4,24-9h0Z"/><path class="cls-2" d="M122,304l-6,3-5,4-4,7-2,3h0v-2h-2c0,5,0,10-1,16h1l2,2h29l3-2,3-2,3-3h0v-7h0a38,38,0,0,0-1-8h0l-2-5-5-5H122m8,37h0"/><path class="cls-3" d="M137,206H108l-15,3a136,136,0,0,0-30,9l-10,5-5,3-4,4-8,8-2,2-3,3v-4H32l-2,6h0v2H29l-2,3-8,9-2,2-7,7-4,5-3,5a17,17,0,0,0-2,10,13,13,0,0,0,2,5l4,4H15l6-3h0v5a20,20,0,0,0,0,5v4a19,19,0,0,0,5,7l8,4,9,2h9l9-4,5-5,2,5a21,21,0,0,0,7,8l10,4H95l5-3,2,3,8,5,10,2h0l10-2,9-5,4-4,5,2h11l10-4a21,21,0,0,0,7-8l2-5,5,5,9,4h9l9-2,8-4a19,19,0,0,0,5-7v-4a20,20,0,0,0,0-5v-5h0l6,3h10l4-4a13,13,0,0,0,2-5,17,17,0,0,0-2-10l-3-5-4-5-7-7-2-2-8-9h0a14,14,0,0,0-1-5l-3-5-8-9-10-7-5-3h-1l-4-2-15-7-15-4H137m76,38v-4l2,4v3h-1v-2Z"/><path class="cls-4" d="M239,274h0a8,8,0,0,1,0,1H219l-5-2h-1c0,2,0,4,0,7a40,40,0,0,1,0,7v6l-2,3-2,2H188l-3-2-3-2-3-3h0v2l-2,3-2,3-2,2-2,2-2,2H149l-3-2-3-3v-2h-1v7l-2,3-2,3-3,2-3,2H112l-2-2-4-5-4-6-2,3-2,2-2,2H80l-4-4-7-10v3l-2,3-3,3-3,2-5,2-6,2H38l-10-2,7,4,9,2h9l9-4,5-5,2,5a21,21,0,0,0,7,8l10,4H95l5-3,2,3,8,5,10,2h0l10-2,9-5,4-4,5,2h11l10-4a21,21,0,0,0,7-8l2-5,5,5,9,4h9l9-2,8-4a19,19,0,0,0,5-7v-4a20,20,0,0,0,0-5v-5h0l6,3h10l4-4a13,13,0,0,0,2-5,17,17,0,0,0-3-10l-3-4h0"/><path class="cls-5" d="M137,206H108l-15,3a137,137,0,0,0-30,9l-10,5-5,3-4,4-8,8-2,2-3,3v-4H32l-2,6h0v2H29l-2,2-8,8H39v2h0v2H50a50,50,0,0,0,0,9,25,25,0,0,0,3,11l4,4,6,3H77l7-2,7-4,6-4,2-2v3l3,3,8,4h10l10-2a27,27,0,0,0,11-7l2,2,2,2h6l5,3h14a24,24,0,0,0,12-4l4-4a26,26,0,0,0,3-7,39,39,0,0,0,2-12h10v-2h2l3,2h22l-3-3h-2l-8-9h0a15,15,0,0,0-1-5l-3-5-8-9-10-7-5-3h-1l-3-2-15-7-15-4H137m78,42h-1v-6l2,4v3"/><path class="cls-4" d="M131,136H119l-19,3-18,6-16,9a72,72,0,0,0-20,20l-2,3h0L23,202l-4,5-6,7-4,6-3,6a22,22,0,0,0-1,7,16,16,0,0,0,1,7l4,6a22,22,0,0,0,10,5H32l6-2,5-3,3-3a15,15,0,0,0,0,4,11,11,0,0,0,1,5l3,3H61l3-3v15a24,24,0,0,0,0,7,16,16,0,0,0,2,6l5,5,7,2h7l6-4,5-5,2-3,2-3,4-8v-2a20,20,0,0,0,1,5,18,18,0,0,0,5,7,20,20,0,0,0,14,5h2l8-2,7-6,2-3v-6h0v3l4,8,2,3,2,3,5,5,6,4h7l7-2,5-5a16,16,0,0,0,2-6,24,24,0,0,0,0-7V251l3,3h11l3-3a11,11,0,0,0,1-5,16,16,0,0,0,0-4l3,3,5,3,6,2h12a22,22,0,0,0,10-5l4-6a16,16,0,0,0,1-7,22,22,0,0,0-1-7l-3-6-4-6-6-7-4-5-20-23h0v-2h0v-4l-3-5-4-5-4-4-7-6-7-5-16-7-18-3h-7"/><path class="cls-6" d="M219,200l3,5,2,3v8a23,23,0,0,1,0,6,18,18,0,0,1-1,6v4l-2,2H208l-3-2-7-5-3-2h-2v8a19,19,0,0,1,0,3v2h-1l-2,2H178l-4-3-3-2v22a26,26,0,0,1,0,3v3h-1l-3,4H160l-3-2-6-6-5-8-4-7-2-3v16l-2,3-2,3-3,2H116l-3-3-6-7-3-4-3-4h0v-2l-3,9-4,9-6,9-4,4-4,3-4,2-5,2H82l6-4,5-5,2-3,2-3,4-8v-2a18,18,0,0,0,1,5,18,18,0,0,0,5,7,20,20,0,0,0,14,5h2l8-2,7-6,2-3v-6h0v3l4,8,2,3,2,3,5,5,6,4h7l7-2,5-5a16,16,0,0,0,2-6,24,24,0,0,0,0-7V255h0v-4l3,3h11l3-3a11,11,0,0,0,1-5,16,16,0,0,0,0-4l3,3,5,3,6,2h12a22,22,0,0,0,10-5l4-6a16,16,0,0,0,1-7,22,22,0,0,0-1-7l-3-6-4-6-6-7-4-5-2-2h0"/><path class="cls-3" d="M119,137l-19,4-18,6-16,9a72,72,0,0,0-20,20l-2,3h0l-7,9h6v3h0a44,44,0,0,0,0,5c0,1,0,2,0,3v2h0v7h0v3h2l2,2h2l2,2H80l2-2h2l2-3v-3h0v-4h12v4h0l2,4v4l2,2h20l2-2,2-2,2-4,2-4h0l2-6h11l2,3,2,3,3,3,3,3h0l4,3,4,2h23l2-2v-6h0v-5h0v-5c0-2,0-3,0-5h11l-7-9h0v-2h-1v-3l-3-5-4-5-4-4-7-6-7-5-16-7-18-3H119M42,199h0m102,1h0m-18,15h0"/><path class="cls-6" d="M116,78h-4L98,80l-6,2-6,3-6,4-6,5-6,8-2,4a17,17,0,0,0-1,4h0l-6,10h0c-5,7-12,13-18,19l-4,4-5,5-4,5-3,5a17,17,0,0,0-1,6v5l4,5,6,4h8l10-3,3-2-4,8c-1,4-2,10,0,15l4,6,5,3H73l6-3,5-5a42,42,0,0,0,7-13h1v2h8l2-2,2-3c0,2,0,4,0,6a31,31,0,0,0,3,11l3,4,5,3h7l5-3,4-5,2-6V184h1l2,2h8v-2h1a42,42,0,0,0,7,13l5,5,6,3h13l5-3,4-6c2-6,1-11,0-15l-3-8,3,2,10,3h8l6-4,4-5v-5a17,17,0,0,0-1-6l-3-5-4-5-5-5-4-4c-6-6-13-12-18-19h0l-5-8h0v-2l-3-6-5-7-3-3-3-2-6-3-14-5-16-3H116m-11,2h0"/><path class="cls-7" d="M202,141l3,6,2,6v3a17,17,0,0,1,0,3v5H179v4l2,6,2,6a38,38,0,0,1,1,6,25,25,0,0,1,0,3v3l-2,5-2,2H169l-4-3-4-4-4-5-3-4h0l-2-2h-1v-2h0v8h-7l-3-2-3-2-2-2-2-2h0a65,65,0,0,1,0,13,32,32,0,0,1-3,11l-3,4-4,4h2l5-3,4-5,2-6V184h1l2,2h8v-2h1a42,42,0,0,0,7,13l5,5,6,3h13l5-3,4-6c2-6,1-11,0-15l-3-8,3,2,10,3h8l6-4,4-5v-5a17,17,0,0,0-1-6l-3-5-4-5-5-5-4-3h-1l-5-5,6,7"/><path class="cls-4" d="M113,78,98,80l-6,2-6,3-6,4-6,5-6,8-2,4a17,17,0,0,0-1,4h0l-6,10h0l-2,3H67a55,55,0,0,0,0,8h0v6h0v3H91l3-2,3-2h0l3-2,2-3h0l2-3h0v3h0v4h20v-4h0v-3h0v2h1l2,2,2,2,3,2,3,2h20v-4h0l2-6v-6h14l-5-8h0v-2h0l-3-6-5-7-3-3-3-2-6-3-14-5-16-3H113m66,43h0m-5,0h0M61,122h0m105,10h0m-16,8h0m-71,1h0"/><path class="cls-7" d="M120,26h-1l-3,7a60,60,0,0,1-9,12h0l-8,7-9,6L78,65,61,75l-3,2-3,2-4,5-3,6a19,19,0,0,0-1,6,14,14,0,0,0,1,6l4,5,7,3h7l6-2h4a21,21,0,0,0,0,10l2,5,5,4H96l6-4,5-5,3-5v-2h0a26,26,0,0,0,0,6c0,2,2,7,5,8h8l2-2v-5a31,31,0,0,0,0-5h0v2l3,5,5,5,6,4h14l5-4,2-5a21,21,0,0,0,0-10h4l6,2h7l7-3,4-5a14,14,0,0,0,1-6,19,19,0,0,0-1-6l-3-6-4-5-3-2-3-2L162,66l-12-7-9-6-8-7a60,60,0,0,1-9-12l-3-7h-1"/><path class="cls-8" d="M125,38h0l2,5,3,4h0a70,70,0,0,0,13,12h0l7,5,6,4,4,3,4,3,4,4,4,5,2,2V97l-2,2h-8l-6-2-5-2v13a13,13,0,0,1,0,3v2l-2,2-2,2H141l-5-4-4-5-3-5-2-4v8a50,50,0,0,1-1,6l-2,5v2l-2,2h4l2-2v-5a31,31,0,0,0,0-5h0v2l3,5,5,5,6,4h14l5-4,2-5a21,21,0,0,0,0-10h4l6,2h7l7-3,4-5a14,14,0,0,0,1-6,19,19,0,0,0-1-6l-3-6-4-5-3-2-3-2-16-9h0l-12-7-9-6-8-7-9-12,2,4"/><path class="cls-8" d="M44,145l-3,3-3,4-2,4-2,5a9,9,0,0,0,1,7l3,2H37a11,11,0,0,1,0-3,25,25,0,0,1,2-6h0l5-9h0v-2a0,0,0,0,0,0-1H44m-1,2h0m0,0h0"/><path class="cls-8" d="M60,183a15,15,0,0,0-1,6,14,14,0,0,0,1,5l3,5h1l-2-2v-5a13,13,0,0,1,0-3h0v-3H60m0,4h0"/><path class="cls-8" d="M112,187a22,22,0,0,0,0,8l2,4v2l2,2h1a1,1,0,0,0,0-1h-1l-2-2-2-3v-4a19,19,0,0,1,0-5h-1m1,5h0m4,8h0m-4-13h0"/><path class="cls-8" d="M63,79l-2,2-2,2-2,2v9a15,15,0,0,0,0,3v3a12,12,0,0,0,5,6h2a1,1,0,0,0-1-2H60l-2-2V97a16,16,0,0,1,0-4V88l2-4h0l3-3h0m1,1h0Zm-6,7h0m2,16h0m0-20h0"/><path class="cls-8" d="M82,107a15,15,0,0,0-1,5,14,14,0,0,0,1,4l2,4,4,3h2a1,1,0,0,0,0-1H87l-2-2v-5a14,14,0,0,1,0-3v-2H82m1,8h0"/><path class="cls-8" d="M20,215a28,28,0,0,0-5,8l-2,5a22,22,0,0,0,0,5v4l2,4,3,3h6a1,1,0,0,0,0-1H17v-5h0a18,18,0,0,1,0-4h0a27,27,0,0,1,2-7l3-5h1a1,1,0,0,0,0-1H20m-5,18h0"/><path class="cls-8" d="M67,260v5a18,18,0,0,0,0,5v5l4,3H69v-5h0a18,18,0,0,1,0-5h0v-3H67m1,11h0m4,4h0Zm0,0h0"/><path class="cls-8" d="M53,239v2h0a7,7,0,0,0,2,4h1a1,1,0,0,0,0-1H54v-2h0a8,8,0,0,1,0-2v-2H53"/><path class="cls-8" d="M17,270l-3,4-3,5a18,18,0,0,0-1,6,16,16,0,0,0,0,3v3h2v-3a18,18,0,0,1,0-4l2-5v-2l2-2h1a1,1,0,0,0,0-1H17m0,2h0m-3,4h0m-2,5h0m0,4h0"/><path class="cls-8" d="M32,296a14,14,0,0,0-1,5,13,13,0,0,0,1,5l3,4h4l-3-2-2-2h0l-2-3v-3a12,12,0,0,1,0-3v-2H32m1,8h0m2,3h0m2,2h0m3,2h0m0,0h0"/><path class="cls-8" d="M112,311h0l2,3,3,3h0l-2-2-2-3h-1m4,5h0m3,2h0m3,1h0"/><path class="cls-9" d="M119,24h-2v3l-5,8h8l8-2h-1l-5-9h0a1,1,0,0,0,0,0h-3"/><path class="cls-9" d="M119,0h-3l-3,5V9h-9a3,3,0,0,0,0,1h0l2,2,2,2h1v8h7l3-2h0l3,2h9a11,11,0,0,0,0-3V20h0l3-2,2-2a4,4,0,0,0,1-3V10h-8l-2-5-2-2h-3m5,8h0"/><path class="cls-10" d="M119,0h1l2,3v7h5l-3,2v4h0a6,6,0,0,1,0,1h-5l-3-3h-3l3-2h0l3,2h9a11,11,0,0,0,0-3V20h0l3-2,2-2a4,4,0,0,0,1-3V10h-8l-2-5-2-3h-3"/><path class="cls-11" d="M73,66H72a28,28,0,0,0,3,8l5,6,7,4h7l4,4,11,6h12l5-2h1l3,3,3,2h19l5-2h1l3,2,5,2a25,25,0,0,0,12-1l11-6,3-3,2-3h-2l-2,3-3,3-6,4h0l-8,2H160l5-4,2-3V87a6,6,0,0,0,0-3h-8l-2,2-2,3v3a13,13,0,0,0,0,3v5h-1l-7,2h-6l-7-2h-4l-4-4h0l5-5a10,10,0,0,0,1-8l-2-3h-7l-2,2v2a10,10,0,0,0-1,4,11,11,0,0,0,1,4l2,4h-1l-7,2h-3l-6-2h0l-8-4-3-3h3l3-2,2-3a10,10,0,0,0,1-4,6,6,0,0,0-1-3H98l-3,2-2,2v2a8,8,0,0,0,0,5l2,4H84l-3-2-3-3-3-5-2-6H73m27,4h3a8,8,0,0,1,0,2v4l-2,2-3,2H94l-2-3V78a7,7,0,0,1,0-2h1l2-2h5M75,73h0Zm54,4h0m0,0h3a9,9,0,0,1,0,2v5l-3,3h-2V85a10,10,0,0,1,0-2V79l2-2h3m2,1h0m-6,1h0M93,80h0ZM81,81h0m15,2h0m66,0h4a5,5,0,0,1,0,1v2l-2,3-4,4h-3V93a11,11,0,0,1,0-2V84h4M95,83h0m71,1h0m-42,1h0m42,3h0m-39,3h0m-11,2h0m42,2h0m3,0h0m26,1h0m-51,2h0m25,1h0m2,1h0m17-1h0m-25-2h0"/><path class="cls-12" d="M68,80a3,3,0,1,0,3-3,3,3,0,0,0-3,3"/><path class="cls-12" d="M106,78a3,3,0,1,0,3-3,3,3,0,0,0-3,3"/><path class="cls-12" d="M122,71a3,3,0,1,0,3-3,3,3,0,0,0-3,3"/><path class="cls-12" d="M146,96a3,3,0,1,0,3-3,3,3,0,0,0-3,3"/><path class="cls-12" d="M168,90a3,3,0,1,0,3-3,3,3,0,0,0-3,3"/><path class="cls-12" d="M164,109a3,3,0,1,0,3-3,3,3,0,0,0-3,3"/><path class="cls-13" d="M88,66a3,3,0,1,0,3,3,3,3,0,0,0-3-3"/><path class="cls-13" d="M97,91a3,3,0,1,0,3,3,3,3,0,0,0-3-3"/><path class="cls-13" d="M116,86a3,3,0,1,0,3,3,3,3,0,0,0-3-3"/><path class="cls-13" d="M136,85a3,3,0,1,0,3,3,3,3,0,0,0-3-3"/><path class="cls-13" d="M160,73a3,3,0,1,0,3,3,3,3,0,0,0-3-3"/><path class="cls-13" d="M183,90a3,3,0,1,0,3,3,3,3,0,0,0-3-3"/><path class="cls-11" d="M169,130l-3,2v4a9,9,0,0,0,0,2v2l2,4h5l-2,3-5,5-6,3H145a22,22,0,0,0,1-6,13,13,0,0,0-1-5l-2-4h-7v5a9,9,0,0,0,0,4v3l3,2,4,2h0l-2,3-4,4h0l-6,4-8,2h-7l-6-2h-1v-3a21,21,0,0,0,0-8v-3H99v9l2,4,3,3-2,3-4,4-5,3-6,2H75l2-4v-2h0a7,7,0,0,0-3-4H71l-4,2a8,8,0,0,0-1,5v4l3,3,2,2-2,2-5,3H48l-4-3-4-4H38l4,4,4,3,10,2,10-2,4-3,2-2H86l10-3,5-3,4-4v-2h14a31,31,0,0,0,17-7l6-7h14l5-2a29,29,0,0,0,9-8l2-3h11a21,21,0,0,0,10-6l5-6a1,1,0,0,0,0-1h-1l-2,4h0l-4,4-4,3H175v-4a20,20,0,0,0,0-4,13,13,0,0,0-1-4v-2h-5m2,2h3v2a19,19,0,0,1,0,5v4h0l-3-2h-1v-6a9,9,0,0,1,0-2h4m-4,2h0m25,9h0m-19,2h0m-32,0h2v4a17,17,0,0,1,0,4v4h-1l-3-2h-3a9,9,0,0,1,0-2v-4h2m-2,1h0m-1,1h0m27,7h0m-26,1h0m0,0h0m-35,0h2v2a21,21,0,0,1,0,5v5l-2-3-3-4h0v-2a6,6,0,0,1,0-1h4m2,2h0M72,170h4a8,8,0,0,1,0,2v3l-2,3H71l-2-2v-4a8,8,0,0,1,0-2h4m1,0h0m1,1h0m-5,0h0m61,1h0m-54,6h0m-6,0h0m30,0h0m0,0h0m37-11h0m60-30h0"/><path class="cls-12" d="M176,135a3,3,0,1,0,3-3,3,3,0,0,0-3,3"/><path class="cls-12" d="M160,163a3,3,0,1,0,3-3,3,3,0,0,0-3,3"/><path class="cls-12" d="M133,141a3,3,0,1,0,3-3,3,3,0,0,0-3,3"/><path class="cls-12" d="M135,176a3,3,0,1,0,3-3,3,3,0,0,0-3,3"/><path class="cls-12" d="M111,163a3,3,0,1,0,3-3,3,3,0,0,0-3,3"/><path class="cls-12" d="M94,174a3,3,0,1,0,3-3,3,3,0,0,0-3,3"/><path class="cls-12" d="M83,191a3,3,0,1,0,3-3,3,3,0,0,0-3,3"/><path class="cls-12" d="M60,167a3,3,0,1,0,3-3,3,3,0,0,0-3,3"/><path class="cls-12" d="M37,191a3,3,0,1,0,3-3,3,3,0,0,0-3,3"/><path class="cls-13" d="M197,143a3,3,0,1,0,3,3,3,3,0,0,0-3-3"/><path class="cls-13" d="M160,132a3,3,0,1,0,3,3,3,3,0,0,0-3-3"/><path class="cls-13" d="M151,148a3,3,0,1,0,3,3,3,3,0,0,0-3-3"/><path class="cls-13" d="M132,158a3,3,0,1,0,3,3,3,3,0,0,0-3-3"/><path class="cls-13" d="M116,179a3,3,0,1,0,3,3,3,3,0,0,0-3-3"/><path class="cls-13" d="M82,169a3,3,0,1,0,3,3,3,3,0,0,0-3-3"/><path class="cls-13" d="M57,182a3,3,0,1,0,3,3,3,3,0,0,0-3-3"/><path class="cls-11" d="M29,209H28l-3,2-4,4H10a1,1,0,0,0,0,1c2,3,5,4,8,5h2a16,16,0,0,0,1,7l4,6,3,2,3,2h9v3a28,28,0,0,0,6,10l4,3,6,2h9l3,4,6,5,7,3H92l2,2,2,2,3,2,4,2h20l4,3,10,3h10l5-2,10,3h11l5-2,3,2,5,2h17l5-3,2-2h17l3-2,3-3,3-4h1a1,1,0,0,0,0-1h-1l-2,4-3,3h-4l-6,2h-7l3-6v-3a8,8,0,0,0-1-3h-2l-3-2h-5a11,11,0,0,0-2,6,11,11,0,0,0,0,3v3l4,4h-1l-4,2h0l-6,2H183l-4-2h-1l2-2,4-6a10,10,0,0,0,1-7l-2-3h-3a6,6,0,0,0-5,2l-2,3v3a11,11,0,0,0,0,3v3l2,5h-2l-6,2H154l2-2,2-3a14,14,0,0,0,2-7v-3H149l-2,3a11,11,0,0,0-1,6v5l2,3h-1l-6,2h-8l-7-2-4-3h-1l4-3,5-5,2-3h0v-2a7,7,0,0,0,0-3l-2-3h-8l-3,2-2,2v3a13,13,0,0,0,0,5v4H108l-7-2-4-2h0l-3-3h2l6-5v-3a9,9,0,0,0,0-3v-3l-2-2H94l-4,4a9,9,0,0,0-1,5,17,17,0,0,0,2,6H77l-4-3-3-3h0l-2-3h3l6-4a13,13,0,0,0,3-6,8,8,0,0,0-1-6l-2-2H68l-2,2v3a18,18,0,0,0-1,6,18,18,0,0,0,0,3v3H52l-3-2-4-4-3-6v-3h6l3-2,2-2v-3h0v-2H46l-5,3-2,5a14,14,0,0,0,0,5H30l-3-2-3-3-2-4v-4a16,16,0,0,1,0-4H34v-2a5,5,0,0,0,0-4v-2H29m1,2h2a4,4,0,0,1,0,1H22v-2l3-3h4m-16,6h0m34,9h2a7,7,0,0,1,0,1v4l-2,2-3,2H40a16,16,0,0,1,0-4v-4l2-2h6m-5,2h0m0,0h0m-1,1h0m-1,2h0m-17,0h0m50,8h3a9,9,0,0,1,0,2v5l-2,2-3,2H66a19,19,0,0,1,0-5v-6h5m3,1h0m-34,1h0m25,1h0m-1,4h0m32,4h3a9,9,0,0,1,0,2v5l-3,3-4,2v-6a11,11,0,0,1,0-3v-2h8m-4,1h0m6,1h0m-32,1h0m22,2h0m38,1h4a7,7,0,0,1,0,1v4l-4,4-5,3v-5a12,12,0,0,1,0-3v-5l2-2h5m-38,0h0m40,1h0m-40,1h0m9,1h0m55,0h3a10,10,0,0,1,0,2v4l-3,5-2,2h0l-2-2v-5a8,8,0,0,1,0-2v-7h3m27,0h3a8,8,0,0,1,0,2v3l-3,5-3,3h0l-2-3v-3a13,13,0,0,1,0-3v-5h4m1,0h0m26,0h4a10,10,0,0,1,0,2v4l-3,5h-2v-6a9,9,0,0,1,0-2v-4h3m-76,1h0m-59,0h0m24,0h0m81,0h0m-29,2h0m27,0h0m-82,2h0m54,1h0Zm9,2h0m0,0h0m-8,3h0m-47,1h0m52,1h0m24,2h0Zm27,2h0m-50,0h0m0,0h0m28,2h0m18,0h0M97,272h0M69,260h0"/><path class="cls-12" d="M11,222a3,3,0,1,0,3-3,3,3,0,0,0-3,3"/><path class="cls-12" d="M28,232a3,3,0,1,0,3-3,3,3,0,0,0-3,3"/><path class="cls-12" d="M43,220a3,3,0,1,0,3-3,3,3,0,0,0-3,3"/><path class="cls-12" d="M41,258a3,3,0,1,0,3-3,3,3,0,0,0-3,3"/><path class="cls-12" d="M70,234a3,3,0,1,0,3-3,3,3,0,0,0-3,3"/><path class="cls-12" d="M80,263a3,3,0,1,0,3-3,3,3,0,0,0-3,3"/><path class="cls-12" d="M100,248a3,3,0,1,0,3-3,3,3,0,0,0-3,3"/><path class="cls-12" d="M109,282a3,3,0,1,0,3-3,3,3,0,0,0-3,3"/><path class="cls-12" d="M113,257a3,3,0,1,0,3-3,3,3,0,0,0-3,3"/><path class="cls-12" d="M132,272a3,3,0,1,0,3-3,3,3,0,0,0-3,3"/><path class="cls-12" d="M144,258a3,3,0,1,0,3-3,3,3,0,0,0-3,3"/><path class="cls-12" d="M167,287a3,3,0,1,0,3-3,3,3,0,0,0-3,3"/><path class="cls-12" d="M171,258a3,3,0,1,0,3-3,3,3,0,0,0-3,3"/><path class="cls-12" d="M195,259a3,3,0,1,0,3-3,3,3,0,0,0-3,3"/><path class="cls-12" d="M215,266a3,3,0,1,0,3-3,3,3,0,0,0-3,3"/><path class="cls-13" d="M38,206a3,3,0,1,0,3,3,3,3,0,0,0-3-3"/><path class="cls-13" d="M54,235a3,3,0,1,0,3,3,3,3,0,0,0-3-3"/><path class="cls-13" d="M71,266a3,3,0,1,0,3,3,3,3,0,0,0-3-3"/><path class="cls-13" d="M80,249a3,3,0,1,0,3,3,3,3,0,0,0-3-3"/><path class="cls-13" d="M104,262a3,3,0,1,0,3,3,3,3,0,0,0-3-3"/><path class="cls-13" d="M134,250a3,3,0,1,0,3,3,3,3,0,0,0-3-3"/><path class="cls-13" d="M147,283a3,3,0,1,0,3,3,3,3,0,0,0-3-3"/><path class="cls-13" d="M163,268a3,3,0,1,0,3,3,3,3,0,0,0-3-3"/><path class="cls-13" d="M189,270a3,3,0,1,0,3,3,3,3,0,0,0-3-3"/><path class="cls-13" d="M205,283a3,3,0,1,0,3,3,3,3,0,0,0-3-3"/><path class="cls-13" d="M232,275a3,3,0,1,0,3,3,3,3,0,0,0-3-3"/></g></g></svg>