<svg xmlns="http://www.w3.org/2000/svg" viewBox="0 0 191 233"><defs><style>.cls-1{fill:#3f6631;}.cls-2{fill:#666665;}.cls-3{fill:#558635;}.cls-4{fill:#6e9c3a;}.cls-5{fill:#91ba3a;}.cls-6{fill:#666568;}.cls-7{fill:#5b5b5f;}.cls-8{opacity:0.2;}.cls-9{fill:#f4ef90;}</style></defs><title>Ресурс 4</title><g id="Слой_2" data-name="Слой 2"><g id="layer1"><path class="cls-1" d="M91,64,1,195a5,5,0,0,0,4,8H186a5,5,0,0,0,4-8L100,64A5,5,0,0,0,91,64Z"/><path class="cls-2" d="M176,179h-1l-6,3h0l-18,6h0l-16,2H117l-17-3H98l-18-6-17-8h0l-14-9-9-9H39c5,7,13,13,23,19l15,7,17,6h6l12,2h37l15-4,11-5h-1"/><path class="cls-3" d="M91,38,19,143a5,5,0,0,0,4,8H168a5,5,0,0,0,4-8L100,38A5,5,0,0,0,91,38Z"/><path class="cls-2" d="M141,105h-1l-3,4h0l-11,11h0l-11,7-14,6h0l-13,4H87l-15,3H57l-13-2-10-3H32c6,3,15,5,24,5H70l15-2h5l10-3,14-6,13-8,10-9,6-8a0,0,0,0,0,0,0h-1"/><path class="cls-4" d="M91,19,32,104a5,5,0,0,0,4,8H155a5,5,0,0,0,4-8L100,19A5,5,0,0,0,91,19Z"/><path class="cls-2" d="M143,86h-1l-4,3h0l-11,6h0l-10,3H95L84,94,73,88h0l-8-7-5-7H58A45,45,0,0,0,72,89l9,5,11,3h23l12-2,10-5,7-5h-1"/><path class="cls-5" d="M91,2,47,66a5,5,0,0,0,4,8h88a5,5,0,0,0,4-8L100,2A5,5,0,0,0,91,2Z"/><path class="cls-2" d="M121,36h-1l-2,3h0l-6,7h0l-6,5-8,4h0l-8,2H72l-8-2-6-3H58a35,35,0,0,0,14,5H91l6-2,8-4,8-5,6-6,4-6h-1"/><rect class="cls-6" x="60" y="202" width="70" height="30.61" rx="1" ry="1"/><polygon class="cls-7" points="130 203 60 211 60 203 130 203"/><polygon class="cls-8" points="137 74 46 84 54 74 137 74"/><polygon class="cls-8" points="151 112 32 123 40 112 151 112"/><polygon class="cls-8" points="160 151 24 162 31 151 160 151"/><circle class="cls-9" cx="115" cy="41" r="2" transform="translate(7 98) rotate(-47)"/><circle class="cls-9" cx="110" cy="52" r="2" transform="translate(-3 98) rotate(-47)"/><circle class="cls-9" cx="96" cy="54" r="2" transform="translate(-9 88) rotate(-47)"/><circle class="cls-9" cx="84" cy="61" r="2" transform="translate(-18 82) rotate(-47)"/><circle class="cls-9" cx="59" cy="57" r="2" transform="translate(-23 62) rotate(-47)"/><circle class="cls-9" cx="72" cy="56" r="2" transform="translate(-18 71) rotate(-47)"/></g></g></svg>