<svg xmlns="http://www.w3.org/2000/svg" viewBox="0 0 191 232"><defs><style>.cls-1{fill:#666568;}.cls-2{fill:#5b5b5f;}.cls-3{fill:#3f6631;}.cls-4{fill:#558635;}.cls-5{fill:#6e9c3a;}.cls-6{fill:#91ba3a;}.cls-7{opacity:0.2;}.cls-8{fill:#f4ef90;}</style></defs><title>Ресурс 6</title><g id="Слой_2" data-name="Слой 2"><g id="layer1"><rect class="cls-1" x="60" y="201" width="70" height="30.61" rx="1" ry="1"/><polygon class="cls-2" points="130 202 60 210 60 202 130 202"/><path class="cls-3" d="M91,64,1,195a5,5,0,0,0,4,8H186a5,5,0,0,0,4-8L100,64A5,5,0,0,0,91,64Z"/><path class="cls-4" d="M91,38,19,143a5,5,0,0,0,4,8H168a5,5,0,0,0,4-8L100,38A5,5,0,0,0,91,38Z"/><path class="cls-5" d="M91,19,32,104a5,5,0,0,0,4,8H155a5,5,0,0,0,4-8L100,19A5,5,0,0,0,91,19Z"/><path class="cls-6" d="M91,2,47,66a5,5,0,0,0,4,8h88a5,5,0,0,0,4-8L100,2A5,5,0,0,0,91,2Z"/><polygon class="cls-7" points="137 74 46 84 54 74 137 74"/><polygon class="cls-7" points="151 112 32 123 40 112 151 112"/><polygon class="cls-7" points="160 151 24 162 31 151 160 151"/><circle class="cls-8" cx="171" cy="191" r="2" transform="translate(-69 102) rotate(-28)"/><circle class="cls-8" cx="157" cy="179" r="2" transform="translate(-65 94) rotate(-28)"/><circle class="cls-8" cx="133" cy="121" r="2" transform="translate(-46 137) rotate(-47)"/><circle class="cls-8" cx="152" cy="127" r="2" transform="translate(-44 153) rotate(-47)"/><circle class="cls-8" cx="50" cy="143" r="2" transform="translate(-89 82) rotate(-47)"/><circle class="cls-8" cx="113" cy="123" r="2" transform="translate(-54 123) rotate(-47)"/><circle class="cls-8" cx="128" cy="131" r="2" transform="translate(-55 136) rotate(-47)"/><circle class="cls-8" cx="110" cy="134" r="2" transform="translate(-63 124) rotate(-47)"/><circle class="cls-8" cx="97" cy="129" r="2" transform="translate(-63 113) rotate(-47)"/><circle class="cls-8" cx="86" cy="139" r="2" transform="translate(-74 108) rotate(-47)"/><circle class="cls-8" cx="81" cy="128" r="2" transform="translate(-68 101) rotate(-47)"/><circle class="cls-8" cx="72" cy="139" r="2" transform="translate(-79 98) rotate(-47)"/><circle class="cls-8" cx="36" cy="140" r="2" transform="translate(-91 71) rotate(-47)"/><circle class="cls-8" cx="62" cy="133" r="2" transform="translate(-78 89) rotate(-47)"/><circle class="cls-8" cx="59" cy="94" r="2" transform="translate(-33 32) rotate(-24)"/><circle class="cls-8" cx="132" cy="97" r="2" transform="translate(-28 61) rotate(-24)"/><circle class="cls-8" cx="143" cy="104" r="2" transform="translate(-30 66) rotate(-24)"/><circle class="cls-8" cx="122" cy="102" r="2" transform="translate(-31 57) rotate(-24)"/><circle class="cls-8" cx="115" cy="93" r="2" transform="translate(-28 54) rotate(-24)"/><circle class="cls-8" cx="103" cy="101" r="2" transform="translate(-32 50) rotate(-24)"/><circle class="cls-8" cx="91" cy="93" r="2" transform="translate(-30 44) rotate(-24)"/><circle class="cls-8" cx="77" cy="97" r="2" transform="translate(-32 39) rotate(-24)"/><circle class="cls-8" cx="55" cy="84" r="2" transform="translate(-29 29) rotate(-24)"/><circle class="cls-8" cx="70" cy="88" r="2" transform="translate(-30 36) rotate(-24)"/><circle class="cls-8" cx="115" cy="41" r="2" transform="translate(7 98) rotate(-47)"/><circle class="cls-8" cx="110" cy="52" r="2" transform="translate(-3 98) rotate(-47)"/><circle class="cls-8" cx="96" cy="54" r="2" transform="translate(-9 88) rotate(-47)"/><circle class="cls-8" cx="84" cy="61" r="2" transform="translate(-18 82) rotate(-47)"/><circle class="cls-8" cx="59" cy="57" r="2" transform="translate(-23 62) rotate(-47)"/><circle class="cls-8" cx="72" cy="56" r="2" transform="translate(-18 71) rotate(-47)"/><circle class="cls-8" cx="51" cy="175" r="2" transform="translate(-76 44) rotate(-28)"/><circle class="cls-8" cx="35" cy="163" r="2" transform="translate(-72 35) rotate(-28)"/><circle class="cls-8" cx="137" cy="182" r="2" transform="translate(-69 85) rotate(-28)"/><circle class="cls-8" cx="70" cy="179" r="2" transform="translate(-76 54) rotate(-28)"/><circle class="cls-8" cx="59" cy="167" r="2" transform="translate(-71 47) rotate(-28)"/><circle class="cls-8" cx="77" cy="170" r="2" transform="translate(-70 56) rotate(-28)"/><circle class="cls-8" cx="88" cy="179" r="2" transform="translate(-73 62) rotate(-28)"/><circle class="cls-8" cx="101" cy="173" r="2" transform="translate(-69 67) rotate(-28)"/><circle class="cls-8" cx="103" cy="185" r="2" transform="translate(-74 69) rotate(-28)"/><circle class="cls-8" cx="114" cy="177" r="2" transform="translate(-70 74) rotate(-28)"/><circle class="cls-8" cx="149" cy="189" r="2" transform="translate(-71 91) rotate(-28)"/><circle class="cls-8" cx="121" cy="186" r="2" transform="translate(-73 78) rotate(-28)"/></g></g></svg>