<svg xmlns="http://www.w3.org/2000/svg" viewBox="0 0 60.1 60"><defs><style>.cls-1{isolation:isolate;}.cls-2,.cls-5,.cls-6,.cls-7,.cls-9{fill:#4b9cbc;}.cls-3,.cls-4{fill:#e8c34b;}.cls-4{stroke:red;stroke-miterlimit:10;stroke-width:0.25px;}.cls-5,.cls-6{mix-blend-mode:multiply;}.cls-6,.cls-7,.cls-8{opacity:0.5;}.cls-7,.cls-8,.cls-9{mix-blend-mode:screen;}</style></defs><title>Ресурс 3</title><g class="cls-1"><g id="Слой_2" data-name="Слой 2"><g id="Слой_1-2" data-name="Слой 1"><path class="cls-2" d="M22,58.9A30,30,0,1,1,59,38.1,30,30,0,0,1,22,58.9"/><path class="cls-3" d="M24.9,56.9l-1.2-8.1L18,54.7l-6.3-1A29.9,29.9,0,0,0,22,58.9"/><path class="cls-3" d="M59.9,33.9h-.2l-1.2-8.1-5.6,5.9-8-1.3,3.8,7.2-3.7,7.2,8-1.4L55.5,46A30,30,0,0,0,59,38.1,30.4,30.4,0,0,0,59.9,33.9Z"/><path class="cls-4" d="M8.7,26.9l7.3-3.7L8.6,19.7,7.4,11.6,4.2,14.9A30.2,30.2,0,0,0,.1,29.5l1.7-.3L7.5,35Z"/><polygon class="cls-3" points="27 25.3 19 24 22.8 31.2 19.1 38.4 27.1 37 32.8 42.8 34 34.7 41.3 31 33.9 27.5 32.7 19.4 27 25.3"/><polygon class="cls-5" points="23.8 4.2 24.5 8.8 28.7 10.8 24.6 12.8 23.9 17.4 20.7 14.1 16.2 14.9 18.3 10.8 16.1 6.8 20.6 7.5 23.8 4.2"/><polygon class="cls-5" points="48.5 12.5 49.2 17 53.4 19 49.2 21.1 48.6 25.6 45.4 22.3 40.9 23.2 43 19.1 40.8 15 45.3 15.8 48.5 12.5"/><polyline class="cls-5" points="32 55.7 34.1 51.6 31.9 47.6 36.5 48.3 39.6 45 40.3 49.6 44.5 51.6 40.4 53.6 39.7 58.2"/><polyline class="cls-5" points="39.7 58.2 36.5 54.9 32 55.7"/><polygon class="cls-5" points="14.2 36.8 14.8 41.4 19 43.4 14.9 45.4 14.2 50 11 46.7 6.5 47.5 8.6 43.4 6.4 39.4 11 40.1 14.2 36.8"/><path class="cls-6" d="M22,58.9a30,30,0,0,0,18.6-57A24,24,0,1,1,3.3,16.5,30,30,0,0,0,22,58.9"/><path class="cls-7" d="M39.6,4.5a27.3,27.3,0,0,1,3.8,1.8,21.9,21.9,0,0,1,2.2,4.6A21.8,21.8,0,0,0,39.6,4.5Z"/><path class="cls-7" d="M6.5,29.3a21.6,21.6,0,0,1-.7-11.6,27.5,27.5,0,0,0-1.9,4.9V23A21.8,21.8,0,0,0,6.5,29.3Z"/><path class="cls-7" d="M22.8,56.2a27.2,27.2,0,0,0,30.9-40A27.2,27.2,0,0,1,4.5,39.3,27.2,27.2,0,0,0,22.8,56.2"/><g class="cls-8"><ellipse class="cls-9" cx="22.7" cy="8.4" rx="6.5" ry="2.9" transform="translate(-1.5 7.1) rotate(-17.1)"/><ellipse class="cls-9" cx="11.4" cy="14.8" rx="3.9" ry="1.7" transform="translate(-6.4 9) rotate(-34.5)"/></g><circle class="cls-7" cx="24.3" cy="21.6" r="18.3" transform="translate(-3.1 39.2) rotate(-74.3)"/></g></g></g></svg>