<svg xmlns="http://www.w3.org/2000/svg" viewBox="0 0 191 233"><defs><style>.cls-1{fill:#3f6631;}.cls-2{fill:#558635;}.cls-3{fill:#6e9c3a;}.cls-4{fill:#91ba3a;}.cls-5{fill:#666568;}.cls-6{fill:#5b5b5f;}.cls-7{opacity:0.2;}.cls-8{fill:#f4ef90;}</style></defs><title>Ресурс 5</title><g id="Слой_2" data-name="Слой 2"><g id="layer1"><path class="cls-1" d="M91,64,1,195a5,5,0,0,0,4,8H186a5,5,0,0,0,4-8L100,64A5,5,0,0,0,91,64Z"/><path class="cls-2" d="M91,38,19,143a5,5,0,0,0,4,8H168a5,5,0,0,0,4-8L100,38A5,5,0,0,0,91,38Z"/><path class="cls-3" d="M91,19,32,104a5,5,0,0,0,4,8H155a5,5,0,0,0,4-8L100,19A5,5,0,0,0,91,19Z"/><path class="cls-4" d="M91,2,47,66a5,5,0,0,0,4,8h88a5,5,0,0,0,4-8L100,2A5,5,0,0,0,91,2Z"/><rect class="cls-5" x="60" y="202" width="70" height="30.61" rx="1" ry="1"/><polygon class="cls-6" points="130 203 60 211 60 203 130 203"/><polygon class="cls-7" points="137 74 46 84 54 74 137 74"/><polygon class="cls-7" points="151 112 32 123 40 112 151 112"/><polygon class="cls-7" points="160 151 24 162 31 151 160 151"/><circle class="cls-8" cx="115" cy="41" r="2" transform="translate(7 98) rotate(-47)"/><circle class="cls-8" cx="110" cy="52" r="2" transform="translate(-3 98) rotate(-47)"/><circle class="cls-8" cx="96" cy="54" r="2" transform="translate(-9 88) rotate(-47)"/><circle class="cls-8" cx="84" cy="61" r="2" transform="translate(-18 82) rotate(-47)"/><circle class="cls-8" cx="59" cy="57" r="2" transform="translate(-23 62) rotate(-47)"/><circle class="cls-8" cx="72" cy="56" r="2" transform="translate(-18 71) rotate(-47)"/></g></g></svg>