<svg xmlns="http://www.w3.org/2000/svg" viewBox="0 0 60 60"><defs><style>.cls-1{isolation:isolate;}.cls-2,.cls-4,.cls-5,.cls-6,.cls-8{fill:#4b9cbc;}.cls-3{fill:#e8c34b;}.cls-4,.cls-5{mix-blend-mode:multiply;}.cls-5,.cls-6,.cls-7{opacity:0.5;}.cls-6,.cls-7,.cls-8{mix-blend-mode:screen;}</style></defs><title>Ресурс 1</title><g class="cls-1"><g id="Слой_2" data-name="Слой 2"><g id="Слой_1-2" data-name="Слой 1"><path class="cls-2" d="M22,59A30,30,0,1,1,59,38,30,30,0,0,1,22,59"/><path class="cls-3" d="M25,57V49l-6,6H12l10,5"/><path class="cls-3" d="M60,34h0V26l-6,6H45l4,7-4,7h8l3,3a30,30,0,0,0,4-8Z"/><path class="cls-3" d="M9,27l7-4L8,20V12L4,15,1,22a30,30,0,0,0-1,8H2l6,6Z"/><polygon class="cls-3" points="27 25 19 24 23 31 19 38 27 37 33 43 34 35 41 31 34 27 33 19 27 25"/><polygon class="cls-4" points="24 4 24 9 29 11 24 13 24 17 21 14 16 15 18 11 16 7 21 8 24 4"/><polygon class="cls-4" points="48 12 49 17 53 19 49 21 48 26 45 22 41 23 43 19 41 15 45 16 48 12"/><polyline class="cls-4" points="32 56 34 52 32 48 36 48 40 45 40 50 44 52 40 54 40 58"/><polyline class="cls-4" points="40 58 36 55 32 56"/><polygon class="cls-4" points="14 37 15 41 19 43 15 45 14 50 11 47 6 48 8 43 6 39 11 40 14 37"/><path class="cls-5" d="M22,59A30,30,0,0,0,40,2,24,24,0,1,1,3,17L1,22A30,30,0,0,0,22,59"/><path class="cls-6" d="M40,4l4,2,2,5Z"/><path class="cls-6" d="M6,29A22,22,0,0,1,6,18L4,23H4Z"/><path class="cls-6" d="M23,56A27,27,0,0,0,53,16,27,27,0,0,1,4,39,27,27,0,0,0,23,56"/><g class="cls-7"><ellipse class="cls-8" cx="23" cy="8" rx="6" ry="3" transform="translate(-1 7) rotate(-17)"/><ellipse class="cls-8" cx="11" cy="15" rx="4" ry="2" transform="translate(-6 9) rotate(-35)"/></g><circle class="cls-6" cx="24" cy="22" r="18" transform="translate(-3 39) rotate(-74)"/></g></g></g></svg>