<svg xmlns="http://www.w3.org/2000/svg" viewBox="0 0 60 60"><defs><style>.cls-1{isolation:isolate;}.cls-2,.cls-4,.cls-5,.cls-6,.cls-8{fill:#4b9cbc;}.cls-3{fill:#e8c34b;}.cls-4,.cls-5{mix-blend-mode:multiply;}.cls-5,.cls-6,.cls-7{opacity:0.5;}.cls-6,.cls-7,.cls-8{mix-blend-mode:screen;}</style></defs><title>Ресурс 2</title><g class="cls-1"><g id="Слой_2" data-name="Слой 2"><g id="Слой_1-2" data-name="Слой 1"><path class="cls-2" d="M21.9,58.9a30,30,0,1,1,37-20.8,30,30,0,0,1-37,20.8"/><path class="cls-3" d="M24.8,56.9l-1.2-8.1-5.7,5.9-6.3-1a29.9,29.9,0,0,0,10.3,5.2"/><path class="cls-3" d="M59.7,33.9h-.2l-1.2-8.1-5.6,5.9-8-1.3,3.8,7.2-3.7,7.2,8-1.4L55.4,46a30,30,0,0,0,3.5-7.9A30.4,30.4,0,0,0,59.7,33.9Z"/><path class="cls-3" d="M8.5,26.9l7.3-3.7L8.5,19.7,7.2,11.6,4.1,14.9A30.2,30.2,0,0,0,0,29.5l1.7-.3L7.4,35Z"/><polygon class="cls-3" points="26.9 25.3 18.9 24 22.7 31.2 19 38.4 27 37 32.7 42.8 33.8 34.7 41.1 31 33.8 27.5 32.6 19.4 26.9 25.3"/><polygon class="cls-4" points="23.7 4.2 24.4 8.8 28.5 10.8 24.4 12.8 23.8 17.4 20.6 14.1 16.1 14.9 18.2 10.8 16 6.8 20.5 7.5 23.7 4.2"/><polygon class="cls-4" points="48.4 12.5 49.1 17 53.2 19 49.1 21.1 48.5 25.6 45.3 22.3 40.7 23.2 42.9 19.1 40.7 15 45.2 15.8 48.4 12.5"/><polyline class="cls-4" points="31.9 55.7 34 51.6 31.8 47.6 36.3 48.3 39.5 45 40.2 49.6 44.3 51.6 40.2 53.6 39.6 58.2"/><polyline class="cls-4" points="39.6 58.2 36.4 54.9 31.9 55.7"/><polygon class="cls-4" points="14 36.8 14.7 41.4 18.9 43.4 14.8 45.4 14.1 50 10.9 46.7 6.4 47.5 8.5 43.4 6.3 39.4 10.9 40.1 14 36.8"/><path class="cls-5" d="M21.9,58.9a30,30,0,0,0,18.6-57A24,24,0,1,1,3.2,16.5,30,30,0,0,0,21.9,58.9"/><path class="cls-6" d="M39.5,4.5a27.3,27.3,0,0,1,3.8,1.8,21.9,21.9,0,0,1,2.2,4.6A21.8,21.8,0,0,0,39.5,4.5Z"/><path class="cls-6" d="M6.4,29.3a21.6,21.6,0,0,1-.7-11.6,27.5,27.5,0,0,0-1.9,4.9V23A21.8,21.8,0,0,0,6.4,29.3Z"/><path class="cls-6" d="M22.6,56.2a27.2,27.2,0,0,0,30.9-40A27.2,27.2,0,0,1,4.4,39.3,27.2,27.2,0,0,0,22.6,56.2"/><g class="cls-7"><ellipse class="cls-8" cx="22.6" cy="8.4" rx="6.5" ry="2.9" transform="translate(-1.5 7) rotate(-17.1)"/><ellipse class="cls-8" cx="11.2" cy="14.8" rx="3.9" ry="1.7" transform="translate(-6.4 9) rotate(-34.5)"/></g><circle class="cls-6" cx="24.2" cy="21.6" r="18.3" transform="translate(-3.2 39.1) rotate(-74.3)"/></g></g></g></svg>