<svg xmlns="http://www.w3.org/2000/svg" viewBox="0 0 200 230"><defs><style>.cls-1{fill:#666568;}.cls-2{fill:#5b5b5f;}.cls-3{fill:#3f6631;}.cls-4{fill:#558635;}.cls-5{fill:#6e9c3a;}.cls-6{fill:#91ba3a;}.cls-7{opacity:0.2;}.cls-8{fill:#f4ef90;}</style></defs><title>Ресурс 8</title><g id="Слой_2" data-name="Слой 2"><g id="layer1"><rect class="cls-1" x="63" y="200" width="73" height="30.37" rx="1" ry="1"/><polygon class="cls-2" points="137 201 63 208 63 201 137 201"/><path class="cls-3" d="M96,63,1,193a5,5,0,0,0,4,8H195a5,5,0,0,0,4-8L104,63A5,5,0,0,0,96,63Z"/><path class="cls-4" d="M96,37,19,142a5,5,0,0,0,4,8H176a5,5,0,0,0,4-8L104,37A5,5,0,0,0,96,37Z"/><path class="cls-5" d="M96,19,34,104a5,5,0,0,0,4,8H162a5,5,0,0,0,4-8L104,19A5,5,0,0,0,96,19Z"/><path class="cls-6" d="M96,2,50,65a5,5,0,0,0,4,8h92a5,5,0,0,0,4-8L104,2A5,5,0,0,0,96,2Z"/><polygon class="cls-7" points="144 73 48 84 56 73 144 73"/><polygon class="cls-7" points="158 111 34 122 42 111 158 111"/><polygon class="cls-7" points="167 150 25 160 33 150 167 150"/></g><g id="layer2"><path class="cls-8" d="M141,121h-3a2,2,0,0,1,0-3h3A2,2,0,0,1,141,121Z"/><path class="cls-8" d="M161,127h-3a2,2,0,0,1,0-3h3A2,2,0,0,1,161,127Z"/><path class="cls-8" d="M54,143H51a2,2,0,0,1,0-3h3A2,2,0,0,1,54,143Z"/><path class="cls-8" d="M120,123h-3a2,2,0,0,1,0-3h3A2,2,0,0,1,120,123Z"/><path class="cls-8" d="M135,131h-3a2,2,0,0,1,0-3h3A2,2,0,0,1,135,131Z"/><path class="cls-8" d="M117,135h-3a2,2,0,0,1,0-3h3A2,2,0,0,1,117,135Z"/><path class="cls-8" d="M103,129h-3a2,2,0,0,1,0-3h3A2,2,0,0,1,103,129Z"/><path class="cls-8" d="M92,139H90a2,2,0,0,1,0-3h3A2,2,0,0,1,92,139Z"/><path class="cls-8" d="M86,129H83a2,2,0,0,1,0-3h3A2,2,0,0,1,86,129Z"/><path class="cls-8" d="M77,140H74a2,2,0,0,1,0-3h3A2,2,0,0,1,77,140Z"/><path class="cls-8" d="M39,140H36a2,2,0,0,1,0-3h3A2,2,0,0,1,39,140Z"/><path class="cls-8" d="M67,134H64a2,2,0,0,1,0-3h3A2,2,0,0,1,67,134Z"/><path class="cls-8" d="M63,95H61a2,2,0,0,1,1-3h3A2,2,0,0,1,63,95Z"/><path class="cls-8" d="M139,98h-3a2,2,0,0,1,1-3h3A2,2,0,0,1,139,98Z"/><path class="cls-8" d="M150,105h-3a2,2,0,0,1,1-3h3A2,2,0,0,1,150,105Z"/><path class="cls-8" d="M128,103h-3a2,2,0,0,1,1-3h3A2,2,0,0,1,128,103Z"/><path class="cls-8" d="M121,95h-3a2,2,0,0,1,1-3h3A2,2,0,0,1,121,95Z"/><path class="cls-8" d="M109,101h-3a2,2,0,0,1,1-3h3A2,2,0,0,1,109,101Z"/><path class="cls-8" d="M96,94H93a2,2,0,0,1,1-3h3A2,2,0,0,1,96,94Z"/><path class="cls-8" d="M82,97H80a2,2,0,0,1,1-3h3A2,2,0,0,1,82,97Z"/><path class="cls-8" d="M58,86H55a2,2,0,0,1,1-3h3A2,2,0,0,1,58,86Z"/><path class="cls-8" d="M75,90H72a2,2,0,0,1,1-3h3A2,2,0,0,1,75,90Z"/><path class="cls-8" d="M122,42h-3a2,2,0,0,1,0-3h3A2,2,0,0,1,122,42Z"/><path class="cls-8" d="M117,53h-3a2,2,0,0,1,0-3h3A2,2,0,0,1,117,53Z"/><path class="cls-8" d="M102,55H99a2,2,0,0,1,0-3h3A2,2,0,0,1,102,55Z"/><path class="cls-8" d="M90,62H87a2,2,0,0,1,0-3h3A2,2,0,0,1,90,62Z"/><path class="cls-8" d="M64,58H61a2,2,0,0,1,0-3h3A2,2,0,0,1,64,58Z"/><path class="cls-8" d="M78,57H75a2,2,0,0,1,0-3h3A2,2,0,0,1,78,57Z"/><path class="cls-8" d="M52,172h3a2,2,0,0,1-1,3H52A2,2,0,0,1,52,172Z"/><path class="cls-8" d="M36,160h3a2,2,0,0,1-1,3H35A2,2,0,0,1,36,160Z"/><path class="cls-8" d="M142,179h3a2,2,0,0,1-1,3h-3A2,2,0,0,1,142,179Z"/><path class="cls-8" d="M73,176h3a2,2,0,0,1-1,3H72A2,2,0,0,1,73,176Z"/><path class="cls-8" d="M61,164h3a2,2,0,0,1-1,3H60A2,2,0,0,1,61,164Z"/><path class="cls-8" d="M80,167h3a2,2,0,0,1-1,3H79A2,2,0,0,1,80,167Z"/><path class="cls-8" d="M91,176h3a2,2,0,0,1-1,3H90A2,2,0,0,1,91,176Z"/><path class="cls-8" d="M105,170h3a2,2,0,0,1-1,3h-3A2,2,0,0,1,105,170Z"/><path class="cls-8" d="M106,182h3a2,2,0,0,1-1,3h-3A2,2,0,0,1,106,182Z"/><path class="cls-8" d="M119,174h3a2,2,0,0,1-1,3h-3A2,2,0,0,1,119,174Z"/><path class="cls-8" d="M155,186h3a2,2,0,0,1-1,3h-3A2,2,0,0,1,155,186Z"/><path class="cls-8" d="M126,183h3a2,2,0,0,1-1,3h-3A2,2,0,0,1,126,183Z"/><path class="cls-8" d="M178,187h3a2,2,0,0,1-1,3h-3A2,2,0,0,1,178,187Z"/><path class="cls-8" d="M163,176h3a2,2,0,0,1-1,3h-3A2,2,0,0,1,163,176Z"/></g></g></svg>